<svg id="card" width="391" height="290" xmlns="http://www.w3.org/2000/svg"><defs><linearGradient x1="37.284%" y1="117.947%" x2="62.326%" y2="-17.361%" id="a"><stop stop-color="gray" stop-opacity=".25" offset="0%"/><stop stop-color="gray" stop-opacity=".12" offset="54%"/><stop stop-color="gray" stop-opacity=".1" offset="100%"/></linearGradient><linearGradient x1="49.999%" y1="100%" x2="49.999%" y2="0%" id="b"><stop stop-color="gray" stop-opacity=".25" offset="0%"/><stop stop-color="gray" stop-opacity=".12" offset="54%"/><stop stop-color="gray" stop-opacity=".1" offset="100%"/></linearGradient><linearGradient x1="49.991%" y1="100%" x2="49.991%" y2="0%" id="c"><stop stop-opacity=".12" offset="0%"/><stop stop-opacity=".09" offset="55%"/><stop stop-opacity=".02" offset="100%"/></linearGradient><linearGradient x1="49.982%" y1="100.093%" x2="49.982%" y2=".07%" id="d"><stop stop-opacity=".12" offset="0%"/><stop stop-opacity=".09" offset="55%"/><stop stop-opacity=".02" offset="100%"/></linearGradient><linearGradient x1="50%" y1="100%" x2="50%" y2="0%" id="e"><stop stop-opacity=".12" offset="0%"/><stop stop-opacity=".09" offset="55%"/><stop stop-opacity=".02" offset="100%"/></linearGradient><linearGradient x1="49.928%" y1="100%" x2="49.928%" y2=".07%" id="f"><stop stop-opacity=".12" offset="0%"/><stop stop-opacity=".09" offset="55%"/><stop stop-opacity=".02" offset="100%"/></linearGradient><linearGradient x1="49.928%" y1="100%" x2="49.928%" y2="0%" id="g"><stop stop-opacity=".12" offset="0%"/><stop stop-opacity=".09" offset="55%"/><stop stop-opacity=".02" offset="100%"/></linearGradient><linearGradient x1="50.022%" y1="100%" x2="50.022%" y2="0%" id="h"><stop stop-opacity=".12" offset="0%"/><stop stop-opacity=".09" offset="55%"/><stop stop-opacity=".02" offset="100%"/></linearGradient></defs><g transform="translate(-3 -4)" fill="none" fill-rule="evenodd"><path d="M32.956 42.83l287.49.078c6.49.002 11.751 5.263 11.753 11.753l.053 166.293c.002 6.492-5.26 11.756-11.752 11.758h-.006l-287.49-.084c-6.49-.001-11.751-5.262-11.753-11.752l-.053-166.293c-.002-6.492 5.26-11.757 11.752-11.758h.006z" fill="url(#a)" transform="rotate(-17.26 176.725 137.768)"/><path d="M15.9 90.39L284.41 7.044c6.198-1.924 12.783 1.539 14.71 7.736l47.397 152.374c1.927 6.2-1.535 12.788-7.735 14.716l-.005.002-268.512 83.34c-6.198 1.924-12.783-1.539-14.71-7.736L8.158 105.102c-1.927-6.2 1.535-12.788 7.735-14.716l.005-.002z" stroke="#4B507D" stroke-width="1.295" fill="#7980CA"/><path fill="#4B507D" d="M11.834 116.915l290.962-90.322 7.797 25.072L19.63 141.987z"/><path fill="#BDBFD3" d="M71.984 229.023l73.927-22.949 3.371 10.842-73.926 22.949z"/><path fill="#F6F6F6" d="M66.292 210.725l128.185-39.792 3.371 10.842-128.184 39.792z"/><rect fill="url(#b)" x="81.088" y="103.716" width="312.78" height="189.977" rx="11.755"/><rect stroke="#4B507D" stroke-width="1.295" fill="#7980CA" x="84.64" y="105.653" width="304.682" height="183.072" rx="11.755"/><path fill="#F6F6F6" d="M108.429 134.39h8.879v25.189h-8.879zM119.792 134.39h8.879v25.189h-8.879zM131.155 134.39h8.879v25.189h-8.879zM151.043 134.39h8.879v25.189h-8.879zM162.407 134.39h8.879v25.189h-8.879zM173.77 134.39h8.879v25.189h-8.879zM193.653 134.39h8.879v25.189h-8.879zM205.021 134.39h8.879v25.189h-8.879zM216.384 134.39h8.879v25.189h-8.879zM236.268 134.39h8.879v25.189h-8.879zM247.631 134.39h8.879v25.189h-8.879zM258.994 134.39h8.879v25.189h-8.879z"/><path fill="#BDBFD3" d="M108.429 261.403h77.413v11.353h-77.413z"/><path fill="#F6F6F6" d="M108.429 242.245h134.229v11.353H108.429z"/><path d="M329.154 199.255a1.869 1.869 0 0 1 1.802-1.932h2.672v-15.985H309.77v18.382h19.38l.004-.465z" fill="url(#c)"/><path d="M330.956 216.506a1.869 1.869 0 0 1-1.802-1.932v-.482h-19.38v18.382h23.854v-15.968h-2.672z" fill="url(#d)"/><path fill="url(#e)" d="M309.774 202.117h19.38v9.592h-19.38z"/><path d="M340.334 214.574a1.869 1.869 0 0 1-1.801 1.932h-2.655v15.985h23.853v-18.399h-19.38l-.017.482z" fill="url(#f)"/><path d="M335.878 181.338v15.985h2.672a1.869 1.869 0 0 1 1.801 1.932v.465h19.38v-18.382h-23.853z" fill="url(#g)"/><path fill="url(#h)" d="M340.334 202.117h19.38v9.592h-19.38z"/><path d="M329.235 199.434c0-.942.765-1.706 1.708-1.706h2.561V183.53h-22.752v16.318h18.488l-.005-.414zM330.951 214.75a1.707 1.707 0 0 1-1.707-1.707v-.426h-18.496v16.322H333.5v-14.19h-2.549zM310.748 201.976h18.488v8.517h-18.488zM339.899 213.035c0 .942-.765 1.706-1.708 1.706h-2.561v14.193h22.752v-16.313H339.9v.414zM335.634 183.53v14.194h2.561c.943 0 1.708.763 1.708 1.706v.426h18.488V183.53h-22.757zM339.903 201.976h18.488v8.517h-18.488z" fill="#4B507D"/></g></svg>