<svg id="chat-bubbles" width="343" height="250" xmlns="http://www.w3.org/2000/svg"><defs><linearGradient x1="49.999%" y1="100%" x2="49.999%" y2="0%" id="a"><stop stop-color="gray" stop-opacity=".25" offset="1%"/><stop stop-color="gray" stop-opacity=".12" offset="54%"/><stop stop-color="gray" stop-opacity=".1" offset="100%"/></linearGradient><linearGradient x1="49.996%" y1="99%" x2="49.996%" y2="0%" id="b"><stop stop-color="gray" stop-opacity=".25" offset="0%"/><stop stop-color="gray" stop-opacity=".12" offset="54%"/><stop stop-color="gray" stop-opacity=".1" offset="100%"/></linearGradient></defs><g fill="none" fill-rule="evenodd"><path d="M328.744 62h-170.43C141.572 62 128 75.685 128 92.566v105.798a14.295 14.295 0 0 0 4.146 10.137 14.332 14.332 0 0 0 10.11 4.238H250.49c3.602 12.45 12.64 29.612 35.408 37.261l-6.427-37.26h49.274a14.332 14.332 0 0 0 10.11-4.24A14.295 14.295 0 0 0 343 198.365V76.376a14.295 14.295 0 0 0-4.146-10.137A14.332 14.332 0 0 0 328.744 62z" fill="url(#a)"/><path d="M325.238 66H160.331c-7.779 0-15.24 3.084-20.74 8.573A29.237 29.237 0 0 0 131 95.269V196.57c0 7.595 6.17 13.752 13.782 13.752H249.51c3.485 11.921 12.242 28.353 34.257 35.677l-6.233-35.665h47.684c7.612 0 13.782-6.157 13.782-13.752V79.763c.007-7.591-6.154-13.752-13.762-13.763z" fill="#FAFAFA"/><path fill="#E0E0E0" d="M198 92h85v11h-85zM250 112h32v11h-32zM219 131h63v11h-63zM204 151h77v11h-77zM240 171h41v11h-41z"/><path d="M14.104 0h184.773C206.678 0 213 6.4 213 14.298v121.341c0 7.898-6.322 14.298-14.123 14.298H91.648c-3.57 12.385-12.537 29.468-35.084 37.063l6.37-37.063h-48.81C6.321 149.937 0 143.537 0 135.64V14.29C-.02 6.4 6.302 0 14.104 0z" fill="url(#b)"/><path d="M16.782 4h180.436C204.83 4 211 10.157 211 17.752v116.819c0 7.595-6.17 13.752-13.782 13.752H92.511C89.026 160.244 80.27 176.676 58.254 184l6.217-35.677h-47.69C9.172 148.323 3 142.166 3 134.571V17.764a13.737 13.737 0 0 1 4.032-9.732A13.797 13.797 0 0 1 16.782 4z" fill="#FFF"/><path fill="#7980CA" d="M64 26h85v11H64zM64 46h32v11H64zM65 65h63v11H65zM66 85h77v11H66zM66 105h41v11H66z"/></g></svg>