<svg id="check" width="473" height="311" xmlns="http://www.w3.org/2000/svg"><defs><linearGradient x1="50.014%" y1="100.014%" x2="50.014%" y2="-.012%" id="a"><stop stop-color="gray" stop-opacity=".25" offset="0%"/><stop stop-color="gray" stop-opacity=".12" offset="54%"/><stop stop-color="gray" stop-opacity=".1" offset="100%"/></linearGradient><linearGradient x1="50.003%" y1="100.015%" x2="50.003%" y2="-.001%" id="b"><stop stop-color="gray" stop-opacity=".25" offset="0%"/><stop stop-color="gray" stop-opacity=".12" offset="54%"/><stop stop-color="gray" stop-opacity=".1" offset="100%"/></linearGradient></defs><g transform="translate(-10 -29)" fill="none" fill-rule="evenodd"><path d="M448.047 283.665a116.847 116.847 0 0 1-4.518 3.771c-.259.21-.526.41-.789.624a158.665 158.665 0 0 1-17.25 11.641l-1.122.653c-.27.164-.538.316-.821.468-6.268 3.615-12.77 6.942-19.35 10.094l-.07.037-.496.234a395.686 395.686 0 0 1-16.158 7.295l-.132.05a420.245 420.245 0 0 1-7.393 3.028c-1.006.41-2.016.792-3.027 1.182-1.901.726-3.807 1.44-5.73 2.125l-.238.09-.41.144-.514.189a283.939 283.939 0 0 1-15.242 4.957l-.09.024a258.035 258.035 0 0 1-10.84 2.901l-.496.124a218.69 218.69 0 0 1-16.224 3.282l-1.257.201a209.774 209.774 0 0 1-12.059 1.535c-22.75 2.195-45.771.41-68.382-2.65-45.656-6.189-90.709-17.789-131.798-35.97a383.64 383.64 0 0 1-23.198-11.203c-.062-.033-.115-.066-.177-.094a335.287 335.287 0 0 1-13.426-7.448c-1.294-.747-2.58-1.51-3.857-2.277a391.143 391.143 0 0 1-4.695-2.873 343.423 343.423 0 0 1-6.16-3.935l-.962-.64-.37-.25c-.521-.349-1.034-.698-1.552-1.05-19.304-13.131-36.518-29.044-44.65-48.958-9.398-22.979-3.384-52.113 19.891-65.695 8.001-4.677 17.3-7.217 26.698-9.314l.96-.214c1.59-.348 3.18-.685 4.761-1.021 5.54-1.174 11.11-2.34 16.626-3.64a262.984 262.984 0 0 0 8.552-2.154l1.158-.32a138.54 138.54 0 0 0 19.965-7.025h.042c.694-.308 1.38-.628 2.053-.956.436-.206.87-.41 1.306-.636 6.983-3.472 14.376-8.285 20.064-14.022.456-.46.9-.927 1.331-1.395.333-.365.661-.734.978-1.104 3.988-4.645 6.748-9.802 7.274-15.276.177-1.84.094-3.695-.247-5.511-.645-3.443-1.269-6.812-1.729-10.099-.858-6.175-1.15-12.08.041-17.771 1.212-5.802 3.96-11.387 9.204-16.803a49.196 49.196 0 0 1 2.56-2.462 53.927 53.927 0 0 1 14.223-8.979c.64-.273 1.285-.547 1.934-.82 14.409-5.827 31.72-7.042 47.895-6.237a261.514 261.514 0 0 1 44.876 6.237c1.17.262 2.341.537 3.504.82a311.287 311.287 0 0 1 36.965 11.42c31.372 11.789 60.98 28.157 88.643 46.22l.822.534a560.752 560.752 0 0 1 10.018 6.684l1.466.997c.723.493 1.441.986 2.156 1.482l2.202 1.522c.103.062.202.132.295.21l1.873 1.296c1.085.755 2.16 1.514 3.24 2.277l2.317 1.642c.481.344.966.685 1.446 1.034l2.465 1.797.55.41c.115.082.23.164.34.255l.07.045c6.68 4.895 13.197 9.97 19.305 15.35l.788.698.083.074c.665.59 1.33 1.19 1.983 1.793 7.977 7.255 15.123 15.051 20.964 23.668 26.829 39.803 18.865 94.915-18.458 127.688z" fill="#4B507D" opacity=".1"/><path d="M465.8 169.078c.265-.712-1.709-4.66-1.709-4.856 0-.196-2.065-2.39-2.065-3.625 0-1.234-2.696-3.882-2.696-3.882s-3.626-1.492-4.022-4.724c-.397-3.233-4.196-3.302-4.344-3.306 0 0 0-.295.025-.744 0-1.006-.03-2.8-.488-3.785a3.871 3.871 0 0 0-2.238-1.884s-.413-2.521-1.19-3.298a3.688 3.688 0 0 1-.916-3.498c.219-.686.03-1.957-.516-3.02-.413-.846-1.082-1.57-1.924-1.77h-.07c-1.892-.453-4.01-1.148-4.01-1.148s-.215.04-.533.086l-.264-.086c-.456.084-.917.141-1.38.172a1.726 1.726 0 0 1-1.118-.364c-.661-.715-5.996-2.072-6.983-2.072-.987 0-3.824-1.296-3.824-1.296l-2.829-2.137c-.793-.597-2.263-3.024-2.477-3.384l-.033-.045c-.206-.463-.38-.94-.52-1.426-.03-.09-.05-.18-.08-.278.575-.595 1.102-1.235 1.574-1.912v-.02c.128-.177.248-.369.368-.553.173-.272.338-.554.495-.846.066-.126.128-.257.194-.38.14-.005.28-.029.413-.07l.178-.064c.163-.075.315-.17.454-.282l.132-.119c.372-.347.655-.778.826-1.255.045-.139.087-.282.12-.408 0-.05.025-.102.037-.147a4 4 0 0 0 .062-.299l.025-.163c0-.102.033-.196.05-.29.016-.094 0-.115 0-.168 0-.118.032-.245.045-.368.057-.462.107-.915.206-1.365a.036.036 0 0 0 0-.02c.216-.866.544-1.701.975-2.485.413-.789.867-1.565 1.238-2.378.108-.233.211-.47.302-.707.09-.237.182-.524.264-.79 0-.077.037-.159.058-.24.054-.193.098-.388.132-.585.022-.084.039-.17.05-.257a9.935 9.935 0 0 0-.57-5.366c-.492-1.226-1.239-2.31-1.73-3.523-.756-1.843-.954-3.927-1.88-5.685-1.548-2.942-5.202-4.413-8.204-3.306-1.43.523-2.672 1.55-4.13 2.01-1.94.618-4.026.152-6.041-.126-2.015-.278-4.245-.298-5.864 1.001-1.862 1.5-2.374 4.32-4.13 5.963a9.49 9.49 0 0 1-1.374 1.022c-.355.24-.715.478-1.05.752a3.873 3.873 0 0 0-1.217 1.634 1.371 1.371 0 0 0-.046.14 1.26 1.26 0 0 0-.045.167c0 .061-.02.127-.03.192-.007.065 0 .09 0 .135a2.334 2.334 0 0 0 0 .294v.05c0 .105.034.216.055.326v.09c0 .033.05.184.082.27a.202.202 0 0 1 0 .053c.035.1.075.198.12.294 0 .045.037.098.058.147.024.039.043.08.058.123.256.477.46.98.61 1.5.081.33.06.678-.061.997a1.59 1.59 0 0 1-.265.437 5.468 5.468 0 0 1-.462.507 13.52 13.52 0 0 0-3.188 5.32l.087.025.087.02c.16.049.324.083.49.103.11.018.22.03.331.037.452.023.904-.012 1.346-.106a2.083 2.083 0 0 0 .285-.07h.042c.37-.095.732-.22 1.082-.372.082-.037.169-.07.251-.11v1.52c.314 5.229 3.296 9.94 7.912 12.501.236.135.467.262.707.38l.057.41c.017.126.033.232.046.35l-.182-.167a1.212 1.212 0 0 0-.491-.098 1.59 1.59 0 0 0-.785.2c-.422.24-.775.582-1.028.993-1.115 1.688-3.23 2.452-3.23 2.452s-11.975 1.876-12.445 3.43l-5.6.326s-1.978.258-2.172 4.336v.095c-.029.486-.066.919-.111 1.307v.057c-.347 2.718-1.132 3.008-1.132 3.008s-2.308 4.013-2.11 6.085a.194.194 0 0 1 0 .05c.027.28.009.562-.054.837a3.684 3.684 0 0 1-1.726 2.203l-.26 3.678s-2.172-.323-2.767 2.203c-.594 2.525-1.651 3.678-1.651 3.678s-3.622 2.979-3.82 5.5l-2.242 1.361s-5.2-1.164-6.388-3.236c0 0-.14-.14-.364-.34l-.033-.048v.024c-.776-.727-2.432-2.248-2.176-1.9.154.327.191.695.107 1.046l-.388-.409-1.036-1.144s-1.483-1.373-3.568-3.012c-.476-.376-.979-.76-1.507-1.152-2.668-1.958-5.876-3.944-8.26-4.243-.049-.098-.247-.837-.714-.837a.788.788 0 0 0-.512.249 6.769 6.769 0 0 0-2.22 4.976 6.767 6.767 0 0 0 2.175 4.996l.54.498 1.677 1.553 5.658 5.231c.07.05.136.102.206.147l.335.41.26.33.45.568.648.818c-.033.085-.07.167-.099.249-.243.588-.454 1.16-.628 1.684v.057c-.04.13-.082.253-.12.376 0 .04-.028.086-.04.126-.042.123-.075.246-.112.356-.037.11-.041.143-.058.213-.016.069-.029.085-.041.126-.186.65-.302 1.149-.364 1.426l-.437-.134.413.184a.55.55 0 0 1 0 .069l-.025.13c.128.062.264.12.413.177l.095.04 1.619.707c.326.143.68.295 1.06.466.38.172.674.299 1.041.454 4.229 1.863 10.155 4.54 10.576 5.076.656.846 5.005 3.302 8.96 1.226 3.957-2.076 4.803-5.248 4.803-5.248s3.824-5.239 3.956-6.015c.1-.597 1.867-1.271 2.684-1.553l.079-.025.33-.106V169.752c0 1.823-.025 5.787-.603 8.668a.053.053 0 0 0 0 .024 9.352 9.352 0 0 1-.656 2.166c-1.516 3.172-4.345 17.222-4.345 17.222h.066c.164-.03.33-.038.496-.025-.058.262-.095.466-.124.605-.029.14-.041.209-.041.209h.05c.157-.03.318-.04.478-.029.055.003.108.01.161.02 0 .082-.024.18-.04.295V199.009c0 .016-.026.127-.034.196-.343 2.338-1.334 8.423-1.334 8.423s-.413 3.363-1.057 4.528c-.277.495-.446 1.864-.553 3.27 0 .204-.03.408-.046.62a73.653 73.653 0 0 0-.123 3.356l-.03.106-.97 4.357c.016.04.034.08.054.118.07.13.182.356.343.634l.05.106a12.173 12.173 0 0 0 2.287 3.188c.216.212.448.407.694.584 0 .049-.021.102-.03.143-.008.04-.024.155-.036.229a6.564 6.564 0 0 1-.467 1.635 5.423 5.423 0 0 0-.475 1.781c-.05.44-.064.883-.041 1.324l-.054.242c-.144.666-.557 2.62-.78 4.209-.054.364-.104.715-.133 1.042a5.011 5.011 0 0 0 0 .911 7.407 7.407 0 0 1-.082 1.529c0 .147-.033.298-.054.45-.223 1.438-.59 2.946-.59 2.946l-1.185 11.259v.666c0 .086 0 .184-.025.294 0 .266-.042.58-.07.949 0 .13-.009.267-.025.408 0 .123 0 .254-.025.388v.213c0 .074 0 .212-.02.323-.021.11 0 .208 0 .31v.29c-.038.601-.08 1.251-.108 1.91v.628c0 .209 0 .41-.029.63v4.16c.01.435.042.869.1 1.3.045.319.078.654.094.997v.474c.004.079.004.158 0 .237V272.203c-.103 1.406-.297 2.546-.326 2.726v.384c0 .102.025.233.037.376v.204a.8.8 0 0 0 .025.237c.025.082 0 .078 0 .123 0 .147.025.298.041.458.017.159.037.33.05.502l.025.323c0 .155.033.319.045.478v.164c0 .11.025.216.033.33l.037.503c0 .11.025.225.033.336.008.11 0 .114 0 .171l.054.662c0 .11 0 .217.02.327 0 .172.025.348.042.511.016.164 0 .376.029.548.029.171.02.343.024.498.047.46.047.925 0 1.386-.107.466-.454 1.77-.652 3.183 0 .127-.037.254-.05.384-.012.131 0 .152 0 .23l-.024.306c0 .245-.03.494-.03.735-.018.551.045 1.102.187 1.635.094.354.163.715.206 1.079 0 .057 0 .119.02.18 0 .13.03.265.042.408.012.144.02.278.029.41 0 .285.025.58.037.878v.592a57.753 57.753 0 0 1-.078 3.846v.106s.413 7.254.854 9.58c.058.306.1.617.128.936 0 .118 0 .237.021.355a18.05 18.05 0 0 1-.28 4.021s-.463 4.982-.657 4.982c-.095 0-.525.769-.59 1.93v.032c-.059 1.295.342 3.077 2.167 4.839l.198.192.24-.09a276.057 276.057 0 0 0 8.804-3.294c2.5-.978 4.977-1.984 7.433-3.016a.467.467 0 0 1-.236-.294c-.38-1.002.186-4.087.302-4.561.115-.474 1.185-10.556 1.185-10.556s-.413-3.168.132-4.524c.545-1.357-.66-6.609-.66-6.609s-.414-.645.33-1.422c.743-.776.462-7.703.462-7.703s-.066-3.499-.066-4.406c0-.907.793-4.21 1.511-5.313.719-1.103.269-4.536.269-4.536l.041-.262c0-.098.033-.22.058-.363l.062-.348c.313-1.896.74-3.773 1.28-5.619.859-2.718 1.846-7.507 1.846-7.507l5.76-15.289.19-.474.07-.188s2.83 5.182 2.83 9.972c0 0 .726 5.762.532 7.315-.194 1.553.59 8.868.59 8.868s.851 10.491.851 10.94c0 .45 1.057 8.521 1.718 9.747.66 1.226-.66 4.986-1.053 5.375-.392.388.132 9.906.132 9.906s-.995 7.507-1.19 9.06c-.036.282-.094.707-.156 1.226 6.607-3.138 13.152-6.453 19.453-10.053.273-.151.541-.303.826-.466l.046-9.29s.462-4.335-.066-6.089c-.529-1.753-1.053-5.108-.327-6.015.727-.908.066-5.113.066-5.113s0-8.872.987-11.07c.987-2.2.661-16.12.661-16.12l.26-9.129s2.102-1.97 1.652-12.174v-.348c2.296-.143 4.885-.225 5.277.094.628.499 4.163 2.763 6.9 2.199a3.376 3.376 0 0 0 1.264-.52c.595-.26 3.304-2.525 3.304-2.525l-1.05-17.462-.11-1.942c.198.299.371.564.52.818.413.62.64 1 .64 1 0-2.717 7.775-11.52 7.775-11.52s7.247-9.256 8.825-10.36c1.577-1.103 4.679-6.927 4.679-6.927a28.107 28.107 0 0 1 1.581-3.236c.702-1.177-1.68-4.287-1.416-4.998zm-23.186 12.427a4.042 4.042 0 0 1-.875 1.745c-.033-.408-.066-.788-.1-1.197v-.106c-.462-5.697-.957-12.588-.73-13.262.186-.54.252-1.97.272-3.343.03-1.565 0-3.057 0-3.057l.075-.102c1.33 4.087 5.454 8.852 5.454 8.852s.727 2.072 1.582 2.137c.855.066.524 2.718.524 2.718a3.134 3.134 0 0 0-1.123.409 9.847 9.847 0 0 0-1.164.78c-1.891 1.423-3.87 3.764-3.915 4.426z" fill="url(#a)" fill-rule="nonzero"/><path d="M343.347 173.759s2.59-12.405 10.912-12.47l6.088 11.445-4.094 2.542s-8.794.256-12.906-1.517z" fill="#65617D"/><path d="M360.347 172.716l-4.08 2.56s-6.21.18-10.648-.814a12.967 12.967 0 0 1-2.272-.704s0-.07.045-.2a.26.26 0 0 1 0-.049 26.525 26.525 0 0 1 1.577-4.559c.254-.558.548-1.132.86-1.706 1.22-2.145 2.935-4.25 5.283-5.292a7.771 7.771 0 0 1 2.775-.663h.37l.138.252 2.058 3.871 3.894 7.304z" fill="#000" opacity=".1"/><path d="M422.425 225.187s8.351-.773 9.087-.193c.735.58 5.478 3.558 8.288 1.682 2.809-1.876.935-8.409.935-8.668 0-.259-.268-9.507-.268-9.507l-5.011-6.533-6.282-11.445-12.827-1.234.332 18.175-.064 9.314 5.81 8.409z" fill="#65617D"/><path d="M422.425 225.187s8.351-.773 9.087-.193c.735.58 5.478 3.558 8.288 1.682 2.809-1.876.935-8.409.935-8.668 0-.259-.268-9.507-.268-9.507l-5.011-6.533-6.282-11.445-12.827-1.234.332 18.175-.064 9.314 5.81 8.409z" fill="#000" opacity=".1"/><path d="M352.347 161.244s-.692 7.92-6.046 8.045c0 0-1.508-.826-3.542-2.251-4.685-3.242-12.114-9.478-10.061-15.28 2.944-8.31 17.253 7.02 17.253 7.02l1.102 1.14 1.294 1.326z" fill="#A5636D"/><path d="M353.347 161.711s-.758 8.446-6.627 8.578c0 0-1.654-.881-3.884-2.4l-.489-.577a8.305 8.305 0 0 0 3.204.78c1.467.026 3.12-.44 4.182-2.374a29.069 29.069 0 0 0 1.619-3.35 9.285 9.285 0 0 0 .586-2.08l1.41 1.423z" fill="#000" opacity=".1"/><path d="M349.837 175.289l-1.232-1.4-4.12-4.712-2.138-2.406c.927.428 1.95.67 2.994.712 1.374.028 2.92-.405 3.914-2.18a25.764 25.764 0 0 0 1.516-3.078c.682-1.715.668-2.597.425-2.896-.242-.3 1.53 1.152 2.381 1.868l.032.025.394.331.15.26 2.084 3.684v.153c.192 1.17.893 8.587-6.4 9.639z" fill="#E7EFFD"/><path d="M386.808 317.879a1.941 1.941 0 0 0-.398-.254h-.034c-.796-.323-.068-4.311.068-4.827.135-.515 1.197-10.463 1.197-10.463s-.397-3.146.136-4.5-.669-6.544-.669-6.544-.398-.643.334-1.416c.733-.773.466-7.653.466-7.653s-.063-3.469-.063-4.373c0-.904.795-4.176 1.527-5.273.733-1.096.267-4.5.267-4.5l.038-.26c.021-.095.038-.218.06-.36l.063-.344c0-.082.03-.168.046-.262.039-.205.08-.41.127-.671a71.655 71.655 0 0 1 .423-2.041 58.842 58.842 0 0 1 .28-1.141c.034-.127.063-.25.102-.377.097-.376.203-.74.317-1.088.846-2.704 1.866-7.461 1.866-7.461l6.184-15.7.072-.188.195.364c.643 1.256 2.662 5.53 2.662 9.535 0 0 .736 5.727.533 7.265-.203 1.538.601 8.811.601 8.811s.846 10.415.846 10.865c0 .45 1.067 8.491 1.731 9.71.665 1.22-.664 4.954-1.066 5.318-.402.364.135 9.842.135 9.842s-.998 7.457-1.202 8.999c-.042.368-.127.986-.215 1.743l.512-.234.072-.036c6.771-3.142 13.48-6.46 19.938-10.063l.055-9.862s.466-4.312-.063-6.046c-.53-1.734-1.067-5.08-.339-5.984.728-.904.072-5.077.072-5.077s0-8.81.995-10.995c.994-2.184.668-16.014.668-16.014l.263-9.065s2.171-2 1.659-12.44a90.545 90.545 0 0 0-.258-3.636 663.703 663.703 0 0 0-1.168-11.375c-.034-.344-.077-.684-.11-1.015-.08-.7-.157-1.37-.233-2.008-.026-.188-.047-.373-.068-.557-.11-.916-.213-1.761-.309-2.536-.034-.302-.076-.601-.11-.883-.055-.41-.106-.818-.152-1.199 0-.09-.026-.18-.038-.27 0-.163-.039-.319-.06-.47-.22-1.67-.351-2.581-.351-2.581h-.06l-6.69.057-14.606.135h-.428l-7.618.07h-.466l-3.656.036h-.623l-7.618.07h-.461l-3.128 12.46-6.386 14.149s-.098 1.55-.322 3.063v.09c0 .054 0 .103-.025.148-.026.045-.026.155-.039.229a7.735 7.735 0 0 1-.537 2 4.872 4.872 0 0 0-.423 1.411 8.002 8.002 0 0 0-.098 1.567v.086s-.508 2.23-.804 4.127a18.03 18.03 0 0 0-.135 1.043 6.38 6.38 0 0 0-.06 1.199c.024.41.008.82-.046 1.227 0 .147-.034.298-.055.45-.207 1.505-.626 3.19-.626 3.19l-1.202 11.192v.503c0 .086 0 .184-.026.295 0 .266-.042.58-.072.949 0 .13-.008.267-.025.409 0 .122 0 .253-.026.388v.213c0 .074 0 .213-.02.323-.022.11 0 .209 0 .311v.29c-.035.602-.077 1.252-.107 1.91v.63c0 .21 0 .41-.03.63V267.338c.006.457.04.913.102 1.366.043.302.077.613.098.932v2.545c-.106 1.407-.305 2.548-.335 2.728v.385c0 .102.026.233.038.376v.204c0 .074 0 .156.026.238.025.081 0 .077 0 .122 0 .148.025.299.042.459l.051.503.025.323c0 .155.034.319.047.478v.164c0 .11.025.217.034.331l.038.503c0 .11.025.225.034.336v.172l.055.662c0 .11 0 .217.02.328 0 .171.026.347.043.51.017.165 0 .377.03.549.03.172.021.344.025.5a7.03 7.03 0 0 1 0 1.34 30.413 30.413 0 0 0-.66 3.232c0 .127-.038.254-.05.385-.013.13 0 .151 0 .229l-.026.307c0 .245-.03.495-.03.736-.01.52.054 1.039.19 1.542.115.446.193.9.233 1.358.034.262.055.54.072.818.017.278.026.581.039.88v.593c.025 1.943-.085 3.8-.085 3.8a.43.43 0 0 0 0 .049v.033c.042.818.423 7.269.846 9.436.074.385.123.772.148 1.162 0 .119 0 .237.022.356.03 1.26-.07 2.52-.3 3.76 0 0-.623 4.994-.822 4.994-.102 0-.61.908-.597 2.237v.033c0 1.252.5 2.863 2.197 4.5l.474.458c1.98-.683 3.944-1.395 5.904-2.12 1.041-.388 2.082-.776 3.12-1.177a332.432 332.432 0 0 0 7.617-3.02l.149-.093z" fill="#3F3D56"/><path d="M421.347 124.955l-10.074 10.334s-12.926-4.99-11.567-6.654c.529-.657.433-2.732.139-5.023-.476-3.622-1.498-7.793-1.498-7.793s22.593-3.53 20.684.133c-.693 1.335-.576 2.911-.143 4.342a16.222 16.222 0 0 0 2.46 4.661z" fill="#A5636D"/><path d="M419.231 115.959c-.699 1.341-1.035 1.47-.598 2.925-2.981 3.058-6.775 6.405-11.492 6.405a16.897 16.897 0 0 1-7.282-1.63c-.48-3.639-1.512-7.83-1.512-7.83s22.812-3.551 20.884.13z" fill="#000" opacity=".1"/><path d="M423.347 108.73c0 8.593-7.163 15.559-16 15.559-8.836 0-16-6.966-16-15.558v-.225c.191-8.501 7.367-15.278 16.112-15.217 8.744.061 15.819 6.939 15.884 15.442h.004z" fill="#A5636D"/><path d="M425.347 211.04c-2.09 0-8.972.075-16.682.198h-.096l-2.546.042h-.08c-9.144.148-18.154-1.655-21.77-1.313-7.693.73 2.76-7.176 2.76-7.176a63.796 63.796 0 0 0 17.518 1.79l2.211-.118c6.987-.397 14.01-1.06 17.682-2.174.255 2.06.627 5.044 1.003 8.75z" fill="#000" opacity=".1"/><path d="M425.347 210.04c-2.09 0-8.972.071-16.682.198h-.096l-2.546.042h-.08c-9.144.148-18.154-1.655-21.77-1.313-7.693.726 2.76-7.176 2.76-7.176a63.693 63.693 0 0 0 17.518 1.786l2.211-.114c6.987-.397 14.01-1.064 17.682-2.174.255 2.06.627 5.053 1.003 8.75z" fill="#5F5D7E"/><path d="M404.116 128.628l-12.29 5.57-9.479 71.09s5.608-2.47 8.816-.906c3.207 1.566 13.089.132 13.089.132s7.222-.412 8.28.387c1.058.8 13.629-3.237 13.629-3.237s2.269-4.923.53-5.697c-1.737-.775.536-8.433.536-8.433l-1.066-51.289-2.124-6.59-5.744-3.366-5.876 4.53-2.804.392-5.497-2.583z" fill="#000" opacity=".1"/><path d="M404.116 128.608l-12.286 5.57-9.483 71.11s5.608-2.471 8.816-.906c3.207 1.566 13.089.128 13.089.128s7.222-.387 8.28.387c1.058.775 13.629-3.238 13.629-3.238s2.269-4.918.53-5.697c-1.737-.778.536-8.42.536-8.42l-1.066-51.292-2.124-6.592-5.744-3.37-5.876 4.532-2.804.387-5.497-2.599z" fill="#E7EFFD"/><path d="M403.185 131.327s3.659 4.077 3.588 4.921c-.07.844-.206 2.846-.206 2.846l-2.737 5.247s-1.517 6.54-1.517 7.9c0 1.358-2.413 13.141-2.413 13.141l-2.895 18.122-3.658 23.763 3.724 6.022 4.413-3.497 5.855-42.338 1.242-8.352s1.315-15.02 1.315-16.573c0-1.553-.758-5.634-.758-5.634s.899-3.884 4.623-4.79c3.724-.906-.277-.198-.277-.198l-2.136-1.618-1.864.712s-5.193-1.487-6.299.326z" fill="#000" opacity=".1"/><path d="M403.21 130.327s3.653 4.077 3.587 4.917c-.066.84-.21 2.85-.21 2.85l-2.759 5.248s-1.517 6.536-1.517 7.895c0 1.36-2.412 13.147-2.412 13.147L397 182.506l-3.653 23.761 3.723 6.022 4.412-3.497 5.854-42.336 1.241-8.353s1.316-15.02 1.316-16.578c0-1.557-.759-5.63-.759-5.63s.877-3.888 4.618-4.794c3.74-.906-.272-.194-.272-.194l-2.14-1.618-1.86.712s-5.165-1.49-6.27.326z" fill="#4B507D"/><path d="M399.424 124.289s-.616.373-.768 2.874c-.152 2.5-2.309 8.126-2.309 8.126s7.998-4.5 12-4l-8.923-7z" fill="#000" opacity=".1"/><path d="M399.424 123.289s-.616.377-.768 2.874c-.152 2.496-2.309 8.126-2.309 8.126s7.998-4.5 12-4l-8.923-7z" fill="#E7EFFD"/><path d="M418.43 122.289l-11.083 9.326s9.344 5.31 10.563 6.59c1.218 1.282 2.437-12.69 2.437-12.69l-1.916-3.226z" fill="#000" opacity=".1"/><path d="M419.452 121.289l-11.105 9.326s9.343 5.31 10.562 6.59c1.219 1.282 2.438-12.695 2.438-12.695l-1.895-3.221z" fill="#E7EFFD"/><path d="M401.141 124.387s-1.2-.584-2.331 1.096c-1.132 1.68-3.265 2.465-3.265 2.465s-12.132 1.873-12.599 3.42l-5.663.321s-2.001.234-2.188 4.342c-.186 4.107-1.271 4.452-1.271 4.452s-2.336 4.004-2.12 6.07c.216 2.066-1.802 3.101-1.802 3.101l8.347 20.964s.267 8.654-1.271 11.816c-1.54 3.163-4.4 17.177-4.4 17.177s1.199-.26 1.131.517c-.068.776-1.467 9.233-1.467 9.233s-.398 3.356-1.064 4.518c-.665 1.162-.733 7.233-.733 7.233l-1.098 4.39s2.544 5.488 6.401 4.711c3.858-.776 10.861-15.43 10.861-15.43l4.464-15.817 3.468-15.628 1-10.589 1.598-23.44 2.332-15.496s2.615-8.33 1.67-9.426z" fill="#000" opacity=".1"/><path d="M401.145 123.385s-1.2-.579-2.332 1.1c-1.132 1.68-3.27 2.464-3.27 2.464s-12.13 1.873-12.597 3.421l-5.665.324s-2.002.26-2.201 4.324c-.2 4.066-1.272 4.456-1.272 4.456s-2.332 4.004-2.12 6.069c.212 2.066-1.798 3.096-1.798 3.096l8.32 20.967s.266 8.652-1.273 11.814c-1.54 3.162-4.397 17.173-4.397 17.173s1.2-.259 1.132.518c-.068.776-1.467 9.23-1.467 9.23s-.399 3.356-1.064 4.518c-.666 1.162-.734 7.23-.734 7.23l-1.06 4.411s2.544 5.486 6.399 4.714c3.854-.772 10.868-15.431 10.868-15.431l4.465-15.814 3.468-15.604.997-10.586 1.602-23.431 2.333-15.494s2.599-8.368 1.666-9.469z" fill="#65617D"/><path d="M359.347 173.61l-3.978 2.666s-6.055.186-10.381-.848l-2.207-.954-.434-.19.456.14c2.285.66 4.07.648 5.464.19 5.607-1.84 4.986-10.871 4.778-12.914 0-.204-.035-.335-.044-.386v-.025l.035.05a2.85 2.85 0 0 0 .508.61l1.977 3.862v.161l3.826 7.638z" fill="#000" opacity=".1"/><path d="M373.088 148.289l-1.874.528-.269 3.775s-2.211-.327-2.812 2.243c-.6 2.571-1.675 3.775-1.675 3.775s-3.685 3.032-3.886 5.603l-2.28 1.384s-5.291-1.187-6.497-3.296c0 0 2.412 17.01-10.448 12.858 0 0 14.402 6.199 15.071 7.054.669.856 5.092 3.355 9.11 1.258s4.891-5.406 4.891-5.406 3.886-5.338 4.018-6.131c.133-.793 3.15-1.715 3.15-1.715l5.76-13.71-12.259-8.22z" fill="#65617D"/><path d="M416.685 129.848l1.956-8.56s.858 2.79 1.754 3.437c.896.647 2.9 2.14 2.9 2.14s2.898 1.3 3.906 1.3 6.476 1.361 7.15 2.062c.673.701 3.37.194 3.37.194s2.227.714 4.182 1.167c1.956.454 2.9 3.568 2.492 4.798a3.65 3.65 0 0 0 .944 3.502c.81.78 1.214 3.3 1.214 3.3.993.31 1.817.987 2.294 1.88.673 1.428.472 4.538.472 4.538l-10.045 13.612s.133 5.25-.27 6.418c-.403 1.167 1.415 21.012 1.415 21.012l2.09 34.108s-2.763 2.269-3.372 2.529c-.609.26-1.214-12.061-1.214-12.515 0-.454-15.572-22.44-15.572-22.44s-2.093-3.241-2.093-3.955-1.956-7.26-1.956-7.26l-2.955-12.618 1.338-38.65z" fill="#000" opacity=".1"/><path d="M450.345 148.89c0 .445-.026.742-.026.742l-10.037 13.606s.137 5.253-.266 6.42c-.236.677.279 7.653.754 13.38.34 4.123.66 7.62.66 7.62l.884 14.464 1.2 19.635s-2.76 2.268-3.365 2.528c-.605.26-1.214-12.057-1.214-12.514 0-.458-15.582-22.435-15.582-22.435s-2.088-3.245-2.088-3.958c0-.714-1.955-7.261-1.955-7.261l-2.963-12.638 1.346-38.635 1.145-8.555s1.685 2.791 2.573 3.434c.888.644 2.894 2.14 2.894 2.14s2.899 1.3 3.91 1.3c1.013 0 6.471 1.36 7.149 2.06.677.702 3.37.195 3.37.195s2.22.713 4.176 1.166c1.955.454 2.899 3.567 2.496 4.796a3.636 3.636 0 0 0 .943 3.5c.806.776 1.213 3.299 1.213 3.299a3.928 3.928 0 0 1 2.294 1.88c.46 1.023.502 2.82.49 3.83z" fill="#65617D"/><path d="M380.347 321.113c-1.21.408-2.424.788-3.639 1.176-3.806-.919-7.36-2-7.36-2 3.681.109 7.353.384 11 .824zM409.347 286.289s9.445 1.786 10 3l-10-3zM380.984 292.289s-5.808 1.152-.185 3.456c5.623 2.304.185-3.456.185-3.456zM397.347 231.289c.498 0 8.251-2.99 10.952-1.659 2.7 1.331 6.048 1.326 6.048 1.326l-17 .333zM400.347 237.957l-.084.659-7.231 16.201s-1.164 4.915-2.176 7.704a44.41 44.41 0 0 0-1.509 5.768l6.413-34 4.587 3.668z" fill="#000" opacity=".1"/><path d="M408.347 210.245l-3.091.044h-.097l-1.812-6.879c.888-.035 1.787-.074 2.685-.121l2.315 6.956z" fill="#3F3D56"/><path d="M439.347 201.68l-1.67 1.369-5.562 4.564s-15.099 7.998-19.257.399c-3.667-6.692 13.452-11.469 17.576-12.511.559-.14.879-.212.879-.212l8.034 6.39z" fill="#A5636D"/><path d="M376.347 139.289s3.996 1.478 4.904 3.543c.908 2.065-4.904-3.543-4.904-3.543zM368.347 158.289s-5.777 5.548-3.446 7.694c2.332 2.145 3.446-7.694 3.446-7.694zM442.347 142.289s-4.836.412-5 4l5-4zM405.347 194.289c.434-.372 9.819-13.046 12-11.93l-12 11.93zM423.347 109.01a15.687 15.687 0 0 1-1.894 7.482h-.12c-1.013-.212-1.54-1.381-2.313-2.119a3.173 3.173 0 0 0-3.63-.504 3.64 3.64 0 0 0-1.783 3.42c-.513-2.119-.35-4.403-.855-6.538-.505-2.136-2.006-4.301-4.067-4.34-.889 0-1.924.327-2.565-.334-.39-.398-.466-1.025-.757-1.508-1.475-2.36-5.956-1.166-7.786.046-1.83 1.212-3.955 3.144-6.23 4.182.191-8.664 7.367-15.57 16.112-15.508 8.744.063 15.819 7.071 15.884 15.737l.004-.017z" fill="#000" opacity=".1"/><path d="M405.35 104.72c.288.477.365 1.097.752 1.49.637.65 1.666.315 2.55.331 2.048.034 3.544 2.174 4.041 4.285.497 2.111.336 4.356.85 6.463a3.592 3.592 0 0 1 1.772-3.376 3.159 3.159 0 0 1 3.604.498c.77.72 1.275 1.877 2.303 2.094 1.029.218 1.98-.745 2.346-1.792.366-1.047.336-2.195.574-3.28.455-2.056 1.815-3.74 2.55-5.692a10.164 10.164 0 0 0-.068-7.355c-.501-1.256-1.245-2.35-1.755-3.585-.765-1.876-.97-3.991-1.904-5.78-1.573-2.994-5.278-4.49-8.321-3.35-1.454.54-2.716 1.583-4.19 2.048-1.973.624-4.085.155-6.129-.126-2.044-.28-4.305-.306-5.95 1.018-1.89 1.524-2.41 4.39-4.186 6.065-.748.703-1.674 1.151-2.46 1.8-.787.65-1.467 1.617-1.377 2.673.119 1.365 1.474 2.605.973 3.866-.18.366-.433.694-.744.963a13.78 13.78 0 0 0-3.234 5.424c3.578 1.101 7.446-2.785 10.246-4.607 1.84-1.227 6.294-2.413 7.756-.076z" fill="#4C3E42"/><path d="M440.347 201.878l-1.998 1.41c-1.762-2.51-9.002-7.523-9.002-7.523l.312-.258c.669-.144 1.052-.218 1.052-.218l9.636 6.59z" fill="#000" opacity=".1"/><path d="M441.347 199.537s-.694 1.528-1.408 2.85c-.714 1.324-1.477 2.52-1.537 1.546-.078-1.925-9.055-8.378-9.055-8.378l1.216-1.048 1.414-1.218 9.37 6.248z" fill="#E7EFFD"/><path d="M441.428 190.21l.92 15.079c-2.177-3.263-8.157-11.631-12-11.36l9.323-10.316c.39-.416.748-.859 1.07-1.324.353 4.29.687 7.921.687 7.921z" fill="#000" opacity=".1"/><path d="M442.347 199.469s-.71 1.511-1.44 2.82c-2.757-3.248-6.54-7.079-9.56-7.795l1.444-1.205 9.556 6.18z" fill="#000" opacity=".1"/><path d="M447.129 147.289l2.436 1.835s4.059.067 4.463 3.337c.405 3.27 4.128 4.789 4.128 4.789s2.776 2.686 2.776 3.933c0 1.248 2.096 3.475 2.096 3.671 0 .196 2.032 4.196 1.76 4.918-.27.722 2.152 3.871 1.42 5.051a28.563 28.563 0 0 0-1.622 3.28s-3.18 5.901-4.808 7.015c-1.626 1.114-9.064 10.491-9.064 10.491s-7.984 8.918-7.984 11.68c0 0-7.782-12.593-12.383-12.264l9-10.032s1.554-1.64 1.623-2.624c.068-.984 4.33-5.51 6.361-5.706 0 0 .336-2.69-.542-2.753-.878-.063-1.623-2.165-1.623-2.165s-5.957-6.82-6.026-11.15c-.069-4.33 7.989-13.306 7.989-13.306z" fill="#65617D"/><path d="M451.347 154.289s-7.354 4.394-5.779 5.815c1.576 1.42 5.78-5.815 5.78-5.815zM450.347 171.289s10.898-4.5 12 0h-12zM380.347 153.289s0 14.485-2.344 15.916c-2.343 1.43 2.344-15.916 2.344-15.916zM436.347 157.289l2.851 6s1.132-5.888-2.85-6z" fill="#000" opacity=".1"/><g opacity=".1" fill="#000"><path d="M390.793 101.447c.485-1.23-.783-2.433-.951-3.75a2.477 2.477 0 0 0-.21 1.183c.083.996.841 1.921 1.022 2.842a1.66 1.66 0 0 0 .14-.275zM412.743 115.555c-.476-2.083-.337-4.254-.817-6.316-.48-2.063-1.975-4.234-4.004-4.267-.876 0-1.895.317-2.527-.33-.383-.39-.458-1.007-.745-1.482-1.448-2.321-5.86-1.146-7.667.045-2.708 1.78-6.425 5.505-9.9 4.663-.163.396-.32.796-.45 1.208 3.546 1.096 7.377-2.77 10.152-4.583 1.806-1.188 6.215-2.367 7.667-.042.287.475.362 1.092.746 1.484.631.645 1.65.312 2.526.329 2.03.033 3.511 2.162 4.004 4.262.493 2.1.333 4.334.842 6.43-.037-.474.021-.95.173-1.4zM422.697 113.097c-.363 1.042-1.306 1.996-2.325 1.783-1.019-.212-1.515-1.358-2.278-2.083a3.132 3.132 0 0 0-3.574-.492 3.554 3.554 0 0 0-1.756 3.171c.266-.8.82-1.475 1.558-1.896a3.12 3.12 0 0 1 3.57.496c.762.717 1.263 1.867 2.282 2.084 1.02.216 1.963-.742 2.325-1.784a9.082 9.082 0 0 0 .362-1.883 5.81 5.81 0 0 1-.164.604zM425.808 104.176c-.745 1.942-2.105 3.617-2.526 5.659-.093.416-.143.833-.194 1.25.45-2.034 1.794-3.705 2.526-5.642a9.796 9.796 0 0 0 .611-2.717c-.1.494-.24.979-.417 1.45z"/></g><circle fill="#E6E8EC" cx="332.847" cy="150.789" r="1"/><path d="M203.347 240.508s5.395-3.808 11-1.448c0 0-1.57 3.272-8.533 3.228l-2.467-1.78zM203.62 241.289s-1.73 6.066 3.53 10c0 0 2.94-2.568-.395-8.542l-3.136-1.458zM197.347 235.333s.191-5.093 11.999-3.848c0 0 .186 3.278-3.875 4.983-4.062 1.705-6 .47-8.124-1.135z" fill="#4B507D"/><path d="M196.972 235.289s-5.862 1.553-.067 11c0 0 3.908-.749 4.377-4.583.469-3.835-1.664-5.083-4.31-6.417zM190.367 230.334s-.99-8.442 10.94-8.03c0 0 1.139 7.633-8.76 9.985l-2.18-1.955zM183.347 221.267s1.238-8.825 12.999-6.626c0 0 .354 7.597-11.012 8.648l-1.987-2.022zM178.347 212.64s2.327-9.306 14-6.977c0 0-2.436 8.362-13.177 8.626l-.823-1.648zM172.347 204.713s2.183-9.422 13-7.038c0 0-3.249 8.996-12.227 8.601l-.773-1.563zM170.347 196.694s1.556-11.226 12-9.149c0 0-2.597 10.266-11.166 10.744l-.834-1.595zM166.347 187.63s1.87-11.87 12-8.849c0 0-3.52 11.288-11.231 10.465l-.769-1.615zM164.347 178.16s3.522-10.875 12-10.871c0 0-3.588 11.481-11.197 13l-.803-2.129zM162.347 169.333s3.88-12.758 11-12.013c0 0-2.643 9.742-10.67 13.969l-.33-1.956zM161.347 157.566s3.81-10.638 11-11.277c0 0-2.445 10.424-10.705 14l-.295-2.723zM160.347 148.547s5.065-10.867 10-11.258c0 0-1.917 10.608-9.423 13l-.577-1.742zM159.347 139.417s2.961-11.992 8-13.128c0 0-.22 9.74-7.443 14l-.557-.872zM157.347 127.077s3.12-9.273 7-10.788c0 0-.261 10.825-5.975 13l-1.025-2.212z" fill="#4B507D"/><path d="M157.1 120.312l-1.753-17.023s9.306 12.629 2.526 20l-.774-2.977zM151.335 104.102s-5.72-12.166-6.988-12.813c0 0 10.482 7.665 9.983 18l-2.995-5.187zM191.298 228.299s-8.629-.766-7.908 10.967c0 0 7.81.912 9.957-8.87l-2.049-2.097zM184.26 221.289s-10.105.3-8.796 10.972c0 0 8.538 1.007 10.883-9.03l-2.086-1.942zM178.562 213.908s-8.348-3.666-13.215 6.838c0 0 7.697 3.025 14-5.205l-.785-1.633zM173.59 205.062s-8.64-4.13-13.243 6.7c0 0 8.95 2.933 14-5.046l-.758-1.654zM170.909 196.5s-8.397-7.65-14.562.665c0 0 8.521 6.23 15 1.094l-.438-1.758zM167.992 186.41s-8.51-7.602-14.645.92c0 0 9.458 6.142 15 .727l-.355-1.646zM165.33 176.922s-6.669-9.728-13.983-7.22c0 0 6.923 10.31 14 9.546l-.017-2.326zM163.101 168.24s-6.832-11.995-12.754-9.647c0 0 4.946 9.23 13 11.696l-.246-2.049zM162.59 157.496s-7.05-9.484-13.243-8.062c0 0 5.833 9.663 14 10.855l-.758-2.793zM163.347 148.524s-6.279-10.284-11-10.235c0 0 3.268 10.309 10.689 12l.311-1.765zM162.347 139.364s-7.053-10.207-12-10.074c0 0 3.788 8.797 11.824 10.999l.176-.925zM159.347 127.91s-5.079-8.745-9-9.621c0 0 2.82 10.766 8.592 12l.408-2.38z" fill="#4B507D"/><path d="M155.797 118.72l-10.45-13.431s3.1 13.497 12 16l-1.55-2.57zM150.458 104.036s-11.662-6.63-12.11-7.747c0 0 6.216 9.638 17 11l-4.89-3.253zM149.062 101.289s-13.413-11.128-16.715-11c0 0 10.68.075 17 10.37l-.285.63z" fill="#4B507D"/><path d="M159.347 129.215l-.485.074c-3.25-17.307-7.326-27.463-11.515-28.594l.142-.406c4.427 1.187 8.525 11.197 11.858 28.926zM164.347 172.205l-.833.084a107.108 107.108 0 0 1-.65-5.065c-1.509-14.767-3.4-28.31-5.517-38.442l.461-.493c2.096 10.15 4.386 24.093 5.9 38.86.168 1.71.388 3.41.64 5.056z" fill="#444053"/><path d="M218.018 248.289c-.123-.05-12.214-4.78-25.04-16.673a95.968 95.968 0 0 1-18.76-23.926c-6.148-11.116-10.174-24.915-11.87-38.401l.717.296c3.798 30.266 18.797 50.496 30.509 61.364 12.699 11.786 24.655 16.467 24.773 16.52l-.33.82z" fill="#444053"/><g opacity=".7"><path d="M225.753 235.786s5.409-1.746 9.379 1.556c0 0-2.133 2.271-7.823.497l-1.556-2.053zM225.143 235.794s-2.834 4.83-.31 9.29c0 0 2.703-1.59 2.06-7.393l-1.75-1.897zM220.795 229.297s1.564-4.332 11.355-.168c0 0-.74 2.874-4.702 3.285-3.962.41-5.265-1.183-6.653-3.117zM220.18 229.12s-4.697.218-3.431 10.592c0 0 3.02.131 4.555-3.458 1.535-3.59.37-5.302-1.123-7.133zM216.122 221.318s1.43-7.425 11.667-3.926c0 0-1.081 6.776-10.304 6.16l-1.363-2.234zM211.492 211.277s3.713-7.865 13.458-2.653c0 0-1.93 7.133-12.31 5.063l-1.148-2.41zM208.796 201.458s4.626-7.413 14.3-2.263c0 0-4.459 6.57-14.022 3.926l-.278-1.663zM206.302 191.905s4.652-7.712 13.942-2.579c0 0-5.522 7.035-13.677 4.173l-.265-1.594zM205.39 183.216s4.626-9.713 13.306-5.002c0 0-5.27 8.554-13.037 6.665l-.27-1.663zM205.125 172.94s5.004-9.7 13.588-4.23c0 0-6.38 8.731-13.323 5.82l-.265-1.59zM205.78 163.614s6.275-9.363 13.484-7.166c0 0-6.515 9.922-13.458 9.388l-.025-2.222zM207.034 154.674s7.15-11.38 12.819-8.858c0 0-5.203 8.763-13.143 10.837l.324-1.98zM209.246 144.181s6.35-9.376 12.314-8.242c0 0-5.185 9.507-12.928 10.957l.614-2.715zM211.19 134.39s7.22-9.161 11.152-8.373c0 0-4.706 9.65-11.233 10.168l.08-1.794zM213.178 125.315s5.783-10.493 9.905-10.403c0 0-3.062 9.035-9.749 11.343l-.156-.94zM214.966 113.225s5.29-8.181 8.798-8.719c0 0-3.533 10.361-8.676 11.088l-.122-2.37zM215.883 105.212l3.785-15.889s2.552 13.417-4.122 18.78l.337-2.89zM215.693 88.379s-1.026-12.604-1.863-13.511c0 0 6.195 9.634 2.734 19.014l-.87-5.503zM215.853 221.178s-7.15-2.903-9.748 7.392c0 0 6.396 2.83 10.934-5.047l-1.186-2.345zM211.219 210.907s-8.55-2.283-10.746 8.361c0 0 6.834 3.15 11.894-5.938l-1.148-2.423zM208.527 202.115s-6.784-5.61-14.3 2.262c0 0 6.356 4.859 14.573-.6l-.273-1.662zM206.105 191.938s-6.906-5.885-14.06 1.865c0 0 7.516 4.969 14.324-.267l-.264-1.598zM205.427 183.466s-5.681-9.162-13.786-3.552c0 0 6.195 7.942 13.698 5.232l.088-1.68z" fill="#4B507D"/><path d="M205.63 172.81s-5.687-9.336-13.88-3.286c0 0 6.99 8.275 13.711 4.899l.168-1.614zM206.647 163.528s-3.41-10.678-10.96-10.493c0 0 3.487 11.285 10.304 12.62l.656-2.127zM207.223 154.661s-2.805-13.067-9.008-12.562c0 0 1.867 9.967 8.63 14.534l.378-1.972zM209.814 143.7s-3.646-10.677-9.71-11.088c0 0 2.489 10.497 9.58 13.852l.13-2.763zM211.896 134.358s-1.956-11.4-5.808-12.513c0 0-.497 10.677 5.017 14.135l.79-1.622zM213.452 125.142s-2.452-11.671-6.426-12.73c0 0 .277 9.498 6.001 13.597l.425-.867zM215.639 114.079s-1.611-9.548-4.627-11.38c0 0-.887 10.887 3.563 13.52l1.064-2.14z" fill="#4B507D"/><path d="M215.496 104.793l-5.211-15.502s-1.325 13.589 5.808 18.352l-.597-2.85zM213.372 88.904s-8.374-9.65-8.411-10.866c0 0 2.56 11.088 11.775 15.367l-3.364-4.5zM213.616 85.623s-8.744-14.205-11.776-14.99c0 0 9.622 3.007 12.196 14.473l-.42.517z" fill="#4B507D"/><path d="M215.067 115.693l-.446-.062c2.473-17.548 2.01-28.43-1.304-30.636l.257-.362c3.511 2.337 4.029 13.072 1.493 31.06z" fill="#444053"/><path d="M207.11 157.121l-.665-.119c.303-1.622.644-3.285 1.022-4.903 3.264-14.205 5.888-27.355 7.28-37.371l.5-.354c-1.413 10.017-3.852 23.63-7.124 37.852-.37 1.643-.715 3.281-1.013 4.895z" fill="#444053"/><path d="M235.649 247.063c-.101-.078-10.17-8.09-18.753-23.125a93.897 93.897 0 0 1-10.594-28.222c-2.473-12.37-2.103-26.693.374-40.007l.593.488c-5.572 29.93 2.524 53.536 10.376 67.277 8.5 14.899 18.45 22.825 18.55 22.903l-.546.686z" fill="#444053"/></g><path d="M137.61 209.372c-.977.398-1.993.699-3.031.896a30.802 30.802 0 0 1-5.502.514c.054.482.095.93.137 1.337.1 1.118.158 1.888.158 1.888l-1.95-.132-16.086-1.086-9.407-1.377c.454.602.947 1.175 1.476 1.714a7.77 7.77 0 0 0 1.88 1.444s8.488 6.798 9.956 6.86c.208 0 .274.205.241.53 3.572 0 14.68.514 11.598 6.63a4.903 4.903 0 0 1-2.524 2.43c-3.564 1.492-8.94-1.193-11.71-2.842-.27.522-.529 1.008-.757 1.423-.47.876-.799 1.456-.799 1.456l-.279-.198-14.272-10.05-3.127-2.624a11.023 11.023 0 0 1-2.708-.465l-.415-.132a.785.785 0 0 0-.046.111c-.114.321-.199.652-.254.987v.149c-.058.383-.097.768-.116 1.155 0 .263-.021.543-.021.823-.025 5.6 2.246 14.603 2.246 14.603s5.884 14.842 3.796 18.267a1.549 1.549 0 0 1-.415.444c-.737.527-1.177 1.464-1.406 2.579-.778 3.635.586 9.183.586 9.183s-.124.206-.337.526a15.917 15.917 0 0 1-1.547 2.057 6.11 6.11 0 0 1-.274.296 7.213 7.213 0 0 1-.832.74c.054.16.112.325.17.502.059.176.134.452.192.699a9.922 9.922 0 0 1-.52 6.05 16.514 16.514 0 0 0-1.048 4.346c-.27 2.726-.199 5.475.212 8.184-.062-.033-.116-.066-.179-.095-4.599-2.377-9.133-4.86-13.602-7.448a260.814 260.814 0 0 1-3.905-2.282 396.807 396.807 0 0 1-4.754-2.879c-2.08-1.283-4.158-2.599-6.238-3.943l-.973-.642-.374-.25c-.528-.35-1.048-.7-1.572-1.054a78.938 78.938 0 0 1-5.88-8.636 26.27 26.27 0 0 1-.782-1.476v-.025l-.142-.3-.586-.206c-1.102-.382-1.8-.65-1.8-.65.508-1.834.751-3.731.723-5.633-.033-3.702-1.069-8.636-5.336-12.593-6.304-5.893-7.173-11.712-7.265-13.945v-.411a5.096 5.096 0 0 1 .025-.564l.482-.456c-1.222-.243-2.37-.354-2.37-.354s4.184-14.969 11.228-19.966c3.494-2.467 6.4-6.58 8.455-10.108a153.138 153.138 0 0 1 12.592-18.255l1.269-1.583.37-.465.079-.095.1-.131a37.344 37.344 0 0 0-.524-.765l-.117-.169c-.553-.822-1.027-1.645-.952-2.628v-.028-.21c.018-.164.048-.326.091-.485.015.026.031.05.05.074.595-1.711 2.886-2.468 4.575-3.414 3.98-2.212 5.676-7.052 6.529-11.556.661-3.503 1.21-7.43 3.955-9.68 1.771-1.448 4.158-1.925 5.95-3.36a11.047 11.047 0 0 0 2.53-3.212c.415-.699.773-1.423 1.16-2.122 1.771-3.166 4.1-6.111 7.182-8.007 3.081-1.896 6.99-2.632 10.367-1.357 1.302.49 2.495 1.234 3.743 1.78a14.7 14.7 0 0 0 2.379.733c2.54.588 5.215.74 7.602 1.789 3.88 1.702 6.404 5.47 8.708 9.047 1.193 1.85 3.069 4.557 4.133 7.28v-.285c.514 1.2.796 2.482.832 3.784.021.554-.04 1.108-.179 1.645-.382 1.398-1.36 2.282-2.586 2.932l-.196.094a8.364 8.364 0 0 1-.807.358c-.041.226-.087.457-.137.679-.02.094-.046.193-.07.288-.055.23-.117.456-.183.682a15.811 15.811 0 0 1-4.99 7.543 16.822 16.822 0 0 1-5.582 3.125c-.145.05-.3.086-.445.132-.123.344-.3.667-.524.958a2.785 2.785 0 0 1-.565.538 3.44 3.44 0 0 1-.416.239.56.56 0 0 1-.112.053c-1.498.667-3.548.144-4.99-.85-.076-.05-.146-.108-.217-.161 0 .234-.037.481-.08.736-.04.255-.07.411-.116.625-.045.214-.062.317-.091.469-.03.152-.05.255-.075.374l-.05.21a32.11 32.11 0 0 1-4.632 11.145c-.325.486-.676.954-1.053 1.402l-1.031 1.554v.21c.195 3.578-.994 6.913-2.674 9.784a28.5 28.5 0 0 1-1.85 2.75l.232.136c2.33 1.312 6.92 3.644 9.823 3.447 0 0 10.979 1.402 12.251.699.175-.099.346.037.504.329 1.775-1.07 5.86-3.335 9.082-3.636 2.254-.213 4.088.53 4.43 3.29.34 2.76-1.34 4.54-3.694 5.54z" fill="url(#b)"/><path d="M79.055 265.226a8.928 8.928 0 0 1 .618 8.027c-1.043 2.542-1.159 5.71-1.051 8.036a270.333 270.333 0 0 1-4.031-2.317 410.989 410.989 0 0 1-4.907-2.922 360.35 360.35 0 0 1-6.439-4.003l-1.004-.652-.386-.254a.786.786 0 0 0-.125-.167c-.575-.593-3.928-5.268-5.92-8.816a25.41 25.41 0 0 1-.922-1.804v-.029c-.43-.927-.631-1.67-.503-2.008a4.141 4.141 0 0 1 2.082-2.504c2.473-1.253 6.44-.096 10.363 1.744a72.064 72.064 0 0 1 9.675 5.732l.348.246.034.025a44.19 44.19 0 0 1 2.035 1.478s.056.067.133.188z" fill="#FBBEBE"/><path d="M78.052 265.218a8.917 8.917 0 0 1 .619 8.033c-1.044 2.542-1.16 5.71-1.053 8.038a334.046 334.046 0 0 1-4.033-2.32 313.42 313.42 0 0 1-11.332-6.927l-1.006-.652-.387-.254a.907.907 0 0 0-.124-.167c-.576-.589-3.931-5.262-5.924-8.814a25.392 25.392 0 0 1-.924-1.802v-.025c-.43-.931-.631-1.67-.502-2.012a4.154 4.154 0 0 1 2.083-2.504c2.474-1.252 6.444-.096 10.37 1.745a72.135 72.135 0 0 1 9.683 5.73l.348.245.034.026c1.289.888 2.037 1.477 2.037 1.477s.034.062.111.183z" fill="#000" opacity=".05"/><path d="M93.182 274.333a9.939 9.939 0 0 1-.598 2.072 16.077 16.077 0 0 0-.964 3.73 32.193 32.193 0 0 0 .034 8.154 331.647 331.647 0 0 1-13.884-7.507 267.032 267.032 0 0 1-3.986-2.3c-.297-2.205-.722-4.145-1.201-4.622-.629-.647-4.215-5.654-6.444-9.604-.288-.497-.539-.978-.772-1.434v-.02c-.09-.183-.174-.357-.255-.531-.573-1.202-.879-2.139-.726-2.59a4.784 4.784 0 0 1 1.749-2.463c3.765-2.686 11.592.95 17.603 4.56l.148.087c1.138.692 2.216 1.376 3.184 2.014l.564.373a75.132 75.132 0 0 1 4.139 2.947c.41.618.74 1.284.98 1.981a9.788 9.788 0 0 1 .429 5.152z" fill="#FBBEBE"/><path d="M54.827 261.263c3.1 1.074 7.678 2.5 10.169 2.537.258.008.516-.005.772-.038 1.753-.237 7.157.144 12.118.588 1.988.173 3.903.355 5.486.516l3.975.423v-1.523a98.337 98.337 0 0 0-3.762-2.435c-6.061-3.713-14.025-7.506-17.838-4.744-5.37-2.571-10.822-3.806-12.37.77-.18.595.473 2.11 1.45 3.906z" fill="#000" opacity=".1"/><path d="M40.355 227.058c.085 2.235.938 8.036 7.053 13.896 7.8 7.464 4.474 18.197 4.474 18.197s9.297 3.583 13.307 3.678a4.86 4.86 0 0 0 .764-.037c2.405-.328 11.963.539 17.456 1.082l3.938.415v-31.733L44.272 222.29l-3.9 3.815a7.326 7.326 0 0 0-.017.954z" fill="#5C5C8E"/><g opacity=".1" fill="#000"><path d="M86.226 263.675l.709.07v.338l-3.959-.412c-3.963-.387-10.02-.939-14.018-1.1 2.766-.238 11.92.581 17.268 1.104zM39.712 226.172l3.921-3.789 2.617.614-3.267 3.175c-.02.315-.02.631 0 .947.085 2.22.943 7.976 7.09 13.798 7.841 7.412 4.498 18.064 4.498 18.064s7.731 2.944 12.162 3.55c-.426-.002-.852.021-1.275.07a4.946 4.946 0 0 1-.769.037c-4.03-.1-13.376-3.657-13.376-3.657s3.343-10.652-4.498-18.064c-6.177-5.822-7.035-11.579-7.12-13.786-.015-.32-.01-.64.017-.96z"/></g><path d="M124.347 205.818s13.936-9.522 14.953-.953c1.018 8.568-14.953 7.366-14.953 7.366v-6.413z" fill="#FBBEBE"/><path d="M102.035 199.289s7.181 4.525 11.157 4.258c0 0 10.855 1.39 12.118.695 1.262-.695 2.037 10.047 2.037 10.047l-17.838-1.206-11.441-1.666s-5.72-3.332-5.72-6.204 9.687-5.924 9.687-5.924z" fill="#F7CDDD"/><path d="M102.035 199.289s7.181 4.525 11.157 4.258c0 0 10.855 1.39 12.118.695 1.262-.695 2.037 10.047 2.037 10.047l-17.838-1.206-11.441-1.666s-5.72-3.332-5.72-6.204 9.687-5.924 9.687-5.924z" fill="#4B507D"/><path d="M112.794 222.304s16.76-.678 13.005 6.965c-3.756 7.644-16.452-1.637-16.452-1.637l3.447-5.328z" fill="#FBBEBE"/><path d="M97.347 207.289s13.746-9.262 11.814-20.54c-1.932-11.278-11.814 8.622-11.814 8.622v11.918z" fill="#5C5C8E"/><path d="M100.347 156.29c.003 4.145 1.666 8.127 4.64 11.107a16.636 16.636 0 0 0 5.672 3.71c.689.278 1.398.507 2.122.682.77.193 1.552.332 2.342.416a16.732 16.732 0 0 0 7.137-.828c7.938-2.672 12.535-10.698 10.675-18.64-1.86-7.94-9.582-13.257-17.934-12.347-8.35.91-14.661 7.757-14.654 15.9z" fill="#FBBEBE"/><path d="M41.355 226.96c1.441.256 3.222.727 3.222 1.45 0 1.219 20.11 7.803 20.11 7.803s-.754 1.702 1.256 4.631c2.011 2.929 18.363 19.746 18.363 19.746l-.054.496-.21 1.937-.997 9.266s6.284-2.194 8.295-1.95c.65.077 1.358-.325 2.007-.91a9.186 9.186 0 0 0-1.311-3.116s-1.63-1.243-4.09-2.888v-31.079L45.24 222.29l-3.867 3.737a7.09 7.09 0 0 0-.017.934z" fill="#000" opacity=".1"/><path d="M38.347 225.94s5.016.491 5.016 1.734c0 1.243 20.064 7.934 20.064 7.934s-.752 1.73 1.254 4.709c2.007 2.978 18.321 20.077 18.321 20.077l-1.254 11.895s6.27-2.23 8.277-1.983c.898.112 1.89-.71 2.708-1.652a17.297 17.297 0 0 0 1.81-2.548s-2.261-9.425.753-11.656c3.014-2.23-3.26-18.586-3.26-18.586s-2.839-11.63-2.003-16.62c.053-.332.134-.66.243-.978 0-.038.02-.075.037-.112 1.79-4.766 21.034-44.75 21.034-44.75a28.128 28.128 0 0 0-.242-3.392c-.038-.314-.088-.64-.15-.966a16.433 16.433 0 0 0-.39-1.764 11.53 11.53 0 0 0-.363-1.09c-.594-1.512-1.505-2.672-2.868-2.701 0 0-1.505-1.652-5.016-2.09-2.591-.335-6.27 0-11.286 2.09-11.788 4.956-14.546 5.204-14.546 5.204l-5.928 7.67-1.22 1.577a151.546 151.546 0 0 0-12.085 18.128c-1.973 3.502-4.765 7.587-8.113 10.04-6.776 4.96-10.793 19.83-10.793 19.83z" fill="#4B507D"/><path d="M84.347 197.289s-18.016 3.973-25 14l25-14zM78.347 215.289s-5.187 21.319-3.748 22.924c1.44 1.606 3.748-22.924 3.748-22.924zM78.778 226.535c1.313 1.566 6.633 13.654 6.633 13.654l-1.538 20.295-1.349 11.805s6.746-2.214 8.909-1.968c.962.11 2.033-.7 2.914-1.64-1.403-6.914-4.398-21.38-4.947-21.659-.715-.369-4.357-11.993-4.55-15.223-.194-3.23-5.267-10.51-5.267-10.51s-2.122 3.68-.805 5.246z" fill="#000" opacity=".1"/><path d="M82.429 206.262c.311.923.806 6.274.806 6.274.35 4.719 4.06 6.26 6.364 6.753.054-.33.137-.655.247-.972 1.536-4.178 21.501-44.537 21.501-44.537a25.53 25.53 0 0 0-.798-6.076c-4.346-1.23-11.23.664-11.23.664-1.987-.25-8.475 12.153-8.475 12.153s-4.325 9.5-4.798 10.792c-.474 1.292 0 3.42-.192 4.158-.192.738-2.214 1.377-2.5 2.398-.285 1.021-.098 3.038-.29 3.407-.191.37-.968 4.064-.635 4.986z" fill="#000" opacity=".1"/><path d="M84.427 206.304c.319.924.815 6.28.815 6.28.293 3.933 2.948 5.661 5.173 6.417.999.34 2.044.539 3.104.59l3.12 2.579 14.404 10.119s5.371-9.442 3.914-9.503c-1.457-.062-9.859-6.774-9.859-6.774-2.587-1.305-5.147-5.673-6.342-7.914.071-.27.123-.545.156-.821.521-4.183 11.385-20.197 11.385-20.197s4.199-4.708 5.837-13.431c.048-.197.078-.411.116-.612.047-.272.076-.546.087-.821.194-3.354-2.367-4.573-5.41-4.865a22.998 22.998 0 0 0-4.743.14 35.675 35.675 0 0 0-4.656.87c-1.293-.16-4.509 4.992-6.613 8.641a125.4 125.4 0 0 0-1.948 3.527s-4.393 9.515-4.885 10.808c-.491 1.293 0 3.42-.194 4.163-.194.743-2.237 1.379-2.521 2.401-.285 1.022-.104 3.042-.298 3.411-.194.37-.97 4.068-.642 4.992z" fill="#4B507D"/><path d="M68.347 185.044c2.656 2.708 6.988 2.717 10.45 1.342 3.46-1.375 6.397-3.884 9.61-5.815 2.095-1.246 4.29-2.297 6.343-3.597.302-.195.595-.39.88-.59 2.371-1.66 4.42-3.792 6.871-5.316a10.757 10.757 0 0 1 5.522-1.753 6.302 6.302 0 0 1 2.635.549c.145.062.285.134.42.216.805.462 1.55 1.02 2.22 1.661.691.619 1.357 1.28 2.095 1.852.046-.199.075-.415.113-.618.045-.275.073-.553.084-.831.553.054 1.11.083 1.675.083a15.982 15.982 0 0 0 5.292-.93c0-.067.025-.137.038-.204.603-3.14 1.676-6.467 4.24-8.232 1.479-1.026 3.842-1.441 5.886-2.222 1.948-6.727-.755-13.928-6.667-17.755-5.911-3.827-13.649-3.386-19.079 1.087-5.43 4.474-7.284 11.934-4.57 18.396-2.598-.337-6.285 0-11.312 2.101-11.815 4.985-14.58 5.234-14.58 5.234l-5.908 7.725c.641.972 1.366 1.931 1.433 3.065.134 2.102-1.91 3.551-3.69 4.552z" fill="#000" opacity=".1"/><path d="M126.52 161.094c-2.537 1.753-3.616 5.045-4.216 8.152-.188.971-.367 1.996-.967 2.766-1.345 1.724-4.053 1.234-5.811 0-1.758-1.235-3.141-3.112-5.103-3.988-2.608-1.16-5.67-.313-8.107 1.197-2.437 1.51-4.479 3.622-6.836 5.264-2.28 1.588-4.82 2.72-7.195 4.148-3.191 1.922-6.107 4.403-9.552 5.761-3.446 1.358-7.749 1.358-10.386-1.325 1.77-.971 3.804-2.407 3.666-4.485-.137-2.079-2.591-3.638-2.425-5.762.167-2.123 2.704-2.97 4.525-4.016 3.811-2.19 5.415-6.996 6.249-11.44.633-3.47 1.153-7.35 3.782-9.577 1.692-1.436 3.987-1.905 5.69-3.325 1.617-1.35 2.5-3.395 3.533-5.276 1.696-3.14 3.92-6.053 6.866-7.93 2.945-1.876 6.69-2.6 9.923-1.337 1.25.481 2.366 1.234 3.591 1.757 3.041 1.3 6.528 1.128 9.544 2.494 3.712 1.687 6.124 5.416 8.332 8.955 1.887 3.024 5.578 8.378 4.545 12.288-1.054 3.987-6.895 3.773-9.648 5.679z" fill="#7C5C5C"/><g opacity=".1" fill="#000"><path d="M68.657 172.576c.014-.166.043-.33.087-.49.668 1.063 1.501 2.093 1.58 3.349a2.92 2.92 0 0 1-.07.858c-.743-1.206-1.7-2.332-1.597-3.717zM77.012 181.341c3.43-1.39 6.332-3.914 9.508-5.86 2.363-1.453 4.892-2.604 7.16-4.22 2.347-1.674 4.379-3.822 6.805-5.354 2.425-1.532 5.473-2.398 8.068-1.218 1.953.892 3.317 2.78 5.08 4.056 1.762 1.277 4.445 1.775 5.784.021.601-.782.775-1.82.962-2.808.597-3.165 1.658-6.514 4.196-8.297 2.745-1.934 8.554-1.716 9.607-5.798a6.338 6.338 0 0 0 .137-2.214c.676 1.812 1.02 3.637.613 5.228-1.057 4.081-6.866 3.864-9.61 5.798-2.522 1.783-3.6 5.132-4.197 8.296-.186.988-.36 2.03-.958 2.81-1.343 1.753-4.038 1.255-5.805-.022-1.766-1.276-3.126-3.164-5.079-4.056-2.595-1.18-5.643-.314-8.069 1.218-2.425 1.532-4.457 3.684-6.804 5.354-2.268 1.62-4.797 2.767-7.16 4.22-3.177 1.959-6.079 4.479-9.508 5.86-3.43 1.382-7.712 1.377-10.337-1.352a12.89 12.89 0 0 0 1.924-1.29c2.397.884 5.258.608 7.683-.372z"/></g><path d="M345.736 140.921l-16.928-16.941a9.01 9.01 0 0 0-6.365-2.691 9.01 9.01 0 0 0-6.401 2.604l-106.3 104.896-44.945-45.08c-3.476-3.509-9.15-3.55-12.676-.091l-17.11 16.847a9.01 9.01 0 0 0-.086 12.705l68.257 68.465c3.513 3.503 9.203 3.543 12.766.09l129.693-128.103a8.925 8.925 0 0 0 2.706-6.33 8.923 8.923 0 0 0-2.61-6.37z" fill="#3ACC6C"/><path d="M319.8 275.7s-13.708-.75-12.103 7.981c-.17.908.323 1.812 1.219 2.241 0 0 0-.648 1.403-.428.493.077.994.099 1.493.065a3.25 3.25 0 0 0 1.82-.68s3.85-1.446 5.352-7.174c0 0 1.108-1.247 1.063-1.569l-2.313.9s.793 1.516.17 2.775c0 0-.076-2.722-.52-2.656-.09 0-1.201.525-1.201.525s1.344 2.64.331 4.563c0 0 .39-3.26-.757-4.371l-1.628.863s1.587 2.73.512 4.954c0 0 .277-3.414-.857-4.742l-1.475 1.043s1.493 2.69.583 4.539c0 0-.116-3.977-.896-4.278 0 0-1.291 1.035-1.489 1.463 0 0 1.022 1.951.39 2.982 0 0-.39-2.652-.708-2.66 0 0-1.286 1.751-1.42 2.953a5.972 5.972 0 0 1 1.106-3.125 4.027 4.027 0 0 0-1.968.93s.198-1.223 2.287-1.353c0 0 1.062-1.329 1.344-1.41 0 0-2.075-.159-3.335.35 0 0 1.108-1.173 3.712-.64l1.457-1.079s-2.73-.342-3.891.033c0 0 1.345-1.035 4.285-.281l1.587-.86s-2.33-.456-3.72-.293c0 0 1.465-.717 4.186.06l1.135-.464s-1.708-.305-2.21-.35c-.502-.045-.525-.175-.525-.175a6.484 6.484 0 0 1 3.205.326s2.417-.82 2.376-.958zM296.302 214.429s-7.765 10.564 2.605 13.172c.908.54 2.145.552 3.07.032 0 0-.695-.308.24-1.308.332-.358.61-.746.83-1.156a2.283 2.283 0 0 0 .175-1.752s.365-3.708-5.135-7.452c0 0-.805-1.44-1.175-1.548l-.19 2.24s2.055.048 3.12 1.104c0 0-3-1.152-3.17-.772-.03.08-.035 1.2-.035 1.2s3.58.096 5.16 1.768c0 0-3.36-1.76-5.165-1.344l.12 1.68s3.79-.048 5.68 1.8c0 0-3.595-1.744-5.62-1.436l.395 1.64s3.7 0 5.255 1.556c0 0-4.405-1.676-5.13-1.2 0 0 .5 1.488.84 1.836 0 0 2.655.056 3.46 1.02 0 0-3.095-.872-3.27-.624 0 0 1.27 1.804 2.5 2.448-1.184-.547-2.168-1.331-2.855-2.276a2.792 2.792 0 0 0 0 2s-1.255-.712-.315-2.4c0 0-.92-1.436-.865-1.7 0 0-1.22 1.58-1.305 2.8 0 0-.72-1.404 1.18-3.24l-.44-1.64s-1.755 2.024-1.935 3.112c0 0-.455-1.524 1.865-3.532l-.14-1.644s-1.68 1.648-2.2 2.824c0 0-.045-1.484 2.18-3.3l.07-1.108s-1.2 1.224-1.5 1.6c-.3.376-.455.34-.455.34.367-.931 1.051-1.762 1.975-2.4 0 0 .35-2.312.18-2.34zM257.237 128.545s-7.76 10.568 2.605 13.172c.907.542 2.146.555 3.07.032 0 0-.695-.308.245-1.308.33-.359.607-.747.825-1.156a2.261 2.261 0 0 0 .175-1.752s.37-3.708-5.135-7.452c0 0-.805-1.436-1.175-1.544l-.19 2.236s2.06.048 3.12 1.104c0 0-3-1.152-3.165-.772-.035.08-.035 1.2-.035 1.2s3.575.096 5.155 1.768c0 0-3.36-1.76-5.165-1.344l.125 1.68s3.785-.048 5.675 1.8c0 0-3.595-1.74-5.62-1.436l.395 1.64s3.7 0 5.26 1.56c0 0-4.41-1.68-5.135-1.2 0 0 .5 1.484.845 1.832 0 0 2.65.056 3.455 1.02 0 0-3.095-.872-3.265-.624 0 0 1.265 1.808 2.5 2.448-1.185-.545-2.17-1.328-2.86-2.272a2.81 2.81 0 0 0 0 1.976s-1.255-.712-.315-2.42c0 0-.92-1.436-.865-1.7 0 0-1.22 1.58-1.305 2.8 0 0-.72-1.404 1.185-3.24l-.445-1.64s-1.755 2.024-1.93 3.112c0 0-.46-1.524 1.86-3.532l-.14-1.644s-1.68 1.648-2.2 2.824c0 0-.045-1.484 2.18-3.296l.07-1.112s-1.2 1.224-1.5 1.6c-.3.376-.455.34-.455.34.376-.933 1.068-1.764 2-2.4 0 0 .325-2.252.155-2.3zM119.877 46.52s-25.13 17.711-8.495 31.741c0 0 1.882 3.323 5.678 2.484 0 0-.983-1.24 1.778-2.758a14.138 14.138 0 0 0 2.705-1.957 6.73 6.73 0 0 0 2.1-3.795s4.443-8.071-1.996-20.831c0 0-.04-3.876-.626-4.411l-2.609 4.9s3.779 1.725 4.687 4.942c0 0-4.439-4.972-5.113-4.217-.135.148-1.27 2.657-1.27 2.657s6.561 3.028 7.805 8.037c0 0-4.47-6.612-8.26-7.093l-1.475 3.884s7.091 2.872 8.735 8.522c0 0-4.922-6.747-9-7.653l-.922 4.01s6.861 2.93 8.196 7.641c0 0-6.522-7.245-8.344-6.709 0 0-.617 3.728-.29 4.795 0 0 4.877 2.213 5.4 5.018 0 0-4.875-4.394-5.449-3.973 0 0 .53 5.06 2.2 7.494 0 0-2.735-3.412-3.013-7.371 0 0-1.865 2.108-1.97 4.474 0 0-1.617-2.594 1.857-5.706 0 0-.248-3.964.122-4.512 0 0-3.878 2.602-5.274 5.3 0 0 .083-3.727 5.478-6.37l.835-4.045s-5.309 3.176-6.74 5.482c0 0 .692-3.795 7.036-6.502l1.408-3.817s-4.782 2.4-6.956 4.639c0 0 1.422-3.373 7.391-5.722l1.248-2.446s-3.478 1.813-4.413 2.42c-.935.608-1.196.422-1.196.422a13.418 13.418 0 0 1 6.113-3.867s2.93-4.908 2.64-5.106zM98.04 103.11s-31.437-13.147-35.558 10.56c0 0-2.148 3.697.841 6.75 0 0 .643-1.64 3.683.054a15.677 15.677 0 0 0 3.431 1.388 7.759 7.759 0 0 0 4.886-.26s10.335-.555 19.034-14.008c0 0 3.725-2.292 3.914-3.153l-6.235.418s.48 4.537-2.102 7.26c0 0 2.291-7.043 1.19-7.24-.223-.041-3.293.36-3.293.36s.795 7.892-3.363 11.973c0 0 3.86-8.025 2.178-11.83l-4.596.882s1.262 8.3-3.288 13.127c0 0 3.738-8.531 2.296-12.864L76.652 108s1.063 8.117-2.742 12.128c0 0 3.322-10.292 1.758-11.71 0 0-3.96 1.598-4.81 2.51 0 0 .63 5.854-1.791 7.966 0 0 1.488-7.109.752-7.402 0 0-4.604 3.446-6.008 6.42 0 0 1.753-4.542 5.428-7.11 0 0-3.086-.522-5.466.766 0 0 1.594-3.016 6.58-1.585 0 0 3.696-2.547 4.436-2.51 0 0-4.718-2.09-8.127-1.831 0 0 3.653-2.091 9.279 1.4l4.385-1.58s-6.092-3.107-9.149-3.094c0 0 4.062-1.564 10.293 2.785l4.499-.925s-5.046-3.073-8.451-3.784c0 0 4.082-.644 9.746 3.575l3.078-.255s-3.726-2.183-4.852-2.714c-1.127-.53-1.077-.874-1.077-.874a14.707 14.707 0 0 1 7.22 3.454s6.378-.13 6.407-.518zM80.13 70.498s-11.463-25.87-27.943-14.005c0 0-3.49.988-3.46 4.518 0 0 1.358-.616 2.215 2.14.319.977.754 1.914 1.297 2.792a6.47 6.47 0 0 0 3.14 2.639s6.642 5.581 19.891 2.486c0 0 3.628.756 4.251.35l-4.052-3.322s-2.378 2.998-5.57 3.141c0 0 5.549-2.913 4.99-3.66-.112-.152-2.222-1.664-2.222-1.664s-4.164 5.185-9.081 5.265c0 0 7.088-2.61 8.298-5.848l-3.33-2.11s-4.181 5.712-9.798 6.012c0 0 7.308-2.977 8.981-6.405l-3.559-1.617s-4.134 5.488-8.808 5.695c0 0 8.09-4.273 7.965-6.016 0 0-3.36-1.31-4.424-1.233 0 0-3.057 3.863-5.786 3.753 0 0 5.099-3.415 4.818-4.01 0 0-4.844-.567-7.451.421 0 0 3.745-1.722 7.503-1.156 0 0-1.579-2.082-3.784-2.66 0 0 2.754-.9 4.956 2.807 0 0 3.757.591 4.194 1.03 0 0-1.643-3.964-3.892-5.75 0 0 3.46.844 4.848 6.152l3.61 1.566s-1.89-5.354-3.766-7.089c0 0 3.403 1.385 4.649 7.558l3.282 2.022s-1.271-4.729-2.928-7.106c0 0 2.872 1.95 3.849 7.723l2.032 1.604s-.994-3.437-1.37-4.4c-.377-.962-.139-1.14-.139-1.14a11.967 11.967 0 0 1 2.374 6.199s3.979 3.542 4.22 3.318zM290.988 84.665s-2.734-13.75-11.375-9.574c-.986.099-1.798.852-2.012 1.865 0 0 .678-.17.805 1.26.048.508.152 1.008.31 1.49.219.65.632 1.21 1.177 1.595 0 0 2.485 3.374 8.798 3.163 0 0 1.58.724 1.904.586l-1.527-2.016s-1.37 1.228-2.83.985c0 0 2.8-.875 2.624-1.297-.04-.087-.853-1.031-.853-1.031s-2.389 2.122-4.642 1.677c0 0 3.47-.577 4.336-2.04l-1.313-1.351s-2.424 2.374-5.005 1.966c0 0 3.61-.733 4.699-2.241l-1.461-1.146s-2.407 2.264-4.555 1.911c0 0 4.09-1.292 4.2-2.154 0 0-1.4-.967-1.894-1.036 0 0-1.75 1.586-2.988 1.265 0 0 2.625-1.164 2.577-1.485 0 0-2.148-.752-3.43-.527a6.573 6.573 0 0 1 3.522.17 3.87 3.87 0 0 0-1.466-1.669s1.339-.17 1.986 1.834c0 0 1.65.655 1.807.916 0 0-.367-2.094-1.216-3.208 0 0 1.496.747 1.614 3.479l1.492 1.118s-.346-2.796-1.032-3.832c0 0 1.413 1.013 1.386 4.125l1.313 1.311s-.123-2.434-.648-3.754c0 0 1.116 1.233 1.007 4.125l.77.986s-.118-1.774-.197-2.292c-.079-.518.044-.573.044-.573.447 1.02.615 2.15.485 3.264 0 0 1.457 2.218 1.588 2.135zM247.155 312.72s-2.73-13.75-11.375-9.574c-.988.098-1.802.851-2.017 1.865 0 0 .678-.17.805 1.26.047.509.153 1.009.315 1.49.217.65.628 1.21 1.172 1.595 0 0 2.485 3.374 8.803 3.163 0 0 1.58.724 1.898.586l-1.522-2.016s-1.37 1.228-2.835.985c0 0 2.8-.875 2.625-1.297-.035-.087-.853-1.031-.853-1.031s-2.389 2.122-4.642 1.677c0 0 3.474-.577 4.336-2.04l-1.313-1.374s-2.397 2.383-4.987 1.961c0 0 3.609-.733 4.698-2.24l-1.46-1.147s-2.403 2.264-4.55 1.912c0 0 4.09-1.288 4.2-2.155 0 0-1.405-.967-1.895-1.035 0 0-1.75 1.585-2.993 1.265 0 0 2.625-1.165 2.577-1.485 0 0-2.148-.752-3.43-.528a6.586 6.586 0 0 1 3.526.17 3.901 3.901 0 0 0-1.465-1.668s1.334-.17 1.982 1.833c0 0 1.653.655 1.81.917 0 0-.367-2.095-1.215-3.209 0 0 1.496.747 1.61 3.48l1.496 1.117s-.35-2.795-1.037-3.831c0 0 1.417 1.013 1.391 4.125l1.313 1.31s-.123-2.433-.652-3.753c0 0 1.12 1.233 1.01 4.125l.77.985s-.122-1.773-.2-2.291c-.08-.518.043-.569.043-.569a6.293 6.293 0 0 1 .486 3.259s1.452 2.232 1.575 2.163z" opacity=".5" fill="#4B507D"/></g></svg>