<svg id="countryside" width="451" height="313" xmlns="http://www.w3.org/2000/svg"><defs><linearGradient x1="50.009%" y1="99.999%" x2="50.009%" y2="-.013%" id="a"><stop stop-color="gray" stop-opacity=".25" offset="0%"/><stop stop-color="gray" stop-opacity=".12" offset="54%"/><stop stop-color="gray" stop-opacity=".1" offset="100%"/></linearGradient></defs><g fill="none" fill-rule="evenodd"><path d="M373.938 175.244c-12.734 16.174-7.788 39.803.304 58.723 2.71 6.335 5.775 13.04 4.63 19.83-1.397 8.308-8.804 14.392-16.615 17.59-14.207 5.868-31.214 4.469-44.264-3.642-11.281-7.012-19.36-18.412-30.834-25.104-19.208-11.193-43.643-6.968-64.492.743-14.75 5.457-30.878 12.556-45.536 6.852-10.313-3.997-17.444-13.78-21.33-24.132-1.877-5.001-3.237-10.394-6.803-14.391-2.129-2.355-4.906-4.03-7.755-5.437-26.012-12.876-58.826-5.996-84.07-20.259-17.067-9.606-28-27.798-32.802-46.766s-4.282-38.871-3.058-58.39c.873-13.884 2.438-28.702 11.317-39.42 9.393-11.332 25.516-15.55 40.086-13.395 14.57 2.155 27.78 9.834 39.398 18.876 14.522 11.3 27.988 25.376 45.82 29.957 12.141 3.118 24.915 1.411 37.44.823 20.938-.987 41.88 1.2 62.7 3.598 19.933 2.303 40.018 4.837 58.999 11.313 13.438 4.585 24.21 12.904 36.9 18.716 8.272 3.79 17.292 4.837 25.12 9.662 9.647 5.944 18.487 16.285 16.006 28.382-2.337 11.52-14.402 17.289-21.161 25.871z" fill="#7980CA" opacity=".1"/><path d="M.304 215.015s73.233-19.188 168.075 29.58c94.842 48.77 198.488-38.375 196.487-51.566-2.001-13.192 68.83 0 68.83 0v117.924H.304v-95.938z" fill="#7980CA" opacity=".1"/><ellipse fill="#FFDF9C" cx="51.279" cy="19.883" rx="19.905" ry="19.883"/><path d="M186.075 93.584l3.57 10.15-2.746 17.06s-4.15 13.592-3.734 20.212c.416 6.62 0 15.674 0 15.674s-9.956 18.148-1.66 25.584c1.928 1.722 3.541 1.379 4.882-.168a42.84 42.84 0 0 0 4.161 1.998l-6.963 27.015-6.639 13.192s-14.114 11.992-19.496 37.144c0 0-5.383 16.761-8.804 21.766a6.844 6.844 0 0 1-.508.676 28.23 28.23 0 0 1-1.469-2.643l-6.247 16.498s12.446 7.011 21.158 9.897c8.712 2.887 18.668-.4 21.573-4.125 2.906-3.726-5.806-7.835-12.033-10.313-3.017-1.2-4.666-4.05-5.57-6.668-.08-.8-.145-1.715-.173-2.694-.132-4.681.589-11.001 4.498-15.798 7.051-8.663 17.84-30.109 17.84-30.109s10.805-11.549 13.278-16.086l14.939-24.912c8.287 9.382 16.591 31.508 16.591 31.508l3.318 20.211s10.804 28.874 14.106 31.76c.092.08.184.172.276.268l.084.092c.067.072.133.147.2.227l.08.1c.088.108.172.224.26.344l.06.092c.067.096.134.196.2.3l.092.148.176.296.08.14c.08.14.16.286.237.435l.084.16.164.328.092.192.168.36.068.152c.075.165.147.333.216.503l.08.196.148.364.08.204.184.475.044.12.192.524.068.196.144.4.06.175.192.58.025.08.164.516.052.172.156.507.036.12.172.58.032.116.132.46.048.167.12.436.036.124.132.496.064.24.06.24.076.295.02.08c.096.38.184.74.264 1.067l.1.4.044.196v.052a15.373 15.373 0 0 1-1.733-1.331 47.091 47.091 0 0 1 0 8.25c-.4 4.126 3.734 9.898 3.734 9.898s37.34-9.074 39.414-15.262c2.073-6.188-6.64-5.36-9.128-4.537-2.49.823-14.935-1.651-16.596-4.537a7.996 7.996 0 0 0-1.116-1.475 2.363 2.363 0 0 0-2.882-.476l-.092-.104-.108-.132-.072-.092-.132-.172a6.924 6.924 0 0 1-.276-.4l-.1-.151c-.165-.267-.333-.55-.504-.852l-.032-.06c-2.645-4.825-5.495-14.674-6.15-17.017v-.052l-.053-.192v-.124l-.028-.095v-.048l-9.54-30.937c2.905-11.137 0-16.497 0-16.497l-5.395-25.16-3.045-11.393a1.53 1.53 0 0 0 .14-.156c-2.48-6.931-4.426-21.634-5.638-32.995-.078-.738-.152-1.459-.224-2.162l9.184 4.225s12.445 18.972 20.329 9.898c7.883-9.074-15.767-16.91-15.767-16.91l-14.903-9.877-.032-.436-1.66-12.392s-4.563-14.846-2.49-24.748c1.765-8.43-4.002-11.477-5.738-12.196a5.551 5.551 0 0 0-.845-.248c-2.277-.536-4.802-2.85-6.967-5.329a27.313 27.313 0 0 0-6.51-5.408 6.352 6.352 0 0 0 2.713-3.998c.344-1.903-.309-3.793-.893-5.66a50.525 50.525 0 0 1 2.937-5.996h.068c.174-.293.342-.572.505-.836 9.056-1.054 15.895-8.704 15.923-17.812a17.778 17.778 0 0 0-2.237-8.655c1.86-.643 3.641-1.459 2.97-3.366-.457-1.29-1.67-2.13-2.614-3.122-2.501-2.626-3.262-6.568-5.875-9.082a8.937 8.937 0 0 0-2.585-1.71c-2.657-1.504-6.055-1.696-9.124-1.136-3.798.695-7.34 2.366-11.049 3.442-3.261.943-6.675 1.43-9.8 2.762-5.334 2.267-9.44 6.876-11.901 12.096-2.177 4.613-3.202 9.726-5.567 14.24-2.365 4.512-6.75 8.578-11.873 8.394-1.325-.044-2.697-.364-3.938.096a4.8 4.8 0 0 0-2.289 2.086c-2.801 4.577-1.004 10.742-3.241 15.618-1.665 3.63-5.25 5.925-8.188 8.639-2.937 2.714-5.462 6.744-4.074 10.49.713 1.918 2.345 3.317 4.25 4.16.97.537 2.015.921 3.101 1.14 2.802.563 5.667.224 8.504.024 7.672-.54 16.063-.252 22.154-4.921 2.51-1.923 4.442-4.577 6.45-7.08.023 3.81.456 7.608 1.294 11.325zm11.048 25.94c.625 1.027 1.257 2.05 1.913 3.058 6.099 9.354-2.173 22.15-2.173 22.15a22.393 22.393 0 0 0-4.802 5.448c.108-3.937.568-8.435 1.897-11.637 2.065-4.984 2.89-14.158 3.165-19.031v.012z" fill="url(#a)" fill-rule="nonzero"/><path d="M190.885 101.58l-3.242 20.15s-4.054 13.296-3.645 19.74c.408 6.443 0 15.31 0 15.31s-9.725 17.724-1.621 24.976c8.103 7.251 10.537-22.961 10.537-22.961s-1.201-12.892 1.62-19.74c2.822-6.847 3.242-21.754 3.242-21.754l-6.891-15.722z" fill="#FFCDD3"/><path d="M190.885 101.58l-3.242 20.15s-4.054 13.296-3.645 19.74c.408 6.443 0 15.31 0 15.31s-9.725 17.724-1.621 24.976c8.103 7.251 10.537-22.961 10.537-22.961s-1.201-12.892 1.62-19.74c2.822-6.847 3.242-21.754 3.242-21.754l-6.891-15.722z" fill="#000" opacity=".05"/><path d="M238.362 170.85l5.602 20.975 5.267 24.573s2.837 5.236 0 16.113l9.32 30.213s5.266 19.336 8.507 19.74c3.242.403-3.241 15.31-3.241 15.31l-8.916-5.237s-2.433-12.084-5.674-14.906c-3.242-2.823-13.779-31.02-13.779-31.02l-3.241-19.74s-10.129-26.99-19.044-33.439c-8.916-6.447-11.754-16.92-11.754-16.92l36.953-5.661z" fill="#FFCDD3"/><path d="M201.421 176.52s2.838 10.473 11.754 16.92c8.915 6.448 19.044 33.439 19.044 33.439l3.241 19.74s10.537 28.197 13.779 31.02c2.377 2.07 4.321 9.134 5.202 12.743.316 1.312.488 2.163.488 2.163l8.916 5.237s6.483-14.907 3.241-15.31c-.504-.06-1.052-.58-1.628-1.412-3.122-4.52-6.88-18.328-6.88-18.328l-9.32-30.213c2.838-10.877 0-16.113 0-16.113l-5.266-24.573-5.602-20.97-36.969 5.656z" fill="#000" opacity=".05"/><path d="M149.554 281.26l3.242 7.655 14.586-1.599a33.428 33.428 0 0 1-.744-6.324c-.128-4.573.576-10.745 4.402-15.43 6.879-8.482 17.404-29.42 17.404-29.42s10.536-11.282 12.965-15.71l20.285-33.827-.632-3.034 5.47-5.037h-34.027l-8.103 31.42-6.483 12.892s-13.778 11.684-19.045 36.256c0 0-5.254 16.39-8.603 21.259a5.877 5.877 0 0 1-.717.9z" fill="#FFCDD3"/><path d="M254.42 290.374c.317 1.312.489 2.163.489 2.163l8.916 5.237s6.483-14.907 3.241-15.31c-.504-.06-1.052-.58-1.628-1.412a2.266 2.266 0 0 0-1.037 2.51 6.22 6.22 0 0 0 .64 1.72c1.201 1.998-4.053 5.236-4.053 5.236-1.777 2.275-4.658 1.08-6.567-.144z" fill="#000" opacity=".1"/><path d="M264.805 284.374c-.556-2.322 2.365-3.881 4.002-2.138.418.436.783.919 1.089 1.439 1.62 2.818 13.778 5.236 16.207 4.433 2.429-.804 10.94-1.6 8.916 4.433-2.025 6.032-38.49 14.907-38.49 14.907s-4.057-5.645-3.657-9.67a45.993 45.993 0 0 0 0-8.06s5.675 5.238 8.508 1.6c0 0 5.266-3.222 4.054-5.237a6.22 6.22 0 0 1-.629-1.707z" fill="#DCE6F2"/><path d="M149.554 281.26l3.242 7.655 14.586-1.599a33.428 33.428 0 0 1-.744-6.324 2 2 0 0 0-3.254-.463c-.752.8-1.516 1.655-2.076 2.358-1.621 1.999-6.888.8-6.888.8-1.364.451-2.985-1.507-4.145-3.314-.211.318-.452.616-.72.887z" fill="#000" opacity=".1"/><path d="M162.976 281.32a2.002 2.002 0 0 1 3.394.836c.736 2.866 2.353 6.564 5.878 7.967 6.08 2.398 14.587 6.444 11.754 10.07-2.834 3.625-12.566 6.855-21.078 4.029-8.512-2.827-20.665-9.67-20.665-9.67l6.079-16.114s3.241 6.848 5.674 6.044c0 0 5.267 1.2 6.887-.8.565-.707 1.325-1.554 2.077-2.362z" fill="#DCE6F2"/><path d="M218.033 54.857s-9.725 13.295-7.296 22.562c2.43 9.266-19.448-6.045-19.448-6.045s11.345-10.07 9.32-26.587l17.424 10.07z" fill="#FFCDD3"/><path d="M186.022 180.948c16.208 9.67 35.66 5.64 35.66 5.64l-.4-2.817.845.08c15.49 1.363 19.012-3.302 19.012-3.302-2.425-6.772-4.322-21.13-5.507-32.228a470.793 470.793 0 0 1-.464-4.553c-.32-3.234-.56-5.96-.712-7.799-.132-1.619-.204-2.554-.204-2.554l-1.629-12.089s-4.458-14.502-2.433-24.172c1.725-8.235-3.898-11.193-5.602-11.908a5.419 5.419 0 0 0-.825-.244c-2.22-.524-4.698-2.799-6.803-5.197a27.325 27.325 0 0 0-11.365-7.711 58.539 58.539 0 0 1-3.77-1.52c-2.837-3.221-10.536-1.198-10.536-1.198-9.32 6.044-4.458 25.783-4.458 25.783l3.874 11.005c2.16 6.128 5.234 11.865 8.803 17.313 5.96 9.138-2.124 21.634-2.124 21.634-12.578 10.054-11.362 35.837-11.362 35.837z" fill="#FF8AA1"/><path d="M220.666 162.216l1.453 21.635c15.49 1.363 19.012-3.302 19.012-3.302-2.425-6.772-4.322-21.13-5.507-32.228a470.73 470.73 0 0 1-.464-4.553l-14.494 18.448z" fill="#000" opacity=".05"/><path d="M194.938 105.617s7.296 13.695 9.725 19.739c2.429 6.044 2.433 4.03 3.645 6.044 1.213 2.015 14.183 10.877 14.183 10.877l13.133 6.044a564.36 564.36 0 0 1-1.18-12.352l-12.358-8.195s-8.507-5.236-8.915-12.084c-.409-6.848-5.675-19.336-5.675-19.336s-10.537-11.28-14.995-6.044c-4.458 5.237 2.437 15.307 2.437 15.307z" fill="#000" opacity=".1"/><path d="M207.5 94.336s5.266 12.488 5.675 19.335c.408 6.848 8.915 12.085 8.915 12.085l26.744 17.724s23.099 7.655 15.4 16.518c-7.7 8.862-19.862-9.65-19.862-9.65l-21.881-10.07s-12.966-8.862-14.183-10.877c-1.216-2.014-1.2 0-3.645-6.044-2.445-6.044-9.725-19.74-9.725-19.74s-6.887-10.069-2.433-15.31c4.454-5.24 14.995 6.029 14.995 6.029z" fill="#FFCDD3"/><path d="M210.741 99.58s-8.103-6.044-9.724-8.058c-.716-.888-1.825-.76-2.841-.332a12.818 12.818 0 0 1-6.003.987c-1.773-.152-3.493-.052-3.293.955.4 2-1.2-10.473-1.2-10.473l6.886-2.398 8.916 4.833 7.26 14.486z" fill="#000" opacity=".1"/><path d="M210.741 98.78s-8.103-6.043-9.724-8.058c-.716-.887-1.825-.76-2.841-.332a12.818 12.818 0 0 1-6.003.988c-1.773-.152-3.493-.052-3.293.955.4 1.999-1.2-10.473-1.2-10.473l6.886-2.399 8.916 4.833 7.26 14.487z" fill="#FF8AA1"/><path d="M229.822 99.58a10.014 10.014 0 0 1-9.156-.603l9.156.603zM203.25 45.79c.304-2.398-2.697 2.595-3.037-.2l17.424 10.07s-.997 1.364-2.265 3.51c-.665.076-1.333.115-2.001.116-5.239 0-6.9-9.882-10.12-13.495z" fill="#000" fill-rule="nonzero" opacity=".1"/><ellipse fill="#FFCDD3" cx="213.779" cy="40.958" rx="17.628" ry="17.525"/><path d="M221.686 41.262c-.132 1.099-.108 2.262-.632 3.238-.736 1.367-2.325 1.998-3.654 2.798-5.386 3.298-6.983 10.717-5.266 16.77.608 2.142 1.565 4.312 1.169 6.503-.685 3.762-4.995 5.712-8.824 6.048-3.83.336-7.844-.284-11.425 1.107-6.003 2.335-8.668 9.35-13.782 13.272-5.951 4.56-14.147 4.277-21.638 4.797-2.77.196-5.603.527-8.304-.024-2.701-.552-5.406-2.183-6.37-4.773-1.357-3.654 1.112-7.62 4.001-10.274 2.89-2.654 6.371-4.892 8.004-8.438 2.185-4.765.4-10.793 3.165-15.254a4.692 4.692 0 0 1 2.233-2.04c1.2-.45 2.553-.139 3.846-.095 5.006.172 9.272-3.798 11.605-8.207 2.333-4.409 3.313-9.398 5.438-13.907 2.401-5.1 6.403-9.594 11.606-11.816 3.053-1.296 6.402-1.775 9.572-2.699 3.621-1.047 7.083-2.682 10.805-3.362 3.721-.68 7.915-.231 10.628 2.375 2.553 2.454 3.298 6.304 5.739 8.87.924.972 2.109 1.791 2.553 3.05 1.052 2.982-4.054 3.234-5.755 4.43a11.123 11.123 0 0 0-4.714 7.63z" fill="#000" opacity=".1"/><path d="M220.858 40.862c-.132 1.1-.108 2.262-.632 3.238-.737 1.367-2.325 1.999-3.654 2.798-5.386 3.298-6.983 10.717-5.266 16.77.608 2.142 1.564 4.313 1.168 6.503-.684 3.762-4.994 5.713-8.824 6.048-3.83.336-7.843-.284-11.425 1.108-6.002 2.334-8.668 9.35-13.782 13.271-5.95 4.561-14.146 4.277-21.637 4.797-2.77.196-5.603.528-8.304-.024-2.701-.552-5.399-2.187-6.359-4.76-1.357-3.655 1.113-7.62 4.002-10.274 2.89-2.655 6.37-4.893 8.003-8.439 2.185-4.765.4-10.793 3.166-15.254a4.692 4.692 0 0 1 2.233-2.039c1.2-.452 2.553-.14 3.845-.096 5.007.172 9.273-3.797 11.606-8.207 2.333-4.409 3.313-9.398 5.438-13.907 2.401-5.1 6.403-9.594 11.605-11.816 3.054-1.295 6.403-1.775 9.572-2.698 3.622-1.048 7.084-2.683 10.805-3.362 3.722-.68 7.916-.232 10.629 2.374 2.553 2.455 3.297 6.304 5.738 8.87.925.972 2.11 1.791 2.554 3.05 1.052 2.983-4.054 3.235-5.755 4.43a11.123 11.123 0 0 0-4.726 7.619zM14.91 311.153s-13.206-23.585 3.201-42.373c16.407-18.788 35.616-8.394 35.616-8.394s24.01 11.192 18.408 37.975c0 0-3.201 13.592-12.806 12.792H14.91z" fill="#7980CA" fill-rule="nonzero"/><path d="M14.91 311.153s-13.205-23.585 3.202-42.373c16.407-18.788 35.616-8.394 35.616-8.394s24.01 11.192 18.408 37.975c0 0-3.201 13.592-12.806 12.792H14.91z" fill="#FFF" opacity=".2"/><path d="M35.652 311.185l14.474-44.004m13.206 6.796s-7.451-3.502-14.93-1.551c0 0-3.878-9.642-12.682-11.24m31.214 27.981s-12.67-9.146-21.942-6.372c0 0-10.473-12.416-17.676-11.616m36.816 34.378s-10.828-7.827-24.222-7.304c0 0-10.193-12.276-19.797-13.075m21.321 26.007a28.433 28.433 0 0 0-5.174-1.85s-8.348-10.842-25.055-7.312" stroke="#535461" stroke-width=".5"/><path d="M141.455 310.841s-22.01-35.849-16.135-68.192c2.469-13.591.716-27.582-5.459-39.939a107.149 107.149 0 0 0-10.368-16.637" stroke="#535461" stroke-width=".8"/><path d="M113.078 165.67c1.293 4.773-3.601 20.95-3.601 20.95S97.07 175.117 95.79 170.344a8.947 8.947 0 0 1 2.206-8.793 8.97 8.97 0 0 1 8.76-2.364 8.959 8.959 0 0 1 6.338 6.488l-.016-.004zm21.454 22.578c-1.513 4.709-14.435 15.622-14.435 15.622s-4.146-16.39-2.633-21.095c1.575-4.624 6.57-7.135 11.226-5.642 4.656 1.493 7.255 6.438 5.842 11.115zm11.597 45.35c-3.686 3.303-20.353 6.209-20.353 6.209s4.702-16.238 8.404-19.54a8.971 8.971 0 0 1 8.847-1.982 8.949 8.949 0 1 1 3.118 15.314h-.016zm1.036 36.274c-3.073 3.873-19.012 9.553-19.012 9.553s1.889-16.789 4.962-20.674c3.097-3.797 8.673-4.404 12.516-1.362a8.948 8.948 0 0 1 1.534 12.483zm-44.984-60.174c4.326 2.398 21.21 1.535 21.21 1.535s-8.196-14.79-12.522-17.189a8.972 8.972 0 0 0-9.043.058 8.952 8.952 0 0 0-4.39 7.897 8.953 8.953 0 0 0 4.73 7.699h.015zm1.753 42.42c4.846 1 20.713-4.876 20.713-4.876s-12.237-11.66-17.095-12.66c-4.782-.846-9.37 2.265-10.345 7.018-.976 4.752 2.014 9.416 6.743 10.519h-.016zm7.367 40.999c4.61 1.803 21.242-1.311 21.242-1.311s-10.1-13.56-14.71-15.363c-4.577-1.673-9.654.612-11.43 5.146-1.776 4.534.4 9.654 4.898 11.528z" fill="#7980CA" fill-rule="nonzero"/><path d="M113.078 165.67c1.293 4.773-3.601 20.95-3.601 20.95S97.07 175.117 95.79 170.344a8.947 8.947 0 0 1 2.206-8.793 8.97 8.97 0 0 1 8.76-2.364 8.959 8.959 0 0 1 6.338 6.488l-.016-.004zm21.454 22.578c-1.513 4.709-14.435 15.622-14.435 15.622s-4.146-16.39-2.633-21.095c1.575-4.624 6.57-7.135 11.226-5.642 4.656 1.493 7.255 6.438 5.842 11.115zm11.597 45.35c-3.686 3.303-20.353 6.209-20.353 6.209s4.702-16.238 8.404-19.54a8.971 8.971 0 0 1 8.847-1.982 8.949 8.949 0 1 1 3.118 15.314h-.016zm1.036 36.274c-3.073 3.873-19.012 9.553-19.012 9.553s1.889-16.789 4.962-20.674c3.097-3.797 8.673-4.404 12.516-1.362a8.948 8.948 0 0 1 1.534 12.483zm-44.984-60.174c4.326 2.398 21.21 1.535 21.21 1.535s-8.196-14.79-12.522-17.189a8.972 8.972 0 0 0-9.043.058 8.952 8.952 0 0 0-4.39 7.897 8.953 8.953 0 0 0 4.73 7.699h.015zm1.753 42.42c4.846 1 20.713-4.876 20.713-4.876s-12.237-11.66-17.095-12.66c-4.782-.846-9.37 2.265-10.345 7.018-.976 4.752 2.014 9.416 6.743 10.519h-.016zm7.367 40.999c4.61 1.803 21.242-1.311 21.242-1.311s-10.1-13.56-14.71-15.363c-4.577-1.673-9.654.612-11.43 5.146-1.776 4.534.4 9.654 4.898 11.528z" fill="#FC6681" fill-rule="nonzero"/><path d="M26.324 311.185s29.805-46.802 33.406-66.79c3.602-19.986 10.405-38.375 10.405-38.375" stroke="#535461" stroke-width=".8"/><path d="M76.938 245.995l-18.808 1.599s10.004 17.189 18.808-1.6z" fill="#7980CA"/><path d="M44.124 235.601l14.894 11.917s-19.296 7.67-14.894-11.917zm35.215-5.996l-16.951 2.263s14.95 12.128 16.951-2.263zm-28.012-5.996l11.18 7.84s-13.581 5.751-11.18-7.84zm15.33-7.12s13.883-3.673 15.884-2.873c2 .799.8 9.593-4.803 9.993-5.602.4-11.08-7.12-11.08-7.12zM57.33 206.02s8.804 8.395 9.205 10.394c.4 1.998-7.204 6.795-11.205 0-4.002-6.796 2-10.394 2-10.394z" fill="#7980CA" fill-rule="nonzero"/><ellipse fill="#FFD037" cx="73.737" cy="206.82" rx="4.002" ry="3.997"/><ellipse fill="#FFD037" cx="66.534" cy="204.821" rx="4.002" ry="3.997"/><path d="M.304 294.964V221.01s36.016-9.194 42.82 35.177C49.925 300.56.303 294.964.303 294.964z" fill="#7980CA"/><path d="M35.32 244.396s-7.576-6.796-15.207-5.197c0 0-4.802-10.793-8.804-11.992m21.21 30.38s-5.203-7.73-18.809-8.062c0 0-8.003-14.723-13.41-15.722m32.218 41.773s-11.253-15.254-25.035-16.022c0 0-4.178-5.632-7.179-5.996" stroke="#535461" stroke-width=".5"/><path d="M20.737 293.309S15.715 276.239.308 271.11L22.118 236" stroke="#535461" stroke-width=".5"/><path d="M157.774 311.153s13.206-21.586-19.609-53.566c-32.814-31.98-30.813-37.975-28.012-42.772 0 0-26.412 3.198-20.81 42.772 5.603 39.575 29.614 53.566 29.614 53.566h38.817z" fill="#7980CA"/><path d="M139.166 311.153s-9.805-28.382-24.611-45.57c-14.807-17.19-12.006-45.572-4.402-50.768" stroke="#535461" stroke-width=".8"/><path d="M289.068 156.62s22.202 43.536 4.11 67.357c-18.092 23.82 1.645 88.715 1.645 88.715" stroke="#FC6681" stroke-width=".8"/><path d="M295.647 143.065c0 8.394-6.167 15.19-6.167 15.19s-6.166-6.796-6.166-15.19c0-8.395 6.166-15.19 6.166-15.19s6.167 6.799 6.167 15.19z" fill="#FC6681"/><path d="M300.581 156.62s-22.202 43.536-4.11 67.357c18.092 23.82-1.644 88.715-1.644 88.715" stroke="#FFD037" stroke-width=".8"/><path d="M294.002 143.065c0 8.394 6.167 15.19 6.167 15.19s6.167-6.796 6.167-15.19c0-8.395-6.167-15.19-6.167-15.19s-6.167 6.799-6.167 15.19z" fill="#FFD037"/><path d="M309.625 156.62s22.202 43.536 4.114 67.357c-18.088 23.82 1.645 88.715 1.645 88.715" stroke="#FC6681" stroke-width=".8"/><path d="M316.204 143.065c0 8.394-6.167 15.19-6.167 15.19s-6.166-6.796-6.166-15.19c0-8.395 6.166-15.19 6.166-15.19s6.167 6.799 6.167 15.19zm-3.457 34.865c-5.827 6.048-14.991 6.68-14.991 6.68s.276-9.194 6.103-15.222c5.826-6.028 14.99-6.648 14.99-6.648s-.276 9.158-6.102 15.19zm.58 30.05c-5.827 6.047-14.99 6.679-14.99 6.679s.275-9.194 6.102-15.222c5.827-6.029 14.99-6.68 14.99-6.68s-.28 9.158-6.102 15.222zm-31.59 16.525c5.506 6.335 5.314 15.514 5.314 15.514s-9.124-1.1-14.63-7.436c-5.507-6.336-5.315-15.514-5.315-15.514s9.124 1.1 14.63 7.436zm5.11-64.052c7.003 4.638 9.272 13.532 9.272 13.532s-9.084 1.375-16.087-3.258-9.272-13.531-9.272-13.531 9.084-1.376 16.087 3.257z" fill="#FC6681" fill-rule="nonzero"/><path d="M321.138 156.62s-22.201 43.536-4.11 67.357c18.093 23.82-1.644 88.715-1.644 88.715" stroke="#FFD037" stroke-width=".8"/><path d="M314.56 143.065c0 8.394 6.166 15.19 6.166 15.19s6.167-6.796 6.167-15.19c0-8.395-6.167-15.19-6.167-15.19s-6.167 6.799-6.167 15.19zm1.772 35.529c-5.898 5.996-6.287 15.146-6.287 15.146s9.173-.523 15.071-6.5c5.899-5.976 6.287-15.146 6.287-15.146s-9.172.52-15.07 6.5z" fill="#FFD037" fill-rule="nonzero"/><path d="M373.958 55.473c-5.899 5.996-6.287 15.146-6.287 15.146s9.172-.524 15.07-6.5c5.9-5.976 6.288-15.146 6.288-15.146s-9.173.52-15.071 6.5z" fill="#7980CA"/><path d="M23.002 146.614c-5.898 5.996-6.287 15.147-6.287 15.147s9.172-.524 15.071-6.5c5.899-5.976 6.287-15.147 6.287-15.147s-9.172.52-15.07 6.5z" fill="#FC6681"/><path d="M351.548 166.202c-5.899 5.996-6.287 15.146-6.287 15.146s9.172-.524 15.07-6.5c5.9-5.976 6.288-15.146 6.288-15.146s-9.172.52-15.071 6.5zM62.556 159.63c-7.772-3.198-16.408-.08-16.408-.08s3.954 8.287 11.726 11.477c7.771 3.19 16.407.08 16.407.08s-3.954-8.287-11.725-11.477z" fill="#7980CA" fill-rule="nonzero"/><path d="M160.267 147.646c-4.49-7.092-13.346-9.55-13.346-9.55s-1.573 9.042 2.921 16.137c4.494 7.096 13.346 9.55 13.346 9.55s1.57-9.038-2.92-16.137zm167.63 72.533c-5.898 5.996-6.286 15.147-6.286 15.147s9.172-.524 15.07-6.5c5.899-5.976 6.287-15.147 6.287-15.147s-9.172.52-15.07 6.5z" fill="#FFD037" fill-rule="nonzero"/><path d="M310.898 211.037s13.366-21.042 32.122-21.494" stroke="#FFD037" stroke-width=".8"/><path d="M300.493 198.317s-13.366-21.042-32.122-21.494" stroke="#FC6681" stroke-width=".8"/><path d="M298.744 228.366s13.366-21.042 32.123-21.494" stroke="#FFD037" stroke-width=".8"/><ellipse fill="#FFD037" cx="342.396" cy="189.379" rx="3.47" ry="3.466"/><ellipse fill="#FC6681" cx="268.675" cy="176.963" rx="3.47" ry="3.466"/><path d="M308.573 235.298s-13.366-21.043-32.122-21.495" stroke="#FC6681" stroke-width=".8"/><ellipse fill="#FC6681" cx="276.771" cy="213.927" rx="3.47" ry="3.466"/><ellipse fill="#FFD037" cx="331.119" cy="206.996" rx="3.47" ry="3.466"/><path d="M203.594 225.208s-13.206-14.79-18.008 3.598c-4.802 18.388-7.603 20.787-17.207 15.99-9.605-4.797-19.609 17.988 4.001 34.378 23.61 16.39 10.405 32.579 10.405 32.579h84.438s11.204-32.58-13.206-43.772c-24.411-11.193-23.61-19.588-22.81-30.78.8-11.193-27.613-11.993-27.613-11.993z" fill="#7980CA"/><path d="M192.39 219.584s54.824 72.182 36.015 92.169m-50.19-65.798s12.974 11.029 34.183 5.432c21.21-5.596 15.98-19.955 15.98-19.955" stroke="#535461" stroke-width=".8"/><path d="M267.002 280.849s-28.224-13.676-42.418-8.575c-36.945 13.28-64.429-22.482-64.429-22.482" stroke="#535461" stroke-width=".8"/><path d="M184.986 311.153s17.208-12.792-4.402-57.563c0 0-28.813-35.577 0-69.156 0 0-62.828 1.6-61.627 59.962 1.2 58.363 31.414 66.757 31.414 66.757h34.615z" fill="#7980CA"/><path d="M168.915 311.153s-4.334-30.78-15.94-49.568a40.273 40.273 0 0 1-4.873-12.276c-3.878-17.041 1.652-34.862 14.182-47.058l18.308-17.817" stroke="#535461" stroke-width=".8"/><path d="M184.986 311.153s17.208-12.792-4.402-57.563c0 0-28.813-35.577 0-69.156 0 0-62.828 1.6-61.627 59.962 1.2 58.363 31.414 66.757 31.414 66.757h34.615z" fill="#000" opacity=".1"/><path d="M397.28 124.672s-9.204 74.753 0 120.723-46.516 65.758-46.516 65.758h81.732s11.205-148.905-35.216-186.48z" fill="#7980CA"/><path d="M397.28 124.672s23.27 64.387 19.837 97.138c-3.434 32.751-8.232 89.943-8.232 89.943" stroke="#535461" stroke-width=".8"/><path d="M339.23 310.801s-58.882-13.151 16.04-90.098c0 0 32.294 30.576 20.449 68.584-4.762 15.282-20.09 24.716-35.616 21.694l-.873-.18z" fill="#7980CA"/><path d="M339.23 310.801c-1.292-.287-57.625-14.45 16.04-90.098 0 0 32.294 30.576 20.449 68.584-4.762 15.282-20.09 24.716-35.616 21.694l-.873-.18z" fill="#FFF" opacity=".4"/><path d="M340.003 311.237s31.102-46.806 15.267-90.534" stroke="#535461" stroke-width=".5"/><path d="M95.522 310.801s-58.882-13.151 16.04-90.098c0 0 32.294 30.576 20.449 68.584-4.763 15.282-20.09 24.716-35.616 21.694l-.873-.18z" fill="#7980CA"/><path d="M95.522 310.801c-1.292-.287-57.625-14.45 16.04-90.098 0 0 32.294 30.576 20.449 68.584-4.763 15.282-20.09 24.716-35.616 21.694l-.873-.18z" fill="#FFF" opacity=".4"/><path d="M96.295 311.237s31.101-46.806 15.266-90.534" stroke="#535461" stroke-width=".5"/><path d="M385.511 109.882s-30.057 30.025-13.09 74.576c16.968 44.552-29.089 118.648-29.089 118.648s.492-.072 1.409-.232c61.731-10.885 92.409-81.416 58.078-133.81-12.758-19.48-23.235-42.333-17.308-59.182z" fill="#7980CA"/><path d="M385.511 109.882s-30.057 30.025-13.09 74.576c16.968 44.552-29.089 118.648-29.089 118.648s.492-.072 1.409-.232c61.731-10.885 92.409-81.416 58.078-133.81-12.758-19.48-23.235-42.333-17.308-59.182z" fill="#000" opacity=".1"/><path d="M385.511 109.882s-16.968 36.804 0 66.83c16.967 30.024 2.91 114.286-42.179 126.394" stroke="#535461" stroke-width=".5"/><path d="M439.047 231.32s-34.3-5.456-37.425 25.248-65.953 34.962-65.953 34.962.4.28 1.176.8c51.875 34.017 101.465 21.67 93.99-23.502-2.777-16.809-2.55-33.674 8.212-37.508z" fill="#7980CA"/><path d="M439.047 231.32s-34.3-5.456-37.425 25.248-65.953 34.962-65.953 34.962.4.28 1.176.8c51.875 34.017 101.465 21.67 93.99-23.502-2.777-16.809-2.55-33.674 8.212-37.508z" fill="#F5F5F5" opacity=".2"/><path d="M439.047 231.32s-26.624 5.836-24.44 30.017c2.186 24.18-39.533 53.166-78.942 30.193" stroke="#535461" stroke-width=".5"/><path d="M414.684 311.893s-14.595-49.5 2.737-85.945c7.275-15.29 9.692-32.456 6.33-49.049a131.41 131.41 0 0 0-6.95-23.021" stroke="#535461" stroke-width=".8"/><path d="M427.586 130.86c0 6.069-10.997 23.661-10.997 23.661s-10.997-17.588-10.997-23.66c0-6.072 4.927-10.994 11.005-10.994 6.078 0 11.005 4.922 11.005 10.993h-.016zm18.172 33.603c-3.302 5.093-22.102 13.891-22.102 13.891s.34-20.739 3.641-25.831a11 11 0 0 1 9.818-5.11 10.998 10.998 0 0 1 9.293 6.01 10.975 10.975 0 0 1-.65 11.04zm-.8 57.44c-5.423 2.73-26.1.843-26.1.843s10.773-17.729 16.195-20.46c5.414-2.676 11.976-.489 14.696 4.9 2.72 5.387.581 11.958-4.792 14.716zm-10.405 43.3c-4.882 3.597-25.58 5.236-25.58 5.236s7.604-19.291 12.502-22.901c4.883-3.608 11.77-2.578 15.38 2.3 3.612 4.878 2.581 11.757-2.302 15.365zm-33.983-85.674c4.358 4.226 24.65 8.607 24.65 8.607s-4.97-20.14-9.328-24.365c-4.37-4.129-11.252-3.983-15.444.328-4.191 4.31-4.137 11.186.122 15.43zm-11.517 50.808c5.422 2.73 26.1.843 26.1.843s-10.774-17.728-16.216-20.47c-5.406-2.623-11.918-.425-14.624 4.935-2.705 5.36-.602 11.898 4.724 14.68l.016.012zm-4.406 50.92c4.882 3.597 25.579 5.236 25.579 5.236s-7.603-19.292-12.502-22.901a11.007 11.007 0 0 0-11.011-1.369 10.98 10.98 0 1 0-2.066 19.03v.003z" fill="#7980CA" fill-rule="nonzero"/><path d="M427.586 130.86c0 6.069-10.997 23.661-10.997 23.661s-10.997-17.588-10.997-23.66c0-6.072 4.927-10.994 11.005-10.994 6.078 0 11.005 4.922 11.005 10.993h-.016zm18.172 33.603c-3.302 5.093-22.102 13.891-22.102 13.891s.34-20.739 3.641-25.831a11 11 0 0 1 9.818-5.11 10.998 10.998 0 0 1 9.293 6.01 10.975 10.975 0 0 1-.65 11.04zm-.8 57.44c-5.423 2.73-26.1.843-26.1.843s10.773-17.729 16.195-20.46c5.414-2.676 11.976-.489 14.696 4.9 2.72 5.387.581 11.958-4.792 14.716zm-10.405 43.3c-4.882 3.597-25.58 5.236-25.58 5.236s7.604-19.291 12.502-22.901c4.883-3.608 11.77-2.578 15.38 2.3 3.612 4.878 2.581 11.757-2.302 15.365zm-33.983-85.674c4.358 4.226 24.65 8.607 24.65 8.607s-4.97-20.14-9.328-24.365c-4.37-4.129-11.252-3.983-15.444.328-4.191 4.31-4.137 11.186.122 15.43zm-11.517 50.808c5.422 2.73 26.1.843 26.1.843s-10.774-17.728-16.216-20.47c-5.406-2.623-11.918-.425-14.624 4.935-2.705 5.36-.602 11.898 4.724 14.68l.016.012zm-4.406 50.92c4.882 3.597 25.579 5.236 25.579 5.236s-7.603-19.292-12.502-22.901a11.007 11.007 0 0 0-11.011-1.369 10.98 10.98 0 1 0-2.066 19.03v.003z" fill="#FC6681" fill-rule="nonzero"/><path d="M414.424 303.45c2.289-2.127 4.438-4.633 5.098-7.687.66-3.054-.644-6.716-3.562-7.831-3.273-1.251-6.77 1.015-9.42 3.302-2.649 2.286-5.69 4.9-9.16 4.397a13.922 13.922 0 0 0 4.314-13.036 5.442 5.442 0 0 0-1.2-2.646c-1.817-1.939-5.11-1.107-7.284.42-6.919 4.86-8.848 14.247-8.884 22.693-.696-3.046-.108-6.224-.128-9.35-.02-3.126-.868-6.583-3.517-8.25-1.569-.996-3.502-1.2-5.359-1.26-3.109-.116-6.57.196-8.695 2.47-2.638 2.823-1.953 7.56.34 10.666 2.293 3.106 5.786 5.053 9 7.195 2.449 1.635 4.926 3.546 6.43 6.128.195.35.354.716.477 1.096h19.492a54.322 54.322 0 0 0 12.058-8.307zm-320.87 2.754c1.736-1.315 3.369-2.87 3.87-4.76a4.025 4.025 0 0 0-2.706-4.85c-2.485-.775-5.138.628-7.147 2.047-2.01 1.42-4.318 3.034-6.951 2.734 2.729-1.966 4.026-5.164 3.273-8.07a3.125 3.125 0 0 0-.908-1.64c-1.377-1.199-3.878-.683-5.527.26-5.25 3.01-6.715 8.819-6.743 14.051-.528-1.886-.084-3.853-.096-5.788-.012-1.935-.664-4.081-2.665-5.12-1.2-.616-2.657-.736-4.066-.78-2.36-.072-4.986.124-6.599 1.527-2 1.747-1.484 4.681.26 6.604 1.745 1.923 4.402 3.13 6.832 4.457 1.856 1.011 3.737 2.195 4.882 3.793.145.213.266.44.36.68h14.806a42.54 42.54 0 0 0 9.124-5.145zm247.71 0c1.736-1.315 3.369-2.87 3.87-4.76a4.025 4.025 0 0 0-2.706-4.85c-2.485-.775-5.138.628-7.147 2.047-2.01 1.42-4.318 3.034-6.951 2.734 2.729-1.966 4.025-5.164 3.273-8.07a3.125 3.125 0 0 0-.908-1.64c-1.377-1.199-3.878-.683-5.527.26-5.25 3.01-6.715 8.819-6.743 14.051-.528-1.886-.084-3.853-.096-5.788-.012-1.935-.664-4.081-2.665-5.12-1.2-.616-2.657-.736-4.066-.78-2.36-.072-4.986.124-6.599 1.527-2 1.747-1.484 4.681.26 6.604 1.745 1.923 4.402 3.13 6.831 4.457 1.857 1.011 3.738 2.195 4.883 3.793.145.213.265.44.36.68h14.806a42.54 42.54 0 0 0 9.124-5.145z" fill="#7980CA" fill-rule="nonzero"/><path d="M188.344 177.674c-3.102 2.755-6.2 7.052-4.703 13.048 2.958 11.8 17.86 12.472 22.102 24.057 1.269 3.47 1.145 7.043.492 10.021-1.276 5.825-4.337 9.994-6.638 14.883-2.302 4.889-3.862 11.229-1.925 18.132 1.864 6.644 6.599 12.24 11.377 15.61 4.778 3.37 9.728 4.981 14.618 7.128a94.643 94.643 0 0 1 16.984 9.79c2.349 1.682 4.71 3.53 6.75 6.048 2.326 2.87 4.09 6.44 5.811 9.937.853 1.735.625 5.197 2.561 5.197 49.466-.168 14.807-.192 39.09-.076 4.318.02 10.496.048 19.344.076 9.417.032 7.72-16.941 6.48-27.982-1.762-15.638-14.92-28.526-21.474-43.756-4.698-10.913-5.803-22.69-9.733-33.879-5.662-16.121-16.911-29.769-28.676-37.903-11.766-8.135-24.011-11.325-35.664-12.392-4.93-.456-9.897-.536-14.034 1.55-4.402 2.22-5.419 7.804-8.804 11.245-3.906 4.018-9.745 5.525-13.958 9.266z" fill="#7980CA"/><path d="M188.344 177.674c-3.102 2.755-6.2 7.052-4.703 13.048 2.958 11.8 17.86 12.472 22.102 24.057 1.269 3.47 1.145 7.043.492 10.021-1.276 5.825-4.337 9.994-6.638 14.883-2.302 4.889-3.862 11.229-1.925 18.132 1.864 6.644 6.599 12.24 11.377 15.61 4.778 3.37 9.728 4.981 14.618 7.128a94.643 94.643 0 0 1 16.984 9.79c2.349 1.682 4.71 3.53 6.75 6.048 2.326 2.87 4.09 6.44 5.811 9.937.853 1.735.625 5.197 2.561 5.197 49.466-.168 14.807-.192 39.09-.076 4.318.02 10.496.048 19.344.076 9.417.032 7.72-16.941 6.48-27.982-1.762-15.638-14.92-28.526-21.474-43.756-4.698-10.913-5.803-22.69-9.733-33.879-5.662-16.121-16.911-29.769-28.676-37.903-11.766-8.135-24.011-11.325-35.664-12.392-4.93-.456-9.897-.536-14.034 1.55-4.402 2.22-5.419 7.804-8.804 11.245-3.906 4.018-9.745 5.525-13.958 9.266z" fill="#FFF" opacity=".2"/><path d="M207.828 160.054s52.688 76.239 87.015 151.435m-110.93-120.067s47.025.563 69.051 40.374m-54.084 29.377s58.306-23.457 70.307-.647m-8.495-92.797s-12.006 24.468-4.354 69.891m64.164 46.339s-8.804 15.853-40.746-3.478" stroke="#535461" stroke-width=".8"/><path d="M371.013 239.123s8.847 11.56-4.09 29.01c-12.938 17.449-23.61 32.183-19.285 43.06 0 0 19.513-32.411 35.396-32.863 15.883-.452 5.446-19.715-12.021-39.207z" fill="#7980CA"/><path d="M371.013 239.123a14.309 14.309 0 0 1 1.808 3.626c15.495 18.188 23.75 35.177 8.856 35.577-13.874.4-30.517 25.184-34.503 31.44.13.483.288.958.472 1.423 0 0 19.513-32.411 35.396-32.863 15.883-.452 5.438-19.711-12.03-39.203z" fill="#000" opacity=".1"/><path d="M387.46 253.854c0 4.07-.456 7.367-1.02 7.367-.565 0-1.021-3.298-1.021-7.367 0-4.07.572-2.155 1.132-2.155.56 0 .909-1.915.909 2.155z" fill="#FFD037"/><path d="M393.106 258.71c-3.577 1.947-6.695 3.127-6.963 2.631-.268-.496 2.401-2.474 6.003-4.421 3.601-1.947 2.165-.532 2.437-.036.272.496 2.097-.12-1.477 1.827z" fill="#FFD037"/><path d="M324.272 239.123s-8.848 11.56 4.086 29.01c12.933 17.449 23.61 32.183 19.284 43.06 0 0-19.512-32.411-35.396-32.863-15.883-.452-5.442-19.715 12.026-39.207z" fill="#7980CA"/><path d="M324.272 239.123a14.309 14.309 0 0 0-1.809 3.626c-15.495 18.188-23.75 35.177-8.856 35.577 13.874.4 30.518 25.184 34.503 31.44-.13.483-.288.958-.472 1.423 0 0-19.512-32.411-35.396-32.863-15.883-.452-5.438-19.711 12.03-39.203z" fill="#000" opacity=".1"/><path d="M307.825 253.854c0 4.07.456 7.367 1.02 7.367.564 0 1.02-3.298 1.02-7.367 0-4.07-.572-2.155-1.132-2.155-.56 0-.908-1.915-.908 2.155z" fill="#FFD037"/><path d="M302.178 258.71c3.578 1.947 6.695 3.127 6.963 2.631.268-.496-2.401-2.474-6.003-4.421-3.601-1.947-2.165-.532-2.437-.036-.272.496-2.097-.12 1.477 1.827z" fill="#FFD037"/><path d="M81.696 268.273s5.343 6.975-2.465 17.512c-7.807 10.538-14.242 19.428-11.641 25.984 0 0 11.777-19.564 21.365-19.836 9.589-.271 3.286-11.884-7.259-23.66z" fill="#FC6681"/><path d="M81.696 268.273c.47.676.84 1.417 1.1 2.198 9.353 10.977 14.34 21.223 5.347 21.478-8.376.24-18.408 15.19-20.81 18.976a8.1 8.1 0 0 0 .285.86s11.777-19.564 21.365-19.836c9.589-.271 3.258-11.9-7.287-23.676z" fill="#000" opacity=".1"/><path d="M91.625 277.175c0 2.454-.276 4.445-.617 4.445-.34 0-.616-1.999-.616-4.445 0-2.447.344-1.3.684-1.3.34 0 .549-1.155.549 1.3z" fill="#FFD037"/><path d="M95.03 280.105c-2.157 1.175-4.042 1.887-4.202 1.599-.16-.288 1.457-1.495 3.602-2.67 2.145-1.176 1.308-.32 1.469-.02.16.3 1.304-.084-.869 1.091z" fill="#FFD037"/><path d="M53.484 268.273s-5.343 6.975 2.465 17.512c7.807 10.538 14.242 19.428 11.641 25.984 0 0-11.777-19.564-21.366-19.836-9.588-.271-3.285-11.884 7.26-23.66z" fill="#FC6681"/><path d="M53.484 268.273a8.639 8.639 0 0 0-1.1 2.198c-9.353 10.977-14.34 21.223-5.347 21.478 8.376.24 18.408 15.19 20.81 18.976a8.1 8.1 0 0 1-.285.86s-11.777-19.564-21.366-19.836c-9.588-.271-3.257-11.9 7.288-23.676z" fill="#000" opacity=".1"/><path d="M43.555 277.175c0 2.454.276 4.445.617 4.445.34 0 .616-1.999.616-4.445 0-2.447-.344-1.3-.684-1.3-.34 0-.549-1.155-.549 1.3z" fill="#FFD037"/><path d="M40.146 280.105c2.157 1.175 4.042 1.887 4.202 1.599.16-.288-1.457-1.495-3.602-2.67-2.145-1.176-1.309-.32-1.469-.02-.16.3-1.3-.084.869 1.091z" fill="#FFD037"/></g></svg>