<svg id="discuss" width="508" height="311" xmlns="http://www.w3.org/2000/svg"><defs><linearGradient x1="50.006%" y1="100.015%" x2="50.006%" y2="-.023%" id="a"><stop stop-color="gray" stop-opacity=".25" offset="0%"/><stop stop-color="gray" stop-opacity=".12" offset="54%"/><stop stop-color="gray" stop-opacity=".1" offset="100%"/></linearGradient><linearGradient x1="49.983%" y1="100.023%" x2="49.983%" y2="0%" id="b"><stop stop-color="gray" stop-opacity=".25" offset="0%"/><stop stop-color="gray" stop-opacity=".12" offset="54%"/><stop stop-color="gray" stop-opacity=".1" offset="100%"/></linearGradient></defs><g fill="none" fill-rule="evenodd"><path d="M507.029 76.699a55.604 55.604 0 0 1-4.228 18.355c-7.352 17.447-22.025 30.72-37.702 41.38l-.99.668a283.855 283.855 0 0 1-8.622 5.548l-.232.144-.174.109-.528.323c-.415.261-.833.514-1.248.772l-.694.436-3.185 1.937-2.805 1.688a13008.02 13008.02 0 0 0-5.319 3.206c-5.916 3.559-11.802 7.17-17.496 11.066l-.873.61c-.436.284-.825.572-1.23.873a166.13 166.13 0 0 0-6.31 4.654c-.405.31-.811.628-1.212.955-4.106 3.289-8.068 7.031-11.044 11.289-2.526 3.624-4.332 7.62-4.873 12.034-.873 6.979 1.527 13.71 4.873 20.282 2.156 4.227 4.713 8.393 7.056 12.536a94.696 94.696 0 0 1 2.181 4.061 56.835 56.835 0 0 1 3.26 7.394c1.867 5.413 2.412 10.839.266 16.37-2.352 6.067-7.112 9.953-12.784 13.085-3.055 1.68-6.34 3.136-9.674 4.602-4.764 2.085-9.599 4.187-13.818 6.931-.267.169-.53.343-.785.523-.55.37-1.088.755-1.614 1.156a38.773 38.773 0 0 0-3.936 3.455c-.367.358-.733.728-1.09 1.108-.69.72-1.362 1.461-2.021 2.211l-.52.602c-.482.582-.962 1.155-1.439 1.719-.62.75-1.226 1.509-1.833 2.272-.872 1.09-1.745 2.181-2.591 3.272-.253.314-.502.623-.746.937-1.423 1.745-2.85 3.49-4.364 5.104l-.178.192c-3.587 3.838-7.553 7.083-12.553 8.82-12.056 4.187-23.998-2.06-35.582-8.724l-.323-.192-.144-.083-.995-.576-.466-.27a432.38 432.38 0 0 0-3.543-2.05l-.284-.166a183.354 183.354 0 0 0-4.952-2.735 73.854 73.854 0 0 0-2.998-1.5 84.368 84.368 0 0 0-10.288-4.127 88.673 88.673 0 0 0-14.076-3.389 84.16 84.16 0 0 0-5.86-.728 92.224 92.224 0 0 0-3.813-.266 90.055 90.055 0 0 0-30.581 3.716c-1.348.41-2.692.872-4.019 1.335-.248.082-.493.174-.733.261-1.23.436-2.447.93-3.652 1.44l-.436.179a.24.24 0 0 1-.065.034c-6.213 2.67-12.217 6.076-18.409 8.746-.55.235-1.099.467-1.658.693a48.648 48.648 0 0 1-12.033 3.342c-4.27.506-8.59.397-12.828-.323a90.301 90.301 0 0 1-11.31-2.652h-.038l-.236-.074c-.345-.1-.694-.2-1.038-.31l-.463-.135-.606-.188c-8.727-2.67-17.475-5.836-26.472-6.704-.436-.04-.872-.078-1.309-.109a55.865 55.865 0 0 0-8.373.061c-8.36.646-16.676 2.905-24.948 5.282l-.515.144c-.436.131-.899.258-1.348.393l-.973.279-1.89.54-.436.123c-13.64 3.926-27.139 7.28-40.468 3.393-5.843-1.705-11.087-4.68-15.89-8.374a86.931 86.931 0 0 1-9.67-8.785c-2.814-2.927-5.497-5.993-8.098-9.05-8.665-10.19-17.226-21.003-21-33.831a66.064 66.064 0 0 1-2.36-13.92c-.2-2.86-.27-5.74-.266-8.622 0-1.917.027-3.829.083-5.736.03-1.392.078-2.779.117-4.166v-.667c.027-.646.044-1.309.062-1.937.375-12.041.747-24.085 1.116-36.13.25-8.025.515-16.177 2.994-23.815.283-.872.602-1.745.938-2.617.257-.654.532-1.308.811-1.937 5.515-12.392 16.144-22.577 25.586-32.993a123.77 123.77 0 0 0 9.669-11.812c4.507-6.438 7.766-13.268 8.486-20.984.061-.642.105-1.283.127-1.937.021-.654.026-1.309 0-2.002-.232-11.175-6.183-21.892-8.626-32.644-1.1-4.798-1.497-9.631-.358-14.503.104-.467.227-.92.358-1.37C46.126 11.707 62.71 4.1 77.846 1.636c15.707-2.552 31.707-1.815 47.393.436 1.035.148 2.068.308 3.097.48 3.247.527 6.467 1.151 9.674 1.823 7.78 1.627 15.484 3.542 23.299 5.125 10.013 2.033 19.076.092 29.063-1.308A181.635 181.635 0 0 1 205.756 6.7c4.288-.236 8.58-.32 12.876-.253 17.3.247 34.475 2.973 51.001 8.095 11.104 3.46 22.039 8.026 33.326 10.517a74.147 74.147 0 0 0 11.728 1.697c.31.026.624.043.938.056C342.345 28 366.901 12.043 393.43 9.051l.895-.096a82.397 82.397 0 0 1 8.779-.436c24.73.109 48.71 10.743 71.425 21.233 6.92 3.193 13.962 6.478 19.586 11.616 9.669 8.833 13.665 22.136 12.915 35.33z" fill="#6C63FF" opacity=".1"/><path d="M272.782 208.928v-62.566h17.247c-.148-.14-.296-.28-.436-.406l-.113-.1-.254-.223a6.418 6.418 0 0 0-.327-.274l-.275-.218-.3-.236a7.266 7.266 0 0 0-.485-.366 1.174 1.174 0 0 0-.118-.088h-14.94v-3.424c-.139.07-.27.144-.405.218l-.436.27s0 .023-.027.023a.524.524 0 0 1-.091.056l-.266.201a5.193 5.193 0 0 0-.267.196c-.266.197-.527.437-.785.642l-.257.23-.506.459c-.677.632-1.34 1.286-2.025 1.893-.174.152-.345.305-.524.436a13.32 13.32 0 0 1-1.151.872c-.16.115-.327.221-.498.319l-.288.144-.257.13a9.727 9.727 0 0 1-1.89.681v61.131h-25.9c0 .074.04.136.053.201.144.584.284 1.156.436 1.745h25.425v67.059h.397l.436.03.825.07 1.309.153c.2 0 .405.052.602.083l.707.1h.096l1.156.196c.078 0 .166.03.248.048l.555.1.807.162 1.937-.07.266.061.327.074v-68.044h39.984v-.144a1.443 1.443 0 0 0 0-.144c.053-.537.1-1.065.153-1.597a.196.196 0 0 1 0-.052l-40.145-.03zm59.819 0h-1.746v1.95h1.99l-.244-1.95zm-19.635 0a.196.196 0 0 0 0 .053c-.052.532-.1 1.06-.152 1.596.002.048.002.096 0 .144v.144h15.03v-.105l1.074-1.823-15.952-.009zM42.036 27.563c-1.14 4.872-.742 9.692.357 14.503V26.18c-.135.45-.253.903-.357 1.383zM289.58 145.956c-.03-.488-.066-.999-.087-1.53h-4.163c0 .086.03.17.04.252.052.292.091.576.135.873.03.205.06.4.083.597l.026.223h3.988l-.022-.415zm-32.078 64.024c-.306-.18-.476-.27-.476-.27.471-.284.93-.542 1.375-.782h-92.975a6.654 6.654 0 0 0 .454 1.016c.06.11.183.336.288.515.104.18.165.275.253.437h92.547a25.334 25.334 0 0 0-1.466-.916zm-119.019-47.274l.048.113v-.14l-.048.027zm-.056-9.383a1.91 1.91 0 0 1-.48.437s.187.209.458.58a3.343 3.343 0 0 1-.122.336l-.044.082a1.34 1.34 0 0 1-.1.17.345.345 0 0 1-.053.066 1.714 1.714 0 0 1-.148.192l-.096.092c-.06.062-.126.119-.196.17l-.057.039h-.026l.026.026.04.048c.333.398.635.82.902 1.265v-3.642c-.035.048-.07.091-.104.14zm118.36 55.605h-13.483c3.574 1.309 9.29.873 13.111.327l.747-.109c-.162-.1-.293-.17-.376-.218zm29.08 1.933a.938.938 0 0 0-.1-.123.624.624 0 0 0-.105-.109 2.534 2.534 0 0 1-.354-.436 3.083 3.083 0 0 1-.165-.266 13.827 13.827 0 0 1-.332-.637c0-.026-.026-.056-.044-.087a4.263 4.263 0 0 1-.126-.279h-11.86v-62.562h12.837l-.026-.223c-.026-.191-.057-.392-.083-.597-.044-.275-.083-.558-.135-.872 0-.083-.026-.166-.04-.253h-12.552V96.284h-.03a.598.598 0 0 0-.175.021c-.07.01-.138.024-.205.044l-.153.057-.197.078-.126.052c-.314.14-.68.332-1.117.541a46.61 46.61 0 0 1-1.902.847l-.38.157-.471.183c-.31.126-.624.24-.938.344a17.673 17.673 0 0 1-1.767.528 8.228 8.228 0 0 1-.568.131c-.192.04-.375.079-.562.11-.188.03-.376.064-.568.086-.192.022-.34.048-.514.061v44.901H138.53V89.418l-.261.157c-1.558.872-3.6.711-4.953 1.862-1.745 1.47-1.435 4.188-.846 6.369.052.192.109.38.157.576 0 .056.035.117.048.183.013.065 0 0 0 0 0 .043 0 .087.035.13.03.1.053.2.07.302l.052.248.026.162a.598.598 0 0 1 0 .082c.013.071.022.142.026.214.021.13.032.261.031.393v.043a3.926 3.926 0 0 1-2.683 3.438 3.81 3.81 0 0 1-1.383.157v40.683h-7.959l.179 1.936h7.788v62.575h-14.027c-.053.323-.11.655-.188.986-.035.144-.07.288-.113.436-.044.149-.1.35-.153.524h14.481v13.085h1.483l.917-.03h.406c.545-.026 1.043-.057 1.479-.083l.585-.044.37-.026.537-.048H134.967l.279.052h.1c.192.031.458.075.786.118l.414.061.231.03.655.088h.087l1.021.127v-13.339H263.11v2.853c.349.266.71.55 1.064.833l.532.436c.633.528 1.261 1.09 1.864 1.666l.493.484c.205.205.41.437.602.624l.078.083c.157.172.31.342.458.51l.314.367c.18.222.354.436.52.658.166.223.327.436.475.663.149.227.301.436.437.672.135.236.318.55.436.829h.925l.083.174c.04.07.065.14.096.205.126.284.231.559.323.833.035.114.074.223.1.336.036.112.065.225.087.34 0 .105.048.205.061.306.013.1.03.205.044.3.017.083.027.166.03.25v.23a5.12 5.12 0 0 1 0 .733c.214-.039.437-.078.624-.135v-14.25h13.09l.022-.004zm-147.336-1.933v-62.566H263.11v62.566H138.53zm119.865 0h-16.514c.41.166.763.327 1.047.476 3.43 1.744 9.734 1.27 13.835.685l.733-.11c-.305-.178-.475-.27-.475-.27.471-.283.93-.54 1.374-.78zm-200.073 0c.406.663.834 1.309 1.274 1.937h54.78c.052-.174.109-.349.153-.523.043-.175.078-.284.113-.437.079-.331.135-.663.188-.985l-56.508.008zm198.463 0h-13.482c3.574 1.309 9.29.873 13.111.327l.747-.109c-.162-.1-.293-.17-.376-.218zm-198.463 0c.406.663.834 1.309 1.274 1.937h54.78c.052-.174.109-.349.153-.523.043-.175.078-.284.113-.437.079-.331.135-.663.188-.985l-56.508.008zm227.544 1.933a.938.938 0 0 0-.1-.123.624.624 0 0 0-.105-.109 2.534 2.534 0 0 1-.354-.436 3.083 3.083 0 0 1-.165-.266 13.827 13.827 0 0 1-.332-.637c0-.026-.026-.056-.044-.087a4.263 4.263 0 0 1-.126-.279h-11.86v-62.562h12.837l-.026-.223c-.026-.191-.057-.392-.083-.597-.044-.275-.083-.558-.135-.872 0-.083-.026-.166-.04-.253h-12.552V96.284h-.03a.598.598 0 0 0-.175.021c-.07.01-.138.024-.205.044l-.153.057-.197.078-.126.052c-.314.14-.68.332-1.117.541a46.61 46.61 0 0 1-1.902.847l-.38.157-.471.183c-.31.126-.624.24-.938.344a17.673 17.673 0 0 1-1.767.528 8.228 8.228 0 0 1-.568.131c-.192.04-.375.079-.562.11-.188.03-.376.064-.568.086-.192.022-.34.048-.514.061v44.901H138.53V89.418l-.261.157c-1.558.872-3.6.711-4.953 1.862-1.745 1.47-1.435 4.188-.846 6.369.052.192.109.38.157.576 0 .056.035.117.048.183.013.065 0 0 0 0s0 .087.035.13c.03.1.053.2.07.302l.052.248.026.162c0 .048 0 .1.022.148a.872.872 0 0 1 0 .148c.02.13.031.261.03.393v.043a3.926 3.926 0 0 1-2.683 3.438 3.81 3.81 0 0 1-1.383.157v40.683h-7.954l.179 1.936h7.788v62.575h-14.027c-.053.323-.11.655-.188.986-.035.144-.07.288-.113.436-.044.149-.1.35-.153.524h14.481v13.085h1.483l.917-.03h.406c.545-.026 1.043-.057 1.479-.083l.585-.044.37-.026.537-.048H134.967l.279.052h.1c.192.031.458.075.786.118l.414.061.231.03.655.088h.087l1.021.127v-13.339h29.233c-.462-.663-.898-1.309-1.239-1.937h-28.011v-62.566h124.586v62.566h-4.713c-.436.24-.903.498-1.374.781 0 0 .17.092.475.27.34.197.843.498 1.467.873h4.14v2.853c.35.266.711.55 1.065.833l.532.436c.633.528 1.261 1.09 1.863 1.666l.493.484c.205.205.41.436.602.624l.079.083c.157.171.31.342.458.51l.314.367c.179.222.354.436.52.658.165.223.327.436.475.663.148.227.301.436.436.672.136.235.319.55.437.829h.925l.082.174c.04.07.066.14.096.205.127.284.232.559.323.833.035.114.074.223.1.336.036.112.066.225.088.34 0 .105.048.205.061.306.013.1.03.205.044.3.016.083.026.166.03.25v.23a5.12 5.12 0 0 1 0 .733c.214-.039.437-.078.624-.135v-14.237h13.09l.026-.004zm-29.08-1.933h-13.483c3.574 1.309 9.29.873 13.111.327l.747-.109c-.162-.1-.293-.17-.376-.218zm32.793-62.972c-.03-.488-.066-.999-.087-1.53h-4.163c0 .086.03.17.04.252.052.292.091.576.135.873.03.205.06.4.083.597l.026.223h3.988l-.022-.415zM58.332 208.928c.406.663.833 1.309 1.274 1.937h54.77c.053-.174.11-.349.154-.523.043-.175.078-.284.113-.437.079-.331.135-.663.188-.985l-56.499.008zm227.544 1.933a.938.938 0 0 0-.1-.123.624.624 0 0 0-.106-.109 2.534 2.534 0 0 1-.353-.436 3.084 3.084 0 0 1-.166-.266 13.828 13.828 0 0 1-.331-.637c0-.026-.027-.056-.044-.087a4.263 4.263 0 0 1-.127-.279h-11.867v-62.562h12.836l-.026-.223c-.026-.191-.057-.392-.083-.597-.044-.275-.083-.558-.135-.872 0-.083-.026-.166-.04-.253h-12.552V96.284h-.03a.598.598 0 0 0-.175.021c-.07.01-.138.024-.205.044l-.153.057-.197.078-.126.052c-.314.14-.68.332-1.117.541a46.61 46.61 0 0 1-1.902.847l-.38.157-.471.183c-.31.126-.624.24-.938.344a17.673 17.673 0 0 1-1.767.528 8.228 8.228 0 0 1-.568.131c-.192.04-.375.079-.562.11-.188.03-.376.064-.568.086-.192.022-.34.048-.514.061v44.901H138.53V89.418l-.261.157c-1.558.872-3.6.711-4.953 1.862-1.745 1.47-1.435 4.188-.846 6.369.052.192.109.38.157.576 0 .056.035.117.048.183.013.065 0 0 0 0 0 .043.022.091.03.135.03.099.054.2.07.3l.053.25.026.161c0 .048 0 .1.022.148a.872.872 0 0 1 0 .149c.02.13.03.26.03.392v.044a3.926 3.926 0 0 1-2.683 3.437 3.81 3.81 0 0 1-1.383.157v40.683h-7.95l.179 1.937h7.788v62.57h-14.027c-.053.323-.11.655-.188.986-.035.144-.07.288-.113.436-.044.149-.1.35-.153.524h14.481v13.085h1.483l.917-.03h.406c.545-.026 1.043-.057 1.479-.083l.585-.044.37-.026.537-.048H134.967l.279.052h.1c.192.031.458.075.786.118l.414.061.231.03.655.088h.087l1.021.127v-13.339h29.233c-.462-.663-.898-1.309-1.239-1.937h-28.011v-62.566h124.586v62.566h-4.713c-.436.24-.903.498-1.374.781 0 0 .17.092.475.27.34.197.843.498 1.467.873h4.14v2.853c.35.266.711.55 1.065.833l.532.436c.633.528 1.261 1.09 1.863 1.666l.493.484c.205.205.41.436.602.624l.079.083c.157.171.31.342.458.51l.314.367c.179.222.354.436.52.658.165.223.327.436.475.663.148.227.301.436.436.672.136.235.319.55.437.829h.925l.082.174c.04.07.066.14.096.205.127.284.232.559.323.833.035.114.074.223.1.336.036.112.066.225.088.34 0 .105.048.205.061.306.013.1.03.205.044.3.016.083.026.166.03.25v.23a5.12 5.12 0 0 1 0 .733c.214-.039.437-.078.624-.135v-14.237h13.09l.035-.004zm3.713-64.905c-.031-.488-.066-.999-.088-1.53h-4.17c0 .086.03.17.038.252.053.292.092.576.136.873.03.205.06.4.083.597l.026.223h3.988l-.013-.415zM58.34 208.928c.406.663.833 1.309 1.274 1.937h54.762c.052-.174.109-.349.153-.523.043-.175.078-.284.113-.437.079-.331.135-.663.188-.985l-56.49.008zm227.543 1.933a.938.938 0 0 0-.1-.123.624.624 0 0 0-.105-.109 2.534 2.534 0 0 1-.353-.436 3.083 3.083 0 0 1-.166-.266 13.828 13.828 0 0 1-.332-.637c0-.026-.026-.056-.043-.087a4.262 4.262 0 0 1-.127-.279h-11.876v-62.562h12.836l-.026-.223c-.026-.191-.057-.392-.083-.597-.044-.275-.083-.558-.135-.872 0-.083-.026-.166-.04-.253h-12.552V96.284h-.03a.598.598 0 0 0-.175.021c-.07.01-.138.024-.205.044l-.153.057-.197.078-.126.052c-.314.14-.68.332-1.117.541a46.61 46.61 0 0 1-1.902.847l-.38.157-.471.183c-.31.126-.624.24-.938.344a17.673 17.673 0 0 1-1.767.528 8.228 8.228 0 0 1-.568.131c-.192.04-.375.079-.562.11-.188.03-.376.064-.568.086-.192.022-.34.048-.514.061v44.901H138.53V89.418l-.261.157c-1.558.872-3.6.711-4.953 1.862-1.745 1.47-1.435 4.188-.846 6.369.052.192.109.38.157.576 0 .056.035.117.048.183.013.065 0 0 0 0 0 .043.022.091.03.135.03.099.054.2.07.3l.053.25.026.161c0 .048 0 .1.022.148a.872.872 0 0 1 0 .149c.02.13.03.26.03.392v.044a3.926 3.926 0 0 1-2.683 3.437 3.81 3.81 0 0 1-1.383.157v40.683h-7.95l.179 1.937h7.788v62.57h-14.027c-.053.323-.11.655-.188.986-.035.144-.07.288-.113.436-.044.149-.1.35-.153.524h14.481v13.085h1.483l.917-.03h.406c.545-.026 1.043-.057 1.479-.083l.585-.044.37-.026.537-.048H134.967l.279.052h.1c.192.031.458.075.786.118l.414.061.231.03.655.088h.087l1.021.127v-13.339h29.233c-.462-.663-.898-1.309-1.239-1.937h-28.011v-62.566h124.586v62.566h-4.713c-.436.24-.903.498-1.374.781 0 0 .17.092.475.27.34.197.843.498 1.467.873h4.14v2.853c.35.266.711.55 1.065.833l.532.436c.633.528 1.261 1.09 1.863 1.666l.493.484c.205.205.41.436.602.624l.079.083c.157.171.31.342.458.51l.314.367c.179.222.354.436.52.658.165.223.327.436.475.663.148.227.301.436.436.672.136.235.319.55.437.829h.925l.082.174c.04.07.066.14.096.205.127.284.232.559.323.833.035.114.074.223.1.336.036.112.066.225.088.34 0 .105.048.205.061.306.013.1.03.205.044.3.016.083.026.166.03.25v.23a5.12 5.12 0 0 1 0 .733c.214-.039.437-.078.624-.135v-14.237h13.09l.043-.004zm3.713-64.905c-.03-.488-.065-.999-.087-1.53h-4.18c0 .086.03.17.04.252.052.292.091.576.135.873.03.205.06.4.083.597l.026.223h3.988l-.005-.415zM58.35 208.928c.406.663.834 1.309 1.275 1.937h54.753c.052-.174.109-.349.153-.523.043-.175.078-.284.113-.437.079-.331.135-.663.188-.985l-56.482.008zm227.544 1.933a.938.938 0 0 0-.1-.123.624.624 0 0 0-.105-.109 2.534 2.534 0 0 1-.353-.436 3.083 3.083 0 0 1-.166-.266 13.827 13.827 0 0 1-.332-.637c0-.026-.026-.056-.044-.087a4.263 4.263 0 0 1-.126-.279h-11.885v-62.562h12.836l-.026-.223c-.026-.191-.057-.392-.083-.597-.044-.275-.083-.558-.135-.872 0-.083-.026-.166-.04-.253h-12.552V96.284h-.03a.598.598 0 0 0-.175.021c-.07.01-.138.024-.205.044l-.153.057-.197.078-.126.052c-.314.14-.68.332-1.117.541a46.61 46.61 0 0 1-1.902.847l-.38.157-.471.183c-.31.126-.624.24-.938.344a17.673 17.673 0 0 1-1.767.528 8.228 8.228 0 0 1-.568.131c-.192.04-.375.079-.562.11-.188.03-.376.064-.568.086-.192.022-.34.048-.514.061v44.901H138.53V89.418l-.261.157c-1.558.872-3.6.711-4.953 1.862-1.745 1.47-1.435 4.188-.846 6.369.052.192.109.38.157.576 0 .056.035.117.048.183.013.065 0 0 0 0 0 .043.022.091.03.135.03.099.054.2.07.3l.053.25.026.161c0 .048 0 .1.022.148a.872.872 0 0 1 0 .149c.02.13.03.26.03.392v.044a3.926 3.926 0 0 1-2.683 3.437 3.81 3.81 0 0 1-1.383.157v40.683h-7.95l.179 1.937h7.788v62.57h-14.027c-.053.323-.11.655-.188.986-.035.144-.07.288-.113.436-.044.149-.1.35-.153.524h14.481v13.085h1.483l.917-.03h.406c.545-.026 1.043-.057 1.479-.083l.585-.044.37-.026.537-.048H134.967l.279.052h.1c.192.031.458.075.786.118l.414.061.231.03.655.088h.087l1.021.127v-13.339h29.233c-.462-.663-.898-1.309-1.239-1.937h-28.011v-62.566h124.586v62.566h-4.713c-.436.24-.903.498-1.374.781 0 0 .17.092.475.27.34.197.843.498 1.467.873h4.14v2.853c.35.266.711.55 1.065.833l.532.436c.633.528 1.261 1.09 1.863 1.666l.493.484c.205.205.41.436.602.624l.079.083c.157.171.31.342.458.51l.314.367c.179.222.354.436.52.658.165.223.327.436.475.663.148.227.301.436.436.672.136.235.319.55.437.829h.925l.082.174c.04.07.066.14.096.205.127.284.232.559.323.833.035.114.074.223.1.336.036.112.066.225.088.34 0 .105.048.205.061.306.013.1.03.205.044.3.016.083.026.166.03.25v.23a5.12 5.12 0 0 1 0 .733c.214-.039.437-.078.624-.135v-14.237h13.09l.052-.004zm3.713-64.905c-.03-.488-.065-.999-.087-1.53h-4.189c0 .086.03.17.04.252.052.292.091.576.135.873.03.205.06.4.083.597l.026.223h3.988l.004-.415zM58.358 208.928c.406.663.834 1.309 1.274 1.937h54.745c.052-.174.109-.349.153-.523.043-.175.078-.284.113-.437.079-.331.135-.663.188-.985l-56.473.008zm227.544 1.933a.938.938 0 0 0-.1-.123.624.624 0 0 0-.105-.109 2.534 2.534 0 0 1-.354-.436 3.084 3.084 0 0 1-.166-.266 13.828 13.828 0 0 1-.331-.637c0-.026-.026-.056-.044-.087a4.263 4.263 0 0 1-.126-.279h-11.894v-62.562h12.836l-.026-.223c-.026-.191-.057-.392-.083-.597-.044-.275-.083-.558-.135-.872 0-.083-.026-.166-.04-.253h-12.552V96.284h-.03a.598.598 0 0 0-.175.021c-.07.01-.138.024-.205.044l-.153.057-.197.078-.126.052c-.314.14-.68.332-1.117.541a46.61 46.61 0 0 1-1.902.847l-.38.157-.471.183c-.31.126-.624.24-.938.344a17.673 17.673 0 0 1-1.767.528 8.228 8.228 0 0 1-.568.131c-.192.04-.375.079-.562.11-.188.03-.376.064-.568.086-.192.022-.34.048-.514.061v44.901H138.53V89.418l-.261.157c-1.558.872-3.6.711-4.953 1.862-1.745 1.47-1.435 4.188-.846 6.369.052.192.109.38.157.576 0 .056.035.117.048.183.013.065 0 0 0 0 0 .043.022.091.03.135.03.099.054.2.07.3l.053.25.026.161c0 .048 0 .1.022.148a.872.872 0 0 1 0 .149c.02.13.03.26.03.392v.044a3.926 3.926 0 0 1-2.683 3.437 3.81 3.81 0 0 1-1.383.157v40.683h-7.95l.179 1.937h7.788v62.57h-14.027c-.053.323-.11.655-.188.986-.035.144-.07.288-.113.436-.044.149-.1.35-.153.524h14.481v13.085h1.483l.917-.03h.406c.545-.026 1.043-.057 1.479-.083l.585-.044.37-.026.537-.048H134.967l.279.052h.1c.192.031.458.075.786.118l.414.061.231.03.655.088h.087l1.021.127v-13.339h29.233c-.462-.663-.898-1.309-1.239-1.937h-28.011v-62.566h124.586v62.566h-4.713c-.436.24-.903.498-1.374.781 0 0 .17.092.475.27.34.197.843.498 1.467.873h4.14v2.853c.35.266.711.55 1.065.833l.532.436c.633.528 1.261 1.09 1.863 1.666l.493.484c.205.205.41.436.602.624l.079.083c.157.171.31.342.458.51l.314.367c.179.222.354.436.52.658.165.223.327.436.475.663.148.227.301.436.436.672.136.235.319.55.437.829h.925l.082.174c.04.07.066.14.096.205.127.284.232.559.323.833.035.114.074.223.1.336.036.112.066.225.088.34 0 .105.048.205.061.306.013.1.03.205.044.3.016.083.026.166.03.25v.23a5.12 5.12 0 0 1 0 .733c.214-.039.437-.078.624-.135v-14.237h13.09l.06-.004zm3.713-64.905c-.03-.488-.066-.999-.087-1.53h-4.198c0 .086.03.17.04.252.052.292.091.576.135.873.03.205.06.4.083.597l.026.223h3.988l.013-.415zM58.367 208.928c.406.663.833 1.309 1.274 1.937h54.736c.052-.174.109-.349.153-.523.043-.175.078-.284.113-.437.079-.331.135-.663.188-.985l-56.464.008zm227.543 1.933a.938.938 0 0 0-.1-.123.624.624 0 0 0-.105-.109 2.534 2.534 0 0 1-.353-.436 3.083 3.083 0 0 1-.166-.266 13.828 13.828 0 0 1-.331-.637c0-.026-.027-.056-.044-.087a4.262 4.262 0 0 1-.127-.279h-11.902v-62.562h12.836l-.026-.223c-.026-.191-.057-.392-.083-.597-.044-.275-.083-.558-.135-.872 0-.083-.026-.166-.04-.253h-12.552V96.284h-.03a.598.598 0 0 0-.175.021c-.07.01-.138.024-.205.044l-.153.057-.197.078-.126.052c-.314.14-.68.332-1.117.541a46.61 46.61 0 0 1-1.902.847l-.38.157-.471.183c-.31.126-.624.24-.938.344a17.673 17.673 0 0 1-1.767.528 8.228 8.228 0 0 1-.568.131c-.192.04-.375.079-.562.11-.188.03-.376.064-.568.086-.192.022-.34.048-.514.061v44.901H138.53V89.418l-.261.157c-1.558.872-3.6.711-4.953 1.862-1.745 1.47-1.435 4.188-.846 6.369.052.192.109.38.157.576 0 .056.035.117.048.183.013.065 0 0 0 0 0 .043.022.091.03.135.03.099.054.2.07.3l.053.25.026.161c0 .048 0 .1.022.148a.872.872 0 0 1 0 .149c.02.13.03.26.03.392v.044a3.926 3.926 0 0 1-2.683 3.437 3.81 3.81 0 0 1-1.383.157v40.683h-7.95l.179 1.937h7.788v62.57h-14.027c-.053.323-.11.655-.188.986-.035.144-.07.288-.113.436-.044.149-.1.35-.153.524h14.481v13.085h1.483l.917-.03h.406c.545-.026 1.043-.057 1.479-.083l.585-.044.37-.026.537-.048H134.967l.279.052h.1c.192.031.458.075.786.118l.414.061.231.03.655.088h.087l1.021.127v-13.339h29.233c-.462-.663-.898-1.309-1.239-1.937h-28.011v-62.566h124.586v62.566h-4.713c-.436.24-.903.498-1.374.781 0 0 .17.092.475.27.34.197.843.498 1.467.873h4.14v2.853c.35.266.711.55 1.065.833l.532.436c.633.528 1.261 1.09 1.863 1.666l.493.484c.205.205.41.436.602.624l.079.083c.157.171.31.342.458.51l.314.367c.179.222.354.436.52.658.165.223.327.436.475.663.148.227.301.436.436.672.136.235.319.55.437.829h.925l.082.174c.04.07.066.14.096.205.127.284.232.559.323.833.035.114.074.223.1.336.036.112.066.225.088.34 0 .105.048.205.061.306.013.1.03.205.044.3.016.083.026.166.03.25v.23a5.12 5.12 0 0 1 0 .733c.214-.039.437-.078.624-.135v-14.237h13.09l.07-.004zm3.713-64.905c-.03-.488-.065-.999-.087-1.53h-4.206c0 .086.03.17.04.252.052.292.091.576.135.873.03.205.06.4.083.597l.026.223h3.988l.021-.415zM58.376 208.928c.405.663.833 1.309 1.274 1.937h54.727c.052-.174.109-.349.153-.523.043-.175.078-.284.113-.437.079-.331.135-.663.188-.985l-56.455.008zm227.543 1.933a.938.938 0 0 0-.1-.123.624.624 0 0 0-.105-.109 2.534 2.534 0 0 1-.353-.436 3.083 3.083 0 0 1-.166-.266 13.827 13.827 0 0 1-.332-.637c0-.026-.026-.056-.043-.087a4.263 4.263 0 0 1-.127-.279h-11.911v-62.562h12.836l-.026-.223c-.026-.191-.057-.392-.083-.597-.044-.275-.083-.558-.135-.872 0-.083-.026-.166-.04-.253h-12.552V96.284h-.03a.598.598 0 0 0-.175.021c-.07.01-.138.024-.205.044l-.153.057-.197.078-.126.052c-.314.14-.68.332-1.117.541a46.61 46.61 0 0 1-1.902.847l-.38.157-.471.183c-.31.126-.624.24-.938.344a17.673 17.673 0 0 1-1.767.528 8.228 8.228 0 0 1-.568.131c-.192.04-.375.079-.562.11-.188.03-.376.064-.568.086-.192.022-.34.048-.514.061v44.901H138.53V89.418l-.261.157c-1.558.872-3.6.711-4.953 1.862-1.745 1.47-1.435 4.188-.846 6.369.052.192.109.38.157.576 0 .056.035.117.048.183.013.065 0 0 0 0 0 .043.022.091.03.135.03.099.054.2.07.3l.053.25.026.161c0 .048 0 .1.022.148a.872.872 0 0 1 0 .149c.02.13.03.26.03.392v.044a3.926 3.926 0 0 1-2.683 3.437 3.81 3.81 0 0 1-1.383.157v40.683h-7.95l.179 1.937h7.788v62.57h-14.027c-.053.323-.11.655-.188.986-.035.144-.07.288-.113.436-.044.149-.1.35-.153.524h14.481v13.085h1.483l.917-.03h.406c.545-.026 1.043-.057 1.479-.083l.585-.044.37-.026.537-.048H134.967l.279.052h.1c.192.031.458.075.786.118l.414.061.231.03.655.088h.087l1.021.127v-13.339h29.233c-.462-.663-.898-1.309-1.239-1.937h-28.011v-62.566h124.586v62.566h-4.713c-.436.24-.903.498-1.374.781 0 0 .17.092.475.27.34.197.843.498 1.467.873h4.14v2.853c.35.266.711.55 1.065.833l.532.436c.633.528 1.261 1.09 1.863 1.666l.493.484c.205.205.41.436.602.624l.079.083c.157.171.31.342.458.51l.314.367c.179.222.354.436.52.658.165.223.327.436.475.663.148.227.301.436.436.672.136.235.319.55.437.829h.925l.082.174c.04.07.066.14.096.205.127.284.232.559.323.833.035.114.074.223.1.336.036.112.066.225.088.34 0 .105.048.205.061.306.013.1.03.205.044.3.016.083.026.166.03.25v.23a5.12 5.12 0 0 1 0 .733c.214-.039.437-.078.624-.135v-14.237h13.09l.078-.004zm3.713-64.905c-.03-.488-.065-.999-.087-1.53h-4.215c0 .086.03.17.04.252.052.292.091.576.135.873.03.205.06.4.083.597l.026.223h3.988l.03-.415zM58.384 208.928c.406.663.834 1.309 1.274 1.937h54.719c.052-.174.109-.349.153-.523.043-.175.078-.284.113-.437.079-.331.135-.663.188-.985l-56.447.008zm227.544 1.933a.938.938 0 0 0-.1-.123.624.624 0 0 0-.105-.109 2.534 2.534 0 0 1-.354-.436 3.084 3.084 0 0 1-.165-.266 13.828 13.828 0 0 1-.332-.637c0-.026-.026-.056-.044-.087a4.263 4.263 0 0 1-.126-.279h-11.92v-62.562h12.836l-.026-.223c-.026-.191-.057-.392-.083-.597-.044-.275-.083-.558-.135-.872 0-.083-.026-.166-.04-.253h-12.552V96.284h-.03a.598.598 0 0 0-.175.021c-.07.01-.138.024-.205.044l-.153.057-.197.078-.126.052c-.314.14-.68.332-1.117.541a46.61 46.61 0 0 1-1.902.847 5.784 5.784 0 0 1-.38.157c-.126.048-.314.13-.471.183-.31.126-.624.24-.938.344a17.673 17.673 0 0 1-1.767.528 8.228 8.228 0 0 1-.568.131c-.192.04-.375.079-.562.11-.188.03-.376.064-.568.086-.192.022-.34.048-.514.061v44.901H138.53V89.418l-.261.157c-1.558.872-3.6.711-4.953 1.862-1.745 1.47-1.435 4.188-.846 6.369.052.192.109.38.157.576.02.06.037.12.048.183 0 .043.022.091.03.135.03.099.054.2.07.3l.053.25.026.161c0 .048 0 .1.022.148a.872.872 0 0 1 0 .149c.02.13.03.26.03.392v.044a3.926 3.926 0 0 1-2.683 3.437 3.81 3.81 0 0 1-1.383.157v40.683h-7.95l.179 1.937h7.788v62.57h-14.027c-.053.323-.11.655-.188.986-.035.144-.07.288-.113.436-.044.149-.1.35-.153.524h14.481v13.085h1.483l.917-.03h.406c.545-.026 1.043-.057 1.479-.083l.585-.044.37-.026.537-.048H134.967l.279.052h.1c.192.031.458.075.786.118l.414.061.231.03.655.088h.087l1.021.127v-13.339h29.233c-.462-.663-.898-1.309-1.239-1.937h-28.011v-62.566h124.586v62.566h-4.713c-.436.24-.903.498-1.374.781 0 0 .17.092.475.27.34.197.843.498 1.467.873h4.14v2.853c.35.266.711.55 1.065.833l.532.436c.633.528 1.261 1.09 1.863 1.666.166.157.332.318.493.484.162.166.41.436.602.624l.079.083c.157.171.31.342.458.51l.314.367c.179.222.354.436.52.658.165.223.327.436.475.663.148.227.301.436.436.672.136.235.319.55.437.829h.925l.082.174c.04.07.066.14.096.205.127.284.232.559.323.833.035.114.074.223.1.336.036.112.066.225.088.34 0 .105.048.205.061.306.02.1.035.2.044.3.016.083.026.166.03.25v.23a5.12 5.12 0 0 1 0 .733c.214-.039.437-.078.624-.135v-14.237h13.09l.087-.004zm3.713-64.905c-.03-.488-.066-.999-.087-1.53h-4.224c0 .086.03.17.04.252.052.292.091.576.135.873.03.205.06.4.083.597l.026.223h3.988l.039-.415zM403.62 76.7V8.54a82.397 82.397 0 0 0-8.779.436l-.894.096v67.626H275.64l-.297-.367.436-.554 1.933-2.407 1.937-2.408 35.543-44.225a74.147 74.147 0 0 1-11.729-1.697l-30.699 38.206V17.212a231.474 231.474 0 0 1-9.673-2.098v46.004L219.154 6.421c-4.288-.07-8.58.014-12.876.253l54.274 67.525 1.405 1.745.305.38-.305.366H138.53V4.35c-3.207-.672-6.427-1.309-9.673-1.823v74.151H51.006a30.71 30.71 0 0 1-.126 1.937h77.978v65.811H42.393V99.62a123.77 123.77 0 0 1-9.668 11.812v32.993H7.139a58.38 58.38 0 0 0-.812 1.937h26.398v62.566H1.279c0 .65-.035 1.309-.06 1.937h31.506v75.992a86.931 86.931 0 0 0 9.668 8.785v-84.777h86.465v82.997c2.786-.23 5.585-.25 8.373-.06.436.03.873.069 1.31.108v-83.045h124.568v73.715c1.274.061 2.548.153 3.813.266a84.16 84.16 0 0 1 5.86.729v-74.71h121.147v60.194c3.334-1.466 6.632-2.923 9.674-4.602v-53.45c-3.347-6.574-5.738-13.287-4.874-20.283.54-4.414 2.347-8.41 4.874-12.034v-34.328h46.306l3.185-1.937H403.62v-65.79h103.752c.06-.645.109-1.286.144-1.936H403.62zm-9.69 1.936v65.79H272.781V80.398l.091-.096 1.61-1.667H393.93zm-255.416 0h124.595v65.79H138.53l-.017-65.79zm-96.12 130.293v-62.566h86.464v62.566H42.393zm96.137 0v-62.566H263.11v62.566H138.53zm134.25 0v-62.566H393.93v62.566H272.782zm16.799-62.972c-.03-.488-.066-.999-.087-1.53h-4.163c0 .086.03.17.04.252.052.292.091.576.135.873.03.205.06.4.083.597l.026.223h3.988l-.022-.415zm-3.713 64.905a.938.938 0 0 0-.1-.123.624.624 0 0 0-.105-.109 2.534 2.534 0 0 1-.354-.436 3.083 3.083 0 0 1-.165-.266 13.827 13.827 0 0 1-.332-.637c0-.026-.026-.056-.044-.087a4.263 4.263 0 0 1-.126-.279h-11.86v-62.562h12.837l-.026-.223c-.026-.191-.057-.392-.083-.597-.044-.275-.083-.558-.135-.872 0-.083-.026-.166-.04-.253h-12.552V96.284h-.03a.598.598 0 0 0-.175.021c-.07.01-.138.024-.205.044l-.153.057-.197.078-.126.052c-.314.14-.68.332-1.117.541a46.61 46.61 0 0 1-1.902.847l-.38.157-.471.183c-.31.126-.624.24-.938.344a17.673 17.673 0 0 1-1.767.528 8.228 8.228 0 0 1-.568.131c-.192.04-.375.079-.562.11-.188.03-.376.064-.568.086-.192.022-.34.048-.514.061v44.901H138.53V89.418l-.261.157c-1.558.872-3.6.711-4.953 1.862-1.745 1.47-1.435 4.188-.846 6.369.052.192.109.38.157.576 0 .056.035.117.048.183.013.065 0 0 0 0 0 .043.022.091.03.135.03.099.054.2.07.3l.053.25.026.161c0 .048 0 .1.022.148a.872.872 0 0 1 0 .149c.02.13.03.26.03.392v.044a3.926 3.926 0 0 1-2.683 3.437 3.81 3.81 0 0 1-1.383.157v40.683h-7.95l.179 1.937h7.788v62.57h-14.027c-.053.323-.11.655-.188.986-.035.144-.07.288-.113.436-.044.149-.1.35-.153.524h14.481v13.085h1.483l.917-.03h.406c.545-.026 1.043-.057 1.479-.083l.585-.044.37-.026.537-.048H134.967l.279.052h.1c.192.031.458.075.786.118l.414.061.231.03.655.088h.087l1.021.127v-13.339h29.233c-.462-.663-.898-1.309-1.239-1.937h-28.011v-62.566h124.586v62.566h-4.713c-.436.24-.903.498-1.374.781 0 0 .17.092.475.27.34.197.843.498 1.467.873h4.14v2.853c.35.266.711.55 1.065.833l.532.436c.633.528 1.261 1.09 1.863 1.666l.493.484c.205.205.41.436.602.624l.079.083c.157.171.31.342.458.51l.314.367c.179.222.354.436.52.658.165.223.327.436.475.663.148.227.301.436.436.672.136.235.319.55.437.829h.925l.082.174c.04.07.066.14.096.205.127.284.232.559.323.833.035.114.074.223.1.336.036.112.066.225.088.34 0 .105.048.205.061.306.013.1.03.205.044.3.016.083.026.166.03.25v.23a5.12 5.12 0 0 1 0 .733c.214-.039.437-.078.624-.135v-14.237h13.09l.026-.004zm-227.544-1.933c.406.663.834 1.309 1.274 1.937h54.78c.052-.174.109-.349.153-.523.043-.175.078-.284.113-.437.079-.331.135-.663.188-.985l-56.508.008zm231.248-62.972c-.03-.488-.065-.999-.087-1.53h-4.154c0 .086.03.17.04.252.052.292.091.576.135.873.03.205.06.4.083.597l.026.223h3.988l-.03-.415zm-3.713 64.905a.938.938 0 0 0-.1-.123.624.624 0 0 0-.105-.109 2.534 2.534 0 0 1-.353-.436 3.083 3.083 0 0 1-.166-.266 13.828 13.828 0 0 1-.332-.637c0-.026-.026-.056-.043-.087a4.262 4.262 0 0 1-.127-.279h-11.85v-62.562h12.836l-.026-.223c-.026-.191-.057-.392-.083-.597-.044-.275-.083-.558-.135-.872 0-.083-.026-.166-.04-.253h-12.552V96.284h-.03a.598.598 0 0 0-.175.021c-.07.01-.138.024-.205.044l-.153.057-.197.078-.126.052c-.314.14-.68.332-1.117.541a46.61 46.61 0 0 1-1.902.847l-.38.157-.471.183c-.31.126-.624.24-.938.344a17.673 17.673 0 0 1-1.767.528 8.228 8.228 0 0 1-.568.131c-.192.04-.375.079-.562.11-.188.03-.376.064-.568.086-.192.022-.34.048-.514.061v44.901H138.53V89.418l-.261.157c-1.558.872-3.6.711-4.953 1.862-1.745 1.47-1.435 4.188-.846 6.369.052.192.109.38.157.576 0 .056.035.117.048.183.013.065 0 0 0 0 0 .043.022.091.03.135.03.099.054.2.07.3l.053.25.026.161c0 .048 0 .1.022.148a.872.872 0 0 1 0 .149c.02.13.03.26.03.392v.044a3.926 3.926 0 0 1-2.683 3.437 3.81 3.81 0 0 1-1.383.157v40.683h-7.95l.179 1.937h7.788v62.57h-14.027c-.053.323-.11.655-.188.986-.035.144-.07.288-.113.436-.044.149-.1.35-.153.524h14.481v13.085h1.483l.917-.03h.406c.545-.026 1.043-.057 1.479-.083l.585-.044.37-.026.537-.048H134.967l.279.052h.1c.192.031.458.075.786.118l.414.061.231.03.655.088h.087l1.021.127v-13.339h29.233c-.462-.663-.898-1.309-1.239-1.937h-28.011v-62.566h124.586v62.566h-4.713c-.436.24-.903.498-1.374.781 0 0 .17.092.475.27.34.197.843.498 1.467.873h4.14v2.853c.35.266.711.55 1.065.833l.532.436c.633.528 1.261 1.09 1.863 1.666l.493.484c.205.205.41.436.602.624l.079.083c.157.171.31.342.458.51l.314.367c.179.222.354.436.52.658.165.223.327.436.475.663.148.227.301.436.436.672.136.235.319.55.437.829h.925l.082.174c.04.07.066.14.096.205.127.284.232.559.323.833.035.114.074.223.1.336.036.112.066.225.088.34 0 .105.048.205.061.306.013.1.03.205.044.3.016.083.026.166.03.25v.23a5.12 5.12 0 0 1 0 .733c.214-.039.437-.078.624-.135v-14.237h13.09l.017-.004zm-227.535-1.933c.406.663.834 1.309 1.274 1.937h54.78c.052-.174.109-.349.153-.523.043-.175.078-.284.113-.437.079-.331.135-.663.188-.985l-56.508.008zm231.248-62.972c-.03-.488-.065-.999-.087-1.53h-4.154c0 .086.03.17.04.252.052.292.091.576.135.873.03.205.06.4.083.597l.026.223h3.988l-.03-.415zm-3.713 64.905a.938.938 0 0 0-.1-.123.624.624 0 0 0-.105-.109 2.534 2.534 0 0 1-.353-.436 3.083 3.083 0 0 1-.166-.266 13.828 13.828 0 0 1-.332-.637c0-.026-.026-.056-.043-.087a4.262 4.262 0 0 1-.127-.279h-11.85v-62.562h12.836l-.026-.223c-.026-.191-.057-.392-.083-.597-.044-.275-.083-.558-.135-.872 0-.083-.026-.166-.04-.253h-12.552V96.284h-.03a.598.598 0 0 0-.175.021c-.07.01-.138.024-.205.044l-.153.057-.197.078-.126.052c-.314.14-.68.332-1.117.541a46.61 46.61 0 0 1-1.902.847l-.38.157-.471.183c-.31.126-.624.24-.938.344a17.673 17.673 0 0 1-1.767.528 8.228 8.228 0 0 1-.568.131c-.192.04-.375.079-.562.11-.188.03-.376.064-.568.086-.192.022-.34.048-.514.061v44.901H138.53V89.418l-.261.157c-1.558.872-3.6.711-4.953 1.862-1.745 1.47-1.435 4.188-.846 6.369.052.192.109.38.157.576 0 .056.035.117.048.183.013.065 0 0 0 0 0 .043.022.091.03.135.03.099.054.2.07.3l.053.25.026.161c0 .048 0 .1.022.148a.872.872 0 0 1 0 .149c.02.13.03.26.03.392v.044a3.926 3.926 0 0 1-2.683 3.437 3.81 3.81 0 0 1-1.383.157v40.683h-7.95l.179 1.937h7.788v62.57h-14.027c-.053.323-.11.655-.188.986-.035.144-.07.288-.113.436-.044.149-.1.35-.153.524h14.481v13.085h1.483l.917-.03h.406c.545-.026 1.043-.057 1.479-.083l.585-.044.37-.026.537-.048H134.967l.279.052h.1c.192.031.458.075.786.118l.414.061.231.03.655.088h.087l1.021.127v-13.339h29.233c-.462-.663-.898-1.309-1.239-1.937h-28.011v-62.566h124.586v62.566h-4.713c-.436.24-.903.498-1.374.781 0 0 .17.092.475.27.34.197.843.498 1.467.873h4.14v2.853c.35.266.711.55 1.065.833l.532.436c.633.528 1.261 1.09 1.863 1.666l.493.484c.205.205.41.436.602.624l.079.083c.157.171.31.342.458.51l.314.367c.179.222.354.436.52.658.165.223.327.436.475.663.148.227.301.436.436.672.136.235.319.55.437.829h.925l.082.174c.04.07.066.14.096.205.127.284.232.559.323.833.035.114.074.223.1.336.036.112.066.225.088.34 0 .105.048.205.061.306.013.1.03.205.044.3.016.083.026.166.03.25v.23a5.12 5.12 0 0 1 0 .733c.214-.039.437-.078.624-.135v-14.237h13.09l.017-.004zm-227.535-1.933c.406.663.834 1.309 1.274 1.937h54.78c.052-.174.109-.349.153-.523.043-.175.078-.284.113-.437.079-.331.135-.663.188-.985l-56.508.008zm231.248-62.972c-.03-.488-.065-.999-.087-1.53h-4.154c0 .086.03.17.04.252.052.292.091.576.135.873.03.205.06.4.083.597l.026.223h3.988l-.03-.415zm-3.713 64.905a.938.938 0 0 0-.1-.123.624.624 0 0 0-.105-.109 2.534 2.534 0 0 1-.353-.436 3.083 3.083 0 0 1-.166-.266 13.828 13.828 0 0 1-.332-.637c0-.026-.026-.056-.043-.087a4.262 4.262 0 0 1-.127-.279h-11.85v-62.562h12.836l-.026-.223c-.026-.191-.057-.392-.083-.597-.044-.275-.083-.558-.135-.872 0-.083-.026-.166-.04-.253h-12.552V96.284h-.03a.598.598 0 0 0-.175.021c-.07.01-.138.024-.205.044l-.153.057-.197.078-.126.052c-.314.14-.68.332-1.117.541a46.61 46.61 0 0 1-1.902.847l-.38.157-.471.183c-.31.126-.624.24-.938.344a17.673 17.673 0 0 1-1.767.528 8.228 8.228 0 0 1-.568.131c-.192.04-.375.079-.562.11-.188.03-.376.064-.568.086-.192.022-.34.048-.514.061v44.901H138.53V89.418l-.261.157c-1.558.872-3.6.711-4.953 1.862-1.745 1.47-1.435 4.188-.846 6.369.052.192.109.38.157.576 0 .056.035.117.048.183.013.065 0 0 0 0 0 .043.022.091.03.135.03.099.054.2.07.3l.053.25.026.161c0 .048 0 .1.022.148a.872.872 0 0 1 0 .149c.02.13.03.26.03.392v.044a3.926 3.926 0 0 1-2.683 3.437 3.81 3.81 0 0 1-1.383.157v40.683h-7.95l.179 1.937h7.788v62.57h-14.027c-.053.323-.11.655-.188.986-.035.144-.07.288-.113.436-.044.149-.1.35-.153.524h14.481v13.085h1.483l.917-.03h.406c.545-.026 1.043-.057 1.479-.083l.585-.044.37-.026.537-.048H134.967l.279.052h.1c.192.031.458.075.786.118l.414.061.231.03.655.088h.087l1.021.127v-13.339h29.233c-.462-.663-.898-1.309-1.239-1.937h-28.011v-62.566h124.586v62.566h-4.713c-.436.24-.903.498-1.374.781 0 0 .17.092.475.27.34.197.843.498 1.467.873h4.14v2.853c.35.266.711.55 1.065.833l.532.436c.633.528 1.261 1.09 1.863 1.666l.493.484c.205.205.41.436.602.624l.079.083c.157.171.31.342.458.51l.314.367c.179.222.354.436.52.658.165.223.327.436.475.663.148.227.301.436.436.672.136.235.319.55.437.829h.925l.082.174c.04.07.066.14.096.205.127.284.232.559.323.833.035.114.074.223.1.336.036.112.066.225.088.34 0 .105.048.205.061.306.013.1.03.205.044.3.016.083.026.166.03.25v.23a5.12 5.12 0 0 1 0 .733c.214-.039.437-.078.624-.135v-14.237h13.09l.017-.004zm-227.535-1.933c.406.663.834 1.309 1.274 1.937h54.78c.052-.174.109-.349.153-.523.043-.175.078-.284.113-.437.079-.331.135-.663.188-.985l-56.508.008zm231.248-62.972c-.03-.488-.065-.999-.087-1.53h-4.154c0 .086.03.17.04.252.052.292.091.576.135.873.03.205.06.4.083.597l.026.223h3.988l-.03-.415zm-3.713 64.905a.938.938 0 0 0-.1-.123.624.624 0 0 0-.105-.109 2.534 2.534 0 0 1-.353-.436 3.083 3.083 0 0 1-.166-.266 13.828 13.828 0 0 1-.332-.637c0-.026-.026-.056-.043-.087a4.262 4.262 0 0 1-.127-.279h-11.85v-62.562h12.836l-.026-.223c-.026-.191-.057-.392-.083-.597-.044-.275-.083-.558-.135-.872 0-.083-.026-.166-.04-.253h-12.552V96.284h-.03a.598.598 0 0 0-.175.021c-.07.01-.138.024-.205.044l-.153.057-.197.078-.126.052c-.314.14-.68.332-1.117.541a46.61 46.61 0 0 1-1.902.847l-.38.157-.471.183c-.31.126-.624.24-.938.344a17.673 17.673 0 0 1-1.767.528 8.228 8.228 0 0 1-.568.131c-.192.04-.375.079-.562.11-.188.03-.376.064-.568.086-.192.022-.34.048-.514.061v44.901H138.53V89.418l-.261.157c-1.558.872-3.6.711-4.953 1.862-1.745 1.47-1.435 4.188-.846 6.369.052.192.109.38.157.576 0 .056.035.117.048.183.013.065 0 0 0 0 0 .043.022.091.03.135.03.099.054.2.07.3l.053.25.026.161c0 .048 0 .1.022.148a.872.872 0 0 1 0 .149c.02.13.03.26.03.392v.044a3.926 3.926 0 0 1-2.683 3.437 3.81 3.81 0 0 1-1.383.157v40.683h-7.95l.179 1.937h7.788v62.57h-14.027c-.053.323-.11.655-.188.986-.035.144-.07.288-.113.436-.044.149-.1.35-.153.524h14.481v13.085h1.483l.917-.03h.406c.545-.026 1.043-.057 1.479-.083l.585-.044.37-.026.537-.048H134.967l.279.052h.1c.192.031.458.075.786.118l.414.061.231.03.655.088h.087l1.021.127v-13.339h29.233c-.462-.663-.898-1.309-1.239-1.937h-28.011v-62.566h124.586v62.566h-4.713c-.436.24-.903.498-1.374.781 0 0 .17.092.475.27.34.197.843.498 1.467.873h4.14v2.853c.35.266.711.55 1.065.833l.532.436c.633.528 1.261 1.09 1.863 1.666l.493.484c.205.205.41.436.602.624l.079.083c.157.171.31.342.458.51l.314.367c.179.222.354.436.52.658.165.223.327.436.475.663.148.227.301.436.436.672.136.235.319.55.437.829h.925l.082.174c.04.07.066.14.096.205.127.284.232.559.323.833.035.114.074.223.1.336.036.112.066.225.088.34 0 .105.048.205.061.306.013.1.03.205.044.3.016.083.026.166.03.25v.23a5.12 5.12 0 0 1 0 .733c.214-.039.437-.078.624-.135v-14.237h13.09l.017-.004zm-227.535-1.933c.406.663.834 1.309 1.274 1.937h54.78c.052-.174.109-.349.153-.523.043-.175.078-.284.113-.437.079-.331.135-.663.188-.985l-56.508.008zm231.248-62.972c-.03-.488-.065-.999-.087-1.53h-4.154c0 .086.03.17.04.252.052.292.091.576.135.873.03.205.06.4.083.597l.026.223h3.988l-.03-.415zm-3.713 64.905a.938.938 0 0 0-.1-.123.624.624 0 0 0-.105-.109 2.534 2.534 0 0 1-.353-.436 3.083 3.083 0 0 1-.166-.266 13.828 13.828 0 0 1-.332-.637c0-.026-.026-.056-.043-.087a4.262 4.262 0 0 1-.127-.279h-11.85v-62.562h12.836l-.026-.223c-.026-.191-.057-.392-.083-.597-.044-.275-.083-.558-.135-.872 0-.083-.026-.166-.04-.253h-12.552V96.284h-.03a.598.598 0 0 0-.175.021c-.07.01-.138.024-.205.044l-.153.057-.197.078-.126.052c-.314.14-.68.332-1.117.541a46.61 46.61 0 0 1-1.902.847l-.38.157-.471.183c-.31.126-.624.24-.938.344a17.673 17.673 0 0 1-1.767.528 8.228 8.228 0 0 1-.568.131c-.192.04-.375.079-.562.11-.188.03-.376.064-.568.086-.192.022-.34.048-.514.061v44.901H138.53V89.418l-.261.157c-1.558.872-3.6.711-4.953 1.862-1.745 1.47-1.435 4.188-.846 6.369.052.192.109.38.157.576 0 .056.035.117.048.183.013.065 0 0 0 0 0 .043.022.091.03.135.03.099.054.2.07.3l.053.25.026.161c0 .048 0 .1.022.148a.872.872 0 0 1 0 .149c.02.13.03.26.03.392v.044a3.926 3.926 0 0 1-2.683 3.437 3.81 3.81 0 0 1-1.383.157v40.683h-7.95l.179 1.937h7.788v62.57h-14.027c-.053.323-.11.655-.188.986-.035.144-.07.288-.113.436-.044.149-.1.35-.153.524h14.481v13.085h1.483l.917-.03h.406c.545-.026 1.043-.057 1.479-.083l.585-.044.37-.026.537-.048H134.967l.279.052h.1c.192.031.458.075.786.118l.414.061.231.03.655.088h.087l1.021.127v-13.339h29.233c-.462-.663-.898-1.309-1.239-1.937h-28.011v-62.566h124.586v62.566h-4.713c-.436.24-.903.498-1.374.781 0 0 .17.092.475.27.34.197.843.498 1.467.873h4.14v2.853c.35.266.711.55 1.065.833l.532.436c.633.528 1.261 1.09 1.863 1.666l.493.484c.205.205.41.436.602.624l.079.083c.157.171.31.342.458.51l.314.367c.179.222.354.436.52.658.165.223.327.436.475.663.148.227.301.436.436.672.136.235.319.55.437.829h.925l.082.174c.04.07.066.14.096.205.127.284.232.559.323.833.035.114.074.223.1.336.036.112.066.225.088.34 0 .105.048.205.061.306.013.1.03.205.044.3.016.083.026.166.03.25v.23a5.12 5.12 0 0 1 0 .733c.214-.039.437-.078.624-.135v-14.237h13.09l.017-.004zm-227.535-1.933c.406.663.834 1.309 1.274 1.937h54.78c.052-.174.109-.349.153-.523.043-.175.078-.284.113-.437.079-.331.135-.663.188-.985l-56.508.008zm231.248-62.972c-.03-.488-.065-.999-.087-1.53h-4.154c0 .086.03.17.04.252.052.292.091.576.135.873.03.205.06.4.083.597l.026.223h3.988l-.03-.415zm-3.713 64.905a.938.938 0 0 0-.1-.123.624.624 0 0 0-.105-.109 2.534 2.534 0 0 1-.353-.436 3.083 3.083 0 0 1-.166-.266 13.828 13.828 0 0 1-.332-.637c0-.026-.026-.056-.043-.087a4.262 4.262 0 0 1-.127-.279h-11.85v-62.562h12.836l-.026-.223c-.026-.191-.057-.392-.083-.597-.044-.275-.083-.558-.135-.872 0-.083-.026-.166-.04-.253h-12.552V96.284h-.03a.598.598 0 0 0-.175.021c-.07.01-.138.024-.205.044l-.153.057-.197.078-.126.052c-.314.14-.68.332-1.117.541a46.61 46.61 0 0 1-1.902.847l-.38.157-.471.183c-.31.126-.624.24-.938.344a17.673 17.673 0 0 1-1.767.528 8.228 8.228 0 0 1-.568.131c-.192.04-.375.079-.562.11-.188.03-.376.064-.568.086-.192.022-.34.048-.514.061v44.901H138.53V89.418l-.261.157c-1.558.872-3.6.711-4.953 1.862-1.745 1.47-1.435 4.188-.846 6.369.052.192.109.38.157.576 0 .056.035.117.048.183.013.065 0 0 0 0 0 .043.022.091.03.135.03.099.054.2.07.3l.053.25.026.161c0 .048 0 .1.022.148a.872.872 0 0 1 0 .149c.02.13.03.26.03.392v.044a3.926 3.926 0 0 1-2.683 3.437 3.81 3.81 0 0 1-1.383.157v40.683h-7.95l.179 1.937h7.788v62.57h-14.027c-.053.323-.11.655-.188.986-.035.144-.07.288-.113.436-.044.149-.1.35-.153.524h14.481v13.085h1.483l.917-.03h.406c.545-.026 1.043-.057 1.479-.083l.585-.044.37-.026.537-.048H134.967l.279.052h.1c.192.031.458.075.786.118l.414.061.231.03.655.088h.087l1.021.127v-13.339h29.233c-.462-.663-.898-1.309-1.239-1.937h-28.011v-62.566h124.586v62.566h-4.713c-.436.24-.903.498-1.374.781 0 0 .17.092.475.27.34.197.843.498 1.467.873h4.14v2.853c.35.266.711.55 1.065.833l.532.436c.633.528 1.261 1.09 1.863 1.666l.493.484c.205.205.41.436.602.624l.079.083c.157.171.31.342.458.51l.314.367c.179.222.354.436.52.658.165.223.327.436.475.663.148.227.301.436.436.672.136.235.319.55.437.829h.925l.082.174c.04.07.066.14.096.205.127.284.232.559.323.833.035.114.074.223.1.336.036.112.066.225.088.34 0 .105.048.205.061.306.013.1.03.205.044.3.016.083.026.166.03.25v.23a5.12 5.12 0 0 1 0 .733c.214-.039.437-.078.624-.135v-14.237h13.09l.017-.004zm-227.535-1.933c.406.663.834 1.309 1.274 1.937h54.78c.052-.174.109-.349.153-.523.043-.175.078-.284.113-.437.079-.331.135-.663.188-.985l-56.508.008zm231.248-62.972c-.03-.488-.065-.999-.087-1.53h-4.154c0 .086.03.17.04.252.052.292.091.576.135.873.03.205.06.4.083.597l.026.223h3.988l-.03-.415zm-3.713 64.905a.938.938 0 0 0-.1-.123.624.624 0 0 0-.105-.109 2.534 2.534 0 0 1-.353-.436 3.083 3.083 0 0 1-.166-.266 13.828 13.828 0 0 1-.332-.637c0-.026-.026-.056-.043-.087a4.262 4.262 0 0 1-.127-.279h-11.85v-62.562h12.836l-.026-.223c-.026-.191-.057-.392-.083-.597-.044-.275-.083-.558-.135-.872 0-.083-.026-.166-.04-.253h-12.552V96.284h-.03a.598.598 0 0 0-.175.021c-.07.01-.138.024-.205.044l-.153.057-.197.078-.126.052c-.314.14-.68.332-1.117.541a46.61 46.61 0 0 1-1.902.847l-.38.157-.471.183c-.31.126-.624.24-.938.344a17.673 17.673 0 0 1-1.767.528 8.228 8.228 0 0 1-.568.131c-.192.04-.375.079-.562.11-.188.03-.376.064-.568.086-.192.022-.34.048-.514.061v44.901H138.53V89.418l-.261.157c-1.558.872-3.6.711-4.953 1.862-1.745 1.47-1.435 4.188-.846 6.369.052.192.109.38.157.576 0 .056.035.117.048.183.013.065 0 0 0 0 0 .043 0 .087.035.13.03.1.053.2.07.302l.052.248.026.162c0 .048 0 .1.022.148a.872.872 0 0 1 0 .148c.02.13.031.261.03.393v.043a3.926 3.926 0 0 1-2.683 3.438 3.81 3.81 0 0 1-1.383.157v40.683h-7.954l.179 1.936h7.788v62.575h-14.027c-.053.323-.11.655-.188.986-.035.144-.07.288-.113.436-.044.149-.1.35-.153.524h14.481v13.085h1.483l.917-.03h.406c.545-.026 1.043-.057 1.479-.083l.585-.044.37-.026.537-.048H134.967l.279.052h.1c.192.031.458.075.786.118l.414.061.231.03.655.088h.087l1.021.127v-13.339h29.233c-.462-.663-.898-1.309-1.239-1.937h-28.011v-62.566h124.586v62.566h-21.227c.41.166.763.327 1.047.476 3.43 1.744 9.734 1.27 13.835.685l.733-.11c.34.197.843.498 1.467.873h4.14v2.853c.35.266.711.55 1.065.833l.532.436c.633.528 1.261 1.09 1.863 1.666l.493.484c.205.205.41.436.602.624l.079.083c.157.171.31.342.458.51l.314.367c.179.222.354.436.52.658.165.223.327.436.475.663.148.227.301.436.436.672.136.235.319.55.437.829h.925l.082.174c.04.07.066.14.096.205.127.284.232.559.323.833.035.114.074.223.1.336.036.112.066.225.088.34 0 .105.048.205.061.306.013.1.03.205.044.3.016.083.026.166.03.25v.23a5.12 5.12 0 0 1 0 .733c.214-.039.437-.078.624-.135v-14.237h13.09l.017-.004zm-227.535-1.933c.406.663.834 1.309 1.274 1.937h54.78c.052-.174.109-.349.153-.523.043-.175.078-.284.113-.437.079-.331.135-.663.188-.985l-56.508.008zm200.073 0h-16.514c.41.166.763.327 1.047.476 3.43 1.744 9.734 1.27 13.835.685l.733-.11c-.305-.178-.475-.27-.475-.27.471-.283.93-.54 1.374-.78zm14.399 0v-62.566h17.247c-.148-.14-.296-.28-.436-.406l-.113-.1-.253-.223a6.418 6.418 0 0 0-.328-.274l-.275-.218-.3-.236a7.266 7.266 0 0 0-.485-.366 1.174 1.174 0 0 0-.118-.088h-14.952v-3.424c-.14.07-.27.144-.406.218l-.436.27s0 .023-.027.023a.524.524 0 0 1-.091.056l-.266.201a5.193 5.193 0 0 0-.267.196c-.266.197-.527.437-.785.642l-.257.23-.506.459c-.677.632-1.34 1.286-2.025 1.893-.174.152-.345.305-.524.436a13.32 13.32 0 0 1-1.151.872c-.16.115-.327.221-.498.319l-.288.144-.257.13a9.727 9.727 0 0 1-1.89.681v61.131h-25.9c0 .074.04.136.053.201.144.58.288 1.16.436 1.745h25.42v67.059a1.55 1.55 0 0 1 .201 0h.196l.437.03.824.07 1.31.153c.2 0 .405.052.601.083l.712.1h.096l1.156.196c.078 0 .166.03.248.048l.555.1.807.162 1.937-.07.266.061.327.074v-68.044h38.924c.061-.646.122-1.309.183-1.937l-39.102-.03zm39.107 0c-.061.65-.122 1.309-.183 1.937h16.72l1.142-1.937h-17.68zm20.712 0h-1.745v1.95h1.976l-.231-1.95zm-59.82 0v-62.566h17.248c-.148-.14-.296-.28-.436-.406l-.113-.1-.253-.223a6.418 6.418 0 0 0-.328-.274l-.275-.218-.3-.236a7.266 7.266 0 0 0-.485-.366 1.174 1.174 0 0 0-.118-.088h-14.952v-3.424c-.14.07-.27.144-.406.218l-.436.27s0 .023-.027.023a.524.524 0 0 1-.091.056l-.266.201a5.193 5.193 0 0 0-.267.196c-.266.197-.527.437-.785.642l-.257.23-.506.459c-.677.632-1.34 1.286-2.025 1.893-.174.152-.345.305-.524.436a13.32 13.32 0 0 1-1.151.872c-.16.115-.327.221-.498.319l-.288.144-.257.13a9.727 9.727 0 0 1-1.89.681v61.131h-25.9c0 .074.04.136.053.201.144.584.284 1.156.436 1.745h25.425v67.059h.397l.436.03.825.07 1.309.153c.2 0 .405.052.602.083l.707.1h.096l1.156.196c.078 0 .166.03.248.048l.555.1.807.162 1.937-.07.266.061.327.074v-68.044h39.984v-.144a1.443 1.443 0 0 0 0-.144c.053-.537.1-1.065.153-1.597a.196.196 0 0 1 0-.052l-40.132-.03zm40.19 0a.196.196 0 0 0 0 .053c-.052.532-.1 1.06-.153 1.596.003.048.003.096 0 .144v.144h15.031v-.105l1.074-1.823-15.952-.009zm19.634 0h-1.745v1.95h1.972l-.227-1.95z" fill="#6C63FF" fill-rule="nonzero" opacity=".1"/><path d="M416.138 236.997l-12.518-.205-9.69-.166-19.81-.331h-.872l-16.672-.28-33.33-.571-18.072-.301-2.256-.04h-.873l-1.692-.025h-.891l-9.376-.188-5.375-.092-1.44-.026h-.615l-9.844-.165-9.673-.157-77.922-1.309h-1.064l-29.56-.493-1.85-.035-14.177-.231-9.673-.161-8.726-.149h-.746l-34.443-.575-11.432-.236-31.153-.523-3.154-.053h-.035l-6.47-.109-31.46-.523c-.2-2.862-.27-5.74-.265-8.624 0-1.916.027-3.828.083-5.735l31.641.689 6.109.135h.109l3.451.074 14.534.314 7.806.17 46.25 1.003 3.237.07 14.647.319 1.824.039 3.246.074 4.276.092h.327l13.875.3 19.839.437 1.23.026 47.441 1.03h.777l41.415.898 6.361.14.93.021h.925l1.457.03 1.824.044 8.18.175h.904l2.579.057h1.06l1.012.021 5.672.127 20.258.436h.912l1.366.03 55.814 1.209h.842l20.716.436 8.644.188 1.03.144 7.054.99a94.696 94.696 0 0 1 2.182 4.06 56.835 56.835 0 0 1 3.29 7.525z" fill="#FFF"/><path d="M416.138 236.997l-12.518-.205-9.69-.166-19.81-.331h-.872l-16.672-.28-33.33-.571-18.072-.301-2.256-.04h-.873l-1.692-.025h-.891l-9.376-.188-5.375-.092-1.44-.026h-.615l-9.844-.165-9.673-.157-77.922-1.309h-1.064l-29.56-.493-1.85-.035-14.177-.231-9.673-.161-8.726-.149h-.746l-34.443-.575-11.432-.236-31.153-.523-3.154-.053h-.035l-6.47-.109-31.46-.523c-.2-2.862-.27-5.74-.265-8.624l31.724.633 6.545.126h.1l3.024.061 18.365.362 10.37.21 17.519.349 17.374.344 9.979.197h.21l10.946.213h.402l1.309.03 9.673.193h.196l5.013.096 1.706.039 3.12.057 28.461.567h1.143l84.93 1.683 9.672.197 8.256.161h1.085l6.76.131 1.256.03h1.004l20.402.406h.907l1.427.026 24.26.485 26.554.523 7.487.148h.71l21.023.436 9.673.192 9.258.184a56.835 56.835 0 0 1 3.286 7.489z" fill="#D0D0DB"/><path d="M380.129 277.985c-.268.169-.53.343-.786.524-.55.369-1.088.754-1.614 1.155a38.773 38.773 0 0 0-3.936 3.455c-.366.358-.733.728-1.09 1.108-.69.72-1.362 1.461-2.02 2.211l-.52.602c-.483.582-.963 1.155-1.44 1.719-.62.75-1.226 1.51-1.832 2.272-.873 1.09-1.745 2.181-2.592 3.272-.253.314-.502.624-.746.938-1.422 1.744-2.85 3.49-4.363 5.103l-38.147.074h-10.507l-.144-.083-.995-.575-.466-.27c-1.183-.69-2.365-1.38-3.543-2.051l-.284-.166a183.35 183.35 0 0 0-4.952-2.735 73.858 73.858 0 0 0-2.998-1.5 84.368 84.368 0 0 0-10.288-4.126 88.673 88.673 0 0 0-14.076-3.39 84.161 84.161 0 0 0-5.86-.728 92.224 92.224 0 0 0-3.813-.266 90.055 90.055 0 0 0-30.581 3.716c-1.348.41-2.692.873-4.019 1.335-.248.083-.493.174-.733.262.044-.223.092-.437.14-.668.362-1.666 1.867-3.49 3.953-5.326.873-10.682 9.808-19.192 9.808-19.192l21.17-9.16.262-.174c3.691-2.478 7.605-4.47 9.673-5.204.292-.11.593-.198.9-.261 3.87-.772 7.268-3.86 10.034-5.553 1.213-.742 1.432-3.402 1.283-6.176 0-.214 0-.437-.035-.642l-.628.035-.122-.323-.157-.436c-.026-.074-.048-.144-.074-.213h-.581c-.248-.65-.475-1.27-.676-1.863a36.055 36.055 0 0 1-1.422-5.2 1.482 1.482 0 0 1-.035-.2 15.58 15.58 0 0 1-.253-2.373 8.983 8.983 0 0 1 .104-1.788c.043-.255.103-.507.18-.755l-.402.04-1.047.091-.319.026-.14.092-6.627.589-.633.056-.323.027a.188.188 0 0 0 0-.048v-.035l-.61.056-.328.027c.054-.229.094-.46.118-.694l-.685.066-.253.021a50.554 50.554 0 0 1-6.981-.087c-9.075-.61-20.04-2.7-20.04-2.7s-12.4 2.774-21.38-1.492a15.751 15.751 0 0 1-4.52-3.145 14.472 14.472 0 0 1-3.006-4.449 11.116 11.116 0 0 1-.672-2.015 6 6 0 0 1-.161-1.936c.772-8.724 24.311-2.84 29.132-.371.276.14.56.264.851.37 3.574 1.31 9.29.873 13.112.328l.746-.11c-.162-.1-.293-.17-.376-.217l-.109-.062a22.749 22.749 0 0 1 6.432-2.739c1.37-.334 2.779-.481 4.188-.436 1.443-.005 2.882.12 4.302.37h.1c.37-.053.734-.149 1.083-.283 1.147-.462 2.011-1.404 1.675-3.053a7.718 7.718 0 0 1 .467-4.318s2.147.567 1.898-2.181a9.048 9.048 0 0 0-.353-1.675c-.092-.305-.17-.61-.236-.92v-.053c-.903-4.397.707-9.208.707-9.208l1.082-1.387.057-.17.039-.105-.576-3.014-.14-.715-.305-10.329s-.157-16.191 5.105-18.503l-.057-.733-.1-1.269s-2.252-.667-3.604-1.745a3.193 3.193 0 0 1-.755-.833 1.404 1.404 0 0 1-.205-1.099 2.18 2.18 0 0 1 .698-1.09 11.506 11.506 0 0 0 3.403-6.168s.563-.933 1.484-2.395c.06-.104.13-.213.2-.322a200.923 200.923 0 0 0-3.132-10.133c-.096-.288-.188-.576-.284-.85-.06-.175-.118-.35-.174-.52a29.355 29.355 0 0 1-.301-.872l-.354.07c-1.323.24-2.665.361-4.01.362a22.045 22.045 0 0 1-17.246-8.251 22.031 22.031 0 0 1-4.05-19.648c.048-.187.105-.366.166-.55a3.766 3.766 0 0 0-2.322.297c-1.082.476-2.028 1.27-3.084 1.815a7.35 7.35 0 0 1-3.351.772 7.45 7.45 0 0 1-2.125-.305 7.453 7.453 0 0 1-2.452-1.23c.161 0 .314 0 .471-.035h.13l.367-.066h.105c.153-.039.306-.078.436-.126l.079-.022c.13-.044.257-.087.384-.14l.109-.043.436-.188a4.624 4.624 0 0 0 .52-.288l.362-.23.07-.049c.143-.096.283-.196.436-.305.518-.405.996-.86 1.427-1.357 1.422-1.622 2.434-3.624 3.433-5.6l2.618-5.2c.524-1.033 1.07-2.085 1.684-3.053a13.02 13.02 0 0 1 1.462-1.937 7.753 7.753 0 0 1 1.61-1.343 8.388 8.388 0 0 1 3.875-1.156c2.142-.153 4.406.192 6.57.122 2.92-.096 5.773-.994 8.54-2.05a25.578 25.578 0 0 1 4.005-1.308 8.816 8.816 0 0 1 1.623-.188c1.584.026 3.141.41 4.555 1.125a17.801 17.801 0 0 1 5.489 4.061c.227.24.436.489.654.746.533.633 1.043 1.309 1.554 1.937.436.532.846 1.06 1.308 1.57 2.13 2.417 4.717 4.292 6.794 6.77 2.077 2.477 3.621 5.805 3.054 9.103v.074c-.04.231-.096.436-.157.685 0 .074-.04.148-.061.218-.044.157-.087.314-.14.467l-.078.244c-.057.161-.11.327-.17.493-.437 1.204-.873 2.399-.908 3.681a4.819 4.819 0 0 0 0 .563c.114 1.653.873 3.21 1.353 4.798.233.719.371 1.465.41 2.22V110.394a4.247 4.247 0 0 1-.1.633.218.218 0 0 1 0 .07.397.397 0 0 1 0 .091v.048a3.053 3.053 0 0 1-.096.305c0 .03 0 .066-.035.1l-.105.24-.061.11c-.04.077-.085.151-.135.222a.693.693 0 0 1-.057.096c-.071.102-.148.2-.231.292-.053.057-.105.105-.162.157l.646.393c.057.039.113.07.174.104 2.1.437 8.29 1.745 10.725 1.854.737.04 1.946.524 3.347 1.222a30.022 30.022 0 0 1 13.595 14.171c2.042 4.362 4.455 9.103 5.725 10.032 1.03.773 2.09 2.321 2.975 3.865a34.58 34.58 0 0 1 1.03 1.937 41.44 41.44 0 0 1 1.1 2.373s10.035 6.782 8.809 13.412c0 0 2.181 7.415 4.332 9.561 2.152 2.146 7.112 19.45 7.112 19.45s1.855 3.236 1.702 5.697c-.153 2.46 1.859 7.716 1.859 7.716s.436 2.18 1.003 4.362c.175.663.362 1.308.563 1.936.393 1.252.82 2.286 1.217 2.617 1.23 1.078.616 3.39.616 3.39s1.544 4.008 2.32 5.09c.293.552.442 1.168.437 1.792a19.95 19.95 0 0 1-.122 2.988s-.113.873-.183 2.06c-.114 1.91-.114 4.605.646 5.67.325.56.52 1.186.567 1.831.362 2.618.065 6.63 1.134 7.581 1.392 1.23.777 12.488.777 12.488s2.164 13.95 4.07 21.635z" fill="url(#a)"/><path d="M324.716 249.978l-1.47 1.204-7.094 5.814-1.436 1.178-6.235 5.116s-17.522 10.202-35.7 18.826a383.42 383.42 0 0 1-5.86 2.709 92.224 92.224 0 0 0-3.812-.267 90.055 90.055 0 0 0-30.582 3.717 19.387 19.387 0 0 1-.087-4.079c.872-10.612 9.73-19.06 9.73-19.06l20.943-9.087h.022l9.647-4.183 14.564-6.32 4.612.545 8.386 1 24.372 2.887z" fill="#95B6F0"/><path d="M324.716 249.978l-1.47 1.204-7.094 5.814-1.436 1.178-6.235 5.116s-17.522 10.202-35.7 18.826a383.42 383.42 0 0 1-5.86 2.709 92.224 92.224 0 0 0-3.812-.267 90.055 90.055 0 0 0-30.582 3.717 19.387 19.387 0 0 1-.087-4.079c.872-10.612 9.73-19.06 9.73-19.06l20.943-9.087h.022l9.647-4.183 14.564-6.32 4.612.545 8.386 1 24.372 2.887z" fill="#000" opacity=".05"/><path d="M306.033 292.54l-.056.437-.28 2.094-.039.331-.022.113-.104.799-.153 1.16-.284-.166a183.353 183.353 0 0 0-4.952-2.735 73.858 73.858 0 0 0-2.997-1.5 84.368 84.368 0 0 0-10.289-4.127l.947-1.744 5.86 1.718 8.325 2.452 1.527.436 1.217.358 1.3.375z" fill="#5F546F"/><path d="M306.033 292.54l-.056.437-.28 2.094-.039.331-.022.113-.104.799-.153 1.16-.284-.166a183.353 183.353 0 0 0-4.952-2.735 73.858 73.858 0 0 0-2.997-1.5 84.368 84.368 0 0 0-10.289-4.127l.947-1.744 5.86 1.718 8.325 2.452 1.527.436 1.217.358 1.3.375z" fill="#000" opacity=".05"/><path fill="#CCCCD8" d="M292.861 285.959l11.331 4.593 1.689 5.05-11.641-4.592z"/><path fill="#000" opacity=".05" d="M292.861 285.959l11.331 4.593 1.689 5.05-11.641-4.592z"/><path d="M366.878 291.049c-.873 1.09-1.746 2.18-2.592 3.271-.253.314-.502.624-.746.938-1.422 1.745-2.85 3.49-4.363 5.103l-.18.192-48.134.092-.322-.192-.144-.083-.995-.576-.467-.27c-1.183-.69-2.365-1.378-3.543-2.05l-.284-.166.044-1.055.035-.903.065-1.64.027-.685.71-.026 60.889-1.95z" fill="#5F546F"/><path fill="#000" opacity=".1" d="M321.038 300.501h-.458l-4.315-.061h-.153l-5.729-.074-.994-.576-.083-3.537v-.916l-.035-1.57 10.847-.568.462-.022.122 1.968.057.92.275 4.392z"/><path fill="#5F546F" d="M320.58 300.497l-4.716-.057-5.472-.074-.995-.576-.466-.27-.083-3.267v-.916l-.035-1.58 11.344-.61v.052l.126 1.954.057.92.275 4.384z"/><path fill="#FFF" opacity=".1" d="M320.58 300.497l-4.716-.057-5.472-.074-.995-.576-.466-.27-.083-3.267v-.916l-.035-1.58 11.344-.61v.052l.126 1.954.057.92.275 4.384z"/><path d="M305.977 292.972l60.9-1.923c-.872 1.09-1.745 2.18-2.591 3.271-.253.314-.502.624-.746.938l-42.76.785h-.435l-10.996.2h-.436l-3.115.058a1.48 1.48 0 0 1-.197 0 1.641 1.641 0 0 1-.392-.062l.035-.902.065-1.64.026-.685.642-.04z" fill="#000" opacity=".1"/><path d="M370.66 286.456l-.519.602c-.482.581-.962 1.154-1.44 1.718-.619.75-1.226 1.51-1.832 2.273-.873 1.09-1.745 2.18-2.592 3.271l-43.575.803h-.436l-10.982.214h-.436l-3.055.043h-.148c-.13 0-.26-.012-.388-.035h-.096a2.33 2.33 0 0 1-1.798-2.586l.14-.956.13-.929.075-.519.153-1.042.039-.292 66.76-2.565z" fill="#CCCCD8"/><path d="M373.113 281.06l2.072.724c-.48.44-.951.89-1.413 1.352-.367.358-.733.729-1.091 1.108-.69.72-1.362 1.462-2.02 2.212l-.52.602c-.482.581-.962 1.154-1.44 1.718L305 290.521h-.785l-.323-1.234-2.592-9.941 61.59 1.448 3.54.083 6.684.183z" fill="#5F546F"/><path d="M377.707 279.678a38.773 38.773 0 0 0-3.935 3.454c-.367.358-.733.729-1.091 1.108-.69.72-1.362 1.461-2.02 2.212l-.52.601c-10.61 1.204-29.28 2.827-46.192 1.806a62.948 62.948 0 0 0-18.963 1.662l-.733.188-.602.161c-.563.153-1.117.314-1.658.48a53.264 53.264 0 0 0-3.682 1.256l-1.161.458a84.368 84.368 0 0 0-10.288-4.126 88.673 88.673 0 0 0-14.076-3.39 84.161 84.161 0 0 0-5.86-.728 92.224 92.224 0 0 0-3.813-.266 90.055 90.055 0 0 0-30.582 3.716c-1.348.41-2.692.873-4.018 1.335l.026-.13c.367-1.658 1.85-3.49 3.927-5.283 6.715-5.893 19.53-11.712 19.53-11.712l6.828-2.896 4.306-1.832 9.673-4.1 20.446-8.671.218-.092 4.734-2.006 4.329-1.841a34.479 34.479 0 0 1 9.202-1.152h1.195c.301 0 .598 0 .899.035h.558c.738.04 1.475.1 2.221.175.262.022.524.052.79.083h.14l.584.07c.245.026.489.06.733.095l.729.105c.489.074.977.153 1.47.24.733.13 1.474.276 2.221.436l1.095.236c1.117.244 2.239.519 3.364.815l1.048.288.702.201.873.257a119.38 119.38 0 0 1 6.152 2.037l1.095.41 1.047.393c.014.01.03.018.048.022a140.144 140.144 0 0 1 12.112 5.378l1.126.563.58.3c.389.197.768.397 1.152.598l1.139.602.558.301.559.305.55.301c1.288.707 2.533 1.415 3.734 2.124.345.201.685.402 1.021.607l.502.296c.663.402 1.31.799 1.946 1.2.314.192.624.388.938.589.458.292.912.584 1.357.872.293.188.58.38.873.572l.436.287c.28.188.554.371.825.559l.467.323c.31.209.615.436.907.632.149.105.293.214.436.314l.136.096 1.069.785h.022l.654.497.637.493c.436.319.812.637 1.182.947.184.148.363.296.533.436l.257.218.253.218.437.406.305.292a14.19 14.19 0 0 1 1.396 1.479c.258.327.493.637.711.933l.201.367z" fill="#95B6F0"/><path d="M274.025 224.718a10.885 10.885 0 0 1-3.726.772c-8.87.655-26.755-2.765-26.755-2.765s-22.514 5.05-28.64-9.034c-6.126-14.084 22.667-7.044 28.03-4.287 3.424 1.744 9.73 1.27 13.835.689 2.317-.332 3.927-.69 3.927-.69s18.993 12.559 13.33 15.315z" fill="#C27099"/><path d="M298.677 199.454l-5.052 24.645-15.005 1.308-7.51.663c1.837-7.655-14.084-16.383-14.084-16.383 8.111-4.898 12.863-2.617 14.543-2.756.113 0 .222 0 .331-.04 1.589-.235 3.168-1.177 2.736-3.323a7.714 7.714 0 0 1 .436-4.292s2.91.767 1.532-3.826c-1.379-4.593.458-10.106.458-10.106l1.073-1.379 1.684-5.203 6.89 7.04 11.968 13.652z" fill="#4C4981"/><path d="M298.677 199.607l-5.052 24.649-15.005 1.308-7.51.668c1.837-7.66-14.084-16.388-14.084-16.388 8.111-4.898 12.863-2.617 14.543-2.752l.331-.044c1.589-.235 3.168-1.177 2.736-3.323a7.714 7.714 0 0 1 .436-4.292s2.91.767 1.532-3.826c-1.379-4.593.458-10.106.458-10.106l1.073-1.379 1.706-5.203 6.89 7.044 11.946 13.644z" fill="#000" opacity=".05"/><path d="M281.678 223.95a72.16 72.16 0 0 1-2.142 1.48l-7.505.662c1.837-7.655-14.088-16.383-14.088-16.383 8.115-4.898 12.867-2.617 14.546-2.757.11 0 .223 0 .332-.039 2.038 2.587 4.607 5.575 6.108 6.32 2.75 1.379 8.722 6.43 2.75 10.718z" fill="#000" opacity=".1"/><path d="M274.025 224.718a10.885 10.885 0 0 1-3.726.772c.798-6.543-10.633-13.705-13.526-15.397 2.317-.332 3.927-.69 3.927-.69s18.989 12.559 13.325 15.315z" fill="#000" opacity=".1"/><path d="M280.762 223.95a78.364 78.364 0 0 1-2.142 1.48l-7.51.662c1.837-7.655-14.084-16.383-14.084-16.383 8.111-4.898 12.863-2.617 14.543-2.757.113 0 .222 0 .331-.039 2.042 2.587 4.608 5.575 6.109 6.32 2.753 1.379 8.722 6.43 2.753 10.718z" fill="#4C4981"/><path d="M280.762 224.256a67.947 67.947 0 0 1-2.142 1.479l-7.51.667c1.837-7.66-14.084-16.388-14.084-16.388 8.111-4.898 12.863-2.617 14.543-2.752.113 0 .222-.026.331-.044 2.042 2.587 4.608 5.58 6.109 6.32 2.753 1.38 8.722 6.43 2.753 10.718z" fill="#000" opacity=".05"/><path d="M312.002 119.074s-28.797 40.264-26.493 32.915c1.514-4.838-2.679-18.682-5.72-27.593-1.584-4.628-2.858-7.926-2.858-7.926s16.54-14.241 16.235-11.027c-.078.838 1.157 2.181 3.055 3.669 5.31 4.266 15.781 9.962 15.781 9.962z" fill="#C27099"/><path d="M296.194 109.13a21.918 21.918 0 0 1-16.414 15.266c-1.584-4.628-2.858-7.926-2.858-7.926s16.541-14.241 16.236-11.027c-.07.838 1.165 2.164 3.036 3.686z" fill="#000" opacity=".1"/><path d="M297.067 102.08a21.896 21.896 0 0 1-13.522 20.23 21.908 21.908 0 0 1-23.87-4.748 21.892 21.892 0 0 1-4.746-23.864 21.903 21.903 0 0 1 20.24-13.514 21.797 21.797 0 0 1 15.517 6.383 21.784 21.784 0 0 1 6.381 15.513z" fill="#C27099"/><path d="M377.707 279.678a38.773 38.773 0 0 0-3.935 3.454c-.367.358-.733.729-1.091 1.108a61.057 61.057 0 0 1-9.804-3.424c-2.544-1.138-4.669-2.447-5.847-3.756-3.927-4.305-16.85-15.51-42.323-18.895a118.49 118.49 0 0 0-18.495-.938c-.855.018-1.72.045-2.596.083l-.397-2.342.218-.092 4.734-2.006 4.328-1.841a34.479 34.479 0 0 1 9.202-1.152h1.196c.3 0 .597 0 .898.035H314.354c.737.04 1.475.1 2.22.175.263.022.524.052.79.083h.14l.585.07c.244.026.488.06.733.095l.728.105c.49.074.978.153 1.47.24.734.122 1.476.266 2.222.436l1.095.236a81.83 81.83 0 0 1 3.364.815l1.047.288.702.2.873.258c2.055.61 4.115 1.309 6.152 2.037l1.095.41 1.047.393c.015.01.031.018.048.022a140.144 140.144 0 0 1 12.112 5.378l1.126.562.58.301c.389.197.769.397 1.153.598l1.138.602.559.3.558.306.55.301c1.289.707 2.534 1.415 3.735 2.124.345.201.685.402 1.02.607l.503.296c.663.406 1.309.799 1.946 1.2.314.192.624.388.938.589.458.292.912.584 1.357.872.292.188.58.38.872.571l.437.288c.279.188.554.371.824.559l.467.322.912.711c.148.105.292.214.436.314l.136.096 1.069.786h.021l.655.497.637.493c.436.322.811.64 1.182.946.184.149.362.297.533.436l.257.218.253.219.436.405.306.292a14.19 14.19 0 0 1 1.396 1.479c.257.327.493.637.711.934l.227.3z" fill="#000" opacity=".1"/><path d="M375.255 256.87s2.182 14.045 4.088 21.639c-.55.369-1.088.754-1.614 1.155a38.773 38.773 0 0 0-3.936 3.455 63.664 63.664 0 0 1-7.356-2.233c-3.988-1.483-7.688-3.346-9.385-5.204-3.857-4.222-16.362-15.088-40.879-18.695a117.696 117.696 0 0 0-19.123-1.156c-1.117 0-2.252.048-3.404.1l-.179-1.055-1.51-8.785-1.387-8.23v-.049l-.148-.911v-.052l-.061-.376-.266-1.574-.711-4.21-.332-1.988s-.022-.227-.052-.633v-.214-.2-.157c0-.057 0-.218-.027-.345-.026-.126 0-.157 0-.244l-.026-.275a.698.698 0 0 1 0-.1c0-.14-.026-.292-.04-.436a.057.057 0 0 1 0-.027c-.025-.283-.056-.584-.086-.898a284.248 284.248 0 0 0-.358-3.228c-.1-.776-.205-1.579-.319-2.381-.03-.223-.06-.437-.096-.655 0-.126-.035-.253-.056-.38 0-.1-.03-.204-.048-.305-.066-.436-.136-.828-.205-1.234 0-.087-.03-.174-.044-.257-.04-.21-.074-.437-.113-.62-.04-.183-.096-.488-.144-.728a.096.096 0 0 0 0-.035c0-.105-.044-.205-.066-.314-.022-.11-.065-.292-.096-.436-.057-.258-.113-.51-.174-.746l-.083-.319a7.978 7.978 0 0 0-.136-.488 7.519 7.519 0 0 0-.872-2.181.938.938 0 0 0-.1-.122.624.624 0 0 0-.105-.11 2.534 2.534 0 0 1-.354-.435 3.084 3.084 0 0 1-.165-.266 13.828 13.828 0 0 1-.332-.637c0-.026-.026-.057-.044-.088a4.262 4.262 0 0 1-.126-.279c-2.12-4.758-4.8-16.823-4.8-16.823l-1.74-8.388-.175-.92-.528-2.788v-.331l-.301-9.92s-.157-16.077 5.052-18.371l-.157-1.99s-4.053-1.199-4.511-3.026a1.308 1.308 0 0 1 .052-.833c.142-.335.359-.634.633-.873.074-.07.148-.14.214-.214a11.388 11.388 0 0 0 3.154-5.91s.642-1.064 1.671-2.7c3.212-5.099 10.21-15.737 13.338-16.898a25.016 25.016 0 0 0 7.2-4.287l.702.152c2.086.436 8.225 1.714 10.624 1.837.73.043 1.925.519 3.312 1.212a29.778 29.778 0 0 1 13.526 14.072c2.029 4.361 4.415 9.037 5.672 9.98a10.286 10.286 0 0 1 2.16 2.542c.406.624.794 1.309 1.143 1.937 1.034 1.91 1.745 3.638 1.745 3.638s9.957 6.735 8.727 13.317c0 0 2.146 7.35 4.289 9.495 2.142 2.146 7.046 19.293 7.046 19.293s1.837 3.215 1.684 5.67c-.152 2.456 1.837 7.66 1.837 7.66s.319 1.627.786 3.49c.157.636.331 1.308.514 1.936.467 1.596.986 3.023 1.458 3.437 1.221 1.069.61 3.367.61 3.367s1.532 3.983 2.3 5.051c.19.314.308.665.349 1.03a16.356 16.356 0 0 1-.044 3.72s-.065.533-.13 1.309c-.149 1.858-.267 5.147.593 6.329.22.353.368.746.436 1.156.537 2.486.083 7.153 1.235 8.183 1.405 1.217.794 12.4.794 12.4z" fill="#4C4981"/><path d="M308.176 227.933s-.873 2.059-2.143 5.099c-2.508 6.02-6.544 15.886-8.29 21.08-2.618 7.808-13.168 12.401-13.168 12.401s-20.982 7.193-28.334 1.837c-7.352-5.357 13.783-17.151 17.61-17.91 3.826-.759 7.199-3.834 9.956-5.513 1.31-.794 1.445-3.83 1.23-6.822a57.656 57.656 0 0 0-.924-6.656l24.063-3.516z" fill="#C27099"/><path d="M336.816 155.971s7.962-3.524 11.344 1.99c3.381 5.512-11.344-1.99-11.344-1.99zM366.219 226.86s-54.976.458-44.565 7.502c10.41 7.045 11.946 10.408 24.045 7.04 12.099-3.367 20.52-14.542 20.52-14.542zM297.067 102.08a21.804 21.804 0 0 1-2.932 10.944 6.802 6.802 0 0 1-2.256-1.435c-.741-.785-1.152-1.858-1.614-2.874a25.271 25.271 0 0 0-3.652-5.81c-1.039-1.235-2.374-2.421-3.888-2.273-2.548.245-4.363 4.161-6.802 3.333-.742-.249-1.828-4.964-2.247-5.832-.995-2.05-1.549-1.457-3.364-.602-3.442 1.627-7.169 3.053-10.947 2.32a5.8 5.8 0 0 1-3.434-1.805c-.35-.505-.738-.982-1.16-1.427a2.326 2.326 0 0 0-.712-.405c2.931-10.553 13.211-17.318 24.066-15.837 10.855 1.48 18.946 10.751 18.942 21.703z" fill="#000" opacity=".1"/><path d="M276.386 103.507c2.447.824 4.258-3.088 6.806-3.337 1.51-.144 2.845 1.042 3.883 2.277a25.032 25.032 0 0 1 3.652 5.81c.463 1.012.873 2.09 1.615 2.874a7.418 7.418 0 0 0 2.43 1.514l3.316 1.492c1.924.872 4.363 1.627 5.855 0 1.183-1.309 1.021-3.49.476-5.235-.545-1.744-1.405-3.49-1.361-5.33.048-2.006 1.138-3.786 1.496-5.753.602-3.298-.95-6.652-3.006-9.112-2.055-2.46-4.616-4.323-6.728-6.722-1.2-1.365-2.247-2.887-3.49-4.222a17.579 17.579 0 0 0-5.437-4.035 10.26 10.26 0 0 0-4.512-1.116c-1.92.03-3.756.802-5.576 1.496-2.74 1.047-5.563 1.937-8.46 2.032-3.49.114-7.278-.872-10.345 1.026-2.181 1.347-3.49 3.886-4.708 6.302l-2.618 5.165c-.99 1.958-1.994 3.925-3.399 5.552-1.405 1.627-3.28 2.836-5.292 2.875a7.42 7.42 0 0 0 7.854.733c1.047-.541 1.985-1.33 3.054-1.802 1.069-.47 2.386-.58 3.303.2.426.443.814.92 1.16 1.427a5.782 5.782 0 0 0 3.434 1.802c3.779.72 7.51-.694 10.952-2.316 1.81-.873 2.369-1.449 3.36.601.457.838 1.544 5.553 2.286 5.802z" fill="#63345E"/><path d="M308.176 227.933s-.873 2.059-2.143 5.099a180.108 180.108 0 0 0-3.154 1.605c-2.793 1.453-5.27 2.783-5.27 2.783l-12.554.685a57.656 57.656 0 0 0-.925-6.656l24.046-3.516z" fill="#000" opacity=".1"/><path d="M328.853 167.451l-3.054 10.718s-3.055 6.429-1.528 12.557c1.528 6.129-.92 15.463-.92 15.463l-4.76 12.248s-5.974 12.554-7.047 12.554c-.585 0-4.398 1.91-7.749 3.646-2.792 1.453-5.266 2.783-5.266 2.783l-14.093.768c-4.647-12.214-1.44-14.355.872-14.556a4.936 4.936 0 0 1 1.746.166l3.054-19.293v-11.942s.92-11.48 2.91-15.158a34.653 34.653 0 0 0 2.906-7.646s-1.841-3.524-2.3-5.819c-.3-1.62-.503-3.255-.61-4.898 0 0-2.147.305-2.758-17.151-.61-17.456 12.405-22.197 12.405-22.197 15.624-4.746 24.66 8.418 30.934 17.914 6.275 9.495-4.742 29.843-4.742 29.843z" fill="#000" opacity=".1"/><path d="M327.011 166.535l-3.054 10.713s-3.054 6.434-1.531 12.558-.916 15.463-.916 15.463l-4.748 12.248s-5.982 12.553-7.042 12.553c-.584 0-4.398 1.91-7.749 3.647-2.792 1.452-5.27 2.787-5.27 2.787l-6.283.34-1.375-8.152s-.807-10.617-2.26-15.66l1.497-9.443v-11.942s.92-11.485 2.91-15.158c1.269-2.429 2.244-5 2.906-7.66 0 0-1.837-3.52-2.295-5.818a40.588 40.588 0 0 1-.611-4.894s-2.147.301-2.758-17.155c-.61-17.456 12.405-22.198 12.405-22.198 15.62-4.745 24.66 8.419 30.935 17.915 6.274 9.495-4.76 29.856-4.76 29.856z" fill="#000" opacity=".1"/><path d="M327.932 166.535l-3.054 10.713s-3.054 6.434-1.532 12.558c1.523 6.124-.92 15.463-.92 15.463l-4.743 12.248s-5.973 12.553-7.05 12.553c-.581 0-4.399 1.91-7.745 3.647-2.793 1.452-5.271 2.787-5.271 2.787l-14.093.763c-4.643-12.213-1.436-14.35.85-14.555a4.936 4.936 0 0 1 1.746.166l3.054-19.289v-11.942s.916-11.485 2.906-15.158c1.269-2.43 2.246-5 2.91-7.66 0 0-1.837-3.52-2.3-5.818a41.622 41.622 0 0 1-.61-4.894s-2.142.301-2.753-17.155c-.611-17.456 12.404-22.198 12.404-22.198 15.62-4.745 24.657 8.419 30.935 17.915 6.279 9.495-4.734 29.856-4.734 29.856z" fill="#4C4981"/><path d="M303.337 233.259c-2.792 1.452-5.27 2.783-5.27 2.783l-14.09.767c-4.646-12.213-1.44-14.355.847-14.555 3.373 2.434 7.758 5.78 8.037 6.9.28 1.121 5.973 2.87 10.476 4.105z" fill="#000" opacity=".1"/><path d="M302.879 233.717c-2.793 1.452-5.27 2.787-5.27 2.787l-14.094.763c-4.642-12.213-1.435-14.35.85-14.555 3.374 2.438 7.759 5.78 8.038 6.9.28 1.121 5.973 2.87 10.476 4.105z" fill="#4C4981"/><g opacity=".1" fill="#000"><path d="M304.711 111.218c-1.474 1.636-3.927.873-5.855 0l-3.316-1.491a7.278 7.278 0 0 1-2.43-1.514c-.738-.785-1.157-1.862-1.615-2.874a25.328 25.328 0 0 0-3.652-5.806c-1.038-1.234-2.378-2.42-3.887-2.277-2.548.249-4.363 4.161-6.807 3.337-.737-.249-1.824-4.964-2.242-5.832-.995-2.05-1.55-1.457-3.364-.602-3.439 1.623-7.17 3.054-10.952 2.316a5.769 5.769 0 0 1-3.43-1.801 11.342 11.342 0 0 0-1.164-1.426c-.917-.781-2.226-.676-3.299-.201-1.073.475-2.007 1.26-3.054 1.801a7.323 7.323 0 0 1-4.747.655 6.629 6.629 0 0 1-3.875 1.522 7.42 7.42 0 0 0 7.854.733c1.047-.541 1.985-1.33 3.054-1.802 1.07-.47 2.387-.58 3.303.201.426.442.814.92 1.16 1.426a5.782 5.782 0 0 0 3.434 1.802c3.779.72 7.51-.694 10.952-2.316 1.81-.873 2.37-1.448 3.36.602.436.872 1.505 5.583 2.247 5.831 2.447.825 4.258-3.088 6.806-3.336 1.51-.144 2.845 1.042 3.883 2.276a25.032 25.032 0 0 1 3.652 5.815c.463 1.012.873 2.09 1.615 2.874a7.418 7.418 0 0 0 2.43 1.514l3.316 1.492c1.924.872 4.363 1.627 5.855 0 .683-.863.996-1.96.873-3.054-.03.044-.065.092-.105.135zM304.637 97.23a12.768 12.768 0 0 0-.772 2.927c.292-.77.523-1.562.69-2.369.034-.183.06-.37.082-.558z"/></g><path d="M218.582 286.417s-2.757 7.35-8.12 7.502l8.12-7.502z" fill="#000" opacity=".1"/><path d="M221.37 271.59a47.056 47.056 0 0 0-3.49-6.106l-.576-.842h.384c.483.032.96-.124 1.33-.436 3.395-2.84-3.555-19.192-7.325-19.463-2.592-.2-7.662-.392-11.082-.505l-.934-.031a13.824 13.824 0 0 0-.118-.55s-4.306-1.077-6.457-3.389a1185.974 1185.974 0 0 0-4.765-5.081s-2.125-.873-3.15-2.055a1.875 1.875 0 0 1-.537-1.182c0-1.483-5.175-5.919-6.47-7.005l-.288-.244s-.463-2.316-2.152-2.774c-.698-.192-1.535-1.283-2.264-2.495a34.965 34.965 0 0 1-1.885-3.673s-2.12-2.478-3.809-4.898c-.462-.663-.899-1.309-1.24-1.937a5.233 5.233 0 0 1-.789-1.959c-.153-2.154-2.618-2.311-2.618-2.311s-2.146-4.319-2.146-5.4c0-1.082-3.23-3.237-3.23-3.237l-5.07-5.705s1.384-4.009-3.533-7.092c-4.918-3.084-5.533-11.878-5.533-11.878l-4.32-9.369-.436-.96a2.64 2.64 0 0 0 .952-.911c.428-.699.529-1.55.274-2.33a10.371 10.371 0 0 0-1.562-3.253c-.043-.066-.087-.123-.126-.175-.27-.37-.458-.58-.458-.58a1.91 1.91 0 0 0 .48-.436c.035-.048.07-.092.104-.149.319-.484.55-1.308 0-2.438a4.676 4.676 0 0 0-.279-.514c-1.536-2.465-1.841-8.327-1.841-8.327l-3.691-10.333s-.485-6.255-3.862-10.207a8.988 8.988 0 0 0-3.202-2.438 7.208 7.208 0 0 0-2.963-2.286l-.052-.022a35.695 35.695 0 0 1-.266-2.076 23.96 23.96 0 0 0 3.28.222c1.072.002 2.142-.07 3.203-.213a24.15 24.15 0 0 0 9.673-3.49 24.562 24.562 0 0 0 10.86-15.013 24.773 24.773 0 0 0 .184-10.783c0-.105-.044-.21-.066-.314a22.155 22.155 0 0 0-.458-1.78c-.04-.126-.083-.253-.118-.38 1.138.305 2.314.44 3.49.402.41.009.812-.103 1.157-.323.307-.278.537-.631.668-1.025.209-.506.414-1.029.584-1.561.014-.039.025-.078.035-.118.157-.496.277-1.004.358-1.518.065-.421.091-.847.078-1.273 0-.223 0-.437-.03-.663a4.605 4.605 0 0 0-.162-.873c0 .07 0 .144-.026.218a4.309 4.309 0 0 0-.235-.61c-1.235-2.56-4.8-3.564-5.533-6.308-.353-1.308-.03-2.974-1.073-3.856a4.517 4.517 0 0 0-1.597-.667c-2.282-.728-4.067-2.477-6.043-3.834a12.218 12.218 0 0 0-2.09-1.143c-1.527-.632-3.18-.872-4.647-.174-.41.192-.79.436-1.2.654a6.983 6.983 0 0 1-3.826.471c-.873-.083-1.72-.244-2.557-.366-2.138-.327-4.642-.306-6.07 1.308-.536.61-.872 1.414-1.513 1.906-1.183.912-2.854.471-4.315.18-1.462-.293-3.364-.17-3.927 1.207-.126.43-.228.868-.306 1.309-.336 1.186-1.453 1.998-2.618 2.386-1.165.388-2.408.436-3.612.663a13.528 13.528 0 0 0-5.432 2.294 5.3 5.3 0 0 0-1.746 1.95c0-.057-.035-.109-.056-.161-.139.329-.197.686-.17 1.042-.02.206-.007.413.039.615.034.15.08.295.14.436.136.302.247.614.33.934.03.127.046.257.049.388a2.852 2.852 0 0 1-.436 1.487 4.408 4.408 0 0 1-.284.437c-.36.485-.746.95-1.156 1.395a5.67 5.67 0 0 0-.916 1.414l-.04-.03-.048-.07a2.87 2.87 0 0 0-.214 1.212c-.025.316.029.634.158.925.067.144.155.278.261.397.376.436.938.636 1.397.968 1.27.929 1.548 2.687 1.623 4.261a36.193 36.193 0 0 1-.358 6.98v.065c-.135.907-.502 2.59-.615 4.266v.196a.166.166 0 0 0 0-.044v.602c0 1.335.179 2.596.872 3.35.19.215.424.387.685.506.437.196 1.039.048 1.715-.266a65.44 65.44 0 0 1-.842 2.02c-.048.117-.1.235-.148.349a57.815 57.815 0 0 1-1.065 2.298 12.015 12.015 0 0 0-6.388.68s-.925 7.093-3.996 7.852C84.21 118.686 73 128.107 73 128.107L56.805 144.36l-.402.401s-.405.567-1.068 1.535c-2.479 3.582-8.548 12.567-10.607 17.448-.768 1.814-1.562 4.702-2.3 7.925-1.745 7.72-3.18 17.365-3.054 18.9.13 1.863-.65 19.127-.375 25.897.01.78.083 1.557.218 2.324.164 1.11.234 2.23.21 3.35.026 2.225-.035 5.235-.131 8.493-.271 8.798-.843 19.153-.843 19.153s2.618 7.563 3.997 9.84c.253.436.467.667.61.646.922-.153 3.535 6.324 3.535 6.324s1.021-.039 2.793-.157l.523-.039c.135.301.275.598.436.899.162.3.297.61.437.92.14.31.283.589.436.872 1.78 3.581 3.779 7.005 5.057 7.359 2.766.772 10.297 4.628 10.908 6.324.61 1.697 11 3.446 15.454 3.446h2.191v.79a4.428 4.428 0 0 0 4.328 4.056l3.364.053h.144l-.1.759-.022.161-.1.759-.921 6.979h.314l9.21.148h.969v-.292c.436-.135.899-.262 1.348-.393l.515-.143c8.29-2.378 16.58-4.637 24.949-5.283 2.785-.23 5.584-.25 8.373-.06.436.03.872.069 1.309.108 8.996.873 17.736 4.035 26.47 6.704h1.061l2.77.027h.437l8.862.082h.894l.183-7.218v-.925l2.915.052c1.305.02 2.55-.539 3.403-1.526.49-.563.829-1.242.982-1.972.067-.308.1-.622.1-.938v-.65c.812 1.283 1.593 3.49-.3 5.714a8.957 8.957 0 0 1-1.842 1.592c-2.806 1.88-4.036 3.185-4.538 4.04-.567.963-.222 1.356-.222 1.356h25.537c6.205-2.67 12.217-6.076 18.409-8.745a.24.24 0 0 0 .065-.035l.436-.18c1.449-3.275 2.282-13.547-2.762-19.65zm-103.49-77.544l.254-.646.484-1.23c.052.074.109.157.157.236 4.8 7.057 9.184 13.486 9.184 13.486l.808.908c-.437.052-.904.104-1.37.148-1.65.175-3.351.332-4.045.332-1.54 0-5.838-1.078-5.838-1.078l-2.247-1.025a12.59 12.59 0 0 0-.415-2.805l-.104-.335 2.657-6.766.476-1.225zm41.573 42.38c3.778 2.686 8.464 5.74 13.146 8.67l-2.138.049-11.366.266c-4.237-.942-10.472-2.373-12.086-2.97-.781-.293-4.184-1.222-8.478-2.356-2.993-.79-6.418-1.684-9.673-2.521l-6.619-1.701a1.217 1.217 0 0 0-.27-.52 12.744 12.744 0 0 1-1.82-3.297 20.644 20.644 0 0 1-.946-3.18s-3.927-.436-4.595-1.744c-.205-.376-.118-.825.436-1.357.408-.363.732-.81.952-1.308a4.71 4.71 0 0 0 .23-.716 5.965 5.965 0 0 0 0-2.294 7.688 7.688 0 0 0-.405-1.444c1.69.386 3.338.936 4.922 1.64 1.854.872 5.135 1.086 8.12 1.082 2.05 0 3.97-.114 5.17-.2h.21c.689-.057 1.099-.101 1.099-.101s1.309.231 3.194.467c1.204.14 2.653.287 4.162.375.576.039 1.16.065 1.745.078l1.008.995.275.266c2.941 2.852 5.965 5.64 8.84 8.052 1.697 1.387 3.342 2.678 4.887 3.768z" fill="url(#b)" fill-rule="nonzero"/><path fill="#AEA4B2" d="M153.798 246.61l39.513-.92 13.783 7.655 2.147 17.914-36.297-10.412z"/><path fill="#000" opacity=".05" d="M153.798 246.61l39.513-.92 13.783 7.655 2.147 17.914-36.297-10.412z"/><path d="M130.83 219.048c.459 0 4.137 4.593 4.137 4.593s13.936 2.451 17.304-.61c3.368-3.063-6.606-13.322-6.606-13.322l-8.883.462-7.2 4.284 1.248 4.593z" fill="#FFC4D0"/><path d="M110.454 204.505l6.741 3.054s4.29 1.073 5.821 1.073c1.531 0 7.963-.768 7.963-.768l5.82 2.299s-5.21 9.796-1.837 13.47c0 0-10.567 1.072-14.55-.764-3.984-1.837-9.342-2.452-9.342-2.452l-.616-15.912z" fill="#575989"/><path d="M111.375 204.654l6.737 3.053s4.289 1.073 5.82 1.073c1.532 0 7.967-.768 7.967-.768l5.816 2.312s-5.205 9.797-1.836 13.474c0 0-10.568 1.069-14.547-.768-3.98-1.836-9.346-2.451-9.346-2.451l-.611-15.925z" fill="#000" opacity=".05"/><path d="M125.922 132.086S81.527 121.979 89.476 120.6c5.079-.873 9.726-12.357 12.418-20.549 1.536-4.65 2.435-8.235 2.435-8.235s25.576 11.943 19.756 15.925c-2.234 1.531-2.483 5.47-1.937 9.744.868 6.87 3.774 14.6 3.774 14.6z" fill="#FFC4D0"/><path d="M169.266 290.399l-.031.776-.087 1.98-.04.917-.274 6.542v.681h-2.714v-.022l-.458.022v-.506l-.607-.188c-8.726-2.67-17.474-5.836-26.471-6.704a66.15 66.15 0 0 0-1.31-.109 55.865 55.865 0 0 0-8.372.061c-8.36.646-16.676 2.905-24.949 5.282l-.515.144c-.436.131-.898.258-1.348.393l.11-6.696v-2.115h2.887l23.767-.166 9.673-.07 30.739-.222z" fill="#5F546F"/><path d="M105.402 288.71l-.31 2.138-.179 1.26-.126.908-.873 6.107-.515.144c-.436.13-.899.257-1.348.392v.292h-.969l-1.889.541h-7.417l.091-.689.92-6.979.123-.911.244-1.82 11.781-1.308.467-.074z" fill="#000" opacity=".1"/><path d="M104.944 288.71v.053l-.301 2.09-.18 1.247-.126.92-.942 6.286c-.437.13-.899.257-1.348.392v.293h-.969l-1.89.54-.436.123-7.443-.122 1.016-7.682.11-.96.096-.763.135-1.05 12.278-1.366z" fill="#5F546F"/><path fill="#000" opacity=".1" d="M178.302 291.62l-.03 1.706-.014.916v.008l-.11 6.473v.083l-9.332.371-1.706.07-1.02.04-.463.017-.018-.502-.004-.183-.223-6.578v-.009l-.03-.92-.07-2.102.462.021 3.033.14.458.026z"/><path fill="#5F546F" d="M178.76 291.62l-.026 1.715-.018.915-.161 6.478-.022.693-9.726-.091-1.453-.009h-.008l-1.257-.017v-.018l-.017-.349-.009-.314-.223-6.582-.026-.92-.07-2.09v-.021l3.491.161z"/><path d="M104.944 288.71v.053l-.301 2.09-.18 1.247-.126.92-.942 6.286c-.437.13-.899.257-1.348.392v.293h-.969l-1.89.54-.436.123-7.443-.122 1.016-7.682.11-.96.096-.763.135-1.05 12.278-1.366zM178.76 291.62l-.026 1.715-.018.915-.161 6.478-.022.693-9.726-.091-1.453-.009h-.008l-1.257-.017v-.018l-.017-.349-.009-.314-.223-6.582-.026-.92-.07-2.09v-.021l3.491.161z" fill="#FFF" opacity=".1"/><path d="M124.085 107.742c-2.234 1.531-2.483 5.47-1.937 9.744a24.366 24.366 0 0 1-20.254-17.447c1.536-4.65 2.435-8.235 2.435-8.235s25.576 11.956 19.756 15.938z" fill="#000" opacity=".1"/><path d="M149.662 92.432c-.015 12.74-9.864 23.31-22.575 24.226-12.712.917-23.976-8.13-25.819-20.738-1.843-12.606 6.36-24.498 18.802-27.256 12.443-2.76 24.905 4.55 28.566 16.754a24.337 24.337 0 0 1 1.026 7.014z" fill="#FFC4D0"/><path d="M148.636 85.418c-1.945-.484-3.878-1.16-5.872-1.178a1.912 1.912 0 0 0-1.31.328c-.57.484-.488 1.36-.553 2.106a4.3 4.3 0 0 1-2.182 3.359c-1.562.872-3.6.715-4.957 1.867-1.723 1.47-1.435 4.178-.842 6.364.29.854.437 1.75.437 2.652a3.83 3.83 0 0 1-6.842 2.146c-1.23-1.566-1.064-3.764-1.392-5.723a10.768 10.768 0 0 0-3.019-5.854 5.816 5.816 0 0 0-2.653-1.627 3.055 3.055 0 0 0-2.919.755c-.973 1.069-.803 2.683-.93 4.122a9.203 9.203 0 0 1-3.795 6.63c-2.046 1.453-4.586 1.99-6.942 2.857a4.233 4.233 0 0 0-.672.34 24.342 24.342 0 0 1 1.055-25.913 24.358 24.358 0 0 1 43.388 6.77z" fill="#000" opacity=".1"/><path d="M104.403 103.764c2.36-.872 4.895-1.404 6.946-2.857a9.225 9.225 0 0 0 3.796-6.634c.122-1.435-.035-3.054.942-4.122a3.055 3.055 0 0 1 2.915-.75 5.773 5.773 0 0 1 2.666 1.626 10.799 10.799 0 0 1 3.028 5.85c.327 1.963.161 4.16 1.392 5.727a3.836 3.836 0 0 0 6.841-2.15 8.386 8.386 0 0 0-.436-2.648c-.594-2.181-.873-4.894.842-6.364 1.352-1.152 3.394-1.012 4.956-1.867a4.323 4.323 0 0 0 2.182-3.363c.065-.746-.022-1.623.55-2.102a1.95 1.95 0 0 1 1.309-.332c3.294.03 6.418 1.85 9.708 1.666.408.007.808-.106 1.152-.327.307-.274.537-.625.667-1.016.873-2.024 1.558-4.384.602-6.364-1.23-2.539-4.8-3.533-5.515-6.26-.349-1.308-.03-2.952-1.073-3.825a4.438 4.438 0 0 0-1.588-.667c-2.273-.72-4.054-2.46-6.026-3.8-1.972-1.338-4.55-2.32-6.71-1.308-.437.192-.79.436-1.2.65-1.942.938-4.228.436-6.362.1-2.133-.335-4.629-.296-6.051 1.309-.533.606-.873 1.4-1.51 1.893-1.178.903-2.85.467-4.302.175-1.453-.293-3.351-.166-3.927 1.203-.13.43-.234.867-.31 1.309-.331 1.173-1.444 1.98-2.618 2.364-1.173.384-2.4.436-3.604.654a13.554 13.554 0 0 0-5.41 2.282c-1.13.807-2.23 2.063-1.933 3.42.105.475.371.898.471 1.373.301 1.396-.872 2.617-1.815 3.69-.942 1.073-1.745 2.748-.798 3.821.375.437.938.628 1.396.96 1.261.925 1.54 2.67 1.614 4.235a35.626 35.626 0 0 1-.362 6.98c-.3 1.975-1.71 7.659.899 8.832 1.523.694 5.11-2.796 6.676-3.363z" fill="#AE757A"/><path d="M121.175 210.782s-5.672.305-5.206 2.451c.467 2.146 5.206-2.45 5.206-2.45z"/><path d="M223.705 291.49a.24.24 0 0 1-.066.034c-6.213 2.67-12.217 6.076-18.408 8.746-.55.235-1.1.467-1.658.693a48.648 48.648 0 0 1-12.033 3.342c-4.27.506-8.59.397-12.828-.323.14-1.693.471-4.14 1.252-5.069.685-.811 1.898-1.897 4.01-3.306a7.604 7.604 0 0 0 2.369-2.325 4.287 4.287 0 0 0 .2-4.126 7.537 7.537 0 0 0-.436-.798 6.5 6.5 0 0 0-.925-1.156h-75.186s-17.762-.122-25.14-.153H82.43c-4.442 0-14.861-1.684-15.472-3.367-.61-1.684-8.115-5.514-10.873-6.281-1.379-.38-3.604-4.332-5.476-8.179-.3-.61-.589-1.217-.872-1.81-.14-.292-.275-.58-.402-.872v-.03a126.242 126.242 0 0 1-1.383-3.12l-.183-.436c-.035-.083-.07-.161-.096-.235a2.58 2.58 0 0 0-.114-.258l-.1-.244c-.157-.37-.244-.584-.244-.584l68.458-26.172 5.428 1.379c.266.07.536.14.82.205l6.95 1.78c3.281.846 6.707 1.744 9.673 2.512 4.097 1.082 7.313 1.954 8.068 2.242 1.584.593 7.854 2.015 12.06 2.948 2.312.515 4.01.873 4.01.873s5.41 1.055 12.483 2.49l1.374.28 1.832.37c.367.07.738.149 1.109.227 1.256.253 2.535.515 3.826.785l2.775.576c2.967.615 5.908 1.239 8.63 1.836l2.112.463.816.179.807.178c3.133.707 5.747 1.335 7.418 1.802.576.162 1.14.37 1.684.62 3.691 1.67 6.828 5.168 9.11 8.396a46.987 46.987 0 0 1 4.054 6.883c4.8 5.744 4.284 15.218 2.993 19.004z" fill="#AEA4B2"/><path d="M107.706 253.506s-2.91 12.864-11.947 17.448c-9.036 4.584 11.947-17.448 11.947-17.448zM126.995 261.458s-9.8 5.67-8.42 9.801l8.42-9.8zM215.367 277.689s-2.758 11.637-8.727 11.777l8.727-11.777zM178.76 291.62l-.04 2.63-9.607-.152-3.273-.057-61.511-1.02-2.173-.035-9.826-.166.362-2.73 12.252-1.38-.306 2.143 64.632-.454-.035.776z" fill="#000" opacity=".1"/><path d="M181.635 293.387l-92.691-1.54a4.406 4.406 0 0 1-4.328-4.296l-.053-2.055h101.549v3.49a4.405 4.405 0 0 1-4.477 4.4z" fill="#CCCCD8"/><path d="M115.511 241.73s-3.525 2.756-5.21 5.05c-1.683 2.295-10.885 6.412-10.885 6.412-11.659 12.153-38.885 15.267-48.82 16.008-.3-.61-.589-1.217-.873-1.81-1.461-3.127-2.539-5.775-2.539-5.775l68.458-26.171 5.424 1.378c.293.538.63 1.05 1.008 1.531.13.147.223.324.27.515.532 2.054-6.833 2.861-6.833 2.861z" fill="#000" opacity=".1"/><path d="M121.908 237.019c.51 2.063-6.855 2.857-6.855 2.857s-3.525 2.752-5.21 5.05c-1.684 2.3-10.864 6.43-10.864 6.43-11.82 12.318-39.652 15.345-49.225 16.034-2.086.153-3.307.192-3.307.192s-2.618-6.43-3.521-6.277c-.904.153-4.595-10.416-4.595-10.416s1.532-27.558.764-30.777c-.768-3.219.305-25.874.157-28.016-.148-2.142 2.757-20.5 5.358-26.642 2.6-6.142 11.632-18.813 11.632-18.813L72.8 130.097s11.179-9.344 14.242-10.107c3.063-.763 3.979-7.808 3.979-7.808 7.352-3.053 16.082 3.368 16.082 3.368 7.658-.153 6.89 1.225 6.89 1.225l4.446.92.113 1.235 5.533 59.989-6.545 16.575-3.124 7.934a12.506 12.506 0 0 1-.305 8.113c-1.684 4.288 1.221 9.339 1.221 9.339s1.837 3.834-.61 6.106c-2.448 2.273 4.136 3.054 4.136 3.054s.768 3.982 2.757 6.433c.14.156.24.343.293.546z" fill="#575989"/><path d="M89.476 219.51s-3.054 5.819 2.448 6.735c5.502.916 19.756-.61 21.593-.61 1.837 0-24.04-6.125-24.04-6.125zM88.861 200.065c.768 1.378 17.309 15.31 22.972 17.761l-22.972-17.761zM100.655 190.26s8.29 14.83 11.025 17.15c2.736 2.32.459-8.287.459-8.287l-11.484-8.863zM77.377 148.01s20.978 13.627 20.07 23.271c-.907 9.644-20.07-23.27-20.07-23.27zM52.564 191.952s-5.358 42.41 37.218 41.643c0 0-34.766-12.86-37.218-41.643z" fill="#000" opacity=".1"/><path d="M217.05 265.597c-6.13-.157-23.43-6.433-23.43-6.433l.101-.476 2.806-13.47 3.49.119c3.412.113 8.46.305 11.048.497 4.149.314 12.112 19.912 5.986 19.763z" fill="#FFC4D0"/><path d="M118.535 118.93l5.55 59.989-6.545 16.575c-5.096-7.45-10.855-15.842-12.465-18.093-3.055-4.288-9.342-25.26-9.342-25.26s-1.837-18.529 10.568-28.325c5.384-4.218 9.402-5.178 12.234-4.886zM196.828 254.4a15.507 15.507 0 0 1-4.586 5.671s-8.002-4.632-17.077-10.22c6.789 1.383 15.114 3.093 21.663 4.55z" fill="#000" opacity=".1"/><path d="M194.533 259.177l-.816-.476 2.81-13.482 3.49.118c1.854 8.693-5.484 13.84-5.484 13.84z" fill="#000" opacity=".1"/><path d="M125.311 120.906s-5.205-7.808-17.605 1.994c-12.4 9.8-10.568 28.325-10.568 28.325s6.279 20.972 9.342 25.26c3.063 4.288 21.13 30.786 21.13 30.786s18.989 21.587 31.393 30.315c12.405 8.728 34.613 21.59 34.613 21.59s7.658-5.36 5.363-14.393c0 0-4.29-1.069-6.432-3.368a970.22 970.22 0 0 0-4.751-5.05s-3.674-1.532-3.674-3.215c0-1.684-6.737-7.197-6.737-7.197s-.462-2.3-2.146-2.757c-1.684-.458-4.137-6.107-4.137-6.107s-5.672-6.582-5.816-8.723c-.144-2.142-2.618-2.295-2.618-2.295s-2.146-4.287-2.146-5.36c0-1.073-3.216-3.215-3.216-3.215l-5.052-5.67s1.378-3.979-3.522-7.04c-4.9-3.063-5.515-11.778-5.515-11.778l-4.747-10.259a2.695 2.695 0 0 0 1.226-3.214 10.777 10.777 0 0 0-2.146-3.983s1.84-1.068.305-3.52c-1.536-2.451-1.837-8.265-1.837-8.265l-3.674-10.26s-.754-9.844-7.033-12.6z" fill="#575989"/><path d="M138.178 189.5s15.926-4.134 11.178-.767c-4.747 3.367-11.178.768-11.178.768zM136.031 206.8s12.1-2.142 9.342.615c-2.758 2.756-9.342-.615-9.342-.615zM112.139 135.148s16.235 4.287 20.07 13.32l-20.07-13.32z" fill="#000" opacity=".1"/><g opacity=".1" fill="#000"><path d="M97.025 88.864c-.075-1.562-.354-3.31-1.615-4.231-.436-.336-1.02-.537-1.396-.96l-.052-.07c-.301.786-.332 1.597.205 2.212.375.436.938.628 1.396.96.899.658 1.309 1.744 1.479 2.861-.009-.257-.009-.515-.017-.772zM96.309 76.93c.047.193.111.381.192.563a2.32 2.32 0 0 0 .127-1.335 2.979 2.979 0 0 0-.188-.567c-.176.423-.222.89-.131 1.339zM154.693 78.13a12.738 12.738 0 0 1-1.021 3.524 2.36 2.36 0 0 1-.664 1.016c-.344.217-.744.33-1.152.323-3.29.183-6.413-1.631-9.708-1.666a1.942 1.942 0 0 0-1.308.331c-.572.484-.485 1.361-.55 2.103a4.318 4.318 0 0 1-2.182 3.363c-1.562.872-3.604.715-4.956 1.866-1.353 1.152-1.475 3.189-1.14 5.065a3.977 3.977 0 0 1 1.31-2.918c1.352-1.156 3.394-1.012 4.956-1.867a4.323 4.323 0 0 0 2.182-3.363c.065-.746-.022-1.623.55-2.103a1.925 1.925 0 0 1 1.309-.331c3.294.03 6.418 1.85 9.708 1.666.408.007.808-.107 1.152-.327.307-.275.537-.625.667-1.016.737-1.793 1.374-3.843.847-5.667zM130.089 101.444a3.928 3.928 0 0 1-4.163-1.309c-1.23-1.566-1.064-3.76-1.392-5.727a10.842 10.842 0 0 0-3.028-5.85 5.83 5.83 0 0 0-2.657-1.626 3.055 3.055 0 0 0-2.914.754c-.978 1.056-.82 2.683-.943 4.118a9.216 9.216 0 0 1-3.796 6.634c-2.05 1.453-4.586 1.99-6.946 2.862-1.566.58-5.153 4.056-6.689 3.363-.768-.345-1.182-1.078-1.387-1.99-.066 1.824.231 3.547 1.54 4.136 1.536.689 5.122-2.788 6.689-3.368 2.36-.872 4.895-1.404 6.946-2.861a9.207 9.207 0 0 0 3.796-6.63c.122-1.435-.035-3.053.942-4.122a3.055 3.055 0 0 1 2.915-.75 5.799 5.799 0 0 1 2.657 1.622 10.825 10.825 0 0 1 3.028 5.854c.327 1.963.161 4.157 1.392 5.723a3.832 3.832 0 0 0 6.841-2.146 5.917 5.917 0 0 0-.205-1.745 3.926 3.926 0 0 1-2.626 3.058z"/></g><path d="M26.206 191.895a4.017 4.017 0 0 0-.528 1.021c-.035.087-.07.188-.1.288a.803.803 0 0 0-.188-.066 2.619 2.619 0 0 0-.873-.074v-.349c.035-1.252-.113-2.996-1.308-2.26-1.196.738-.328 1.898.41 2.666l.192.188c-.677.484-.803 1.6-.917 2.765-.113 1.165-1.104 2.447-1.745 3.171l-.183.205a2.396 2.396 0 0 0-1.916-.493c-.026-.105-.056-.21-.087-.323-.532-1.923-1.64-5.256-3.054-5.984l.183-.236c.602-.785 1.274-1.95.28-2.246-.995-.297-1.087 1.012-1.03 1.989 0 .122 0 .24.026.349-.4.022-.774.206-1.034.51l-.153-.183c-.807-.955-2.29-2.464-2.74-1.308-.436 1.064.873 2.447 1.806 3.25l.057.047c-.62 2.5 2.073 4.54 3.521 5.43l.188.114c-1.999 2.355-3.233 6.765-3.233 6.765l5.598 1s3.708-3.198 3.233-6.203h.039c3.704-.742 4.546-4.694 3.97-7.04l.066-.027a4.132 4.132 0 0 0 1.715-1.308c1.042-1.448-1.13-3.071-2.195-1.658z" fill="#6C63FF"/><path d="M26.206 191.895a4.017 4.017 0 0 0-.528 1.021c-.035.087-.07.188-.1.288a.803.803 0 0 0-.188-.066 2.619 2.619 0 0 0-.873-.074v-.349c.035-1.252-.113-2.996-1.308-2.26-1.196.738-.328 1.898.41 2.666l.192.188c-.677.484-.803 1.6-.917 2.765-.113 1.165-1.104 2.447-1.745 3.171l-.183.205a2.396 2.396 0 0 0-1.916-.493c-.026-.105-.056-.21-.087-.323-.532-1.923-1.64-5.256-3.054-5.984l.183-.236c.602-.785 1.274-1.95.28-2.246-.995-.297-1.087 1.012-1.03 1.989 0 .122 0 .24.026.349-.4.022-.774.206-1.034.51l-.153-.183c-.807-.955-2.29-2.464-2.74-1.308-.436 1.064.873 2.447 1.806 3.25l.057.047c-.62 2.5 2.073 4.54 3.521 5.43l.188.114c-1.999 2.355-3.233 6.765-3.233 6.765l5.598 1s3.708-3.198 3.233-6.203h.039c3.704-.742 4.546-4.694 3.97-7.04l.066-.027a4.132 4.132 0 0 0 1.715-1.308c1.042-1.448-1.13-3.071-2.195-1.658z" fill="#000" opacity=".1"/><path d="M15.067 193.51l-.65 1.91a9.712 9.712 0 0 1-.825-.659c-.916-.803-2.22-2.18-1.806-3.25.436-1.142 1.933.367 2.74 1.309.327.393.54.69.54.69zM16.45 192.414c-.332.437-.637.75-.637.75a9.633 9.633 0 0 1-.118-1.007c-.052-.977.048-2.281 1.03-1.989.982.292.323 1.461-.275 2.246zM24.884 192.715c0 .633-.079 1.134-.079 1.134a7.683 7.683 0 0 1-.815-.728c-.742-.768-1.558-1.954-.41-2.665 1.147-.711 1.339 1.007 1.304 2.26zM28.732 193.54a4.184 4.184 0 0 1-1.714 1.308c-.188.082-.38.152-.576.21l-.764-1.09c.08-.359.187-.71.319-1.052.134-.365.32-.71.554-1.02 1.06-1.414 3.237.209 2.181 1.644z" fill="#6C63FF"/><path d="M14.526 192.833c.327.38.54.676.54.676l-.65 1.91a9.712 9.712 0 0 1-.824-.658 3.764 3.764 0 0 1 .742-1.684c.06-.087.13-.17.192-.244zM16.45 192.414c-.332.437-.637.75-.637.75a9.633 9.633 0 0 1-.118-1.007c.272.005.536.095.755.257z" fill="#000" opacity=".1"/><path d="M19.666 200.013l-1.628.715c-.299-.148-.59-.31-.872-.488-1.706-1.052-5.145-3.7-2.84-6.818 2.303-3.119 4.227 2.477 4.982 5.234.235.794.358 1.357.358 1.357z" fill="#6C63FF"/><path d="M23.99 193.121a1.31 1.31 0 0 1 .894-.406c0 .633-.079 1.134-.079 1.134a7.683 7.683 0 0 1-.815-.728zM27.035 194.84c-.187.081-.38.151-.576.209l-.78-1.082c.08-.358.186-.709.318-1.051.506.288.872 1.012 1.038 1.924z" fill="#000" opacity=".1"/><path d="M22.995 201.906l-.275.048c-5.454.828-1.798-2.111-1.798-2.111s.249-.227.58-.598c.66-.724 1.645-1.993 1.746-3.171.174-1.767.37-3.424 2.456-2.936 2.086.489 2.452 7.734-2.71 8.768z" fill="#6C63FF"/><path fill="#D4DFEC" d="M12.475 215.48h10.419v2.739H12.475z"/><path fill="#D4DFEC" d="M10.817 206.577h13.617v9.561H10.817z"/><path fill="#000" opacity=".1" d="M12.475 215.48h10.419v2.739H12.475z"/><path fill="#000" opacity=".1" d="M10.817 206.577h13.617v9.561H10.817z"/><path fill="#D4DFEC" d="M13.16 215.48h10.419v2.739H13.16z"/><path d="M19.312 198.634c.231.816.354 1.379.354 1.379l-1.628.715c-.299-.148-.59-.31-.872-.488a4.193 4.193 0 0 1 2.146-1.606zM22.995 201.906l-.275.048c-5.454.828-1.798-2.111-1.798-2.111s.249-.227.58-.598a3.611 3.611 0 0 1 1.493 2.66z" fill="#000" opacity=".1"/><path d="M14.129 207.118s3.054-10.904 7.334-7.559c4.28 3.346-1.745 8.558-1.745 8.558l-5.59-.999z" fill="#6C63FF"/><ellipse fill="#000" opacity=".1" cx="15.669" cy="195.136" rx="1" ry="1"/><ellipse fill="#000" opacity=".1" cx="15.643" cy="196.733" rx="1" ry="1"/><ellipse fill="#000" opacity=".1" cx="25.573" cy="195.45" rx="1" ry="1"/><ellipse fill="#000" opacity=".1" cx="17.584" cy="203.637" rx="1" ry="1"/><ellipse fill="#000" opacity=".1" cx="24.862" cy="198.102" rx="1" ry="1"/><ellipse fill="#000" opacity=".1" cx="21.324" cy="201.64" rx="1" ry="1"/><ellipse fill="#000" opacity=".1" cx="16.838" cy="195.821" rx="1" ry="1"/><ellipse fill="#000" opacity=".1" cx="24.631" cy="196.475" rx="1" ry="1"/><ellipse fill="#000" opacity=".1" cx="23.462" cy="199.127" rx="1" ry="1"/><ellipse fill="#000" opacity=".1" cx="19.866" cy="203.38" rx="1" ry="1"/><ellipse fill="#000" opacity=".1" cx="19.125" cy="201.696" rx="1" ry="1"/><ellipse fill="#000" opacity=".1" cx="17.353" cy="197.902" rx="1" ry="1"/><path fill="#000" opacity=".1" d="M13.16 215.48h10.419v1H13.16z"/><path fill="#D4DFEC" d="M11.502 206.577h13.617v9.561H11.502z"/><ellipse fill="#000" opacity=".1" cx="20.324" cy="204.92" rx="1" ry="1"/><ellipse fill="#000" opacity=".1" cx="18.269" cy="205.352" rx="1" ry="1"/><path d="M422.656 156.167s3.421-10.21 12.427-6.455c0 0-4.185 9.125-11.973 8.087l-.454-1.632zM421.247 145.93s3.796-10.242 12.789-5.714c0 0-5.236 9.422-12.353 7.271l-.436-1.557zM420.841 136.539s5.075-10.032 12.353-8.636c0 0-5.236 10.625-12.065 10.847l-.288-2.211zM421.06 127.47s5.71-12.151 11.518-10.254c0 0-4.092 9.326-11.61 12.266l.092-2.011zM422.041 116.745s5.144-10.063 11.096-9.596c0 0-3.997 10.067-11.388 12.361l.292-2.765zM422.844 106.748s6.021-9.945 9.948-9.596c0 0-3.512 10.163-9.826 11.388l-.122-1.792zM423.77 97.461s4.467-11.114 8.499-11.476c0 0-1.977 9.352-8.243 12.4l-.257-.924zM424.157 85.187s4.241-8.772 7.61-9.67c0 0-2.287 10.734-7.226 12.03l-.384-2.36zM424.157 77.083l1.911-16.292s3.993 13.13-1.92 19.218l.01-2.926zM422.085 60.276s-2.417-12.479-3.334-13.294c0 0 7.125 8.946 4.8 18.699l-1.466-5.405zM422.185 163.792a166.131 166.131 0 0 0-6.309 4.654c-.406.31-.811.628-1.213.955a14.166 14.166 0 0 1-3.848-1.204c4.058-5.674 8.722-5.295 11.37-4.405z" fill="#6C63FF"/><path d="M422.726 156.412s-6.57-8.532-13.853-2.042c0 0 6.938 7.258 13.962 3.73l-.109-1.688zM421.723 145.743s-6.593-8.724-13.893-1.776c0 0 7.745 7.503 13.928 3.398l-.035-1.622zM421.68 136.36s-4.53-10.302-11.873-9.286c0 0 4.664 10.904 11.466 11.48l.406-2.194zM421.247 127.449s-4.202-12.75-10.2-11.568c0 0 2.94 9.753 10.034 13.579l.166-2.011zM422.547 116.208s-4.755-10.259-10.72-10.032c0 0 3.604 10.216 10.908 12.793l-.188-2.76zM423.53 106.639s-3.186-11.176-7.07-11.865c0 0 .712 10.726 6.48 13.57l.59-1.705zM423.996 97.265s-3.704-11.393-7.701-12.026c0 0 1.34 9.461 7.378 12.929l.323-.903zM424.908 85.968s-2.618-9.365-5.786-10.861c0 0 .358 10.97 4.992 13.116l.794-2.255z" fill="#6C63FF"/><path d="M423.73 76.708l-6.824-14.918s.231 13.718 7.727 17.696l-.903-2.778zM419.877 61.062s-9.25-8.724-9.45-9.932c0 0 3.743 10.804 13.229 14.067l-3.779-4.135zM419.75 57.76s-10.113-13.239-13.167-13.688c0 0 9.725 1.95 13.525 13.12l-.357.568z" fill="#6C63FF"/><path d="M424.533 87.643h-.437c.437-17.81-1.226-28.627-4.703-30.468l.205-.392c3.687 1.94 5.393 12.618 4.935 30.86z" fill="#444053"/><path d="M421.417 129.905l-.663-.044c.114-1.653.262-3.341.436-5.012 1.593-14.55 2.662-27.972 2.92-38.118l.436-.41c-.253 10.163-1.113 24.03-2.71 38.602a138.515 138.515 0 0 0-.419 4.982z" fill="#444053"/><path d="M423.293 157.82c.312 1.536.648 3.036 1.008 4.502l-.872.61a93.762 93.762 0 0 1-1.462-7.384 109.598 109.598 0 0 1-.942-7.751 51.577 51.577 0 0 1-.114-1.435c-.048-.558-.083-1.112-.122-1.675v-.262a123.855 123.855 0 0 1-.2-5.975c0-1.383 0-2.77.021-4.153.04-1.483.096-2.962.179-4.436 0-.192 0-.388.04-.584.039-.197 0-.406.034-.615v-.123l.162.11.144.091.327.227v.31a109.051 109.051 0 0 0-.231 6.158 3.249 3.249 0 0 0 0 .41V138.75a96.9 96.9 0 0 0 .248 5.67c0 .276.04.555.057.825 0 .1 0 .197.022.297.026.27.048.54.074.816l.092 1.012v.135a98.555 98.555 0 0 0 1.125 8.104c.125.75.262 1.487.41 2.212z" fill="#444053"/><path d="M465.599 136.434l-.99.668a283.855 283.855 0 0 1-8.622 5.548v.872a1.178 1.178 0 0 1-.175-.06l-.048-.69-.043-.737v-.249s.117-.192.327-.506c1.025-1.504 4.546-5.875 9.55-4.846zM456.423 131.484s5.82-9.239 13.692-2.958c0 0-7.077 8.14-13.587 4.576l-.105-1.618zM457.959 122.215s7.033-8.78 13.866-5.906c0 0-7.317 9.321-14.04 8.135l.174-2.23zM460.04 113.382s8.09-10.717 13.386-7.664c0 0-5.93 8.288-13.892 9.618l.506-1.954zM463.208 103.092s7.107-8.793 12.832-7.096c0 0-5.986 9.024-13.692 9.753l.86-2.657zM466.053 93.47s7.936-8.488 11.706-7.332c0 0-5.528 9.22-11.96 9.12l.254-1.788zM468.867 84.576s6.654-9.958 10.68-9.47c0 0-3.86 8.724-10.615 10.439l-.065-.969zM471.777 72.642s5.96-7.69 9.433-7.899c0 0-4.442 10.032-9.546 10.29l.113-2.39zM473.444 64.712l5.236-15.55s1.208 13.67-5.834 18.412l.598-2.862zM474.875 47.85s.205-12.715-.524-13.701c0 0 5.127 10.224.847 19.288l-.323-5.587zM441.632 151.13c1.955-1.789 3.805-2.71 5.484-3.08l-5.318 3.206-.166-.127zM455.712 142.044l-.131.846-.118.82c-.144.04-.288.074-.436.1-.407.089-.82.147-1.235.175-6.702.501-11.235-6.796-11.235-6.796 6.75-3.873 11.091 1.514 12.57 3.851.367.572.554.956.585 1.004z" fill="#6C63FF"/><path d="M456.925 131.4s-4.66-9.874-13.23-4.592c0 0 6.035 8.933 12.929 6.185l.3-1.592zM458.814 122.215s-2.308-11.014-9.708-11.529c0 0 2.326 11.616 8.862 13.592l.846-2.063zM460.25 113.39s-1.493-13.342-7.601-13.416c0 0 .872 10.145 7.038 15.353l.563-1.936zM463.814 102.665s-2.544-11.014-8.43-11.995c0 0 1.423 10.734 8.038 14.76l.392-2.765zM466.746 93.505s-.82-11.594-4.476-13.064c0 0-1.51 10.643 3.547 14.612l.93-1.548zM469.129 84.428s-1.274-11.912-5.057-13.352c0 0-.637 9.531 4.56 14.172l.497-.82zM472.349 73.558s-.655-9.705-3.426-11.816c0 0-1.91 10.809 2.182 13.862l1.244-2.046z" fill="#6C63FF"/><path d="M473.103 64.254L469.5 48.251s-2.617 13.474 3.927 18.913l-.323-2.91zM472.55 48.155s-7.252-10.442-7.2-11.668c0 0 1.44 11.34 10.035 16.488l-2.836-4.82zM473.108 44.892s-7.186-15.035-10.062-16.1c0 0 9.12 3.926 10.55 15.63l-.488.47z" fill="#6C63FF"/><path d="M471.637 75.107l-.436-.1c4.101-17.335 4.695-28.27 1.667-30.787l.283-.34c3.216 2.687 2.692 13.483-1.514 31.227z" fill="#444053"/><path d="M459.883 115.838l-.641-.18a96.208 96.208 0 0 1 1.47-4.797c4.555-13.914 8.364-26.826 10.703-36.705l.523-.305c-2.343 9.892-6.034 23.287-10.598 37.215a114.924 114.924 0 0 0-1.457 4.772z" fill="#444053"/><path d="M460.145 114.935c-.03.1-.057.196-.083.296a88.063 88.063 0 0 0-1.505 5.976c-.031.14-.057.28-.092.436-.192.873-.37 1.745-.541 2.617 0 .066-.022.131-.035.192a101.26 101.26 0 0 0-1.03 6.421c0 .1-.026.2-.043.305a86.008 86.008 0 0 0-.214 1.82v.134c-.306 2.783-.489 5.5-.572 8.153 0 .436 0 .911-.03 1.36v.873a1.178 1.178 0 0 1-.175-.061l-.048-.69-.174.11-.118.82c-.144.04-.288.074-.436.1v-.597c0-.72.052-1.444.087-2.181.126-2.574.353-5.178.667-7.79.123-1.021.262-2.055.41-3.084.291-2.053.65-4.1 1.074-6.142.27-1.36.563-2.704.873-4.052.334-1.454.696-2.892 1.086-4.314.048-.188.105-.375.153-.563.06-.213.122-.436.174-.636l.026-.075.131.14.122.122.293.31z" fill="#444053"/></g></svg>