<svg id="friends" width="282" height="201" xmlns="http://www.w3.org/2000/svg"><defs><linearGradient x1="50.008%" y1="100.01%" x2="50.008%" y2=".001%" id="a"><stop stop-color="gray" stop-opacity=".25" offset="0%"/><stop stop-color="gray" stop-opacity=".12" offset="54%"/><stop stop-color="gray" stop-opacity=".1" offset="100%"/></linearGradient><linearGradient x1="50.301%" y1="100.108%" x2="50.301%" y2=".093%" id="b"><stop stop-color="gray" stop-opacity=".25" offset="0%"/><stop stop-color="gray" stop-opacity=".12" offset="54%"/><stop stop-color="gray" stop-opacity=".1" offset="100%"/></linearGradient></defs><g fill="none" fill-rule="evenodd"><path d="M6.627 106.472c4.403 18.098 13.72 33.744 28.445 41.323 30.602 15.76 99.617 7.632 151.126-1.697 26.637-4.827 50.058-18.135 67.071-36.884L6.627 106.472zM276.736 21.29h-28.26a2.349 2.349 0 0 1-2.099-3.547 2.349 2.349 0 0 1 2.099-1.152h4.883a2.349 2.349 0 0 1-2.098-3.547 2.349 2.349 0 0 1 2.098-1.152h-3.488a2.349 2.349 0 0 1-2.099-3.547 2.349 2.349 0 0 1 2.099-1.152h14.75c-3.275-1.464-7.087-2.506-11.52-3.05-40.221-4.97-54.582-1.682-59.648 1.699-6.249 4.17-13.223 7.238-20.672 8.717-24.804 4.924-71.21 10.85-113.286-1.898-20.9-6.333-36.44 4.371-45.753 22.263h267.897c-.35-5.2-1.397-10.002-3.32-14.205a2.47 2.47 0 0 1-1.583.571z" fill="#7980CA" opacity=".1"/><path d="M176 78.377l-.369-.02-3.846-.218-36.856-2.082-3.982-.226-58.679-3.298-16.447-.927-2.604-.146-2.312-.13L4.23 68.7a115.1 115.1 0 0 0 1.097 31.58l39.267 1.378 3.113.113.551.017 18.628.657 1.002.035 2.149.075 18.783.662 2.575.09 8.98.318h.168l1.32.048 4.496.158 3.944.138 7.513.265h.158l.671.023.71.027h.154l11.977.419 3.356.12h.14l1.615.058h.42l1.421.053 4.335.152 1.628.058 2.091.073h.078l2.87.1 8.317.313 2.284.078h.25l11.065.39 6.424.226 8.01.309 1.282.042 2.07.073 7.53.266 56.787 2.005a111.864 111.864 0 0 0 17.238-25.293L176 78.377zM69.225 95.921a2.488 2.488 0 0 1-1.628-.601c-.205-.18-.38-.391-.516-.627a2.257 2.257 0 0 1 .105-2.406 2.481 2.481 0 0 1 2.039-1.058h4.884a2.349 2.349 0 0 1-2.098-3.547 2.349 2.349 0 0 1 2.098-1.152H70.62a2.277 2.277 0 0 1-.228 0 2.348 2.348 0 0 1 .228-4.689h28.26a2.349 2.349 0 0 1 2.099 3.547 2.349 2.349 0 0 1-2.099 1.152h3.489a2.349 2.349 0 0 1 2.098 3.547 2.349 2.349 0 0 1-2.098 1.152h-4.884a2.349 2.349 0 0 1 2.099 3.548 2.349 2.349 0 0 1-2.099 1.152l-28.26-.018zM281.654 35.09L86.72 39.65l-21.426.501-54.539 1.279c-3.298 8.147-5.482 17.358-6.486 26.906h272.64a107.976 107.976 0 0 0 3.935-17.152c.811-5.612 1.14-11.04.811-16.095zM59.26 55.859h-4.884a2.403 2.403 0 0 1 2.442 2.348v.143a2.336 2.336 0 0 1-1.082 1.812c-.404.26-.874.397-1.355.396h-28.26a2.349 2.349 0 0 1-2.098-3.547 2.349 2.349 0 0 1 2.098-1.152h4.886a2.349 2.349 0 0 1-2.098-3.547 2.349 2.349 0 0 1 2.098-1.152H27.52a2.349 2.349 0 0 1-2.098-3.547 2.349 2.349 0 0 1 2.098-1.152h28.26a2.349 2.349 0 0 1 2.098 3.547 2.349 2.349 0 0 1-2.098 1.152h3.489c.403 0 .801.098 1.16.285a2.346 2.346 0 0 1 1.284 2.066 2.408 2.408 0 0 1-2.444 2.348h-.008z" fill="#7980CA" fill-rule="nonzero" opacity=".1"/><g opacity=".1"><path d="M151.514 146.387s7.157-16.948 20.503-23.24c5.603-2.64 10.236-6.868 13.076-12.214a45.617 45.617 0 0 0 3.278-7.92" stroke="#535461" stroke-width=".5"/><path d="M196.759 99.001c-1.39 1.684-8.595 4.14-8.595 4.14s.869-7.303 2.254-8.987a4.16 4.16 0 0 1 5.69-.624 3.792 3.792 0 0 1 .65 5.471zM194.287 112.332c-2.119.687-9.552-1.018-9.552-1.018s4.854-5.679 6.972-6.363c2.12-.684 4.416.411 5.13 2.449a3.865 3.865 0 0 1-2.55 4.932zM180.886 128.091c-2.19-.438-7.714-5.514-7.714-5.514s7.173-2.543 9.362-2.105c2.189.439 3.594 2.506 3.14 4.604-.453 2.098-2.6 3.451-4.788 3.015zM167.955 137.815c-2.234-.075-8.572-4.185-8.572-4.185s6.621-3.674 8.855-3.597c2.234.078 3.982 1.878 3.905 4.028-.078 2.15-1.951 3.83-4.188 3.754zM177.813 106.55c.285 2.133 5.126 7.822 5.126 7.822s3.189-6.682 2.903-8.817c-.285-2.135-2.314-3.639-4.53-3.363-2.217.275-3.785 2.225-3.5 4.358zM162.839 118.109c.936 1.952 7.325 5.987 7.325 5.987s.964-7.293.028-9.248a4.113 4.113 0 0 0-5.37-1.905 3.83 3.83 0 0 0-1.983 5.166zM149.888 131.264c.579 2.078 6.169 7.093 6.169 7.093s2.231-7.033 1.65-9.11c-.58-2.078-2.797-3.309-4.956-2.757a3.877 3.877 0 0 0-2.863 4.774z" fill="#7980CA"/><path d="M196.759 99.001c-1.39 1.684-8.595 4.14-8.595 4.14s.869-7.303 2.254-8.987a4.16 4.16 0 0 1 5.69-.624 3.792 3.792 0 0 1 .65 5.471zM194.287 112.332c-2.119.687-9.552-1.018-9.552-1.018s4.854-5.679 6.972-6.363c2.12-.684 4.416.411 5.13 2.449a3.865 3.865 0 0 1-2.55 4.932zM180.886 128.091c-2.19-.438-7.714-5.514-7.714-5.514s7.173-2.543 9.362-2.105c2.189.439 3.594 2.506 3.14 4.604-.453 2.098-2.6 3.451-4.788 3.015zM167.955 137.815c-2.234-.075-8.572-4.185-8.572-4.185s6.621-3.674 8.855-3.597c2.234.078 3.982 1.878 3.905 4.028-.078 2.15-1.951 3.83-4.188 3.754zM177.813 106.55c.285 2.133 5.126 7.822 5.126 7.822s3.189-6.682 2.903-8.817c-.285-2.135-2.314-3.639-4.53-3.363-2.217.275-3.785 2.225-3.5 4.358zM162.839 118.109c.936 1.952 7.325 5.987 7.325 5.987s.964-7.293.028-9.248a4.113 4.113 0 0 0-5.37-1.905 3.83 3.83 0 0 0-1.983 5.166zM149.888 131.264c.579 2.078 6.169 7.093 6.169 7.093s2.231-7.033 1.65-9.11c-.58-2.078-2.797-3.309-4.956-2.757a3.877 3.877 0 0 0-2.863 4.774z" fill="#000" opacity=".25"/></g><g opacity=".1"><path d="M156.866 120.723s.901-18.273 11.33-28.466c4.377-4.276 7.29-9.744 8.127-15.694.39-2.823.51-5.676.36-8.521" stroke="#535461" stroke-width=".5"/><path d="M183.215 61.586c-.734 2.032-6.682 6.649-6.682 6.649s-1.7-7.17-.97-9.2c.732-2.03 3.041-3.108 5.152-2.404a3.858 3.858 0 0 1 2.5 4.955zM185.469 74.951c-1.753 1.321-9.364 2.086-9.364 2.086s2.622-6.905 4.385-8.228a4.155 4.155 0 0 1 5.683.676 3.796 3.796 0 0 1-.704 5.466zM178.269 94.102c-2.217.285-9.18-2.757-9.18-2.757s5.889-4.687 8.105-4.973c2.217-.285 4.258 1.21 4.548 3.344.29 2.132-1.26 4.09-3.473 4.386zM169.42 107.385c-2.133.641-9.516-1.216-9.516-1.216s4.98-5.576 7.115-6.218c2.133-.641 4.405.501 5.071 2.554a3.872 3.872 0 0 1-2.67 4.88zM167.938 74.75c1.002 1.923 7.533 5.745 7.533 5.745s.704-7.32-.3-9.243a4.123 4.123 0 0 0-5.435-1.73 3.824 3.824 0 0 0-1.798 5.229zM157.802 90.432c1.556 1.544 8.974 3.311 8.974 3.311s-1.606-7.188-3.16-8.732a4.165 4.165 0 0 0-5.726-.085 3.788 3.788 0 0 0-.088 5.506zM150.119 106.976c1.252 1.775 8.264 4.722 8.264 4.722s-.32-7.346-1.582-9.12a4.15 4.15 0 0 0-5.628-1.015 3.802 3.802 0 0 0-1.054 5.413z" fill="#7980CA"/></g><path d="M167.512 31.611l-7.203 1.391s12.568-1.185 16.33-.987c3.76.198 12.24 4.944 12.24 4.944s4.008 1.274 8.744 5.737a36.746 36.746 0 0 1 3.236 3.464c3.781 4.586 7.578 11.31 9.927 21.035.25 1.002.469 2.02.676 3.075.421 2.138.774 4.406 1.045 6.814a90.91 90.91 0 0 1 .323 3.439c.088 1.123.157 2.274.205 3.453.047 1.123.078 2.271.093 3.444.017 1.574 0 3.19-.038 4.86-.03 1.11-.076 2.243-.137 3.395v.138c-.424 7.85-1.403 14.504-2.755 20.14-.14.584-.286 1.16-.434 1.722a67.994 67.994 0 0 1-2.507 7.647c-.166.44-.341.868-.523 1.285a50.354 50.354 0 0 1-2.374 4.912 41.16 41.16 0 0 1-.779 1.353c-6.484 10.853-14.44 13.497-17.611 14.139-.439.087-.787.14-1.027.168h-.018c-.235.027-.363.032-.363.032-.751 2.857.681 4.01 2.405 4.424.279.066.561.115.846.148 1.127.109 2.264.063 3.378-.136 0 0 7.734.344 15.854.537l1.84.042.682.013c4.2.082 8.297.112 11.285.022 1.417-.042 2.584-.113 3.39-.215 6.139-.795 4.356-4.762 2.475-7.827-1.618-2.642-.816-7.339 1.836-15.098.429-1.258.906-2.595 1.43-4.01 2.907-7.887 2.74-19.676 2.056-29.656a269.3 269.3 0 0 0-.29-3.84c-.126-1.52-.251-2.975-.379-4.338-.55-6.078-2.339-12.626-4.242-17.894a78.048 78.048 0 0 0-.824-2.196 53.271 53.271 0 0 0-2.725-5.995c-.22-.398-.428-.752-.621-1.05l-.175-.278a31.687 31.687 0 0 1-1.04-1.827 71.077 71.077 0 0 1-1.603-3.236c-1.365-2.92-2.692-6.112-3.569-8.27-.638-1.582-1.036-2.62-1.036-2.62a3.97 3.97 0 0 1 .435-1.212c3.329-6.088 22.623-9.584 22.623-9.584l9.672.697 19.227 1.383-20.995-3.173-3.256-.501s.944-.1 2.342-.326c2.772-.451 7.33-1.396 9.83-3.042 2.003-1.314 12.572-1.875 22.059-2.113v-2.416l-1.77 1.253-20.384.303 9.897-12.676-13.065 13.368c-2.054.41-6.011 1.343-10.552 2.451-3.13.764-6.541 1.619-9.797 2.426-8.014 2.005-15.167 3.84-15.167 3.84a35.287 35.287 0 0 1 13.892-25.744L241.714.368h-2.9c-8.265 4.935-20.715 14.8-20.715 14.8s.208-5.456 1.961-14.787h-3.802c-.045.48-.102.956-.172 1.429-1.503 10.182-2.237 22.182-2.237 22.182-1.287 8.717-4.758 1.288-4.758 1.288.31-9.904-3.68-19.147-6.87-24.912h-4.217c1.948 3.975 1.297 6.878 1.297 6.878-6.462-4.817-11.6-6.444-15.114-6.878a14.928 14.928 0 0 0-3.915 0 6.94 6.94 0 0 0-1.455.339c13.063.594 22.365 10.496 22.365 10.496 1.037.25 3.651 8.35 4.758 18.626.163 1.504.296 3.065.383 4.652.298 5.3-.368 7.458-1.227 8.195-.628.542-1.362.313-1.896 0a3.83 3.83 0 0 1-.736-.571c-2.034-3.409-9.767-7.286-16.78-10.25a220.84 220.84 0 0 0-4.302-1.755 16.081 16.081 0 0 1-9.622-10.807c-2.297-8.398-6.602-8.078-6.602-8.078 5.049 3.863 4.758 15.54 4.758 15.54l-16.72-3.535c7.947 2.136 20.975 7.1 20.975 7.1l-6.649 1.281-.01.01zM148.829 22.308l4.36.922a30.565 30.565 0 0 0-4.36-.922z" fill="#DEA3A2"/><path d="M198.94 141.808s3.68-2.18 8.72-1.09c5.042 1.09 12.76.5 13.465.393l-22.185.697zM215.064 82.505s1.227 19.358-.954 23.175l.954-23.175zM219.59 105.68s-1.57 18.133-2.66 21.677c-1.09 3.544 2.66-21.677 2.66-21.677zM221.125 61.1c1.112.42 5.88 10.09 4.916 12.952-.964 2.862-4.916-12.953-4.916-12.953zM209.033 51.052c.519.236 2.735 5.81 2.292 7.459-.444 1.649-2.292-7.459-2.292-7.459zM229.68 83.575c-.551 5.622-.85 9.304-.501 13.802a52.977 52.977 0 0 1-.15 10.496l.65-24.298zM169.974 18.105c.671.767.896 1.83.929 2.85.033 1.02-.1 2.04-.033 3.055.073 1.07.579 2.326 1.64 2.468l-2.536-8.373z" fill="#000" opacity=".1"/><path d="M223.196 12.712c-.797.422-1.543.936-2.222 1.53a3.978 3.978 0 0 0-1.292 2.317c-.048.38-.023.772-.108 1.148a3.622 3.622 0 0 1-.751 1.39c-.573.739-1.2 1.433-1.876 2.078"/><path d="M216.732 38.57a13.774 13.774 0 0 1 1.79-1.252 7.536 7.536 0 0 1 1.841-.81c.987-.25 2.026-.223 3.04-.328 1.015-.105 2.08-.388 2.773-1.14l-9.444 3.53zM256.973 26.06c-1.205.032-2.454.075-3.526.626-.546.284-1.022.685-1.558.985a4.736 4.736 0 0 1-2.271.592l7.355-2.203zM240.276 31.03c.25-.2.651-.045.864.203.213.248.336.566.556.807.438.476 1.157.529 1.803.554l-3.223-1.564zM233.389 5.434l-1.157.606c-1.182.62-2.372 1.253-3.411 2.083l4.568-2.69zM220.168 16.757c-.751-.18-1.418.631-1.553 1.4-.135.77.023 1.585-.195 2.334-.193.667-.661 1.213-1.14 1.712l2.888-5.446zM207.293 18.163c-.692 2.067.776 4.325.348 6.463-.13.652-.434 1.253-.586 1.905-.404 1.7.288 3.509 1.4 4.86l-1.162-13.228z" fill="#000" opacity=".1"/><ellipse fill="#7980CA" opacity=".1" cx="59.518" cy="180.459" rx="6.371" ry="1"/><ellipse fill="#7980CA" opacity=".1" cx="35.115" cy="182.935" rx="6.371" ry="1"/><ellipse fill="#7980CA" opacity=".1" cx="6.371" cy="179.582" rx="6.371" ry="1"/><ellipse fill="#7980CA" opacity=".1" cx="44.882" cy="189.985" rx="4.528" ry="1"/><ellipse fill="#7980CA" opacity=".1" cx="19.555" cy="189.364" rx="4.528" ry="1"/><path d="M34.977 182.737s8.936-29.31-1.397-41.05c-7.732-8.771-16.505-7.731-20.434-6.646a7.264 7.264 0 0 0-4.689 3.897c-1.372 2.967-1.124 7.782 8.573 13.401 16.239 9.406 17.248 22.305 17.248 22.305l.699 8.093z" fill="#7980CA"/><path d="M14.543 139.199s26.34 8.24 20.434 43.538M29.928 142.154s-3.626 2.446-2.474 6.12M17.185 144.329s2.217-2.256 4.917-1.002M27.596 155.682s3.895-1.977 4.902.502M37.231 159.803s-2.923-.234-2.978 1.165" stroke="#565987" stroke-width=".5"/><path d="M35.34 182.973S24.874 161.67 22 162.136c-1.365.22-2.004 1.564-2.279 2.915a8.582 8.582 0 0 0 .571 5.185c1.485 3.408 5.472 9.882 15.05 12.737z" fill="#7980CA"/><path d="M22.077 166.178s10.984 15.938 13.108 16.637M21.067 168.665h2.565M24.138 174.497l4.02.173M26.585 169.832l-.436 2.093M30.857 176.206l-.077 1.905" stroke="#565987" stroke-width=".5"/><path d="M35.027 182.973s10.466-21.303 13.341-20.837c1.365.22 2.004 1.564 2.28 2.915a8.582 8.582 0 0 1-.572 5.185c-1.485 3.408-5.472 9.882-15.049 12.737z" fill="#7980CA"/><path d="M48.29 166.178s-10.984 15.938-13.105 16.644M49.3 168.665h-2.565M46.23 174.497l-4.02.173M43.785 169.832l.436 2.093M39.51 176.206l.078 1.905" stroke="#565987" stroke-width=".5"/><path d="M17.06 187.948a1.832 1.832 0 0 1-.596-.9.8.8 0 0 1 .416-.917c.383-.146.791.12 1.102.385.31.266.664.574 1.07.52a1.632 1.632 0 0 1-.502-1.527.642.642 0 0 1 .14-.31c.214-.226.597-.129.852.05.807.568 1.032 1.666 1.037 2.656.045-.363.05-.73.015-1.095-.032-.37.122-.733.41-.968.192-.104.409-.155.627-.148.363-.012.766.023 1.002.289.31.33.23.884-.038 1.253-.3.34-.656.625-1.052.844-.302.178-.559.424-.751.717a.857.857 0 0 0-.058.128h-2.276a6.409 6.409 0 0 1-1.398-.977zM56.936 179.366a1.81 1.81 0 0 1-.596-.9.8.8 0 0 1 .416-.914c.383-.148.791.117 1.1.386.307.268.665.574 1.071.516a1.63 1.63 0 0 1-.5-1.526.657.657 0 0 1 .14-.309c.212-.228.598-.13.85.05.81.567 1.035 1.667 1.04 2.655.044-.363.049-.73.013-1.093-.032-.37.122-.733.41-.968.192-.104.408-.155.627-.147.363-.015.768.022 1.016.288.308.33.228.885-.04 1.253-.3.34-.655.624-1.052.842-.3.18-.556.426-.75.717a.68.68 0 0 0-.056.13h-2.282a6.301 6.301 0 0 1-1.407-.98zM43.645 187.948a1.832 1.832 0 0 1-.596-.9.802.802 0 0 1 .418-.917c.38-.146.789.12 1.1.385.31.266.663.574 1.069.52a1.637 1.637 0 0 1-.501-1.527.664.664 0 0 1 .14-.31c.213-.226.596-.129.852.05.806.568 1.032 1.666 1.037 2.656.045-.363.05-.73.015-1.095-.032-.37.122-.733.41-.968.192-.104.408-.155.626-.148.364-.012.77.023 1.017.289.308.33.228.884-.04 1.253-.3.34-.655.626-1.052.844a2.31 2.31 0 0 0-.751.717.654.654 0 0 0-.055.128h-2.277a6.364 6.364 0 0 1-1.412-.977zM5.956 170.604s-.852 1.116.395 2.802c1.247 1.687 2.277 3.11 1.861 4.163 0 0-1.883-3.133-3.416-3.178-1.533-.045-.526-1.904 1.16-3.787z" fill="#7980CA"/><path d="M5.956 170.604a1.409 1.409 0 0 0-.173.349c-1.503 1.754-2.292 3.398-.854 3.438 1.337.04 2.942 2.434 3.328 3.04 0 .045-.027.093-.045.138 0 0-1.883-3.133-3.416-3.178-1.533-.045-.526-1.904 1.16-3.787z" fill="#000" opacity=".1"/><path d="M4.37 172.028c0 .39.043.712.098.712.055 0 .098-.321.098-.712 0-.391-.056-.208-.108-.208-.053 0-.088-.186-.088.208z" fill="#FFD037"/><path d="M3.824 172.497c.346.188.646.3.674.25.028-.05-.233-.238-.579-.426-.345-.188-.207-.052-.235 0-.028.053-.203-.012.14.176z" fill="#FFD037"/><path d="M10.466 170.604s.854 1.116-.396 2.802c-1.25 1.687-2.274 3.11-1.858 4.153 0 0 1.88-3.133 3.414-3.178 1.532-.045.536-1.894-1.16-3.777z" fill="#7980CA"/><path d="M10.466 170.604c.073.108.132.225.173.349 1.503 1.754 2.291 3.398.854 3.438-1.337.04-2.943 2.434-3.329 3.04.013.047.029.093.048.138 0 0 1.88-3.133 3.414-3.178 1.532-.045.536-1.904-1.16-3.787z" fill="#000" opacity=".1"/><path d="M12.051 172.028c0 .39-.042.712-.097.712s-.098-.321-.098-.712c0-.391.055-.208.108-.208.052 0 .087-.186.087.208z" fill="#FFD037"/><path d="M12.597 172.497c-.345.188-.646.3-.67.25-.026-.05.23-.238.575-.426.346-.188.21-.052.236 0 .025.053.205-.012-.14.176z" fill="#FFD037"/><path d="M11.78 177.421s-2.386-.072-3.105-.584c-.718-.51-3.671-1.125-3.849-.303-.178.822-3.589 4.088-.894 4.11 2.695.023 6.261-.42 6.98-.857.719-.436.869-2.366.869-2.366z" fill="#A8A8A8"/><path d="M3.897 180.359c2.695.02 6.261-.421 6.98-.86.546-.333.764-1.529.836-2.08h.08s-.152 1.927-.869 2.366c-.716.438-4.285.877-6.98.857-.776 0-1.046-.283-1.031-.694.095.25.393.406.984.41z" fill="#000" opacity=".2"/><path d="M244.9 114.445c-1.023-.867-4.068-6.196-4.93-7.72l-.225-.406c.316-1.185-1.663-2.91-2.239-3.383-1.215-1.428-2.955-3.208-4.39-3.634-1.838-.544-3.123.068-4.508-.17a3.52 3.52 0 0 1-.974-.314 4.863 4.863 0 0 1-.584-.346 7.135 7.135 0 0 1-1.322-1.265c.258-.032.51-.098.751-.198a53.408 53.408 0 0 0 4.208-1.78c.298-.142.62-.313.738-.621.05-.13.058-.276.118-.401.13-.28.466-.389.751-.479 1.057-.32 2.204-.952 2.38-2.042.02-.143.028-.287.025-.431-.056.112-.123.219-.2.318.037-.369-.02-.752.034-1.11.057-.318.182-.619.366-.883-.014.12-.02.242-.02.364.41-.89 1.4-1.534 1.726-2.494.08-.255.125-.521.13-.79-.063.148-.138.29-.226.424.183-1.085-.293-2.313.266-3.258.037-.063.08-.125.123-.183a3.01 3.01 0 0 0-.033.371c.028-.063.058-.125.093-.188.263-.446.728-.774.864-1.276a1.46 1.46 0 0 0 .02-.561c-.053.08-.11.159-.17.233a3.142 3.142 0 0 0-.103-.694c-.398-1.72-.98-3.672-2.59-4.386-.488-.218-1.052-.308-1.442-.674-.895-.832-.411-2.612-1.44-3.258-.454-.289-1.15-.319-1.323-.827-.097-.289.035-.62-.072-.908-.228-.614-1.122-.393-1.776-.37-.907.034-1.843-.765-1.71-1.662a4.755 4.755 0 0 0-3.948-.186c-.66.268-1.31.697-2.018.632-.343-.033-.661-.178-1.002-.238-1.402-.25-2.602.955-3.937 1.453-1.39.52-3.098.314-4.205 1.306-.972.875-1.15 2.424-2.179 3.228-.548.426-1.252.58-1.836.97-.583.391-.974 1.233-.533 1.772.556.682 1.984.316 2.254 1.153.218.674-.619 1.175-.94 1.804a1.402 1.402 0 0 0 .965 1.93v.02a9.08 9.08 0 0 0 4.323 10.917c.125.226.25.479.39.752.78 1.55 1.683 3.72 1.951 5.835-.936-.309-2.907 1.486-2.907 1.486-.998.257-2.014.442-3.038.554-2.106.275-1.936 1.1-1.934 1.108l-.132.12c-1.09.955-8.495 7.586-9.683 7.837l.063.25-.305.226-3.67 2.72s-2.81.185-5.572.5c-2.762.316-6.677 1.156-3.822 4.48.08.094.16.18.25.25l-11.074-.657a.486.486 0 0 0 .123-.293c0-.25-.286-.501-.776-.69l-.018-.077c1.395-.04 3.128-.103 4.285-.208.3-.03.559-.06.751-.093 1.729-.278-.137-1.594.692-2.631.829-1.038 0-4.92.067-5.75.068-.83-.55-4.155-1.104-4.85-.554-.693-.621-3.67-.621-3.67s-1.313-1.179-2.071-5.196c-.76-4.018-3.8-6.095-4.759-6.303-.96-.208-2.417-1.038-2.417-1.253 0-.216-1.658-.279-2.349-.554-.691-.276-1.037-.624-1.588-.695.197-.219.362-.465.489-.731.135-.273.342-.505.598-.67a.891.891 0 0 1 .153-.062.593.593 0 0 1 .328 0c.206.057.416.23.599.128a.218.218 0 0 0 .067-.058.56.56 0 0 0 .108-.25 3.27 3.27 0 0 0 .053-.314v-.023a4.68 4.68 0 0 0 .025-.323c.037-.782-.073-1.591.29-2.27l.023-.033c.365-.652 1.084-1.003 1.668-1.481.12-.097.235-.2.345-.308.043-.04.08-.086.123-.13.043-.046.128-.134.188-.204.06-.07.095-.123.143-.183.047-.06.09-.118.13-.178.04-.06.1-.148.148-.225.047-.078.062-.1.09-.15.027-.05.097-.176.142-.269a4.665 4.665 0 0 0 .188-.429c.013-.032.023-.065.033-.095.042-.115.08-.228.113-.345v-.058c.068-.246.115-.498.142-.752a4.935 4.935 0 0 0-1.137-3.611c-.638-.752-1.555-1.409-1.605-2.389.016-.462.118-.918.3-1.343a3.35 3.35 0 0 0 .146-.577c.015-.088.022-.178.022-.268 0-.73-.46-1.378-1.001-1.877a6.428 6.428 0 0 0-5.788-1.529c-.534.13-1.072.331-1.618.263-.636-.08-1.162-.5-1.733-.794-1.868-.948-4.4-.25-5.532 1.504-.654 1.022-.91 2.353-1.886 3.07-.576.423-1.373.609-1.786 1.158-.05.063-.094.13-.13.203-.102.214-.152.45-.148.686.001.242.021.483.06.722.1.776.473 1.49 1.05 2.018l.142.15.033.035c.1.11.195.22.28.333l.015.023.078.11c-.035.043-.073.083-.105.126a8.325 8.325 0 0 0 1.227 11.623v.266c-.023.464-.055.955-.095 1.456a1.19 1.19 0 0 0-.944-.328 1.001 1.001 0 0 0-.471.045 1.206 1.206 0 0 1-.27.055c-.356-.03-.687-.158-1.035-.12a1.16 1.16 0 0 0-.974.34c-.686.632-3.073 1.452-4.23 1.52a.72.72 0 0 1-.25-.063.613.613 0 0 0-.381-.035c-.73-.163-2.755 1.253-3.211 2.113-.483.9-2.071 3.323-2.071 3.323s-1.383 1.664-1.175 2.564c.208.9-.483 1.94-1.312 2.356-.83.416-2.487 4.57-2.487 4.57s-1.796 3.81-3.662 4.78c-.73.381-.961 1.253-.974 2.193-.43.023-.751.023-.751.023s-5.803 1.478-7.644.368c-1.84-1.11-8.29-1.383-8.29-1.383l-6.581-7.04-.266-.286c1.163-.99-.796-1.717-.796-2.444 0-.726-.736-1.017-.736-1.017s-.033.043-.085.1a1.284 1.284 0 0 0-.19-.1 1.821 1.821 0 0 1-.544.464c-.135-.088-.223-.349-.193-.925.055-1.125-.674-2.316-1.252-3.075.829-2.697 2.379-5.73 3.566-7.845.068-.125.138-.25.205-.363a8.112 8.112 0 0 0 2.492-13.042c.067-.024.134-.043.203-.058.087-.016.175-.025.263-.025.594.015 1.277.288 1.83.263.178.009.354-.026.514-.1.606-.301.464-1.108.108-1.517-.438-.501-1.127-.834-1.445-1.396a4.466 4.466 0 0 1-.328-1.072 3.828 3.828 0 0 0-2.334-2.416 4.92 4.92 0 0 0-3.672.08c-.543.25-1.022.579-1.585.782-1.165.42-2.505.19-3.71-.146-.703-.195-1.404-.426-2.118-.584a10.62 10.62 0 0 0-.974-3.085c-.038-.077-.083-.15-.123-.228 1.202-.416 2.77-.34 3.396-1.43.386.043.777-.008 1.14-.149.345-.173.606-.589.466-.952a.752.752 0 0 0-.153-.23 2.873 2.873 0 0 0-.501-.38 2.963 2.963 0 0 1-1.272-2.28c0 .02 0 .04.017.063a2.701 2.701 0 0 1 0-.318c.02-.48.158-.95.128-1.429a1.826 1.826 0 0 0-.135-.579v.038a2.109 2.109 0 0 0-1.981-1.351c-.313.015-.622.1-.935.11-1.502.043-2.742-1.644-4.197-1.303-.31.072-.606.25-.924.238-.734 0-1.187-.842-1.888-1.063-.556-.178-1.163.068-1.754 0-.59-.067-1.031-.396-1.522-.664-1.05-.574-2.455-.827-3.374-.06a3.058 3.058 0 0 1-.656.526 1.902 1.902 0 0 1-.952.055 8.817 8.817 0 0 0-2.842.193c-.25.033-.48.153-.651.339a1.906 1.906 0 0 0-.206.664c-.28 1.09-1.623 1.459-2.742 1.551a1.577 1.577 0 0 0-.827.223c-.403.309-.39.928-.212 1.404.177.476.48.91.546 1.413.162 1.253-1.198 2.223-1.423 3.479-.316 1.734 1.605 3.439.952 5.078-.288.726-1.06 1.288-1.025 2.07.035.782.792 1.233 1.253 1.83.46.596.628 1.295.804 2.004.27 1.085.32 3.133 1.482 3.654.049.024.1.044.15.06.065.02.13.036.196.048-.055.08-.108.16-.163.238-1.357 1.94-2.878 3.827-4.3 4.99-.05.043-.103.083-.155.123a1.117 1.117 0 0 0-.614-.27c-.829-.093-2.948 1.385-2.948 2.122 0 .737-1.943 1.94-4.162 4.063-2.219 2.122-2.209 12.28-1.473 14.223.29.769.7 2.771 1.085 4.907a2.717 2.717 0 0 0-1.002 1.466c-.829 3.509.368 6.278 1.38 6.556 1.012.278.761-1.205.761-1.205-.809-1.755-.961-3.11-.658-4.14.37 2.273.658 4.14.658 4.14s2.672 8.496 3.684 11.082c1.012 2.587 4.606 18.75 4.606 18.75s.393.5 1.097 1.215l.836 4.601 1.38 2.772h.103l-.208 1.975s.183 8.313-.278 9.559c-.46 1.246-4.558 23.83-4.558 23.83s-1.29 7.941-1.197 9.881l2.993.647s-.599-1.71.278-4.895c.876-3.185 2.577-9.142 2.577-9.142l1.753-7.943.133 5.68s-1.566 7.064-1.253 7.433c.313.368 2.715.501 2.715.501s0-3.787.501-5.864c.44-1.812 5.33-20.584 6.572-25.359a11.776 11.776 0 0 1 5.4-.872c6.203.346 9.674 2.617 11.612 4.945-4.445 2.35-8.19 4.29-8.19 4.29l.046.251-.04.023-.095.058-.048.027-.09.055-.068.038-.102.063-.065.037-.126.073-.057.032-.41.251-.046.025-.178.103-.052.03-.188.108-.05.03-.213.123-.028.015-.25.14-.25.145-.026.015-.228.128-.062.035-.186.106-.087.05-.17.092-.086.048-.187.103-.066.037-.25.138-.235.128-.066.033-.177.095-.076.04-.155.08-.082.043-.153.08-.068.035-.18.09-.03.015-.2.1-.046.02-.14.068-.06.028-.113.05-.06.027-.097.04-.056.023-.09.035-.042.018-.113.037c-1.185.359-2.031 3.364-.751 5.296 1.28 1.932 1.014 5.296.338 6.584-.676 1.288.168 3.579.338 4.153.128.436 1.68.91 4.13.8 1.32.05 2.64-.05 3.937-.299 3.894-.717 2.454-2.29 2.03-3.436-.422-1.145-.5-4.439.086-5.94a3.48 3.48 0 0 0 .105-.323c.917-1.02 2.38-2.692 3.549-4.216.538-.701 1.898-1.325 3.551-1.857 1.323 5.426 3.957 16.168 4.538 17.882.782 2.308 1.197 7.99 1.197 7.99l3.038-.278-1.002-15.1-1.089-12.03c1.438-.25 2.55-.409 2.91-.459 1.483 5.71 2.893 11.148 3.12 12.083.502 2.078.502 5.864.502 5.864s2.394-.137 2.717-.5c.323-.364-1.252-7.437-1.252-7.437l.293-12.496c3.438-1.611 7.62-3.556 9.469-4.36 1.738-.753 4.626-2.54 7.04-4.111l4.258 34.774 2.486.208 1.33-.303 1.708-.389 3.907-31.345c.156.123.298.238.424.343-.086.785-.163 2.118.16 3.088.483 1.454.413 4.639.067 5.75-.345 1.11-1.517 2.63 1.658 3.322 3.176.692 5.32.07 5.458-.483.137-.554.829-2.772.275-4.01-.553-1.238-.751-4.511.276-6.374 1.026-1.862.345-4.779-.622-5.125-.64-.23-1.582-.641-2.148-.895l-.18-.228a4.692 4.692 0 0 1 1.502-1.303c1.658-.83 1.312-2.7 1.312-2.7s1.728 0 2.97-2.08c.872-1.455 1.876-2.909 2.402-3.962.105.67.226 1.504.293 2.208.138 1.48 1.841 15.84 2.625 17.043.784 1.203.138 5.727.138 5.727h2.532l-.183-6.928s-2.855-20.363-.46-22.443c.417-.363.826-.737 1.214-1.103l4.723 34.564c-.012.25-.022.43-.03.566-.007.135-.015.25-.015.25s-2.026 1.018-.551 2.03a3.77 3.77 0 0 0 1.042.437l.103.752c-.535.04-1.071.04-1.606 0-.323-.138-.323 4.293-.323 4.293s-1.796 3.604-2.026 4.481c-.23.877-2.026 3.048-2.026 3.048s-2.58 1.892 1.197 2.631c3.777.74 7.92-.23 7.92-.23s2.754-4.802 3.004-4.527c.25.276 0 2.542 0 2.542l1.613-.416s-.278-3.008.368-4.62c.501-1.283-.603-5.335-1.084-6.947l.3.023s.276-.554.554-2.218c0-.052.008-.102.023-.15.198-1.205.499-2.39.899-3.544.458-1.479 0-1.293 0-2.218.054-1.592.222-3.177.5-4.745 0-.047.018-.092.028-.14.206.136.433.237.671.298.276.767.566 1.647.752 2.381-.501.156-.84.336-.894.544-.278 1.018.09 3.186.09 3.186s.413 4.897-.368 5.636c-.782.74-2.395 2.078-1.335 3.464.105.131.23.247.368.343.751.546 2.194.94 3.646 1.002l-.606 9.048 3.01.28s.414-5.68 1.198-7.99c.173-.5.53-1.834.981-3.578 1.14-1.712 1.781-2.932 1.781-2.932l.784 3.233 2.715-.695s-1.473-2.862-1.29-3.877c.183-1.015-.781-2.446-1.563-3.601a6.305 6.305 0 0 1-.315-.534c1.164-4.73 2.201-9.022 2.201-9.022s.736-9.6 14.045-10.351a11.763 11.763 0 0 1 5.397.872c1.252 4.762 6.133 23.559 6.574 25.358.501 2.078.501 5.865.501 5.865s2.394-.138 2.717-.502c.324-.363-1.252-7.433-1.252-7.433l.133-5.68 1.753 7.943s1.703 5.955 2.577 9.143c.874 3.188.276 4.894.276 4.894l2.992-.646c.093-1.94-1.197-9.882-1.197-9.882s-4.097-22.581-4.558-23.83c-.46-1.248-.275-9.558-.275-9.558l-.203-1.935c3.256-2.293 5.084-14.551 5.084-14.551l3.396-19.003c.524-.981.976-2 1.352-3.047v-.018l.406.456 1.974 4.85c3.911 5.496 7.826 5.31 7.826 5.31a.278.278 0 0 0 .017-.04 2.59 2.59 0 0 0 2.004-.526l.04-.032c1.42-1.11-1.525-9.053-2.725-10.07zm-69.1 11.486l-.73-2.943.784-.015-.055 2.958zm-11.792-38.346c-.082.05-.16.106-.235.166-.073-.186-.14-.376-.208-.567.115.166.267.304.443.401zm-23.7 40.205c-1.174 1.527-1.312 2.507-1.312 2.507l.296.067-2.131 1.908-1.075-9.241 5.197.226c-.293 2.283-.626 4.08-.974 4.533zm5.042 19.258s1.072-.25 2.47-.656l-.444 3.333c-1.252-1.627-2.026-2.677-2.026-2.677zm-2.983-36.59l.038-.086v.088l-.038-.003zm-26.58 22.921c-1.161-.526-9.37-3.05-12.359-3.965a.607.607 0 0 1-.072-.468c.278-.923-1.841-3.416-2.67-4.063-.829-.646-1.933-1.847-1.014-2.586.233-.227.39-.52.448-.84l8.56.374a20.97 20.97 0 0 0 2.505.751s1.455-.19 3.368-.5l16.94.734 1.608 13.11c-1.054.967-1.77 1.644-1.77 1.699 0 .12-1.135 2.055-1.273 4.604l-8.838-2.757c.018-.045.034-.091.048-.138.839-3.045-4.053-5.308-5.48-5.955zm-15.494-14.062c-.015-.62-.068-1.085-.068-1.085l-.19-2.066c1.668 1.02 3.471 2.153 4.758 3.038l-4.5.113zm39.9 39.032l.183-.125a2.527 2.527 0 0 0 1.253-.868c.738.645 1.427 1.239 2.03 1.755-.706.651-1.948 1.712-3.117 2.27l-.348-3.032zm35.283-14.439l-.325 17.955-2.482-16.636c.7-.349 1.798-.857 2.807-1.319zm15.503-24.43s2.67 3.325 4.743 2.215c.466.06 3.86-1.774 6.036-2.982.315.453.668.879 1.054 1.273l1.317-.682.263-.135c.13 1.431.356 3.814.539 5.343.275 2.298-3.556 5.421-3.592 5.449 0 0 .016.115.026.296-.188.167-.301.25-.301.25l.308-.055c.028.724-.025 2.005-.679 2.273-.919.371-1.472.647-3.316.093a34.426 34.426 0 0 0-6.832-1.123c-3.198-.185-6.621.16-8.264 2.045-.058.068-.113.14-.166.216-.052.075-.055.082-.082.123a.811.811 0 0 0-.166.077s0 .06.026.156c-.892 1.609-1.14 4.584-1.085 7.786l-.275.118-.136.063-.102.05c-.095.043-.19.09-.286.138l-.17.085-.22.118-.251.138-.143.085c-.105.06-.21.125-.315.193l-.075.048c-.12.08-.25.16-.359.25l-.03.025c-.045.03-.087.063-.13.095l.31-20.58 13.622-.251-.208-1.94-2.103-.128a5.793 5.793 0 0 0 1.042-1.125zm-97.721 51.285l.075-.188c0-.015.013-.03.02-.048l.073-.165.072.393c-.1.058-.2.118-.305.176.022-.055.042-.11.062-.163l.003-.005zm48.133-2.128a20.357 20.357 0 0 0 3.599-1.002l-1.986 14.877-1.613-13.875zm33.927 13.165c.18.043.369.083.561.123v.434l-.586.03.025-.587z" fill="url(#a)" fill-rule="nonzero"/><path d="M268.754 174.399c0-.537-2.181-1.003-5.39-1.253-.871-1.454-2.239-3.033-2.379-3.677-.19-.872-2.311-.752-4.07-.318 1.107-1.424 2.703-3.095 4.115-3.138 1.478-.04 1.488-1.135.677-2.66.308-.104.606-.237.889-.398.553-.305.268-.208.225-.285-.043-.078.178-.299-.378 0-.285.149-.555.324-.807.523.061-.33.088-.666.08-1.002 0-.634-.052-.336-.14-.336-.087 0-.175-.298-.175.336-.001.225.009.45.03.674a21.118 21.118 0 0 0-2.269-2.97v.018c.015.022.038.055.063.1v.013c0 .017.022.04.032.062v.015c.034.064.064.129.09.196a.105.105 0 0 1 0 .025l.038.095c.263.73.443 2.145-.91 3.977-1.352 1.833-2.584 3.527-3.005 4.935-.413-1.408-1.62-3.072-3.005-4.935-1.385-1.862-1.172-3.258-.909-3.977l.038-.095v-.025c.033-.075.063-.14.09-.196v-.015c0-.022.022-.045.032-.062v-.013a.817.817 0 0 1 .063-.1v-.018a21.118 21.118 0 0 0-2.27 2.97c.018-.19.03-.42.03-.674 0-.634-.087-.336-.174-.336-.088 0-.143-.298-.143.336-.007.336.02.672.083 1.002a5.196 5.196 0 0 0-.807-.523c-.556-.304-.335-.083-.378 0-.043.082-.33-.02.225.285.283.161.581.294.89.399-.812 1.524-.802 2.619.676 2.659 1.698.05 3.666 2.464 4.725 3.96-1.056.724-4.18.897-4.848.925h-.128c.05.552.14 1.1.266 1.641.077.336.178.666.303.988-1.325.238-2.117.533-2.117.857 0 .676 3.464 1.253 8.082 1.38 2.026.224 4.063.334 6.101.332.125 0 .25 0 .346-.015h.05c.1 0 .193-.026.28-.04l.053-.013c.079-.016.157-.037.233-.063l.035-.015c.062-.023.124-.051.183-.083h.022a1.14 1.14 0 0 0 .15-.105l.03-.027a.687.687 0 0 0 .108-.12l.015-.018c3.026-.248 4.954-.692 4.954-1.198z" fill="url(#b)"/><path d="M96.486 176.424s.501 2.35-.085 3.847c-.586 1.496-.501 4.762-.085 5.915.416 1.153 1.858 2.706-2.026 3.42-3.885.715-6.512.07-6.67-.5-.157-.572-1.014-2.85-.338-4.133.676-1.284.93-4.632-.338-6.557-1.267-1.924-.423-4.914.751-5.263 1.175-.348 6.284-3.39 6.284-3.39s-1.89 3.285.138 4.01a3.68 3.68 0 0 1 2.37 2.65z" fill="#575A88"/><path d="M139.187 158.194s-7.814 5.426-11.21 6.894c-3.396 1.469-14.701 6.805-14.701 6.805s-11.39 1.47-13.229 3.862c-1.838 2.39-4.41 5.15-4.41 5.15l-2.021-11.218s22.417-11.586 22.6-12.413c.183-.827 6.617-3.311-12.126-3.218-16.425.082-22.478 1.15-23.85-1.123-.2-.36-.309-.764-.316-1.175-.185-3.76 22.052-20.414 22.052-20.414s1.087.567 2.384 1.329c1.423.832 3.096 1.902 3.864 2.719 1.47 1.561 5.052 2.022 5.052 2.022l21.869 6.812s6.431 2.023 6.614 7.724c.183 5.702-2.572 6.244-2.572 6.244z" fill="#AAC9F5"/><path d="M141.759 151.943c-.183-5.712-6.614-7.717-6.614-7.717l-21.87-6.804s-3.58-.461-5.05-2.023c-.77-.817-2.442-1.887-3.865-2.719-1.297-.752-2.384-1.328-2.384-1.328s-22.237 16.641-22.052 20.413c.007.412.116.816.316 1.175 1.372 2.274 7.425 1.206 23.85 1.123 18.743-.092 12.309 2.391 12.126 3.218-.183.827-22.6 12.414-22.6 12.414l.045.25c-1.137.672-4.954 2.9-5.958 3.2-1.182.36-2.026 3.352-.751 5.264 1.274 1.912 1.001 5.263.338 6.556-.664 1.293.168 3.561.338 4.133.17.571 2.785 1.21 6.67.501 3.884-.71 2.449-2.28 2.025-3.42-.423-1.141-.5-4.42.085-5.916.041-.105.076-.212.106-.32.914-1.003 2.374-2.68 3.54-4.196 1.84-2.39 13.23-3.862 13.23-3.862s11.302-5.33 14.7-6.804c3.399-1.474 11.21-6.895 11.21-6.895s2.75-.546 2.565-6.243zm-47.635 21.804c-1.52-.536-.839-2.519-.403-3.476l.644 3.574c-.078-.025-.155-.06-.24-.09v-.008z" fill="#000" fill-rule="nonzero" opacity=".1"/><path d="M110.796 157.597s6.34 24.273 6.845 26.34c.506 2.068.501 5.84.501 5.84s2.39-.138 2.71-.501c.32-.364-1.252-7.401-1.252-7.401l.458-19.677-6.707-5.654-2.555 1.053z" fill="#D5838E"/><path fill="#FFCCD0" d="M94.272 170.662h4.961v4.276h-4.961z"/><path d="M97.864 176.424s.5 2.35-.086 3.847c-.586 1.496-.5 4.762-.082 5.915.418 1.153 1.856 2.706-2.029 3.42-3.884.715-6.511.07-6.67-.5-.157-.572-1.014-2.85-.337-4.133.676-1.284.929-4.632-.338-6.557-1.268-1.924-.421-4.914.75-5.263 1.173-.348 6.282-3.39 6.282-3.39s-1.888 3.285.138 4.01a3.68 3.68 0 0 1 2.372 2.65zM102.62 129.189s11.988 3.631 13.413 4.276c1.425.644 6.294 2.897 5.467 5.93-.826 3.032-7.58 3.358-7.58 3.358l-10.291-3.817-4.042-8.183 3.032-1.564z" fill="#575A88"/><path d="M106.524 87.084s-.591.92-1.393 2.328c-.065.116-.135.236-.202.361-2.192 3.903-5.633 10.925-3.437 13.17 3.103 3.173-7.097-1.791-7.097-1.791l-.25-.449-4.165-7.551s3.273-3.309 5.244-6.21c.032-.046.065-.093.095-.141.88-1.316 1.473-2.534 1.345-3.303-.128-.77.841-.712 2.221-.226 2.918 1.01 7.639 3.812 7.639 3.812z" fill="#CD828D"/><path d="M106.524 87.084s-.591.92-1.393 2.328c-.065.116-.135.236-.202.361a8.009 8.009 0 0 1-4.556.484 8.031 8.031 0 0 1-5.049-3.18c-.033-.043-.063-.088-.095-.136.032-.045.065-.092.095-.14.88-1.316 1.473-2.534 1.345-3.303-.128-.77.841-.712 2.221-.226 2.913 1.01 7.634 3.812 7.634 3.812z" fill="#000" opacity=".1"/><path d="M109.9 82.04c0 4.455-3.61 8.067-8.062 8.067a8.064 8.064 0 0 1-8.008-9.043 8.06 8.06 0 0 1 8.489-7.075 8.063 8.063 0 0 1 7.57 8.05h.01z" fill="#CD828D"/><path d="M107.876 76.698c-.486.163-.806.502-1.252.752-.779.441-1.813.429-2.554.86-.614.356-.614 1.103-.877 1.694-.689 1.546-3.178 1.942-4.303 3.258-.093.11-.176.226-.25.348-.611 1.033-.25 2.276.225 3.364a27.29 27.29 0 0 0 1.811 3.521c.611 1.003 1.317 2.108.942 3.188-.611 1.754-3.602 2.163-4.473 3.842-.25.501-.298 1.06-.571 1.551-.459.833-1.403 1.254-2.43 1.627l-4.164-7.551s3.38-3.416 5.339-6.351a8.069 8.069 0 0 1 1.457-11.048 8.055 8.055 0 0 1 11.095.955l.005-.01z" fill="#000" opacity=".1"/><path d="M110.523 74.989c-.435-.501-1.122-.832-1.44-1.39-.153-.342-.263-.7-.328-1.069a3.806 3.806 0 0 0-2.329-2.406 4.92 4.92 0 0 0-3.661.08c-.541.251-1.02.577-1.58.78-1.165.416-2.505.188-3.702-.145-1.197-.334-2.397-.775-3.662-.767-1.264.007-2.637.631-2.885 1.684-.043.284-.07.57-.08.857-.15 1.273-1.315 2.3-2.577 3.008-1.262.706-2.69 1.19-3.86 2.005-1.169.814-2.083 2.075-1.767 3.328.195.78.824 1.416 1.327 2.09 1.27 1.702 1.778 3.722 2.254 5.697.17.686.34 1.398.175 2.087-.295 1.241-1.575 2.103-2.412 3.15-1.036 1.304-1.39 2.933-1.314 4.512.075 1.579.543 3.11 1.026 4.632.153.568.39 1.11.707 1.606.608.87 1.655 1.441 2.664 1.977.443.284.95.45 1.473.487 1.11-.015 1.753-1.068 1.991-1.988.193-.762.27-1.548.228-2.333a1.7 1.7 0 0 1 .078-.832c.15-.261.373-.473.64-.612 1.586-.952 3.983-1.12 4.804-2.614.27-.5.313-1.052.571-1.549.87-1.681 3.86-2.082 4.473-3.844.376-1.08-.33-2.19-.941-3.19a26.465 26.465 0 0 1-1.816-3.51c-.464-1.087-.84-2.33-.228-3.363.947-1.601 3.81-1.924 4.555-3.601.263-.59.263-1.338.877-1.694.751-.429 1.776-.421 2.555-.86.5-.288.851-.69 1.467-.82.804-.167 1.919.48 2.602.138.614-.323.471-1.125.115-1.531z" fill="#663D5C"/><path d="M110.433 74.989c-.435-.501-1.124-.832-1.442-1.39a4.702 4.702 0 0 1-.328-1.069 3.758 3.758 0 0 0-2.107-2.305c.519.436.9 1.013 1.097 1.661.065.368.174.727.326 1.068.318.559 1.002.892 1.443 1.39.355.407.5 1.211-.108 1.505-.681.34-1.796-.304-2.6-.136-.616.128-.959.53-1.467.817-.78.441-1.814.431-2.555.863-.614.353-.614 1.102-.876 1.691-.752 1.677-3.61 2.005-4.559 3.602-.61 1.032-.232 2.278.23 3.363a26.939 26.939 0 0 0 1.814 3.509c.614 1.002 1.317 2.108.944 3.188-.613 1.754-3.604 2.163-4.475 3.844-.25.502-.298 1.058-.569 1.55-.824 1.503-3.22 1.663-4.803 2.613-.268.138-.49.35-.641.612a1.673 1.673 0 0 0-.078.832 7.807 7.807 0 0 1-.228 2.333c-.233.922-.884 1.972-1.99 1.987a3.134 3.134 0 0 1-1.476-.486c-.22-.118-.446-.238-.666-.363.534.374 1.095.709 1.678 1.002.443.284.95.451 1.475.487 1.107-.015 1.753-1.068 1.99-1.988a7.805 7.805 0 0 0 .226-2.333 1.7 1.7 0 0 1 .08-.832c.15-.261.372-.473.64-.612 1.584-.952 3.981-1.12 4.805-2.614.27-.501.31-1.052.569-1.549.871-1.681 3.861-2.082 4.473-3.844.375-1.08-.329-2.19-.942-3.19a26.769 26.769 0 0 1-1.816-3.51c-.463-1.087-.839-2.33-.228-3.363.95-1.601 3.81-1.925 4.556-3.601.263-.59.265-1.339.876-1.694.752-.429 1.776-.421 2.555-.86.5-.288.851-.69 1.467-.82.804-.167 1.919.48 2.603.138.603-.288.46-1.09.107-1.496z" fill="#000" opacity=".1"/><path d="M198.863 112.084s1.252 5.263 4.007 8.042l1.104-2.4-1.38-4.379-3.731-1.263z" fill="#F26383"/><path d="M202.584 113.347l-3.721-1.253s1.252 5.263 4.007 8.042" fill="#000" opacity=".1"/><path d="M247.604 124.635l-.04.033a2.626 2.626 0 0 1-3.584-.329l-10.519-11.812-.273-.305 5.51-6.346 1.002.644.225.406c.862 1.516 3.9 6.82 4.92 7.684 1.201 1.013 4.139 8.92 2.759 10.025z" fill="#FFC1C7"/><path d="M144.424 158.512s-2.825 2.897-4.759 3.173c-1.933.275-3.506 6.483-.826 6.965 2.68.48 7.854-1.45 8.612-2.276.76-.827 3.507-5.724 3.507-5.724l-6.534-2.138z" fill="#FFD6DB"/><path d="M203.641 117.828l-1.372.777c-2.12 1.178-5.988 3.29-6.484 3.223-.69-.09-.827-6.571-.827-6.571l3.664-2.71.378-.283 1.105-.413 3.536 5.977z" fill="#FFC1C7"/><path d="M203.641 117.828l-1.372.777a8.42 8.42 0 0 0-3.647-6.058l.378-.283 1.105-.413 3.536 5.977z" fill="#000" opacity=".1"/><path d="M211.405 110.29l-4.273 7.62-2.957 1.527-1.315.68c.368-5.745-4.007-8.043-4.007-8.043 1.194-.25 8.572-6.865 9.654-7.837l.133-.118 1.002-.138 1.763 6.308z" fill="#7980CA"/><path d="M224.866 151.434l-3.629-2.757 11.851-39.348 4.183 1.564-3.17 6.25-3.492 19.49s-2.064 13.884-5.743 14.801z" fill="#E4AAB4"/><path d="M238.969 105.049l-12.495-.093s-10.934 3.035-10.018-1.378c.574-2.757-.789-6.2-1.896-8.394-.132-.265-.25-.516-.388-.752-.478-.887-.839-1.436-.839-1.436s1.3-.215 2.94-.446c.752-.11 1.598-.22 2.41-.318.425-.053.841-.095 1.234-.138 1.608-.158 2.873-.195 2.873.075 0 .271.25.92.656 1.755.063.132.135.27.206.408a17.964 17.964 0 0 0 1.978 3.035c.401.506.868.956 1.388 1.339.185.128.38.243.583.343.307.151.634.257.972.313 1.395.236 2.677-.373 4.508.17 2.49.735 5.888 5.517 5.888 5.517z" fill="#FFC1C7"/><path d="M172.947 135.85s-10.519 5.792-11.165 8.09c-.646 2.299 1.563 4.138 1.563 4.138s.368 1.978.5 3.449c.133 1.471 1.836 15.77 2.618 16.965.781 1.195.137 5.701.137 5.701h2.54l-.183-6.897s-2.85-20.273-.46-22.343c2.388-2.07 4.364-4.413 5.053-4.23.689.183-.603-4.873-.603-4.873z" fill="#E4AAB4"/><path d="M159.999 127.622s-6.893 13.17-7.03 14.963c-.138 1.792-5.996 9.378-5.996 9.378l7.306 9.24s.964-2.343 2.62-3.17c1.655-.827 1.307-2.69 1.307-2.69s1.723 0 2.965-2.07c1.242-2.07 2.755-4.137 2.755-5.032 0-.894 9.096-10.275 9.096-10.275l-.689-10-1.86-3.173-10.474 2.83z" fill="#BDD2E8"/><path d="M142.082 128.38l-.06.052c-.837.752-10.208 9.06-10.208 9.258 0 .198-3.376 5.792.826 10.619 4.203 4.827 13.852 12.757 13.852 12.757s4.203 3.035 4.759 3.656c.556.622 8.89 0 3.93-5.654-4.962-5.654-9.648-12-9.648-12s8.265-2.005 8.82-3.378c.557-1.373-10.889-18.621-10.889-18.621l-1.382 3.31z" fill="#000" opacity=".1"/><path d="M141.806 128.38l-.06.052c-.836.752-10.208 9.06-10.208 9.258 0 .198-3.376 5.784.837 10.619 4.212 4.834 13.852 12.757 13.852 12.757s4.202 3.035 4.758 3.656c.556.622 8.891 0 3.93-5.654-4.962-5.654-9.647-12-9.647-12s8.264-2.005 8.818-3.378c.553-1.373 11.44-18.276 11.44-18.276l-22.327-.345-1.393 3.31z" fill="#BDD2E8"/><path d="M165.649 91.28l-.827 7.518s-8.477 3.379-8.683 3.311c-.205-.068-5.65-4.965-4.758-8.205.45-1.627.656-3.88.751-5.72.095-1.84.078-3.245.078-3.245s12.334-4.414 11.232-1.381c-.4 1.1-.22 2.423.173 3.656a17.017 17.017 0 0 0 2.034 4.066z" fill="#CF6F80"/><path d="M90.26 75.626l-.017.045a39.286 39.286 0 0 0-2.33 6.413l-.075.293c-.39 1.471-.563 2.99-.516 4.512.168 3.288 1.836 4.047 1.836 4.047s-25.22-4.135-21.087-4.827c.666-.11 1.392-.524 2.149-1.138 1.42-1.158 2.935-3.037 4.287-4.967.501-.712.984-1.434 1.425-2.123.03-.045.063-.092.09-.138 1.648-2.571 2.8-4.736 2.8-4.736s17.366-10.484 11.438 2.619z" fill="#FFCCD0"/><path d="M215.22 156.256s6.338 24.273 6.844 26.34c.506 2.068.5 5.84.5 5.84s2.387-.138 2.71-.501c.323-.363-1.252-7.4-1.252-7.4l.459-19.677-6.707-5.654-2.555 1.052z" fill="#D5838E"/><path d="M218.938 148.54c.14 0 6.341.137 6.341.137l.459 4.369s-.183 8.27.275 9.523c.459 1.254 4.548 23.722 4.548 23.722s1.288 7.907 1.195 9.837l-2.985.644s.596-1.702-.276-4.872c-.871-3.17-2.572-9.103-2.572-9.103l-2.159-9.749s-.368-17.293-13.644-16.541c-13.276.752-14.012 10.275-14.012 10.275s-4.508 18.62-5.285 20.92c-.776 2.3-1.194 7.952-1.194 7.952l-3.03-.275 1.001-15.038 2.803-30.942 8.637-.596 19.898-.263z" fill="#E4AAB4"/><path d="M85.1 160.266s-6.338 24.276-6.844 26.343c-.506 2.068-.5 5.84-.5 5.84s-2.39-.138-2.71-.502c-.321-.363 1.23-7.41 1.23-7.41l-.46-19.677 6.72-5.654 2.565 1.06z" fill="#D5838E"/><path d="M81.38 152.54c-.138 0-6.34.137-6.34.137l-.46 4.366s.185 8.27-.276 9.524c-.46 1.253-4.54 23.716-4.54 23.716s-1.285 7.908-1.195 9.837l2.988.644s-.599-1.701.275-4.872c.874-3.17 2.572-9.102 2.572-9.102l2.16-9.747s.367-17.293 13.643-16.541c13.276.752 14.005 10.29 14.005 10.29s4.508 18.62 5.282 20.917c.774 2.299 1.195 7.955 1.195 7.955l3.033-.276-1.002-15.037-2.813-30.94-8.635-.596-19.893-.276z" fill="#E4AAB4"/><path d="M163.618 87.212c-.076.088-.153.17-.228.25a8.26 8.26 0 0 1-11.255.717c.092-1.827.077-3.245.077-3.245s12.335-4.414 11.233-1.381c-.4 1.103-.22 2.426.173 3.659z" fill="#000" opacity=".1"/><path d="M165.649 81.51c0 4.568-3.7 8.27-8.265 8.27-4.564 0-8.265-3.702-8.265-8.27 0-4.567 3.7-8.27 8.265-8.27a8.217 8.217 0 0 1 5.857 2.409 8.228 8.228 0 0 1 2.408 5.861z" fill="#CF6F80"/><path d="M140.564 158.194s-7.809 5.426-11.21 6.894c-3.4 1.469-14.698 6.805-14.698 6.805s-11.393 1.47-13.231 3.862c-1.838 2.39-4.41 5.15-4.41 5.15l-2.022-11.218s22.418-11.586 22.603-12.413c.185-.827 6.617-3.311-12.129-3.218-16.424.082-22.477 1.15-23.85-1.123-.2-.36-.308-.764-.315-1.175-.183-3.76 22.051-20.414 22.051-20.414s1.087.567 2.384 1.329c1.423.832 3.096 1.902 3.865 2.719 1.47 1.561 5.054 2.022 5.054 2.022l21.866 6.812s6.434 2.005 6.622 7.717c.188 5.712-2.58 6.25-2.58 6.25z" fill="#AAC9F5"/><path d="M155.45 99.084s-3.238-7.183-4.342-7.183c-1.105 0-2.825 37.155-2.825 37.155l16.882.266.692-19.509-3.447-17.293s-3.1 6.83-6.96 6.564z" fill="#000" opacity=".1"/><path d="M155.45 99.635s-3.238-7.183-4.342-7.183c-1.105 0-2.825 37.155-2.825 37.155l19.154.291-1.583-19.533-3.446-17.293s-3.098 6.829-6.957 6.563z" fill="#000" opacity=".1"/><path d="M155.45 99.365s-3.238-7.183-4.342-7.183c-1.105 0-2.825 37.155-2.825 37.155l19.154.283-1.583-19.531-3.446-17.293s-3.098 6.82-6.957 6.569z" fill="#FFD6DB"/><path d="M152.308 89.921s-.579-.847-1.405-.571c-.827.275-1.448-.484-2.274.275-.827.76-4.135 1.792-4.759 1.447-.624-.346-2.825 1.172-3.308 2.07-.484.897-2.066 3.31-2.066 3.31s-1.378 1.655-1.173 2.552c.206.897-.48 1.93-1.31 2.343-.828.414-2.479 4.551-2.479 4.551s-1.79 3.795-3.651 4.762c-1.861.968-.484 5.17-.484 5.17l11.02-.343 2.482-5.654s-.964 16.541-2.136 18.068c-1.172 1.526-1.31 2.48-1.31 2.48s4.548.966 5.51 1.795c.961.83 3.506-.208 3.506-.208l2.48-21.997s.896-4.138.896-6.266c0-2.127.46-13.784.46-13.784z" fill="#000" opacity=".1"/><path d="M152.032 89.921s-.578-.847-1.405-.571c-.826.275-1.447-.484-2.274.275-.826.76-4.135 1.792-4.758 1.447-.624-.346-2.825 1.172-3.309 2.07-.483.897-2.066 3.31-2.066 3.31s-1.377 1.655-1.172 2.552c.205.897-.48 1.93-1.31 2.343-.829.414-2.48 4.551-2.48 4.551s-1.792 3.795-3.65 4.762c-1.859.968-.49 5.168-.49 5.168l11.02-.343 2.505-5.654s-.964 16.54-2.136 18.067c-1.172 1.526-1.31 2.481-1.31 2.481s4.548.965 5.51 1.795c.961.83 3.506-.208 3.506-.208l2.48-21.997s.896-4.138.896-6.266.443-13.782.443-13.782z" fill="#575A89"/><path d="M136.845 101.898s.827 2.276 3.1 2.07c2.275-.205-3.1-2.07-3.1-2.07zM139.049 98.452s1.515.276 2.069 1.584c.553 1.309-2.069-1.584-2.069-1.584zM143.322 96.107c0 .275.964 5.102 0 7.102-.965 2-.827 4.346-.827 4.346l.827-11.448zM163.663 88.26s.538-.635 1.09-.567c.55.068.896.414 1.584.69.69.275 2.345.345 2.345.55 0 .206 1.447 1.036 2.411 1.254.965.218 4.007 2.276 4.759 6.265.751 3.99 2.063 5.168 2.063 5.168l-7.305 3.587s5.65 24 6.344 25.736c.693 1.737.751 11.93.751 11.93s-4.478 2.005-5.65 2.621c-1.172.617-.689-5.93-3.1-9.724-2.412-3.794-5.17-9.308-5.17-9.308l-4.2-11.81s-2.687-15.723-.413-18.618c2.274-2.895 4.696-6.74 4.49-7.774z" fill="#000" opacity=".1"/><path d="M163.93 88.26s.54-.635 1.09-.567c.551.068.897.414 1.585.69.69.275 2.345.345 2.345.55 0 .206 1.447 1.036 2.411 1.254.965.218 4.007 2.276 4.759 6.265.751 3.99 2.07 5.168 2.07 5.168l-7.305 3.587s5.65 24 6.342 25.736c.691 1.737.751 11.93.751 11.93s-4.478 2.005-5.65 2.621c-1.172.617-.689-5.93-3.1-9.724-2.412-3.794-5.17-9.308-5.17-9.308l-4.197-11.81s-2.692-15.718-.413-18.613c2.279-2.895 4.696-6.744 4.483-7.78z" fill="#575A89"/><path d="M178.88 118.45c-.203.032-.464.062-.764.09-2.207.203-6.542.25-6.542.25s-3.238-6.413-5.993-6.207c0 0 2.55-2.895 3.581-2.552.176.058.283-.067.334-.316.278-1.23-.677-5.476-.677-5.476l-1.31-5.724 7.581 1.862c.69.138 2.825 1.24 2.825 1.24s.068 2.966.62 3.657c.55.692 1.171 3.998 1.104 4.827-.068.83.75 4.69-.07 5.722-.822 1.033 1.034 2.351-.69 2.627z" fill="#000" opacity=".1"/><path d="M179.155 118.45c-.203.032-.463.062-.751.09-2.207.203-6.542.25-6.542.25s-3.238-6.413-5.993-6.207c0 0 2.55-2.895 3.581-2.552.176.058.283-.067.336-.316.276-1.23-.679-5.476-.679-5.476l-1.31-5.724 7.581 1.862c.69.138 2.825 1.24 2.825 1.24s.068 2.966.62 3.657c.55.692 1.171 3.998 1.104 4.827-.068.83.75 4.69-.07 5.722-.822 1.033 1.021 2.351-.702 2.627z" fill="#575A89"/><path d="M171.369 103.417s6.339.69 6.614 2.276c.276 1.586-6.614-2.276-6.614-2.276z" fill="#000" opacity=".1"/><path d="M150.557 163.62s-.413 2.275.07 3.721c.483 1.446.413 4.622.068 5.725-.346 1.102-1.503 2.621 1.655 3.31 3.158.69 5.305.068 5.442-.483.138-.552.827-2.757.276-4.01-.551-1.254-.752-4.482.275-6.344 1.027-1.862.346-4.762-.618-5.102-.965-.341-2.62-1.103-2.62-1.103s1.793 3.24.138 3.93c-1.656.689-4.686.356-4.686.356z" fill="#FFD6DB"/><path d="M165.649 81.51a8.229 8.229 0 0 1-2.254 5.68.15.15 0 0 1-.02-.04c-.25-.525-.481-1.07-.461-1.645.022-.694.42-1.32.55-2.005.164-.864-.12-1.754-.397-2.581-.206-.612-.599-1.354-1.24-1.28-.124.031-.25.046-.378.044-.343-.052-.411-.501-.451-.842a3.816 3.816 0 0 0-3.116-3.27.954.954 0 0 0-.543.035c-.238.107-.37.368-.586.516-.699.486-1.59-.444-2.44-.374-.72.063-1.161.802-1.46 1.464-.298.662-.67 1.414-1.377 1.569a.43.43 0 0 1-.336-.038c-.22-.16-.067-.5.046-.751.29-.657.095-1.178-.25-1.645a8.261 8.261 0 0 1 9.196-2.651 8.27 8.27 0 0 1 5.532 7.817l-.015-.003z" fill="#000" opacity=".1"/><path d="M151.178 77.713c-.11.25-.263.592-.04.752a.425.425 0 0 0 .333.038c.706-.153 1.08-.91 1.378-1.57.298-.658.75-1.403 1.46-1.463.851-.07 1.74.857 2.439.374.215-.148.348-.409.586-.517a.976.976 0 0 1 .543-.035 3.818 3.818 0 0 1 3.118 3.27c.036.342.106.79.446.843.129.002.257-.013.38-.045.642-.073 1.035.667 1.238 1.278.28.837.564 1.72.4 2.587-.127.684-.528 1.31-.55 2.005-.018.573.223 1.117.46 1.641.239.524.624 1.133 1.193 1.06.466-.06.724-.556.946-.97.223-.413.627-.86 1.08-.729.203.06.413.23.596.128a.431.431 0 0 0 .173-.3c.22-.966-.095-2.049.373-2.918.36-.672 1.092-1.033 1.685-1.504a4.833 4.833 0 0 0 .654-6.917c-.636-.752-1.55-1.404-1.6-2.379-.04-.751.46-1.43.468-2.177.008-.747-.46-1.374-1.002-1.868a6.408 6.408 0 0 0-5.757-1.513c-.534.127-1.072.325-1.616.25-.633-.077-1.16-.501-1.73-.79a4.418 4.418 0 0 0-5.51 1.505c-.654 1.002-.91 2.343-1.883 3.055-.642.468-1.558.644-1.911 1.353-.213.426-.153.932-.088 1.403.1.772.471 1.483 1.047 2.005.58.607 1.092 1.244.691 2.148z" fill="#512E4E"/><path fill="#FFCEB4" d="M143.184 182.376l-.068 13.446-2.482-.208-9.026-73.44 2.665-.08 1.883-.058z"/><path fill="#F8BDA5" d="M143.116 195.822l-2.482-.208-9.026-73.44 2.665-.08-.115.423z"/><path fill="#FFCEB4" d="M155.245 122.312l-9.098 72.82-1.703.387-1.328.303.068-13.446 7.994-59.789.158-.012z"/><path fill="#F8BDA5" d="M144.426 195.479l.018.04-1.328.303.068-13.446 7.994-59.789.158-.012 1.633.356zM176.055 167.136l-.208 4.774-.551 12.742-8.543-62.41 1.951-.213.599-.063z"/><path fill="#FFCEB4" d="M176.055 167.136l-.208 4.774-7.028-49.323-.115-.558.599-.063z"/><path fill="#F8BDA5" d="M178.399 144.723l.205 30.41-1.152-.042-2.432-.096.967-53.235 1.853.231.902.113z"/><path fill="#FFCEB4" d="M178.399 144.723l.205 30.41-1.152-.042.388-53.1.902.113z"/><path fill="#F8BDA5" d="M99.496 121.552l.138-2.067 11.851.067 35.628-.551 27.494 1.516 17.504.346.207 1.93-45 .83z"/><path fill="#FFCEB4" d="M99.634 119.485L134.776 121l57.335-.138-42.861-2.621z"/><path d="M90.26 75.626l-.017.045a39.286 39.286 0 0 0-2.33 6.413l-.075.293c-.96.28-1.953.422-2.952.421-2.66 0-3.86-2.791-5.72-4.413-.732-.634-2.61.444-3.144-.368a1.306 1.306 0 0 1-.09-.138c.03-.045.063-.093.09-.138a75.804 75.804 0 0 0 2.8-4.737s17.366-10.481 11.438 2.622z" fill="#000" opacity=".1"/><path d="M95.5 71.901c0 5.393-4.04 9.93-9.393 10.55a10.612 10.612 0 0 1-11.55-8.127 10.62 10.62 0 0 1 6.74-12.415 10.608 10.608 0 0 1 13.098 5.276 10.635 10.635 0 0 1 1.104 4.716z" fill="#FFCCD0"/><path d="M89.158 90.934s-25.22-4.136-21.087-4.827c.666-.11 1.392-.524 2.149-1.138.147.173.26.372.333.586l4.685-.551s5.973-1.288 8.36.185c1.176.7 2.425 1.269 3.724 1.697.168 3.288 1.836 4.048 1.836 4.048zM105.737 132.673c-.135.105-.289.185-.453.235-1.194.369-2.667 5.885-2.667 5.885s-15.307 14.706-21 14.14c-.2-.36-.308-.764-.315-1.175-.183-3.76 22.051-20.414 22.051-20.414s1.087.567 2.384 1.329z" fill="#000" opacity=".1"/><path d="M146.019 117.197c0 1.396-2.44 2.791-5.45 2.791-3.01 0-5.44-1.395-5.44-2.791s2.44-2.256 5.448-2.256c3.008 0 5.442.86 5.442 2.256z" fill="#E8EAF2"/><path d="M146.019 117.197c0 1.396-2.44 2.791-5.45 2.791-3.01 0-5.44-1.395-5.44-2.791s2.44-2.256 5.448-2.256c3.008 0 5.442.86 5.442 2.256z" fill="#000" opacity=".1"/><ellipse fill="#E8EAF2" cx="140.572" cy="117.197" rx="5.447" ry="2.526"/><ellipse fill="#000" opacity=".05" cx="140.587" cy="117.292" rx="3.251" ry="1.311"/><path d="M148.113 114.25c-.11-.688-1.015-1.139-2.174-1.164a4.868 4.868 0 0 0-.92.065c-1.567.251-2.727 1.153-2.589 2.005.108.677 1.002 1.128 2.136 1.16.32.01.64-.01.955-.062 1.57-.245 2.73-1.148 2.592-2.005zm-2.663 1.57a3.439 3.439 0 0 1-.5.046c-.907.025-1.636-.309-1.721-.832-.098-.617.734-1.253 1.858-1.444.268-.044.539-.057.81-.04.75.053 1.332.366 1.404.827.1.617-.726 1.263-1.85 1.444z" fill="#F1CEC8" fill-rule="nonzero"/><path d="M143.189 117.069a.58.58 0 0 1-.133.358c-.34.449-1.297.772-2.427.772-1.052 0-1.956-.278-2.351-.68a.65.65 0 0 1-.21-.45c0-.627 1.146-1.133 2.561-1.133s2.56.506 2.56 1.133z" fill="#F1CEC8"/><path d="M143.189 117.069a.58.58 0 0 1-.133.358 4.913 4.913 0 0 1-2.179.501h-.613a4.95 4.95 0 0 1-1.986-.413.65.65 0 0 1-.21-.451c0-.627 1.146-1.133 2.561-1.133s2.56.511 2.56 1.138zM145.939 113.086c0 .156-.018.311-.038.464a3.574 3.574 0 0 0-.809.04c-1.124.183-1.956.827-1.858 1.444.085.523.814.857 1.72.832-.12.16-.25.313-.388.458-1.142-.032-2.028-.483-2.136-1.16-.138-.86 1.022-1.754 2.59-2.005.303-.053.61-.078.919-.073z" fill="#000" opacity=".1"/><path d="M135.315 112.192v.706a4.95 4.95 0 0 0 4.949 4.953h.626a4.95 4.95 0 0 0 4.936-4.953v-.706h-10.511z" fill="#F1CEC8"/><ellipse fill="#F6E2DF" cx="140.547" cy="112.036" rx="5.282" ry="1.504"/><ellipse fill="#000" opacity=".1" cx="140.572" cy="111.941" rx="5.006" ry="1.358"/><ellipse fill="#FDF9F9" cx="140.587" cy="111.891" rx="4.891" ry="1.358"/><path d="M137.148 112.527a.275.275 0 1 1 0-.55.275.275 0 0 1 0 .55zm0-.446a.175.175 0 1 0 0 .35.175.175 0 0 0 0-.35z" fill="#42312E" fill-rule="nonzero" opacity=".3"/><path d="M137.31 112.24a.275.275 0 0 1-.2-.47.275.275 0 0 1 .47.193c0 .15-.12.273-.27.276zm0-.452a.175.175 0 0 0-.13.298.175.175 0 0 0 .3-.123.175.175 0 0 0-.17-.175z" fill="#42312E" fill-rule="nonzero" opacity=".3"/><path d="M137.148 111.8a.275.275 0 1 1 0-.55.275.275 0 0 1 0 .55zm0-.45a.175.175 0 1 0 0 .35.175.175 0 0 0 0-.35zM138.162 112.823a.275.275 0 0 1-.201-.469.275.275 0 0 1 .471.193c0 .15-.12.273-.27.276zm0-.451a.17.17 0 0 0-.175.175.176.176 0 0 0 .268.177.176.176 0 0 0 .077-.177.17.17 0 0 0-.17-.175zM142.214 112.552a.275.275 0 1 1 0-.55.275.275 0 0 1 0 .55zm0-.45a.175.175 0 1 0 0 .35.175.175 0 0 0 0-.35zM143.116 112.908a.275.275 0 1 1 0-.55.275.275 0 0 1 0 .55zm0-.45a.175.175 0 1 0 .175.175.176.176 0 0 0-.175-.196v.02zM143.146 112.327a.275.275 0 1 1 0-.55.275.275 0 0 1 0 .55zm0-.451a.175.175 0 1 0 0 .35.175.175 0 0 0 0-.35zM143.572 111.4a.275.275 0 1 1 .275-.276.271.271 0 0 1-.275.276zm0-.452a.175.175 0 0 0-.17.176.176.176 0 0 0 .268.176.176.176 0 0 0 .077-.176.176.176 0 0 0-.175-.186v.01z" fill="#42312E" fill-rule="nonzero" opacity=".3"/><path d="M143.364 112.673a.275.275 0 1 1 0-.55.275.275 0 0 1 0 .55zm0-.446a.175.175 0 1 0 .175.175.176.176 0 0 0-.175-.19v.015z" fill="#42312E" fill-rule="nonzero" opacity=".3"/><path d="M143.867 112.392a.275.275 0 0 1-.201-.469.275.275 0 0 1 .471.193c0 .15-.12.273-.27.276zm0-.451a.175.175 0 0 0-.13.298.175.175 0 0 0 .3-.123.175.175 0 0 0-.17-.165v-.01z" fill="#42312E" fill-rule="nonzero" opacity=".3"/><path d="M143.817 112.715a.275.275 0 0 1-.201-.468.275.275 0 0 1 .471.193.271.271 0 0 1-.27.275zm0-.446a.175.175 0 0 0-.176.27.175.175 0 0 0 .176.076.175.175 0 0 0 .176-.269.175.175 0 0 0-.176-.077zM143.66 111.888a.275.275 0 1 1 0-.55.275.275 0 0 1 0 .55zm0-.45a.175.175 0 1 0 .174.175.175.175 0 0 0-.175-.16v-.016zM144.41 111.713a.275.275 0 1 1 .001-.55.275.275 0 0 1 0 .55zm0-.451a.175.175 0 1 0 .001.35.175.175 0 0 0 0-.35zM142.214 111.382a.275.275 0 1 1 0-.55.275.275 0 0 1 0 .55zm0-.451a.175.175 0 1 0 0 .35.175.175 0 0 0 0-.35z" fill="#42312E" fill-rule="nonzero" opacity=".3"/><path d="M141.693 111.169a.275.275 0 0 1-.194-.47.275.275 0 0 1 .47.194.275.275 0 0 1-.276.276zm0-.446a.175.175 0 1 0 .175.17.176.176 0 0 0-.175-.195v.025zM140.549 111.244a.275.275 0 0 1-.202-.469.275.275 0 0 1 .472.194c0 .15-.12.272-.27.275zm0-.45a.175.175 0 0 0-.13.297.175.175 0 0 0 .3-.122.175.175 0 0 0-.17-.176zM141.53 112.598a.275.275 0 0 1-.2-.47.275.275 0 0 1 .47.194c0 .15-.12.273-.27.276zm0-.452a.175.175 0 1 0 0 .35.175.175 0 0 0 0-.35zM137.804 112.735a.275.275 0 1 1 0-.55.275.275 0 0 1 0 .55zm0-.45a.175.175 0 1 0 0 .35.175.175 0 0 0 0-.35zM138.382 112.422a.275.275 0 1 1 .001-.55.275.275 0 0 1 0 .55zm0-.451a.175.175 0 1 0 .175.175.176.176 0 0 0-.175-.19v.015z" fill="#42312E" fill-rule="nonzero" opacity=".3"/><path d="M138.876 112.578a.275.275 0 0 1-.193-.473.274.274 0 0 1 .468.202.275.275 0 0 1-.275.27zm0-.447a.175.175 0 1 0 0 .35.175.175 0 0 0 0-.35z" fill="#42312E" fill-rule="nonzero" opacity=".3"/><path d="M138.963 112.234a.275.275 0 1 1 0-.55.275.275 0 0 1 0 .55zm0-.446a.175.175 0 1 0 0 .35.175.175 0 0 0 0-.35z" fill="#42312E" fill-rule="nonzero" opacity=".3"/><path d="M138.966 111.92a.275.275 0 1 1 0-.55.275.275 0 0 1 0 .55zm0-.445a.175.175 0 1 0 .175.175.175.175 0 0 0-.175-.16v-.015zM139.104 113.019a.275.275 0 1 1 0-.551.275.275 0 0 1 0 .55zm0-.451a.175.175 0 1 0 0 .35.175.175 0 0 0 0-.35zM140.476 113.051a.275.275 0 0 1-.201-.469.275.275 0 0 1 .471.194c0 .15-.12.272-.27.275zm0-.45a.175.175 0 0 0-.13.297.175.175 0 0 0 .3-.122.175.175 0 0 0-.17-.176z" fill="#42312E" fill-rule="nonzero" opacity=".3"/><path d="M140.3 112.715a.275.275 0 0 1-.194-.47.275.275 0 0 1 .47.195.275.275 0 0 1-.275.275zm0-.446a.175.175 0 1 0 .001.35.175.175 0 0 0 0-.35zM139.615 112.552a.275.275 0 0 1-.202-.468.275.275 0 0 1 .472.193c0 .15-.12.273-.27.275zm0-.45a.175.175 0 1 0 0 .35.175.175 0 0 0 0-.35zM141.082 112.011a.275.275 0 1 1 0-.55.275.275 0 0 1 0 .55zm0-.451a.175.175 0 1 0 0 .35.175.175 0 0 0 0-.35z" fill="#42312E" fill-rule="nonzero" opacity=".3"/><path d="M140.459 112.392a.275.275 0 1 1 0-.55.275.275 0 0 1 0 .55zm0-.451a.175.175 0 1 0 .175.175.175.175 0 0 0-.175-.165v-.01zM141.185 111.615a.275.275 0 1 1 0-.55.275.275 0 0 1 0 .55zm0-.451a.175.175 0 1 0 0 .35.175.175 0 0 0 0-.35z" fill="#42312E" fill-rule="nonzero" opacity=".3"/><path d="M141.132 111.242a.275.275 0 1 1 0-.551.275.275 0 0 1 0 .55zm0-.451a.175.175 0 1 0 0 .35.175.175 0 0 0 0-.35z" fill="#42312E" fill-rule="nonzero" opacity=".3"/><path d="M140.844 111.625a.275.275 0 1 1 0-.55.275.275 0 0 1 0 .55zm0-.45a.175.175 0 1 0 0 .35.175.175 0 0 0 0-.35zM140.138 112.272a.275.275 0 1 1 .275-.27.271.271 0 0 1-.275.27zm0-.446a.175.175 0 0 0-.176.269.175.175 0 0 0 .176.077.175.175 0 0 0 .176-.27.175.175 0 0 0-.176-.076z" fill="#42312E" fill-rule="nonzero" opacity=".3"/><path d="M139.615 112.172a.275.275 0 0 1-.202-.47.275.275 0 0 1 .472.194.271.271 0 0 1-.27.276zm0-.447a.175.175 0 0 0-.176.27.175.175 0 0 0 .176.076.175.175 0 0 0 .175-.269.175.175 0 0 0-.175-.077zM140.3 111.527a.275.275 0 0 1-.194-.47.275.275 0 0 1 .47.195.275.275 0 0 1-.275.275zm0-.45a.175.175 0 1 0 .001.35.175.175 0 0 0 0-.35zM139.24 111.57a.175.175 0 1 1 0-.35.175.175 0 0 1 0 .35zm0-.286a.11.11 0 1 0 0 .22.11.11 0 0 0 0-.22z" fill="#42312E" fill-rule="nonzero" opacity=".3"/><path d="M139.505 111.738a.175.175 0 1 1 0-.35.175.175 0 0 1 0 .35zm0-.286a.11.11 0 1 0 0 .22.11.11 0 0 0 0-.22zM140.807 111.036a.175.175 0 1 1 0-.35.175.175 0 0 1 0 .35zm0-.286a.11.11 0 1 0 0 .22.11.11 0 0 0 0-.22zM140.997 112.502a.175.175 0 1 1 0-.35.175.175 0 0 1 0 .35zm0-.285a.11.11 0 1 0 0 .22.11.11 0 0 0 0-.22z" fill="#42312E" fill-rule="nonzero" opacity=".3"/><path d="M141.228 112.605a.175.175 0 1 1 0-.35.175.175 0 0 1 0 .35zm0-.286a.11.11 0 1 0 0 .22.11.11 0 0 0 0-.22zM140.947 112.26a.175.175 0 0 1-.175-.176.175.175 0 1 1 .175.175zm0-.286a.11.11 0 1 0 0 .22.11.11 0 0 0 0-.22zM142.658 111.445a.175.175 0 1 1 0-.35.175.175 0 0 1 0 .35zm0-.286a.11.11 0 0 0-.11.115.11.11 0 1 0 .22 0 .11.11 0 0 0-.11-.115z" fill="#42312E" fill-rule="nonzero" opacity=".3"/><path d="M142.768 111.668a.175.175 0 0 1-.13-.298.175.175 0 0 1 .3.122.175.175 0 0 1-.17.176zm0-.286a.11.11 0 1 0 0 .22.11.11 0 0 0 0-.22z" fill="#42312E" fill-rule="nonzero" opacity=".3"/><path d="M142.678 111.876a.175.175 0 0 1-.175-.176.17.17 0 0 1 .175-.175.175.175 0 0 1 0 .35zm0-.286a.105.105 0 0 0-.11.11.11.11 0 1 0 .11-.11zM142.45 112.515a.175.175 0 1 1 0-.35.175.175 0 0 1 0 .35zm0-.286a.11.11 0 0 0-.11.115.11.11 0 1 0 .22 0 .11.11 0 0 0-.11-.115zM143.835 111.916a.175.175 0 1 1 0-.35.175.175 0 0 1 0 .35zm0-.286a.11.11 0 1 0 0 .22.11.11 0 0 0 0-.22zM141.781 112.447a.175.175 0 1 1 0-.35.175.175 0 0 1 0 .35zm0-.285a.11.11 0 1 0 0 .22.11.11 0 0 0 0-.22z" fill="#42312E" fill-rule="nonzero" opacity=".3"/><path d="M142.505 112.089a.175.175 0 1 1 0-.35.175.175 0 0 1 0 .35zm0-.286a.11.11 0 1 0 0 .22.11.11 0 0 0 0-.22zM142.214 112.693a.175.175 0 1 1 0-.35.175.175 0 0 1 0 .35zm0-.286a.11.11 0 0 0-.11.11.11.11 0 1 0 .11-.11zM144.124 112.101a.175.175 0 0 1-.175-.175.176.176 0 0 1 .268-.177.176.176 0 0 1 .077.177.175.175 0 0 1-.17.175zm0-.29a.115.115 0 0 0-.12.177.115.115 0 0 0 .12.048c.06 0 .11-.05.11-.11a.11.11 0 0 0-.11-.116zM143.013 111.144a.175.175 0 0 1-.13-.298.175.175 0 0 1 .3.123.175.175 0 0 1-.17.175zm0-.286a.11.11 0 1 0 0 .22.11.11 0 0 0 0-.22zM140.056 111.036a.175.175 0 1 1 0-.35.175.175 0 0 1 0 .35zm0-.286a.11.11 0 1 0 0 .22.11.11 0 0 0 0-.22zM137.566 111.773a.175.175 0 1 1 0-.35.175.175 0 0 1 0 .35zm0-.286a.11.11 0 1 0 0 .22.11.11 0 0 0 0-.22z" fill="#42312E" fill-rule="nonzero" opacity=".3"/><path d="M139.737 111.144a.175.175 0 1 1 0-.35.175.175 0 0 1 0 .35zm0-.286a.11.11 0 1 0 0 .22.11.11 0 0 0 0-.22zM137.794 112.177a.175.175 0 1 1 0-.35.175.175 0 0 1 0 .35zm0-.286a.11.11 0 1 0 0 .22.11.11 0 0 0 0-.22zM138.112 111.65a.175.175 0 0 1-.13-.297.175.175 0 0 1 .3.122.175.175 0 0 1-.17.175zm0-.286a.11.11 0 1 0 0 .22.11.11 0 0 0 0-.22zM136.527 112.011a.175.175 0 1 1 0-.35.175.175 0 0 1 0 .35zm0-.286a.11.11 0 0 0-.11.11.11.11 0 1 0 .11-.11zM138.738 112.78a.175.175 0 1 1 0-.35.175.175 0 0 1 0 .35zm0-.285a.11.11 0 1 0 0 .22.11.11 0 0 0 0-.22zM139.37 112.823a.175.175 0 1 1 0-.35.175.175 0 0 1 0 .35zm0-.286a.11.11 0 1 0 0 .22.11.11 0 0 0 0-.22z" fill="#42312E" fill-rule="nonzero" opacity=".3"/><ellipse fill="#42312E" opacity=".3" cx="136.715" cy="112.091" rx="1" ry="1"/><ellipse fill="#42312E" opacity=".3" cx="137.218" cy="111.124" rx="1" ry="1"/><ellipse fill="#42312E" opacity=".3" cx="137.912" cy="111.563" rx="1" ry="1"/><ellipse fill="#42312E" opacity=".3" cx="137.461" cy="110.936" rx="1" ry="1"/><ellipse fill="#42312E" opacity=".3" cx="139.996" cy="111.405" rx="1" ry="1"/><ellipse fill="#42312E" opacity=".3" cx="137.804" cy="111.299" rx="1" ry="1"/><ellipse fill="#42312E" opacity=".3" cx="137.549" cy="111.269" rx="1" ry="1"/><ellipse fill="#42312E" opacity=".3" cx="138.05" cy="111.791" rx="1" ry="1"/><ellipse fill="#42312E" opacity=".3" cx="141.857" cy="111.387" rx="1" ry="1"/><ellipse fill="#42312E" opacity=".3" cx="142.873" cy="111.585" rx="1" ry="1"/><ellipse fill="#42312E" opacity=".3" cx="142.59" cy="112.46" rx="1" ry="1"/><ellipse fill="#42312E" opacity=".3" cx="142.979" cy="112.167" rx="1" ry="1"/><ellipse fill="#42312E" opacity=".3" cx="141.836" cy="112.527" rx="1" ry="1"/><ellipse fill="#42312E" opacity=".3" cx="141.581" cy="111.38" rx="1" ry="1"/><ellipse fill="#42312E" opacity=".3" cx="140.735" cy="112.375" rx="1" ry="1"/><ellipse fill="#42312E" opacity=".3" cx="142.265" cy="111.613" rx="1" ry="1"/><ellipse fill="#42312E" opacity=".3" cx="141.521" cy="112.595" rx="1" ry="1"/><ellipse fill="#42312E" opacity=".3" cx="138.453" cy="112.46" rx="1" ry="1"/><ellipse fill="#42312E" opacity=".3" cx="142.678" cy="111.841" rx="1" ry="1"/><ellipse fill="#42312E" opacity=".3" cx="144.273" cy="111.723" rx="1" ry="1"/><ellipse fill="#42312E" opacity=".3" cx="143.815" cy="111.319" rx="1" ry="1"/><ellipse fill="#42312E" opacity=".3" cx="142.215" cy="111.212" rx="1" ry="1"/><ellipse fill="#42312E" opacity=".3" cx="139.152" cy="111.841" rx="1" ry="1"/><ellipse fill="#42312E" opacity=".3" cx="143.364" cy="111.698" rx="1" ry="1"/><ellipse fill="#42312E" opacity=".3" cx="141.887" cy="111.134" rx="1" ry="1"/><ellipse fill="#42312E" opacity=".3" cx="143.146" cy="111.372" rx="1" ry="1"/><ellipse fill="#42312E" opacity=".3" cx="142.385" cy="110.861" rx="1" ry="1"/><ellipse fill="#42312E" opacity=".3" cx="141.836" cy="110.773" rx="1" ry="1"/><ellipse fill="#42312E" opacity=".3" cx="139.332" cy="111.019" rx="1" ry="1"/><ellipse fill="#42312E" opacity=".3" cx="139.883" cy="111.084" rx="1" ry="1"/><ellipse fill="#42312E" opacity=".3" cx="138.491" cy="111.585" rx="1" ry="1"/><ellipse fill="#42312E" opacity=".3" cx="141.296" cy="111.613" rx="1" ry="1"/><ellipse fill="#42312E" opacity=".3" cx="141.619" cy="111.688" rx="1" ry="1"/><ellipse fill="#42312E" opacity=".3" cx="139.77" cy="111.776" rx="1" ry="1"/><ellipse fill="#42312E" opacity=".3" cx="140.587" cy="111.863" rx="1" ry="1"/><ellipse fill="#42312E" opacity=".3" cx="139.708" cy="111.239" rx="1" ry="1"/><ellipse fill="#42312E" opacity=".3" cx="141.556" cy="111.863" rx="1" ry="1"/><ellipse fill="#42312E" opacity=".3" cx="141.278" cy="111.913" rx="1" ry="1"/><ellipse fill="#42312E" opacity=".3" cx="137.01" cy="111.134" rx="1" ry="1"/><ellipse fill="#42312E" opacity=".3" cx="138.701" cy="111.319" rx="1" ry="1"/><ellipse fill="#42312E" opacity=".3" cx="138.117" cy="110.936" rx="1" ry="1"/><ellipse fill="#42312E" opacity=".3" cx="137.884" cy="111.858" rx="1" ry="1"/><ellipse fill="#42312E" opacity=".3" cx="138.16" cy="111.244" rx="1" ry="1"/><ellipse fill="#42312E" opacity=".3" cx="136.555" cy="111.455" rx="1" ry="1"/><ellipse fill="#42312E" opacity=".3" cx="143.507" cy="111.244" rx="1" ry="1"/><ellipse fill="#42312E" opacity=".3" cx="144.083" cy="111.162" rx="1" ry="1"/><ellipse fill="#42312E" opacity=".3" cx="144.566" cy="111.891" rx="1" ry="1"/><ellipse fill="#42312E" opacity=".3" cx="144.206" cy="111.525" rx="1" ry="1"/><ellipse fill="#42312E" opacity=".3" cx="144.361" cy="112.001" rx="1" ry="1"/><ellipse fill="#42312E" opacity=".3" cx="144.566" cy="111.63" rx="1" ry="1"/><ellipse fill="#42312E" opacity=".3" cx="144.013" cy="111.563" rx="1" ry="1"/><ellipse fill="#42312E" opacity=".3" cx="144.784" cy="111.563" rx="1" ry="1"/><ellipse fill="#42312E" opacity=".3" cx="138.333" cy="111.42" rx="1" ry="1"/><ellipse fill="#42312E" opacity=".3" cx="139.304" cy="110.753" rx="1" ry="1"/><ellipse fill="#42312E" opacity=".3" cx="140.497" cy="112.197" rx="1" ry="1"/><ellipse fill="#42312E" opacity=".3" cx="138.996" cy="110.743" rx="1" ry="1"/><ellipse fill="#42312E" opacity=".3" cx="138.578" cy="110.801" rx="1" ry="1"/><ellipse fill="#42312E" opacity=".3" cx="140.419" cy="111.182" rx="1" ry="1"/><ellipse fill="#42312E" opacity=".3" cx="136.737" cy="111.653" rx="1" ry="1"/><ellipse fill="#42312E" opacity=".3" cx="137.344" cy="112.272" rx="1" ry="1"/><ellipse fill="#42312E" opacity=".3" cx="139.653" cy="112.575" rx="1" ry="1"/><ellipse fill="#42312E" opacity=".3" cx="139.124" cy="112.272" rx="1" ry="1"/><ellipse fill="#42312E" opacity=".3" cx="140.72" cy="112.643" rx="1" ry="1"/><path d="M138.886 110.959s-2.737.132-1.447 1.002 4.991.383 4.991.383 2.046-.516.731-1.125c-1.314-.609-3.303-.223-3.303-.223s-2.269.416-.523.782c0 0 2.103.19 2.196-.233.093-.424-1.182-.125-1.182-.125s.674.15.208.225c-.466.075-1.002-.05-1.002-.183s.691-.233.892-.225c.2.007 1.252-.166 1.642.3a.173.173 0 0 1-.062.274c-.37.158-1.33.456-2.863.22-2.01-.308-.278-1.072-.278-1.072z" fill="#000" opacity=".1"/><path d="M75.238 85.28s5.973-1.286 8.363.185a19.655 19.655 0 0 0 5.144 2.12s4.41 1.106 5.88 2.667c1.47 1.561 2.848.551 3.491 2.576.644 2.025 2.573 3.953 2.573 3.953l-.92 13.699.737 7.91s.368 3.308-.551 4.045c-.92.736.183 1.93 1.002 2.573.818.645 2.94 3.126 2.664 4.046-.275.92 2.207 1.932 2.207 1.932s.09 1.561-1.102 1.93c-1.192.368-2.655 5.877-2.655 5.877s-16.084 15.458-21.41 14.067c-5.327-1.39-9.282-6.343-9.282-6.343s-3.584-16.09-4.593-18.666c-1.01-2.577-3.677-11.028-3.677-11.028s-1.47-9.747-2.204-11.676c-.733-1.93-.736-12.045 1.47-14.16 2.207-2.116 4.133-3.316 4.133-4.05 0-.735 2.114-2.209 2.94-2.116.827.093 1.102 1.002 1.102 1.002l4.688-.543z" fill="#FF748E"/><path d="M141.3 116.174c-2.574 4.511-12.311 3.586-12.311 3.586s-3.399-.736-5.51.462c-2.111 1.198-12.039 2.48-12.039 2.48s-3.757-.826-4.686-2.024c-.799-1.04-8.415-5.562-10.38-6.717l-.391-.23a.52.52 0 0 1-.063-.038l.015-.018 8.162-10.275 1.335 1.428 6.564 7.018s6.434.275 8.265 1.38c1.83 1.106 7.628-.368 7.628-.368s2.848 0 3.03-.641c.183-.642 12.954-.547 10.382 3.957z" fill="#FFCCD0"/><path d="M94.395 67.185c-.492.125-.93.404-1.252.797-.484.656-.421 1.553-.606 2.348-.306 1.298-1.32 2.471-1.127 3.79.07.463.273.982 0 1.36-.25.339-.767.339-1.16.19h-.03c-1.02-.41-1.578-1.47-2.302-2.297-.723-.828-2.03-1.44-2.87-.732-.703.594-.578 1.684-.513 2.606.065.922-.19 2.1-1.097 2.256-.363.067-.751-.065-1.105.017-1.139.266-1.049 2.236-2.158 2.597-.389.123-.812 0-1.21-.098a4.004 4.004 0 0 0-1.027-.09c-1.167.022-2.387.376-3.423.08a51.58 51.58 0 0 0 1.515-2.256 10.625 10.625 0 0 1-.406-10.971 10.61 10.61 0 0 1 18.778.415l-.007-.012z" fill="#000" opacity=".1"/><path d="M78.957 79.736c.401.095.82.22 1.21.095 1.112-.358 1.022-2.33 2.156-2.594.361-.085.752.048 1.107-.015.907-.163 1.165-1.343 1.097-2.256-.067-.912-.19-2.005.514-2.603.839-.707 2.146-.09 2.87.731.724.822 1.282 1.89 2.299 2.299.4.162.934.167 1.192-.18.258-.35.073-.896 0-1.36-.193-1.32.822-2.49 1.127-3.791.185-.795.123-1.69.606-2.346 1.022-1.383 3.65-.684 4.508-2.175.385.046.776-.004 1.137-.146.346-.173.604-.586.463-.947-.107-.278-.4-.429-.648-.597a2.948 2.948 0 0 1-1.277-2.526c.02-.476.157-.947.127-1.421a2.087 2.087 0 0 0-2.096-1.882c-.313.012-.619.1-.932.108-1.49.045-2.737-1.634-4.187-1.296-.31.073-.606.238-.924.238-.731 0-1.185-.84-1.883-1.06-.556-.176-1.16.07-1.739 0-.578-.07-1.031-.394-1.52-.662-1.05-.571-2.45-.822-3.366-.06-.192.204-.412.38-.653.524-.307.1-.635.12-.952.057a8.84 8.84 0 0 0-2.835.191c-.25.033-.48.152-.649.338-.11.205-.18.429-.205.66-.28 1.085-1.62 1.453-2.735 1.546a1.532 1.532 0 0 0-.826.223c-.404.303-.391.922-.213 1.393.177.471.48.908.546 1.409.162 1.253-1.195 2.213-1.423 3.463-.31 1.727 1.603 3.424.952 5.056-.288.724-1.057 1.283-1.022 2.06.035.777.789 1.228 1.252 1.822.464.594.626 1.29.802 1.99.283 1.127.32 3.303 1.635 3.699 1.357.403 3.023-.329 4.485.015z" fill="#FFEDBA"/><path d="M79.373 116.725c1.563 2.023 7.075 6.805 10.75 8 3.673 1.196-10.75-8-10.75-8zM80.2 126.84c.643.46 3.584 5.975 6.707 6.437 3.123.46-6.707-6.436-6.707-6.436zM80.936 122.059c.183.275 7.44 6.619 10.105 7.172 2.665.554.369-2.208-2.94-3.496-3.308-1.288-7.165-3.676-7.165-3.676zM80.936 135.575s4.869 1.754 8.177 1.288c3.308-.466-8.177-1.288-8.177-1.288zM86.631 146.149s4.779-3.494 7.175-3.677c2.397-.183-7.175 3.677-7.175 3.677zM65.13 89.786s11.579 1.286 8.363 1.84c-3.216.553-8.363-1.84-8.363-1.84zM65.04 95.763s5.51 0 7.534-.92c2.023-.92-7.534.92-7.534.92zM63.295 107.347c1.002-.276 5.237-9.103 6.89-6.712 1.652 2.391-6.89 6.712-6.89 6.712zM80.017 105.049s1.47 1.378 6.063 2.666c4.593 1.289-6.063-2.666-6.063-2.666zM107.213 136.402s2.572 1.378.643 4.32c-1.928 2.943-.643-4.32-.643-4.32z" fill="#000" opacity=".1"/><path d="M80.282 148.171l-.032-.39c.112-1.3.032.39.032.39z" fill="#E4AAB4"/><path d="M82.035 155.803l-7.35-.735-1.378-2.757-7.63-41.954-.178-.985 11.665.093.108 1.333 2.985 36.982-.057.752c-.186 2.581 1.835 7.27 1.835 7.27z" fill="#E4AAB4"/><path d="M223.66 94.332l-.206.146c-.784.533-1.836-1.374-2.755-1.106-.79.226-1.44 2.667-2.3 2.667a8.963 8.963 0 0 1-3.824-.855c-.132-.265-.25-.516-.388-.752-.478-.887-.839-1.436-.839-1.436s1.3-.215 2.94-.446a96.97 96.97 0 0 1 2.41-.318c.426-.053.841-.095 1.234-.138 1.608-.158 2.873-.195 2.873.075 0 .271.25.92.656 1.755.055.132.128.27.198.408z" fill="#000" opacity=".1"/><path d="M227.393 86.475a9.023 9.023 0 0 1-5.557 8.345 9.011 9.011 0 0 1-9.83-1.948 9.027 9.027 0 0 1-1.96-9.834 9.016 9.016 0 0 1 8.331-5.573 8.99 8.99 0 0 1 6.378 2.632 9.003 9.003 0 0 1 2.638 6.378z" fill="#FFC1C7"/><path d="M225.738 103.693l-2.688.276s.276-2.414 1.448-3.173c.776-.502 2.226-1.283 3.11-1.755.307.152.635.257.972.314-4.13 2.656-2.842 4.338-2.842 4.338z" fill="#FFF"/><path d="M195.602 115.347l-.644-.093s-2.802.186-5.557.501c-2.755.316-6.662 1.15-3.814 4.459 2.847 3.308 5.467-.596 5.467-.596s2.664 3.31 4.73 2.205c2.067-1.105-.182-6.476-.182-6.476zM184.254 168.078s1.753 4.228 1.608 5.424c-.145 1.195 5.835-1.148 5.835-1.148s-1.38-3.218-.643-3.907c.736-.69-6.8-.369-6.8-.369zM175.987 179.479h4.756v6.068h-4.756z" fill="#FFC1C7"/><path d="M185.311 166.376c-.473.752-.814 2.043-1.054 3.369a33.607 33.607 0 0 0-.501 4.721c0 .923.456.737 0 2.208a21.316 21.316 0 0 0-.897 3.527c0 .05-.017.1-.025.153-.275 1.654-.55 2.205-.55 2.205s-6.983-.459-8.45-1.471c-1.468-1.013.55-2.023.55-2.023v-.25c.148-2.81 1.58-29.895 2.192-32.772a3.667 3.667 0 0 1 .894-1.664c.844-.945 2.096-1.654 3.15-2.125.625-.282 1.269-.52 1.926-.714 0 0 .366 2.122.844 5.132 1.095 6.88 2.753 18.356 1.921 19.704z" fill="#575988"/><path d="M183.398 146.685c-.539.985-1.087 1.601-1.485 1.12-.684-.827-2.873-2.366-4.436-3.413 1.703-1.91 5.077-2.84 5.077-2.84s.365 2.123.844 5.133z" fill="#FFC1C7"/><path d="M224.488 139.274a50.702 50.702 0 0 1-.403 3.76 11.513 11.513 0 0 1-6.261 8.736s-16.905 0-19.848-.827c-1.485-.421-2.785.08-3.704.674a5.637 5.637 0 0 0-.298.206c-.42.303-.803.655-1.14 1.05 0 0-1.838-7.449-1.838-7.815 0-.366 1.002-3.679 2.848-5.977 1.845-2.298 12.677-2.667 13.323-2.757.429-.06 4.376-1.782 6.983-2.935 1.32-.581 2.296-1.017 2.296-1.017l4.258 1.353.158.048 3.4 1.082s.441 1.015.226 4.419z" fill="#575988"/><path d="M220.87 133.758c-.812.338-2.097.857-3.587 1.393-3.241 1.178-7.456 2.466-9.92 2.256-4.41-.369-9.465.641-9.465.641a16.616 16.616 0 0 0-4.415 2.86c-2.297 2.023-.275 2.664.736 5.058.414.98.318 3.273.06 5.639a5.637 5.637 0 0 0-.298.205c-.42.303-.803.656-1.14 1.05 0 0-1.837-7.448-1.837-7.814 0-.366 1.001-3.68 2.847-5.978 1.846-2.298 12.678-2.666 13.324-2.756.428-.06 4.375-1.782 6.982-2.935 1.32-.582 2.297-1.018 2.297-1.018l4.257 1.354.158.045zM185.311 166.376c-.473.752-.814 2.043-1.054 3.369-.181-.09-.35-.201-.501-.334-.844-.714-.772-2.07-.654-2.934.048-.359.103-.634.103-.752 0-.371.365-3.682-.37-4.875-.737-1.193-.917-5.885-.917-5.885s-1.168-6.726-1.285-12.709c.625-.282 1.268-.52 1.926-.714 0 0 .365 2.123.844 5.133 1.082 6.877 2.74 18.353 1.908 19.701z" fill="#000" opacity=".1"/><path d="M221.513 133.367s-.293.13-.802.343c-.801.333-2.138.877-3.704 1.441-3.24 1.178-7.458 2.466-9.92 2.256-4.41-.369-9.464.641-9.464.641-1.612.711-3.1 1.674-4.41 2.852-2.297 2.023-.276 2.665.736 5.058.423 1.003.31 3.406.037 5.845-.373 3.34-1.049 6.751-1.049 6.751s-.275.92-.09 1.472c.185.55.18 4.779.18 4.779a2.507 2.507 0 0 0-.393 1.205c-.016.36.091.713.303 1.003.736 1.002.185 3.68.185 3.68s-1.562.275-4.23-.372c-2.667-.646-3.674.095-4.866-.917-.844-.714-.771-2.07-.653-2.935.047-.358.102-.634.102-.752 0-.37.366-3.681-.37-4.874-.737-1.193-.917-5.885-.917-5.885s-2.925-16.844.018-20.935a2.4 2.4 0 0 1 .165-.213c1.64-1.88 5.056-2.22 8.247-2.035 2.305.143 4.59.516 6.82 1.116 1.838.553 2.391.275 3.308-.093.654-.25.706-1.541.679-2.256v-.203c0-.18-.025-.296-.025-.296l.814-.443 3.41-1.852 15.889 5.619z" fill="#575988"/><path d="M223.454 93.924a18.122 18.122 0 0 0 2.184 3.436 1.382 1.382 0 0 1-.887.022c-.3-.118-.518-.386-.809-.524-.751-.353-1.588.146-2.342-.32-.588-.366-.713-.827-.73-1.406v-.251c0-.804-.086-2.401-.938-2.797a1.314 1.314 0 0 0-1.036.035 1.237 1.237 0 0 0-.198.103c-.569.336-.98 1.05-1.626 1.002a.972.972 0 0 1-.784-.674 4.489 4.489 0 0 1-.265-1.125c-.193-1.471-.751-2.867-1.3-4.246-.105-.263-.25-.566-.546-.591-.456-.038-.568.672-.318 1.055.25.383.684.677.752 1.13.105.752-1.02 1.19-1.633.752-.614-.438-.724-1.33-.594-2.08s.45-1.464.501-2.226c.05-.761-.293-1.631-1.024-1.844-.639-.19-1.313.19-1.976.2a9.016 9.016 0 0 1 8.71-6.148 9.017 9.017 0 0 1 8.481 6.46 9.026 9.026 0 0 1-3.6 10.04l-.022-.003z" fill="#000" opacity=".1"/><path d="M219.166 92.14c-.681.25-1.107 1.16-1.83 1.092-.724-.068-.952-1.05-1.05-1.8-.193-1.47-.751-2.867-1.3-4.245-.105-.263-.263-.567-.546-.592-.456-.037-.568.672-.318 1.056.25.383.686.676.751 1.13.108.752-1.016 1.19-1.63.752-.613-.439-.726-1.331-.596-2.08.13-.75.448-1.467.5-2.226.054-.76-.295-1.632-1.023-1.847-.73-.216-1.503.308-2.254.183a1.395 1.395 0 0 1-.965-1.92c.323-.626 1.155-1.128.94-1.797-.27-.834-1.693-.469-2.254-1.15-.439-.534-.038-1.374.533-1.755.571-.38 1.285-.541 1.83-.967 1.028-.8 1.203-2.34 2.175-3.21 1.104-1.003 2.807-.785 4.195-1.301 1.332-.501 2.529-1.697 3.927-1.446.338.06.656.203 1.001.235.709.065 1.355-.36 2.004-.629a4.768 4.768 0 0 1 3.937.183c-.13.897.801 1.692 1.705 1.657.654-.023 1.546-.25 1.773.37.108.284-.027.615.073.903.17.501.867.536 1.317.822 1.027.652.549 2.424 1.438 3.258.39.363.954.451 1.44.67 1.605.711 2.186 2.653 2.585 4.365.104.33.127.68.067 1.02-.132.501-.6.825-.861 1.268-.621 1.058.042 2.456-.353 3.617-.396 1.16-1.7 1.82-1.881 3.007-.063.401.02.815-.045 1.216-.176 1.088-1.32 1.714-2.375 2.035-.295.088-.63.195-.763.476-.058.125-.068.268-.116.399-.117.308-.44.478-.75.619a54.511 54.511 0 0 1-4.198 1.771c-.396.148-.84.294-1.235.14-.3-.117-.516-.388-.809-.523-.751-.356-1.588.145-2.34-.32-.67-.417-.75-.956-.75-1.65.02-1.075-.118-3.494-1.949-2.787z" fill="#B97482"/><path d="M182.854 180.2c0 .05-.017.101-.025.154-.275 1.654-.55 2.205-.55 2.205s-6.983-.459-8.45-1.471c-1.468-1.013.55-2.023.55-2.023v-.25c2.417.619 6.582 1.534 8.475 1.386z" fill="#575988"/><path d="M182.854 180.2c0 .05-.017.101-.025.154-.275 1.654-.55 2.205-.55 2.205s-6.983-.459-8.45-1.471c-1.468-1.013.55-2.023.55-2.023v-.25c2.417.619 6.582 1.534 8.475 1.386z" fill="#000" opacity=".1"/><path d="M181.775 181.87s-8.087.551-8.408.413c-.32-.137-.323 4.276-.323 4.276s-1.79 3.586-2.02 4.459c-.231.872-2.022 3.035-2.022 3.035s-2.567 1.884 1.19 2.619c3.756.734 7.901-.228 7.901-.228s2.755-4.782 2.986-4.512c.23.271 0 2.53 0 2.53l1.607-.414s-.275-2.988.369-4.597c.643-1.609-1.28-7.581-1.28-7.581z" fill="#D3878A"/><path d="M193.122 170.424s-1.562.276-4.23-.371c-2.667-.647-3.674.095-4.866-.917-.844-.715-.771-2.07-.653-2.935 1.167-.25 2.975-.634 4.375-.837 1.4-.203 3.413.065 4.886.378-.016.36.09.713.303 1.003.736 1.01.185 3.679.185 3.679z" fill="#000" opacity=".1"/><path d="M193.122 170.7s-1.562.275-4.23-.371c-2.667-.647-3.674.095-4.866-.918-.844-.714-.771-2.07-.653-2.934 1.167-.251 2.975-.634 4.375-.837 1.4-.203 3.413.065 4.886.378-.016.359.091.712.303 1.002.736 1.015.185 3.68.185 3.68z" fill="#575988"/><path d="M193.122 170.7s-1.562.275-4.23-.371c-2.667-.647-3.674.095-4.866-.918-.844-.714-.771-2.07-.653-2.934 1.167-.251 2.975-.634 4.375-.837 1.4-.203 3.413.065 4.886.378-.016.359.091.712.303 1.002.736 1.015.185 3.68.185 3.68z" fill="#000" opacity=".1"/><path d="M197.072 183.755l-2.71.689-.781-3.218s-.681 1.293-1.886 3.085c-.16.236-.326.481-.501.732-1.382 1.972-6.03 1.491-7.626.34a1.668 1.668 0 0 1-.366-.34c-1.06-1.379.551-2.714 1.33-3.449.78-.734.368-5.609.368-5.609s-.368-2.16-.092-3.173c.275-1.012 7.215-1.378 7.215-1.378s1.42 3.722 2.204 4.872c.784 1.15 1.753 2.574 1.56 3.586-.193 1.013 1.285 3.863 1.285 3.863z" fill="#D3878A"/><path d="M193.483 135.988c-1.185 1.504-8.893.369-11.27-1.947a2.4 2.4 0 0 1 .165-.213c1.64-1.88 5.057-2.22 8.247-2.035 1.46 1.05 3.8 2.997 2.858 4.195z" fill="#FFC1C7"/><path d="M186.047 137.091s-1.33-1.887-2.527-.965-1.562-1.609-1.562-1.609.643-.459 2.02.23c1.378.69 2.94 1.885 2.756 2.116-.186.23-.687.228-.687.228z" fill="#000" opacity=".1"/><path d="M186.047 136.815s-1.332-1.884-2.527-.965c-1.194.92-1.562-1.609-1.562-1.609s.643-.458 2.02.231c1.378.69 2.94 1.885 2.756 2.115-.186.23-.687.228-.687.228z" fill="#575988"/><path d="M210.947 137.091s6.8 3.125 5.281 4.378c-1.517 1.254-5.281-4.378-5.281-4.378zM183.52 158.607s4.318.501 5.282 1.15c.732.513 1.59.815 2.482.873.551 0-5.835-3.587-7.764-2.023zM188.71 156.078s-1.653 1.15.23 1.61c1.883.458-.23-1.61-.23-1.61zM179.476 171.389s2.437 3.032 3.308 2.205c.872-.827-3.308-2.205-3.308-2.205zM177.915 177.364c.183 0 .782-.09 1.976.737 1.195.827 1.285-.645.827-1.254-.458-.609-2.803.517-2.803.517zM175.158 109.623c.413.138 2.825.752 3.308 2.208.484 1.456-3.308-2.208-3.308-2.208zM77.277 110.796l-.198-.048s-7.037-1.581-11.398-.393l-.177-.985 11.665.092.108 1.334z" fill="#000" opacity=".1"/><path d="M71.016 107.715s17.641.093 23.792 12.228c6.151 12.136 7.536 35.31 7.536 35.31s1.002 3.311-.46 3.402c-1.463.09-2.115-3.033-2.115-3.033s.554-2.298.093-3.31c-.46-1.013-6.056-29.138-6.056-29.138s-.643-8.827-16.722-12.69c0 0-18.836-4.227-13.967 6.347 0 0 .275 1.47-.734 1.195-1.01-.276-2.206-3.035-1.377-6.516s10.01-3.795 10.01-3.795z" fill="#E4AAB4"/><path d="M105.424 104.823l-.05.043c-1.252 1.002-5.883 8.877-9.003 9.095-.061.005-.122.005-.183 0 0 0-.073-.088-.208-.238a.233.233 0 0 0-.047-.055l8.162-10.276 1.33 1.431z" fill="#000" opacity=".1"/><path d="M96.278 95.026l4.135 1.755s2.021 2.022 1.931 3.862c-.09 1.84 1.002.458 1.002.458s.736.276.736 1.003c0 .727 2.021 1.471.734 2.481-1.287 1.01-6.063 9.196-9.186 9.103a62.982 62.982 0 0 0-5.974-5.975c-3.208-2.757-6.148-16.917 6.622-12.687z" fill="#000" opacity=".1"/><path d="M96.561 95.026l4.135 1.755s2.021 2.022 1.931 3.862c-.09 1.84 1.002.458 1.002.458s.736.276.736 1.003c0 .727 2.021 1.471.734 2.481-1.287 1.01-6.063 9.196-9.186 9.103a62.982 62.982 0 0 0-5.974-5.975c-3.215-2.757-6.15-16.917 6.622-12.687z" fill="#FF748E"/><path d="M211.405 110.29l-4.273 7.62-2.957 1.527c-.073-.802-.12-1.343-.12-1.343s-1.932-4.511 3.032-7.907c4.35-2.985 2.059-5.404 1.43-5.95l.133-.118 1.002-.138 1.753 6.308zM239.93 106.926c-.676 1.504-6.474 5.571-6.474 5.571v.03l-.273-.305 5.51-6.346 1.002.644.235.406zM224.488 139.274c-.805.093-1.616.117-2.424.07a36.07 36.07 0 0 0-5.057-4.193 35.06 35.06 0 0 0-2.845-1.777c-3.629-2.005-8.14-3.586-12.737-2.82a6.073 6.073 0 0 0-.308.056l.3-.25c.188-.159.476-.424.789-.74l3.411-1.852 15.896 5.606s-.293.13-.802.344l3.56 1.13s.432 1.022.217 4.426z" fill="#000" opacity=".1"/><path d="M219.399 102.475s12.312 1.195 17.917.551c0 0 2.755 2.116 2.389 3.494-.366 1.378-6.512 5.7-6.512 5.7s-.458 10.758-2.94 13.332c-2.482 2.574-4.698 9.196-3.596 11.406 1.102 2.21-4.318 1.84-4.318 1.84s-10.29-10.757-20.95-8.734c0 0 3.86-3.128 3.584-5.426-.275-2.299-.643-6.53-.643-6.53s-1.929-4.51 3.033-7.906c4.961-3.396 1.287-6.075 1.287-6.075s-.185-.828 1.928-1.103a21.727 21.727 0 0 0 3.033-.552s2.021-1.84 2.94-1.47c.92.368 2.848 1.473 2.848 1.473z" fill="#7980CA"/><path d="M233.456 110.893s1.47 2.895-.137 4.411a19.31 19.31 0 0 0-1.726 2.093 62.737 62.737 0 0 0-7.406 12.882c-3.393 7.915-9.243 21.368-10.117 22.08-1.253 1.002-1.333 3.08-.093 3.128 1.24.047 1.976-1.657 1.976-1.657s1.24-3.539 2.021-4.965c.781-1.426 8.913-20.09 8.913-20.09s3.033-8 6.432-9.837c0 0 2.94-4.874 2.434-7.035-.506-2.16-2.297-1.01-2.297-1.01z" fill="#000" opacity=".1"/><path d="M233.456 110.61s1.47 2.897-.137 4.414a19.31 19.31 0 0 0-1.726 2.092 62.737 62.737 0 0 0-7.406 12.882c-3.393 7.915-9.243 21.369-10.117 22.08-1.253 1.003-1.333 3.08-.093 3.128 1.24.048 1.976-1.657 1.976-1.657s1.24-3.538 2.021-4.964c.781-1.426 8.913-20.09 8.913-20.09s3.033-8 6.432-9.837c0 0 2.94-4.875 2.434-7.035-.506-2.16-2.297-1.013-2.297-1.013z" fill="#E4AAB4"/><path d="M245.966 120.312c.293 1.654.278 3.4-.428 4.92 0 0-3.905.182-7.809-5.289l-2.344-5.746s-2.617-4.459-4.18-4.228c-1.563.23-2.755 8.045-6.477 7.308-3.721-.737-1.753-10.113 3.169-11.08l1.898-.484a4.578 4.578 0 0 1 3.985.845c.911.719 2.143 1.674 3.628 2.756 1.218.898 2.372 1.775 3.344 2.527a13.786 13.786 0 0 1 5.214 8.47z" fill="#FFC1C7"/><path d="M205.271 119.898s1.861 2.276 4.894 2.757c3.033.481 4.759-.481 7.306.554 2.547 1.035-12.2-3.31-12.2-3.31zM230.631 115.623s-5.72 4.894-5.51 6.205c.211 1.31 5.51-6.205 5.51-6.205z" fill="#000" opacity=".1"/><g opacity=".1" fill="#000"><path d="M214.969 88.513a1.164 1.164 0 0 1-1.363.09c-.536-.391-.688-1.113-.63-1.79-.058.208-.111.416-.149.63-.13.751-.017 1.631.596 2.08.614.448 1.738 0 1.633-.752a1.003 1.003 0 0 0-.087-.258zM213.308 85.347c.103-.342.17-.694.198-1.05.045-.752-.295-1.631-1.024-1.847-.73-.215-1.503.31-2.254.183a1.386 1.386 0 0 1-1.067-1.138c-.03.044-.057.09-.08.138a1.394 1.394 0 0 0 .961 1.92c.752.125 1.528-.399 2.254-.183.727.215 1.07 1.088 1.025 1.847 0 .045-.008.088-.013.13zM209.982 79.763a.928.928 0 0 0 .218-.847c-.27-.834-1.695-.468-2.254-1.148a.862.862 0 0 1-.155-.305c-.25.398-.313.874-.028 1.223.541.659 1.889.34 2.22 1.077zM232.445 93.064c-.296.088-.631.195-.764.476-.06.125-.068.268-.118.399-.118.308-.438.478-.736.619a54.082 54.082 0 0 1-4.198 1.772c-.398.147-.839.293-1.234.14-.3-.118-.519-.388-.81-.524-.75-.353-1.587.146-2.338-.32-.674-.417-.752-.953-.752-1.647 0-1.053-.143-3.466-1.97-2.757-.682.25-1.108 1.16-1.834 1.093-.726-.068-.95-1.05-1.047-1.8-.193-1.471-.751-2.867-1.3-4.245-.105-.264-.263-.567-.546-.592-.418-.035-.546.562-.37.955a.35.35 0 0 1 .188-.035c.28.025.438.328.543.591.553 1.379 1.11 2.775 1.3 4.246.097.752.298 1.73 1.05 1.8.75.07 1.151-.833 1.83-1.093 1.83-.707 1.97 1.706 1.973 2.757 0 .694.068 1.233.752 1.649.751.466 1.585-.035 2.341.32.29.136.501.406.807.524.396.153.839 0 1.237-.14a53.977 53.977 0 0 0 4.195-1.772c.298-.14.621-.31.751-.619.05-.13.058-.273.118-.399.13-.28.466-.388.764-.476 1.052-.32 2.199-.947 2.372-2.035.02-.142.029-.285.025-.428-.401.787-1.348 1.273-2.23 1.541zM237.098 83.197c-.185.34-.281.72-.278 1.108.028-.065.06-.128.095-.188.25-.444.726-.772.86-1.268a1.46 1.46 0 0 0 .02-.562c-.199.318-.504.584-.697.91zM234.861 89.813a2.706 2.706 0 0 0-.022.404c.408-.887 1.395-1.529 1.72-2.484a2.68 2.68 0 0 0 .13-.784c-.438 1.05-1.652 1.732-1.828 2.864z"/></g><path d="M194.683 178.882a27.3 27.3 0 0 0-2.94 2.256c-1.195 1.105-4.18 2.023-4.18 2.023l7.12-4.279zM179.982 190.511s-5.65 5.058-6.57 4.968c-.919-.09 6.57-4.968 6.57-4.968zM191.695 184.311c-.16.236-.326.481-.501.732-1.382 1.972-6.03 1.491-7.626.34 1.422-.48 5.815-1.836 8.127-1.072z" fill="#000" opacity=".1"/><g opacity=".1" fill="#000"><path d="M168.767 71.007c.064-.187.114-.38.147-.574a3.646 3.646 0 0 0-.147.574zM151.318 77.117c.035-.127.081-.25.138-.369.398-.9-.113-1.54-.706-2.145a3.296 3.296 0 0 1-1.047-2.005 5.462 5.462 0 0 1-.06-.639c-.049.063-.091.13-.128.2-.213.427-.153.933-.088 1.404.1.772.471 1.482 1.047 2.005.454.461.857.945.844 1.549zM166.863 85.27c-.453-.13-.854.315-1.08.729-.224.413-.48.91-.946.97-.568.073-.956-.539-1.192-1.06-.235-.522-.466-1.08-.466-1.642a1.84 1.84 0 0 1 .02-.205 3.711 3.711 0 0 0-.295 1.17c-.018.574.223 1.118.46 1.642.239.523.624 1.132 1.193 1.06.466-.06.724-.557.946-.97.223-.414.627-.86 1.08-.73.203.06.413.231.596.128a.431.431 0 0 0 .173-.3c.047-.216.075-.436.082-.657-.175.08-.375-.075-.57-.135zM169.69 80.67c-.593.477-1.324.838-1.685 1.504-.146.29-.231.608-.25.933.366-.65 1.082-1.003 1.665-1.474a4.9 4.9 0 0 0 1.738-2.95 4.887 4.887 0 0 1-1.467 1.988zM163.475 83.11c.106-.278.19-.563.25-.853.163-.865-.12-1.754-.398-2.584-.205-.611-.598-1.353-1.252-1.278a1.412 1.412 0 0 1-.38.045c-.339-.055-.412-.501-.447-.842a3.818 3.818 0 0 0-3.115-3.258.984.984 0 0 0-.546.035c-.25.108-.37.366-.586.516-.699.484-1.588-.443-2.44-.373-.72.06-1.162.802-1.46 1.461-.298.66-.67 1.416-1.377 1.571a.415.415 0 0 1-.333-.04.25.25 0 0 1-.11-.205c-.021.146-.063.287-.125.42-.11.251-.263.592-.04.753a.425.425 0 0 0 .333.037c.706-.153 1.079-.91 1.377-1.569.298-.659.751-1.403 1.46-1.463.852-.07 1.74.857 2.44.373.215-.148.347-.408.585-.516a.976.976 0 0 1 .544-.035 3.818 3.818 0 0 1 3.14 3.258c.036.34.106.79.446.842.129.002.257-.013.38-.045.642-.073 1.035.667 1.238 1.278.268.8.534 1.642.416 2.471z"/></g><path d="M168.045 112.039s-3.506 1.067-5.099 1.067c-1.592 0-7.78-.032-7.78-.032s-16.195-5.414-11.336 2.005c4.859 7.418 12.54 3.275 12.54 3.275l1.375.309c.751.173 15.4.035 15.883-.552.483-.586-5.583-6.072-5.583-6.072z" fill="#CF6F80"/><path d="M178.116 118.54c-2.207.203-6.542.25-6.542.25s-3.238-6.413-5.993-6.207c0 0 2.55-2.895 3.581-2.552.176.058.283-.067.334-.316 2.702.825 7.846 2.842 8.35 6.386.135.953.22 1.757.27 2.439z" fill="#000" opacity=".1"/><path d="M178.391 118.54c-2.206.203-6.541.25-6.541.25s-3.239-6.413-5.993-6.207c0 0 2.55-2.895 3.58-2.552.176.058.284-.067.337-.316 2.7.825 7.843 2.842 8.347 6.386.135.953.22 1.757.27 2.439z" fill="#575A89"/><path d="M178.391 118.54c-2.206.203-6.541.25-6.541.25s-3.239-6.413-5.993-6.207c0 0 2.55-2.895 3.58-2.552.176.058.284-.067.337-.316 2.7.825 7.843 2.842 8.347 6.386.135.953.22 1.757.27 2.439zM159.034 137s6.201-1.518 7.166-.69c.964.826-7.166.69-7.166.69zM141.255 142.93s2.618 1.504 2.893 2.757c.276 1.254-2.893-2.756-2.893-2.756z" fill="#000" opacity=".1"/><g opacity=".1" fill="#000"><path d="M97.197 60.628c-.011.34.038.68.146 1.003v-.316c.022-.476.16-.947.13-1.424a1.941 1.941 0 0 0-.135-.573c-.003.448-.12.872-.14 1.31zM71.747 60.22c.123.32.3.624.421.945a1.41 1.41 0 0 0-.013-.228c-.06-.48-.343-.9-.52-1.351-.001.216.037.43.112.634zM99.263 64.44a.687.687 0 0 0-.152-.23.937.937 0 0 1-.451.486c-.36.141-.75.192-1.135.148-.859 1.489-3.486.792-4.508 2.175-.485.657-.42 1.552-.608 2.346-.303 1.298-1.32 2.471-1.125 3.792.068.461.273.982 0 1.358-.273.376-.789.341-1.19.18-1.016-.41-1.577-1.473-2.3-2.297-.725-.825-2.03-1.441-2.868-.735-.707.594-.581 1.687-.501 2.607.08.92-.19 2.102-1.1 2.255-.363.066-.751-.067-1.104.015-1.137.266-1.047 2.238-2.157 2.597-.39.125-.811 0-1.21-.095-1.462-.346-3.13.388-4.482-.02-.751-.228-1.087-1.038-1.29-1.9.19 1.08.473 2.3 1.428 2.589 1.352.408 3.02-.324 4.483.02.398.095.819.22 1.21.095 1.109-.358 1.019-2.33 2.156-2.596.36-.083.75.05 1.104-.015.91-.16 1.167-1.344 1.1-2.256-.068-.912-.193-2.005.513-2.607.839-.704 2.144-.09 2.867.735.724.824 1.285 1.887 2.302 2.298.4.16.932.168 1.19-.18.258-.349.072-.898 0-1.359-.196-1.32.821-2.494 1.124-3.792.188-.794.123-1.689.609-2.346 1.022-1.383 3.649-.686 4.508-2.175.384.045.774-.006 1.134-.148.333-.17.591-.586.453-.945zM72.719 75.327c-.175-.699-.36-1.418-.804-1.987-.346-.446-.859-.825-1.107-1.306a1.33 1.33 0 0 0 0 .173c.033.752.789 1.228 1.252 1.822.464.594.624 1.276.797 1.97-.048-.246-.088-.474-.138-.672zM71.815 68.553c-.073-.93-.679-1.882-.964-2.842.085.96.68 1.91.964 2.842z"/></g><path d="M120.03 154.447s7.706-.23 5.868.596c-1.838.827-7.04.752-7.04.752l1.172-1.348zM151.729 170.883s3.584-.552 4.508.045c.924.596-4.508-.045-4.508-.045z" fill="#000" opacity=".1"/><ellipse fill="#7980CA" opacity=".1" cx="258.416" cy="174.296" rx="10.233" ry="1.406"/><path d="M259.08 159.873s1.372 1.794-.634 4.51c-2.006 2.718-3.657 4.996-2.988 6.685 0 0 3.023-5.03 5.485-5.1 2.462-.07.844-3.07-1.864-6.095z" fill="#7980CA"/><path d="M259.08 159.873c.12.172.214.361.28.561 2.402 2.825 3.681 5.459 1.372 5.526-2.151.06-4.728 3.908-5.347 4.88.02.075.045.148.073.22 0 0 3.023-5.03 5.485-5.1 2.462-.07.844-3.062-1.864-6.087z" fill="#000" opacity=".1"/><path d="M261.629 162.158c0 .632-.07 1.146-.158 1.146s-.158-.502-.158-1.146c0-.644.088-.333.176-.333.087 0 .14-.306.14.333z" fill="#FFD037"/><path d="M262.503 162.913c-.554.303-1.037.486-1.08.408-.042-.077.376-.383.93-.686.553-.304.335-.083.378 0 .042.082.328-.023-.228.278z" fill="#FFD037"/><path d="M251.837 159.873s-1.373 1.794.633 4.51c2.006 2.718 3.657 4.996 2.988 6.685 0 0-3.023-5.03-5.485-5.1-2.462-.07-.844-3.07 1.864-6.095z" fill="#7980CA"/><path d="M251.837 159.873a2.271 2.271 0 0 0-.281.561c-2.402 2.825-3.682 5.459-1.372 5.526 2.15.06 4.73 3.908 5.347 4.88-.02.075-.044.149-.073.22 0 0-3.023-5.03-5.485-5.1-2.462-.07-.844-3.062 1.864-6.087z" fill="#000" opacity=".1"/><path d="M249.287 162.158c0 .632.07 1.146.158 1.146.087 0 .16-.502.16-1.146 0-.644-.09-.333-.178-.333-.087 0-.14-.306-.14.333z" fill="#FFD037"/><path d="M248.413 162.913c.553.303 1.037.486 1.08.408.042-.077-.374-.383-.93-.686-.556-.304-.335-.083-.375 0-.04.082-.329-.023.225.278z" fill="#FFD037"/><path d="M249.725 170.827s3.832-.117 4.99-.942c1.156-.824 5.897-1.807 6.183-.486.285 1.32 5.76 6.569 1.432 6.604-4.328.035-10.058-.677-11.21-1.379-1.152-.701-1.395-3.797-1.395-3.797z" fill="#A8A8A8"/><path d="M262.408 175.554c-4.328.035-10.058-.674-11.21-1.378-.88-.534-1.23-2.456-1.345-3.341h-.128s.25 3.093 1.395 3.797c1.145.704 6.882 1.41 11.21 1.378 1.252 0 1.683-.456 1.658-1.115-.173.391-.651.64-1.58.66z" fill="#000" opacity=".2"/><path d="M174.91 119.512c0 .705-2.211 1.534-4.939 1.534-2.727 0-4.938-.83-4.938-1.534 0-.704 2.211-1.022 4.938-1.022 2.728 0 4.94.316 4.94 1.022z" fill="#E8EAF2"/><path d="M174.91 119.512c0 .705-2.211 1.534-4.939 1.534-2.727 0-4.938-.83-4.938-1.534 0-.704 2.211-1.022 4.938-1.022 2.728 0 4.94.316 4.94 1.022z" fill="#000" opacity=".1"/><ellipse fill="#E8EAF2" cx="169.971" cy="119.512" rx="4.939" ry="1.278"/><ellipse fill="#000" opacity=".1" cx="169.971" cy="119.512" rx="2.792" ry="1"/><path d="M174.016 117.981a2.174 2.174 0 0 1-1.783 1.13c-.289.025-.58.005-.862-.06l.341-.501c.217.043.441.043.659 0 .37-.076.687-.312.866-.644.36-.637-.09-.73-.406-.725a1.724 1.724 0 0 0-.192 0l.27-.395s.11-.02.27-.033c.519-.025 1.52.043.837 1.228zM171.837 119.725a6.2 6.2 0 0 1-3.814 0l.027-.19.02-.143 3.717-.048.03.228.02.153z" fill="#F1CEC8"/><path d="M172.37 118.547c-.027.192-.073.381-.137.564-.289.025-.58.005-.862-.06l.341-.501c.218.042.441.041.659-.003zM173.18 116.763a.551.551 0 0 1-.106.143l-.027.027a2.19 2.19 0 0 0-.216.251 1.724 1.724 0 0 0-.192 0l.27-.396s.11-.013.27-.025zM171.817 119.572c-.659.251-3.13.311-3.757-.037l.02-.143 3.717-.048.02.228z" fill="#000" opacity=".1"/><path d="M173.004 116.908l-.03.028c-.345.33-.566.767-.626 1.24-.115 1.096-.35 1.206-.378 1.254-.19.33-3.506.46-4.007 0-.41-.381-.812-1.21-.626-1.68.097-.25-.11-.528-.323-.729-.276-.25-.176-.631.22-.804.94-.416 2.607-.436 2.607-.436 1.423-.076 2.332.112 2.888.318l.07.03c.145.06.262.174.325.318a.424.424 0 0 1-.12.461z" fill="#F1CEC8"/><ellipse fill="#000" opacity=".1" cx="169.921" cy="116.801" rx="2.517" ry="1"/><ellipse fill="#42312E" cx="169.921" cy="116.848" rx="2.517" ry="1"/><path d="M170.442 116.593s-1.81.04-1.753.48a5.835 5.835 0 0 1 1.753-.48zM170.96 116.705s-1.079 0-.906.369c0 0 .25-.028.215-.123s.692-.193.692-.193v-.053z" fill="#FFF" opacity=".2"/><path d="M167.116 116.593s-.07.751 2.755.716c2.825-.035 2.81-.546 2.835-.716h-.155s-.035.619-2.64.604c-2.604-.016-2.674-.604-2.674-.604h-.12z" fill="#F6E2DF"/><path d="M173.124 116.467l-1.703.624a.218.218 0 0 1-.202-.027l-.028-.025c-.08-.068-.055-.166.05-.21l1.558-.68c.145.06.262.174.325.318z" fill="#000" opacity=".1"/><path d="M171.241 116.79l4.418-1.922a.886.886 0 0 1 .33-.072c.223 0 .539.025.436.268a.536.536 0 0 1-.33.278l-4.674 1.712a.213.213 0 0 1-.202-.028l-.028-.025c-.08-.065-.055-.165.05-.21z" fill="#E8EAF2"/><path d="M171.241 116.79l4.418-1.922a.886.886 0 0 1 .33-.072c.223 0 .539.025.436.268a.536.536 0 0 1-.33.278l-4.674 1.712a.213.213 0 0 1-.202-.028l-.028-.025c-.08-.065-.055-.165.05-.21z" fill="#000" opacity=".1"/><path d="M171.241 116.765l4.418-1.922a.939.939 0 0 1 .33-.073c.223 0 .539.026.436.269a.546.546 0 0 1-.33.28l-4.674 1.712a.213.213 0 0 1-.202-.03l-.028-.023c-.08-.07-.055-.165.05-.213z" fill="#E8EAF2"/><path d="M170.996 116.82s.47-.07.41.016c-.06.085.203.195.203.195a2.025 2.025 0 0 1-.558.03c-.073-.05-.055-.24-.055-.24z" fill="#000" opacity=".1"/><path d="M170.96 116.833s.471-.07.411.015.203.196.203.196a2.037 2.037 0 0 1-.56.03c-.07-.05-.053-.24-.053-.24z" fill="#42312E"/><path d="M170.222 113.467c-.193.134-.34.323-.423.542-.033.186-.024.377.027.558.021.13.053.256.095.379.025.07.095.15.146.1 0-.175-.056-.348-.046-.521a.973.973 0 0 1 .23-.519c.125-.138.233-.29.324-.451.035-.075.173-.764-.018-.644-.037.025-.082.25-.117.308a1.22 1.22 0 0 1-.218.248zM170.294 114.603c.015.062.093.112.128.17.02.037.03.078.033.12.052.2.005.413-.128.572a.458.458 0 0 0 .32-.294.8.8 0 0 0 .043-.197 1.658 1.658 0 0 0 0-.193c0-.096.043-.344-.128-.391a.213.213 0 0 0-.268.213z" fill="#F2DCDC"/><path d="M167.362 117.61s.213.22.811.25a2.217 2.217 0 0 1-.854-.07l.043-.18z" fill="#000" opacity=".1"/><path fill="#E4AAB4" d="M109.91 154.153l9.264-.027-3.033 4.842-5.973 3.03z"/></g></svg>