<svg id="gift" preserveAspectRatio="xMidyMid meet" viewbox="0 0 246 245" xmlns="http://www.w3.org/2000/svg" width="369" height="345"><defs><linearGradient x1="50%" y1="100%" x2="50%" y2=".004%" id="a"><stop stop-color="gray" stop-opacity=".25" offset="0%"/><stop stop-color="gray" stop-opacity=".12" offset="54%"/><stop stop-color="gray" stop-opacity=".1" offset="100%"/></linearGradient><linearGradient x1="50%" y1="100%" x2="50%" y2="0%" id="b"><stop stop-color="gray" stop-opacity=".25" offset="0%"/><stop stop-color="gray" stop-opacity=".12" offset="54%"/><stop stop-color="gray" stop-opacity=".1" offset="100%"/></linearGradient></defs><g fill="none" fill-rule="evenodd"><g opacity=".75" fill="#FFF"><path d="M45.735 15.383h1.498v8.492h-1.498z"/><path d="M50.73 18.879v1.499h-8.491v-1.499z"/></g><g opacity=".75" fill="#FFF"><path d="M348.897 329.238h1.498v8.492h-1.498z"/><path d="M353.892 332.735v1.498H345.4v-1.498z"/></g><g opacity=".5" fill="#FFF"><path d="M347.591 92.153h1.498v8.492h-1.498z"/><path d="M352.586 95.65v1.498h-8.492V95.65z"/></g><g opacity=".75" fill="#7980CA"><path d="M363.591 19.153h1.498v8.492h-1.498z"/><path d="M368.586 22.65v1.498h-8.492V22.65z"/></g><g opacity=".75" fill="#7980CA"><path d="M114.636 15.121h1.498v8.492h-1.498z"/><path d="M119.627 18.618v1.498h-8.492v-1.498z"/></g><path d="M26.47 136.052a1.623 1.623 0 0 1-.903-1.961.795.795 0 0 0 .036-.179.795.795 0 0 0-1.46-.54.795.795 0 0 0-.091.158 1.623 1.623 0 0 1-1.961.903.795.795 0 0 0-.179-.036.795.795 0 0 0-.54 1.46c.048.036.102.067.158.091a1.623 1.623 0 0 1 .903 1.961.795.795 0 0 0-.036.179.795.795 0 0 0 1.46.54.795.795 0 0 0 .091-.158 1.623 1.623 0 0 1 1.961-.903c.058.019.118.03.179.036a.795.795 0 0 0 .54-1.46.795.795 0 0 0-.158-.091z" fill="#F6F6F6" opacity=".75"/><path d="M52.47 298.052a1.623 1.623 0 0 1-.903-1.961.795.795 0 0 0 .036-.179.795.795 0 0 0-1.46-.54.795.795 0 0 0-.091.158 1.623 1.623 0 0 1-1.961.903.795.795 0 0 0-.179-.036.795.795 0 0 0-.54 1.46c.048.036.102.067.158.091a1.623 1.623 0 0 1 .903 1.961.795.795 0 0 0-.036.179.795.795 0 0 0 1.46.54.795.795 0 0 0 .091-.158 1.623 1.623 0 0 1 1.961-.903c.058.019.118.03.179.036a.795.795 0 0 0 .54-1.46.795.795 0 0 0-.158-.091zM292.47 83.052a1.623 1.623 0 0 1-.903-1.961.795.795 0 0 0 .036-.179.795.795 0 0 0-1.46-.54.795.795 0 0 0-.091.158 1.623 1.623 0 0 1-1.961.903.795.795 0 0 0-.179-.036.795.795 0 0 0-.54 1.46c.048.036.102.067.158.091a1.623 1.623 0 0 1 .903 1.961.795.795 0 0 0-.036.179.795.795 0 0 0 1.46.54.795.795 0 0 0 .091-.158 1.623 1.623 0 0 1 1.961-.903c.058.019.118.03.179.036a.795.795 0 0 0 .54-1.46.795.795 0 0 0-.158-.091z" fill="#BDBFD3" opacity=".75"/><path d="M289.47 122.052a1.623 1.623 0 0 1-.903-1.961.795.795 0 0 0 .036-.179.795.795 0 0 0-1.46-.54.795.795 0 0 0-.091.158 1.623 1.623 0 0 1-1.961.903.795.795 0 0 0-.179-.036.795.795 0 0 0-.54 1.46c.048.036.102.067.158.091a1.623 1.623 0 0 1 .903 1.961.795.795 0 0 0-.036.179.795.795 0 0 0 1.46.54.795.795 0 0 0 .091-.158 1.623 1.623 0 0 1 1.961-.903c.058.019.118.03.179.036a.795.795 0 0 0 .54-1.46.795.795 0 0 0-.158-.091z" fill="#FFF" opacity=".75"/><path d="M289.48 3.05a1.62 1.62 0 0 1-.905-1.96.793.793 0 0 0 .036-.179.799.799 0 0 0-1.463-.54.794.794 0 0 0-.092.159 1.629 1.629 0 0 1-1.962.906.8.8 0 0 0-.18-.036.794.794 0 1 0-.542 1.459c.05.036.103.067.16.091a1.62 1.62 0 0 1 .905 1.96.793.793 0 0 0-.036.179.799.799 0 0 0 1.463.54.794.794 0 0 0 .092-.159 1.629 1.629 0 0 1 1.95-.926.8.8 0 0 0 .18.036.794.794 0 1 0 .395-1.53zM361.473 199.042a1.615 1.615 0 0 1-.903-1.955.79.79 0 0 0 .036-.178.798.798 0 0 0-1.46-.54.792.792 0 0 0-.092.16 1.626 1.626 0 0 1-1.962.9.799.799 0 0 0-.18-.036.791.791 0 1 0-.541 1.455c.05.036.103.066.16.09a1.615 1.615 0 0 1 .899 1.975.79.79 0 0 0-.036.178.798.798 0 0 0 1.46.54.792.792 0 0 0 .092-.16 1.626 1.626 0 0 1 1.962-.9c.058.02.119.031.18.036a.791.791 0 1 0 .541-1.455.796.796 0 0 0-.156-.11z" fill="#BDBFD3" opacity=".75"/><circle fill="#BDBFD3" opacity=".75" cx="27" cy="71" r="3"/><circle fill="#FFF" opacity=".75" cx="6" cy="276" r="3"/><circle fill="#FFF" opacity=".75" cx="189" cy="19" r="3"/><circle fill="#7980CA" opacity=".75" cx="218" cy="74" r="3"/><circle fill="#7980CA" opacity=".75" cx="3" cy="205" r="3"/><circle fill="#2D2F4A" opacity=".75" cx="115" cy="66" r="3"/><circle fill="#7980CA" opacity=".75" cx="312" cy="256" r="3"/><path d="M110.911 7.71C105.356 2.189 97.255-.01 88.087 1.523 79.52 2.957 70.95 7.552 63.97 14.464a27.956 27.956 0 0 0-5.048 6.86 28.004 28.004 0 0 0-5.004-7.107C47.028 7.189 38.557 2.449 30.017.867 20.89-.842 12.757 1.232 7.106 6.66 1.456 12.087-.883 20.08.538 29.15c1.327 8.533 5.823 17.067 12.713 24.102 14.462 14.78 43.32 9.007 44.543 8.751l.362-.072 1.111.251c1.219.273 29.97 6.537 44.68-7.991 6.999-6.908 11.663-15.386 13.14-23.868 1.572-9.058-.62-17.092-6.176-22.613zM52.906 53.47c-6.972.93-24.353 2.193-32.984-6.626-5.547-5.67-9.177-12.455-10.21-19.094-.948-6.058.43-11.208 3.85-14.506a12.91 12.91 0 0 1 4.702-2.855c2.877-1.01 6.3-1.199 10.043-.503 6.667 1.233 13.394 5.039 18.949 10.71 8.63 8.84 6.804 26.013 5.65 32.874zm55.03-24.717c-1.15 6.622-4.897 13.338-10.543 18.914-8.785 8.674-26.14 7.113-33.092 6.063-1.037-6.895-2.558-24.094 6.223-32.768C76.17 15.386 82.962 11.7 89.65 10.577c3.755-.627 7.175-.384 10.034.674a12.905 12.905 0 0 1 4.651 2.936c3.372 3.366 4.651 8.537 3.6 14.575v-.009z" opacity=".5" transform="translate(123 84)" fill="url(#a)" fill-rule="nonzero"/><path d="M183.635 144.14l-2.733.583c-1.16.246-28.628 5.83-42.41-8.47-6.545-6.802-10.842-15.083-12.105-23.304-1.35-8.794.856-16.532 6.245-21.784 5.39-5.251 13.126-7.24 21.81-5.61 8.139 1.532 16.21 6.12 22.75 12.92 13.76 14.306 7.36 41.786 7.077 42.947l-.634 2.719zm-40.357-49.363a12.254 12.254 0 0 0-4.477 2.762c-3.264 3.185-4.566 8.169-3.667 14.034.985 6.425 4.438 12.989 9.72 18.478 8.212 8.536 24.756 7.336 31.392 6.413 1.1-6.65 2.831-23.273-5.38-31.809-5.283-5.489-11.687-9.17-18.031-10.357-3.556-.682-6.816-.496-9.557.48z" fill="#4B507D" fill-rule="nonzero"/><path d="M180.077 143.879l-.618-2.714c-.26-1.156-6.158-28.434 7.774-42.335 6.623-6.614 14.742-11.009 22.853-12.374 8.664-1.468 16.336.636 21.6 5.918 5.263 5.282 7.334 12.971 5.842 21.641-1.398 8.107-5.817 16.214-12.44 22.84-13.924 13.88-41.15 7.907-42.304 7.643l-2.707-.62zm40.987-48.109c-2.71-1.015-5.966-1.25-9.5-.648-6.333 1.07-12.785 4.6-18.113 9.937-8.315 8.3-6.878 24.748-5.894 31.357 6.585 1.003 23.014 2.5 31.338-5.803 5.349-5.337 8.895-11.763 9.986-18.1.997-5.781-.213-10.73-3.41-13.935a12.204 12.204 0 0 0-4.41-2.808h.003z" fill="#4B507D" fill-rule="nonzero"/><path d="M266.944.09H.09v53.347h13.865v154.396H253.08V53.437h13.865z" opacity=".5" transform="translate(47 137)" fill="url(#b)"/><path fill="#7980CA" d="M64 153h233v189H64z"/><path fill="#4B507D" d="M158 187h44v155h-44z"/><path fill="#000" opacity=".1" d="M64 143h233v47H64z"/><path fill="#7980CA" d="M50 140h260v47H50z"/><path fill="#4B507D" d="M158 140h44v47h-44z"/></g></svg>