<svg id="graduated" width="454" height="311" xmlns="http://www.w3.org/2000/svg"><defs><linearGradient x1="50.001%" y1="99.999%" x2="50.001%" y2=".002%" id="a"><stop stop-color="gray" stop-opacity=".25" offset="0%"/><stop stop-color="gray" stop-opacity=".12" offset="54%"/><stop stop-color="gray" stop-opacity=".1" offset="100%"/></linearGradient><linearGradient x1="0%" y1="50.001%" y2="50.001%" id="b"><stop stop-color="gray" stop-opacity=".25" offset="0%"/><stop stop-color="gray" stop-opacity=".12" offset="54%"/><stop stop-color="gray" stop-opacity=".1" offset="100%"/></linearGradient></defs><g fill="none" fill-rule="evenodd"><path d="M443.847 109.887a9.021 9.021 0 0 0-4.529-7.816V76.705h-.165v-.09h-19.541L214.334 24.047 0 84.229v10.53l102.583 38.593-5.978 102.82c54.576 15.49 97.538 21.108 131.283 20.848h1.78c99.23-1.339 117.659-53.923 117.659-53.923-5.376-27.871-4.624-58.796-3.73-74.27l89.616-40.063-1.273-7.604h1.353v19.828a9.04 9.04 0 0 0-7.46 7.647 9.02 9.02 0 0 0 5.063 9.397l-6.66 15.93a5.78 5.78 0 0 0 2.701 1.896l-17.794 47.752a40.07 40.07 0 0 0 6.105 4.025l2.872 1.906.07-.472c4.858 2.123 10.98 3.462 16.515.85l1.502-.378-.24-.297a16.592 16.592 0 0 0 3.34-2.655l-1.507-51.15-1.29-16.716c4.25-.82 7.324-4.522 7.337-8.836z" fill="url(#a)"/><path d="M343.919 201.486s-32.266 91.938-243.456 32.104l5.879-100.692 162.796-23.351 71.868 10.213s-4.423 43.782 2.913 81.726z" fill="#4B507D"/><path fill="#000" opacity=".15" d="M106.34 133.248v8.575l121.644 41.461 106.987-44.316 1.466-8.58-108.453 38.6z"/><path d="M341.001 119.76l-71.594-10.213-2.346.338 69.227 9.88s-4.385 43.778 2.923 81.722c0 0-18.004 51.51-115.308 52.325 101.423.841 120.016-52.325 120.016-52.325-7.303-37.95-2.918-81.727-2.918-81.727z" fill="#000" opacity=".15"/><path fill="#4B507D" d="M429.103 78.553h4.591v25.109h-4.591z"/><path fill="#000" opacity=".1" d="M429.103 78.553h4.591v25.109h-4.591z"/><path d="M405.59 182.293s16.864 14.533 28.104 2.876l-1.406-48.865-8.429-4.313-18.268 50.302z" fill="#4B507D"/><path d="M405.59 182.293s16.864 14.533 28.104 2.876l-1.406-48.865-8.429-4.313-18.268 50.302z" fill="#000" opacity=".1"/><path fill="#4B507D" d="M5.878 86.115v10.159l221.996 82.735 199.942-88.538-1.466-8.712-199.947 87.092z"/><path fill="#000" opacity=".07" d="M5.878 86.115v10.159l221.996 82.735 199.942-88.538-1.466-8.712-199.947 87.092z"/><path fill="#4B507D" d="M5.878 85.656l221.518 85.338 198.816-89.72-211.637-54.02z"/><ellipse fill="#4B507D" cx="218.717" cy="77.214" rx="14.052" ry="8.814"/><ellipse fill="#000" opacity=".1" cx="218.717" cy="77.214" rx="14.052" ry="8.814"/><path fill="#4B507D" d="M229.781 78.553h203.912v2.666H229.781z"/><path fill="#000" opacity=".1" d="M229.781 78.553h203.912v2.666H229.781z"/><ellipse fill="#4B507D" cx="429.795" cy="110.612" rx="8.173" ry="8.012"/><ellipse fill="#000" opacity=".1" cx="429.795" cy="110.612" rx="8.173" ry="8.012"/><path d="M420.019 133.364s2.683 4.234 12.072 1.362l-1.342-17.698h-4.026l-6.704 16.336z" fill="#4B507D"/><path d="M420.019 133.364s2.683 4.234 12.072 1.362l-1.342-17.698h-4.026l-6.704 16.336z" fill="#000" opacity=".1"/><path fill="#FFF" opacity=".2" d="M409.866 185.118l4.59-6.102-1.148 8.543zM425.897 181.688v7.475l4.59-1.246z"/><path d="M129.319 186.497s43.612 11.741 69.784 4.681l-69.784-4.681zM250.088 195.379s45.73 2.586 68.715-11.02l-68.715 11.02zM281.616 230.31s26.352-9.522 39.859-19.232l-39.86 19.231zM117.563 208.406s46.422 16.708 58.028 10.277l-58.029-10.277z" fill="#000" opacity=".15"/><ellipse fill="#E0E0E0" transform="rotate(-68.68 17.61 192.035)" cx="17.61" cy="192.035" rx="17.797" ry="2.602"/><ellipse fill="#E0E0E0" transform="rotate(-68.68 261.3 287.257)" cx="261.3" cy="287.257" rx="17.789" ry="1.777"/><path fill="#F55F44" d="M124.438 246.77l8.908 6.096-20.39 29.584-8.908-6.096z"/><path fill="#000" opacity=".05" d="M129.084 286.209l-11.68-1.723 4.962-35.593 11.68 1.723z"/><path fill="#F55F44" d="M128.416 286.539l-10.317-1.51 4.863-35.59 10.317 1.51z"/><path fill="url(#b)" transform="rotate(-68.68 139.458 239.592)" d="M119.654 109.48l38.942.1.666 260.125-38.942-.1z"/><path d="M253.924 303.519c-4.74-1.76-246.145-95.148-242.665-93.793 11.1-20.55 13.58-34.451 13.58-34.451l242.664 93.793s-6.89 14.902-13.579 34.45z" fill="#F5F5F5"/><path fill="#000" opacity=".05" d="M131.95 215.77l19.333 7.471-13.015 33.566-19.333-7.471z"/><path fill="#F55F44" d="M131.973 217.316l17.649 6.886-13.12 33.605-17.649-6.886z"/><path fill="#000" opacity=".05" d="M134.47 218.34l11.658 4.58-12.997 33.525-11.658-4.58z"/><path fill="#F55F44" d="M135.3 218.682l9.957 3.923-12.951 33.5-9.957-3.923z"/><ellipse fill="#4B507D" transform="rotate(-.86 169.028 300.547)" cx="169.028" cy="300.547" rx="1" ry="1"/><g opacity=".5" fill="#43434A"><path d="M45.844 255.96h1.633v9.084h-1.633z"/><path d="M51.216 259.701v1.603h-9.113v-1.603z"/></g><g opacity=".5" fill="#7980CA"><path d="M449.163 144.281h1.389v7.475h-1.39z"/><path d="M453.792 147.36v1.318h-7.869v-1.319z"/></g><g opacity=".5" fill="#43434A"><path d="M54.794 31.528h1.389v7.475h-1.389z"/><path d="M59.423 34.606v1.32h-7.868v-1.32z"/></g><g opacity=".5" fill="#BDBFD3"><path d="M401.069 17.634h1.389v7.475h-1.389z"/><path d="M405.698 20.712v1.32h-7.868v-1.32z"/></g><path d="M35.114 134.7c-.718-.302-1.082-1.06-.848-1.767a.667.667 0 0 0 .034-.163.733.733 0 0 0-.509-.734.81.81 0 0 0-.894.249.693.693 0 0 0-.085.143c-.323.674-1.131 1.016-1.883.796a.794.794 0 0 0-.956.446.706.706 0 0 0 .418.92c.718.302 1.082 1.061.848 1.767a.73.73 0 0 0 .463.923.81.81 0 0 0 .91-.255.693.693 0 0 0 .085-.143c.323-.674 1.131-1.016 1.883-.796a.794.794 0 0 0 .956-.446.706.706 0 0 0-.265-.84.755.755 0 0 0-.157-.1z" fill="#2D2F4A" opacity=".5"/><path d="M127.027 29.429c-.718-.303-1.083-1.062-.848-1.767a.667.667 0 0 0 .034-.164.733.733 0 0 0-.509-.734.81.81 0 0 0-.895.249.693.693 0 0 0-.085.143c-.322.674-1.13 1.016-1.882.796a.794.794 0 0 0-.956.446.706.706 0 0 0 .417.92c.719.302 1.083 1.061.848 1.767a.73.73 0 0 0 .463.923.81.81 0 0 0 .911-.254.693.693 0 0 0 .085-.144c.323-.674 1.13-1.016 1.883-.796a.794.794 0 0 0 .956-.446.706.706 0 0 0-.265-.84.755.755 0 0 0-.157-.1zM151.074 308.373c-.719-.303-1.083-1.062-.848-1.768a.667.667 0 0 0 .034-.163.733.733 0 0 0-.51-.734.81.81 0 0 0-.894.248.693.693 0 0 0-.085.144c-.322.674-1.13 1.016-1.882.796a.794.794 0 0 0-.956.446.706.706 0 0 0 .417.92c.718.302 1.083 1.06.848 1.767a.73.73 0 0 0 .463.923.81.81 0 0 0 .911-.255.693.693 0 0 0 .085-.143c.322-.674 1.13-1.016 1.882-.796a.794.794 0 0 0 .957-.446.706.706 0 0 0-.265-.84.755.755 0 0 0-.157-.1z" fill="#7980CA" opacity=".5"/><ellipse fill="#4B507D" opacity=".5" cx="435.406" cy="236.458" rx="2.563" ry="2.402"/><ellipse fill="#7980CA" opacity=".5" cx="294.331" cy="305.927" rx="2.563" ry="2.402"/><ellipse fill="#43434A" opacity=".5" cx="348.837" cy="246.611" rx="2.563" ry="2.402"/><ellipse fill="#BDBFD3" opacity=".5" cx="249.444" cy="2.402" rx="2.563" ry="2.402"/></g></svg>