<svg id="meditate" width="319" height="312" xmlns="http://www.w3.org/2000/svg"><defs><linearGradient x1="50%" y1="99.986%" x2="50%" y2=".011%" id="a"><stop stop-color="gray" stop-opacity=".25" offset="0%"/><stop stop-color="gray" stop-opacity=".12" offset="54%"/><stop stop-color="gray" stop-opacity=".1" offset="100%"/></linearGradient></defs><g fill="none" fill-rule="evenodd"><path d="M312.235 260.106H7.158c-3.735 0-6.76 1.88-6.76 4.197v43.402c0 2.317 3.025 4.197 6.76 4.197h305.077c3.735 0 6.765-1.88 6.765-4.197v-43.402c0-2.317-3.03-4.197-6.765-4.197z" fill="#7980CA"/><path d="M312.235 260.106H7.158c-3.735 0-6.76 1.88-6.76 4.197v43.402c0 2.317 3.025 4.197 6.76 4.197h305.077c3.735 0 6.765-1.88 6.765-4.197v-43.402c0-2.317-3.03-4.197-6.765-4.197z" fill="#000" opacity=".2"/><rect fill="#7980CA" x=".409" y="260.106" width="318.591" height="48.774" rx="5.768"/><path fill="#FFF" opacity=".05" d="M.409 266.834H319v4.205H.409zM.409 276.644H319v4.205H.409zM.409 286.454H319v4.205H.409zM.409 296.265H319v4.205H.409z"/><g opacity=".5"><path d="M270.736 85.608a4.464 4.464 0 0 0-5.819.54 4.557 4.557 0 0 0 .18 6.35l5.562 5.528a.93.93 0 0 0 1.314 0l5.528-5.56a4.557 4.557 0 0 0 .148-6.35 4.456 4.456 0 0 0-5.815-.513.942.942 0 0 1-1.098.005z" fill="#7980CA"/><path d="M271.355 97.81a.819.819 0 0 0 0 .773 4 4 0 0 1 .217.36c.143.357-.107.746-.36 1.036-.16.184-.336.43-.234.655.05.081.114.153.188.213a1.367 1.367 0 0 1-.52 2.285" stroke="#7980CA" stroke-width=".5"/></g><g opacity=".5"><path d="M33.227 115.907a4.464 4.464 0 0 0-5.82.54 4.557 4.557 0 0 0 .181 6.35l5.561 5.528a.93.93 0 0 0 1.314 0l5.529-5.56a4.557 4.557 0 0 0 .147-6.35 4.456 4.456 0 0 0-5.815-.512.942.942 0 0 1-1.097.004z" fill="#7980CA"/><path d="M33.845 128.108a.819.819 0 0 0 0 .774 4 4 0 0 1 .217.36c.143.357-.106.746-.36 1.036-.16.185-.336.43-.234.656.05.08.114.153.189.212a1.367 1.367 0 0 1-.52 2.285" stroke="#7980CA" stroke-width=".5"/></g><g opacity=".5"><path d="M188.837.852a4.464 4.464 0 0 0-5.82.54 4.557 4.557 0 0 0 .18 6.35l5.562 5.528a.93.93 0 0 0 1.314 0l5.528-5.56a4.557 4.557 0 0 0 .148-6.35 4.456 4.456 0 0 0-5.815-.512.942.942 0 0 1-1.097.004z" fill="#4B507D"/><path d="M189.455 13.053a.819.819 0 0 0 0 .774 4 4 0 0 1 .217.36c.143.357-.107.746-.36 1.036-.16.185-.336.41-.234.655.05.081.114.153.189.213a1.367 1.367 0 0 1-.52 2.285" stroke="#4B507D" stroke-width=".5"/></g><g opacity=".5" fill="#43434A"><path d="M226.453 57.806h1.228v6.961h-1.228z"/><path d="M230.548 60.672V61.9h-6.961v-1.228z"/></g><g opacity=".5" fill="#4B507D"><path d="M84.766 164.672h1.228v6.961h-1.228z"/><path d="M88.861 167.538v1.229H81.9v-1.229z"/></g><g opacity=".5" fill="#BDBFD3"><path d="M52.825 49.208h1.228v6.96h-1.228z"/><path d="M56.92 52.074v1.228H49.96v-1.228z"/></g><g opacity=".5" fill="#4B507D"><path d="M271.088 156.893h1.228v6.96h-1.228z"/><path d="M275.184 159.759v1.228h-6.962v-1.228z"/></g><path d="M224.852 107.19a1.507 1.507 0 0 1-.819-1.818.487.487 0 0 0 .033-.168.753.753 0 0 0-1.372-.496.852.852 0 0 0-.082.148 1.507 1.507 0 0 1-1.818.819.753.753 0 0 0-.667 1.323c.045.032.095.06.147.081a1.503 1.503 0 0 1 .819 1.818.753.753 0 0 0 1.323.667.647.647 0 0 0 .081-.147 1.511 1.511 0 0 1 1.823-.84.725.725 0 0 0 .163.033.753.753 0 0 0 .5-1.355.647.647 0 0 0-.131-.065z" fill="#BDBFD3" opacity=".5"/><path d="M75.385 91.63a1.507 1.507 0 0 1-.82-1.817.487.487 0 0 0 .033-.168.753.753 0 0 0-1.371-.496.852.852 0 0 0-.082.148 1.507 1.507 0 0 1-1.818.819.753.753 0 0 0-.667 1.323c.045.032.094.06.147.081a1.503 1.503 0 0 1 .839 1.818.753.753 0 0 0 1.323.667.647.647 0 0 0 .082-.147 1.511 1.511 0 0 1 1.822-.84.725.725 0 0 0 .164.033.753.753 0 0 0 .5-1.355.647.647 0 0 0-.152-.065zM134.353 11.788a1.507 1.507 0 0 1-.82-1.818.487.487 0 0 0 .033-.168.753.753 0 0 0-1.371-.495.852.852 0 0 0-.082.147 1.507 1.507 0 0 1-1.818.84.753.753 0 0 0-.667 1.323c.045.032.094.06.146.081a1.503 1.503 0 0 1 .84 1.818.753.753 0 0 0 1.323.667.647.647 0 0 0 .081-.147 1.511 1.511 0 0 1 1.823-.84.725.725 0 0 0 .164.033.753.753 0 0 0 .348-1.441z" fill="#7980CA" opacity=".5"/><path d="M231.973 250.914l-19.926-15.3s-1.605-6.372-2.248-10.835c-.643-4.463-1.61-23.584-1.61-23.584.458-1.655.761-3.35.905-5.06.197-.042.41-.09.594-.144a9.93 9.93 0 0 0 6.712-5.786c2.047-5.093-.598-11.112-3.948-15.15-3.35-4.036-7.567-7.28-9.77-12.283-2.72-6.162-1.79-13.618-3.178-20.366a6.162 6.162 0 0 0-1.024-2.632c-.864-1.07-2.211-1.298-3.41-1.724-3.801-1.351-6.651-5.04-8.875-8.893-3.6-6.245-7.326-15.744-14.742-16.284-2.756-.2-5.63.729-8.419.72-4.32 0-8.6.054-12.883.647-1.531.21-3.116.496-4.394 1.503-4.386 3.472-2.4 12.64-6.625 16.378-1.258 1.105-2.867 1.507-4.288 2.268-5.356 2.866-7.735 10.51-7.42 17.385.151 3.227.819 6.58 2.723 8.935 1.511 1.883 3.657 2.964 5.066 4.954 2.264 3.202 1.957 7.456 1.711 11.78-3.03 1.27-5.462 2.727-6.228 4.295-2.596 5.27-2.26 23.285-2.26 23.285s.962 29.48-6.434 33.166l-27.65 19.12S74.739 240.26 69.915 250.3c-3.297 6.867 8.743 10.752 16.687 12.521-5.008 3.554-7.78 10.122-5.434 14.568 3.685 7.014 13.988 11.792 13.988 11.792s39.292 1.896 57.453-2.174h.3c7.71 1.396 18.775 2.866 27.648 1.982.172.41.291.671.291.671s56.92 4.783 67.203-14.658c5.274-9.974-.23-14.576-6.847-16.697 7.408-.59 15.844-2.662 16.814-8.963 1.77-11.497-26.044 1.572-26.044 1.572zm-5.733 6.097c-10.417 3.792-18.87 4.004-23.374 3.722-2.211-4.823-11.433-25.71-11.675-39.692.062-3.12.614-5.847 1.863-7.894 2.679-4.41 3.473-7.87 3.383-10.494v-.574a10.714 10.714 0 0 0-.23-2.387 6.28 6.28 0 0 1 .377 3.415c-.962 4.938 1.61 36.97 1.61 36.97s2.088 7.173 6.429 9.24l21.617 7.694zm-101.998-2.272l10-6.376s4.664-2.231 5.147-7.648l3.297-25.89c.223 1.11.517 2.204.88 3.276.582 1.7.82 4.189.869 7.153-.127 14.45-5.046 38.423-5.046 38.423h.058c0 .07-.025.127-.033.172l-.348.02c-8.088-.245-26.937-.95-37.486-2.411l22.662-6.72zm-17.436 15.088v.049h-2.457l2.457-.05z" fill="url(#a)" fill-rule="nonzero"/><path d="M185.43 131.757c2.145 3.758 4.913 7.37 8.599 8.668 1.159.409 2.457.642 3.276 1.686.525.768.866 1.647.995 2.568 1.34 6.575.442 13.843 3.071 19.858 2.13 4.868 6.204 8.037 9.443 11.964 3.24 3.927 5.778 9.798 3.817 14.76a9.635 9.635 0 0 1-6.49 5.643c-2.712.737-5.541.43-8.293-.057-3.628-.643-7.322-1.638-10.344-4.095-5.23-4.25-7.44-11.874-10.176-18.658-1.286-3.178-2.993-6.507-5.819-7.64-3.235-1.303-6.876.871-8.976 4.061-2.101 3.19-3.03 7.198-4.05 11.055-1.147 4.357-2.596 8.877-5.614 11.727a9.448 9.448 0 0 1-10.09 2.014c-3.358-1.396-6.012-4.938-6.786-9.045-1.187-6.326 1.663-13.92-1.839-18.924-1.36-1.937-3.435-2.993-4.893-4.828-1.822-2.297-2.486-5.568-2.63-8.709-.306-6.706 1.991-14.179 7.171-16.955 1.384-.741 2.928-1.13 4.144-2.21 4.095-3.64 2.163-12.58 6.4-15.97 1.23-.986 2.77-1.26 4.251-1.47 4.153-.573 8.276-.638 12.45-.626 2.698 0 5.478-.9 8.14-.704 7.166.536 10.766 9.798 14.242 15.887z" fill="#965D7B"/><path fill="#575988" d="M108.558 267.309l1.569 18.576 109.7-.655-2.092-20.28-37.088-4.315-65.037 3.926z"/><path fill="#000" opacity=".05" d="M108.558 267.309l1.569 18.576 109.7-.655-2.092-20.28-37.088-4.315-65.037 3.926z"/><path d="M180.74 280.288l-36.518 3.42s25.02 6.37 39.627 3.275l-3.108-6.695z" fill="#F7C4A7"/><path d="M180.74 280.288l-36.518 3.42s25.02 6.37 39.627 3.275l-3.108-6.695z" fill="#000" opacity=".1"/><path d="M152.923 149.457s7.15 18.802-3.419 27.192c-10.57 8.39-1.863 31.855-1.863 31.855l40.716-1.867s4.038-26.414 1.864-32.007c0 0-9.636 2.796-11.81-3.108-2.175-5.904-3.73-22.065-3.73-22.065h-21.758z" fill="#F7C4A7"/><path d="M143.6 263.198s-34.346-.778-44.444-3.276c-10.098-2.497-18.804 9.491-15.23 16.345 3.576 6.855 13.514 11.498 13.514 11.498s51.13 2.485 62.162-4.504c0 0 4.198-11.964 0-14.294h-53.3l39.312-.778-2.015-4.991zM198.144 259.623s11.503 2.486 27.35-3.73c0 0 29.686-.93 19.739 18.016-9.947 18.945-64.96 14.298-64.96 14.298s-3.275-6.993 0-8.856c3.277-1.863 31.704-13.832 40.562-13.21l-24.57 4.816 1.88-11.334z" fill="#575988"/><path d="M176.089 158.502c-.594-4.426-.942-8.034-.942-8.034H153.39a42.378 42.378 0 0 1 2.08 8.795 17.098 17.098 0 0 0 20.619-.761z" fill="#000" opacity=".1"/><ellipse fill="#F7C4A7" cx="164.811" cy="144.253" rx="17.093" ry="17.09"/><path d="M154.787 174.008s-20.512 3.885-22.998 9.007c-2.485 5.123-2.174 22.688-2.174 22.688s.93 28.743-6.216 32.318l-26.733 18.646s-18.955-16.624-23.62-6.838c-4.664 9.786 22.38 13.365 22.38 13.365l30.147-9.008 9.635-6.216s4.505-2.174 4.972-7.46l4.042-32.006 16.163-4.664h26.105l3.497-9.982s6.45 5.167 5.516 9.982c-.933 4.815 1.556 36.031 1.556 36.031s2.02 6.99 6.216 9.008l24.243 8.701s25.639 2.486 27.35-8.7c1.712-11.187-25.176 1.592-25.176 1.592L210.41 235.54s-1.552-6.216-2.174-10.568c-.623-4.353-1.552-22.995-1.552-22.995s5.904-19.58-11.192-22.995l-22.068-6.837-18.636 1.863z" fill="#F7C4A7"/><path d="M141.036 177.971l3.186 21.054s-3.276 9.79 0 19.424-4.042 45.535-4.042 45.535 38.386 12.283 61.834-1.867c0 0-17.248-36.36-9.947-48.479 7.302-12.12.123-16.861.123-16.861l1.122-22.294-5.282-1.556-3.108 22.065s-21.446 14.916-37.297 1.867l-3.42-23.932-3.17 5.044z" fill="#000" opacity=".1"/><path d="M163.206 202.976a12.593 12.593 0 0 0-16.298-4.582c5.205 3.91 10.946 4.955 16.298 4.582zM172.014 200.663a12.572 12.572 0 0 1 16.282-4.582c-5.192 3.894-10.93 4.934-16.282 4.582z" fill="#FFF" opacity=".07"/><path d="M141.036 177.971l3.186 19.965s-3.276 9.79 0 19.424-4.042 45.527-4.042 45.527 38.386 12.283 61.834-1.863c0 0-17.248-36.36-9.947-48.48 7.302-12.119.123-16.86.123-16.86l1.122-22.299-5.282-1.552-3.108 22.066s-21.446 14.916-37.297 1.863l-3.42-23.929-3.17 6.138z" fill="#000" opacity=".1"/><path d="M140.88 177.815l3.342 20.432s-3.276 9.79 0 19.424c3.276 9.635-4.042 45.527-4.042 45.527s38.386 12.283 61.834-1.863c0 0-17.248-36.363-9.947-48.483 7.302-12.12.123-16.857.123-16.857l1.122-22.299-5.282-1.551-3.108 22.065s-21.446 14.916-37.297 1.863l-3.42-23.928-3.325 5.67z" fill="#FC6681"/><path d="M156.654 270.81l8.08-1.094s9.324-11.964 16.007-2.796c0 0 2.797 5.904 6.216 6.989a45.918 45.918 0 0 0 7.15 1.556l-13.833 3.886s-6.06 3.574-12.432 2.64a24.11 24.11 0 0 0-11.188.934v-12.116z" fill="#F7C4A7"/><path d="M147.719 220.079s14.607 2.174 17.092-1.708M175.38 217.593s2.797 2.797 13.985.778M146.937 174.24s10.724 1.557 12.743.623M170.56 174.24s10.725 1.557 12.744.623M157.817 269.647s2.957 13.92 0 14.412c-2.957.492-7.146-2.293-7.146-2.604 0-.311 1.863-9.167 1.863-9.167l5.283-2.641z" fill="#000" opacity=".1"/><path d="M157.51 269.647s2.952 13.92 0 14.412c-2.953.492-7.15-2.293-7.15-2.604 0-.311 1.863-9.167 1.863-9.167l5.287-2.641z" fill="#575988"/><path d="M143.083 172.202c-1.306 3.026-1.769 6.596-.385 9.585 1.057 2.28 3.125 4.127 3.522 6.609.5 3.115-1.81 6.276-.946 9.31.328 1.16 1.093 2.142 1.871 3.063 2.367 2.797 5.512 5.507 9.165 5.29.581-5.642-4.3-11.116-2.703-16.558.574-1.949 1.917-3.57 2.728-5.43 1.347-3.082 1.154-6.604.667-9.932-.708-4.832-2.502-10.753-7.293-13.013-2.2-1.04-5.324-1.117-6.106 1.708-.43 1.506.574 2.923.709 4.397.168 1.871-.504 3.292-1.229 4.97z" fill="#000" opacity=".1"/><path d="M143.083 171.74c-1.306 3.025-1.769 6.591-.385 9.584 1.057 2.277 3.125 4.128 3.522 6.605.5 3.116-1.81 6.277-.946 9.31.328 1.16 1.093 2.146 1.871 3.067 2.367 2.793 5.512 5.503 9.165 5.286.581-5.642-4.3-11.116-2.703-16.558.574-1.949 1.917-3.57 2.728-5.429 1.347-3.083 1.154-6.604.667-9.933-.708-4.832-2.502-10.752-7.293-13.012-2.2-1.04-5.324-1.114-6.106 1.707-.43 1.507.574 2.923.709 4.397.168 1.872-.504 3.292-1.229 4.975z" fill="#965D7B"/><path d="M144.3 135.863s22.686-3.107 23.308 1.552c.623 4.66 20.672 12.284 20.672 12.284l-4.976-12.284-9.168-15.227s-16.79-1.229-17.56 0c-.77 1.228-9.64 5.282-9.64 5.282l-2.637 8.393z" fill="#000" opacity=".1"/><path d="M144.3 135.552s22.686-3.108 23.308 1.552c.623 4.66 20.672 12.283 20.672 12.283l-4.976-12.283-9.168-15.227s-16.79-1.229-17.56 0c-.77 1.228-9.64 5.281-9.64 5.281l-2.637 8.394z" fill="#965D7B"/><path d="M183.792 168.754a11.055 11.055 0 0 1 2.276 4.557c.377 1.606.41 3.276.75 4.881.761 3.419 3.026 6.293 5.385 8.881a9.693 9.693 0 0 0 2.756 2.318c1.08.532 2.457.642 3.456 0-.95-.782-1.466-1.974-1.806-3.153a16.15 16.15 0 0 1-.63-5.081c.102-2.867.941-5.892-.25-8.505-.689-1.51-1.97-2.657-3.277-3.685a17.646 17.646 0 0 0-2.923-1.92c-1.933-.962-4.145-1.384-6.278-1.597-2.776-.282-.348 2.256.54 3.304z" fill="#000" opacity=".1"/><path d="M183.792 168.292a10.993 10.993 0 0 1 2.276 4.553c.377 1.605.41 3.275.75 4.88.761 3.42 3.026 6.294 5.385 8.881a9.693 9.693 0 0 0 2.756 2.318c1.08.532 2.457.643 3.456 0-.95-.782-1.466-1.97-1.806-3.153a16.15 16.15 0 0 1-.63-5.081c.102-2.866.941-5.892-.25-8.504-.689-1.507-1.97-2.654-3.277-3.686a17.412 17.412 0 0 0-2.923-1.924c-1.933-.962-4.145-1.384-6.278-1.597-2.776-.278-.348 2.26.54 3.313z" fill="#965D7B"/></g></svg>