<svg id="quote" width="21" height="19" xmlns="http://www.w3.org/2000/svg"><path d="M0 12.81c0-1.91.453-3.96 1.358-6.147C2.264 4.475 3.682 2.254 5.612 0L7.97 1.633c-.318.402-.681.946-1.09 1.634A19.405 19.405 0 0 0 4.837 8.21c-.239.927-.358 1.82-.358 2.68.298-.096.537-.153.716-.172.18-.02.378-.029.597-.029.537 0 1.06.077 1.567.23a3.88 3.88 0 0 1 1.343.702c.389.315.702.716.94 1.203.24.487.359 1.075.359 1.763 0 .592-.11 1.156-.328 1.69a4.266 4.266 0 0 1-.926 1.405 4.476 4.476 0 0 1-1.433.96c-.557.239-1.184.358-1.88.358-.916 0-1.712-.158-2.388-.473a4.6 4.6 0 0 1-1.687-1.318 5.89 5.89 0 0 1-1.015-1.977A8.303 8.303 0 0 1 0 12.81zm11 0c0-1.91.453-3.96 1.358-6.147.906-2.188 2.324-4.409 4.254-6.663l2.358 1.633c-.318.402-.681.946-1.09 1.634a19.405 19.405 0 0 0-2.044 4.943c-.239.927-.358 1.82-.358 2.68.298-.096.537-.153.716-.172.18-.02.378-.029.597-.029.537 0 1.06.077 1.567.23a3.88 3.88 0 0 1 1.343.702c.389.315.702.716.94 1.203.24.487.359 1.075.359 1.763 0 .592-.11 1.156-.328 1.69a4.266 4.266 0 0 1-.926 1.405 4.476 4.476 0 0 1-1.433.96c-.557.239-1.184.358-1.88.358-.916 0-1.712-.158-2.388-.473a4.6 4.6 0 0 1-1.687-1.318 5.89 5.89 0 0 1-1.015-1.977A8.303 8.303 0 0 1 11 12.81z" fill="#F6F6F6" fill-rule="evenodd"/></svg>