<svg id="wallet" width="417" height="270" xmlns="http://www.w3.org/2000/svg"><defs><linearGradient x1="49.988%" y1="99.994%" x2="49.988%" y2="-.007%" id="a"><stop stop-color="gray" stop-opacity=".25" offset="0%"/><stop stop-color="gray" stop-opacity=".12" offset="54%"/><stop stop-color="gray" stop-opacity=".1" offset="100%"/></linearGradient></defs><g transform="translate(-1 -1)" fill="none" fill-rule="evenodd"><path fill="#85848B" d="M1.202 267.788h416.631v3.049H1.202z"/><path d="M331.282 213.954c0 2.346-13.651 9.183-29.866 9.183-16.216 0-28.85-6.837-28.85-9.183 0-2.345 13.142-1.59 29.374-1.59 16.23 0 29.342-.759 29.342 1.59z" fill="#504F60"/><path d="M331.282 213.954c0 2.346-13.651 9.183-29.866 9.183-16.216 0-28.85-6.837-28.85-9.183" fill="#000" opacity=".2"/><path d="M167.98 170.92c2.632.339 5.363.553 7.884-.266.397-.123.834-.397.794-.795a.963.963 0 0 0-.179-.397 24.57 24.57 0 0 1-2.381-4.544.397.397 0 0 0-.147-.206.373.373 0 0 0-.254 0c-1.163.306-2.168 1.057-3.323 1.379a4.717 4.717 0 0 1-1.81.135c-.524-.06-1.238-.493-1.715-.437.27 1.737.93 3.359 1.132 5.132zM217.754 166.52c1.735-1.192 3.533-2.444 4.557-4.285a.744.744 0 0 0 .123-.37.764.764 0 0 0-.147-.357 14.763 14.763 0 0 0-3.703-4.003 10.807 10.807 0 0 0-2.064 1.908c-.437.461-1.644 1.192-1.655 1.896 0 .398.46.859.674 1.193.29.429.564.866.826 1.311.15.219 1.528 2.62 1.39 2.707z" fill="#7980CA"/><path d="M178.297 176.243a1.77 1.77 0 0 1-.317 1.153 1.56 1.56 0 0 1-.667.398c-3.68 1.32-7.939-.326-11.61.973-.755.267-1.47.652-2.228.907a12.1 12.1 0 0 1-2.778.493 58.334 58.334 0 0 1-3.906.238 9.38 9.38 0 0 1-2.946-.258 3.538 3.538 0 0 1-2.258-1.793c-.2-.395-.24-.852-.112-1.276.058-.145.14-.28.243-.398.248-.28.54-.517.865-.703l1.354-.875a9.082 9.082 0 0 1 2.052-1.089c.536-.175 1.103-.25 1.647-.397 1.902-.557 3.354-2.067 4.704-3.518l1.842-1.968c.172-.216.39-.391.639-.513.255-.085.527-.11.794-.075 1.789.128 3.517.708 5.021 1.685.385.29.8.534 1.239.732 1.08.421 2.465.103 3.461-.43.473-.254.37-.397.568-.85.198-.453.683-.744 1.103-.33.127.143.217.315.262.5.397 1.312.246 2.724.246 4.099-.011.215.016.43.08.636.101.207.222.404.361.588.028.049.054.1.075.151.243.61.335 1.268.266 1.92z" fill="#514E7F"/><path d="M178.297 176.243a1.77 1.77 0 0 1-.317 1.153 1.56 1.56 0 0 1-.667.398c-3.68 1.32-7.939-.326-11.61.973-.755.267-1.47.652-2.228.907a12.1 12.1 0 0 1-2.778.493 58.334 58.334 0 0 1-3.906.238 9.38 9.38 0 0 1-2.946-.258 3.538 3.538 0 0 1-2.258-1.793c-.2-.395-.24-.852-.112-1.276.058-.145.14-.28.243-.398.214.45.369 1.046.504 1.26a2.576 2.576 0 0 0 1.722 1.245 4.274 4.274 0 0 0 1.588-.203c3.335-.827 6.88-.839 10.083-2.09 1.1-.434 2.147-1.01 3.302-1.273 1.156-.262 2.382-.19 3.573-.29 1.882-.151 3.704-.72 5.557-1.018.24.614.326 1.278.25 1.932z" fill="#464353"/><path d="M226.182 166.278c-.175 1.4-1.06 2.603-2.033 3.625-.972 1.022-2.072 1.94-2.846 3.116-.953 1.46-1.381 3.268-2.62 4.5-.475.448-1.01.83-1.588 1.133-.647.383-1.332.698-2.044.942-1.85.592-3.842.457-5.776.314a5.19 5.19 0 0 1-1.833-.354 5.524 5.524 0 0 1-.763-.469 3.643 3.643 0 0 1-1.19-1.192 1.194 1.194 0 0 1-.116-.867c.11-.322.3-.612.552-.842.435-.453.902-.875 1.397-1.26a8.367 8.367 0 0 0 1.818-1.59 5.14 5.14 0 0 0 .703-1.59c.281-.992.453-2.012.512-3.041a9.652 9.652 0 0 1 .21-2.036c.294-1.049 1.072-1.987.985-3.072a.768.768 0 0 1 .04-.465.647.647 0 0 1 .365-.227 6.463 6.463 0 0 1 1.897-.441 2.21 2.21 0 0 1 1.763.691c.27.326.448.795.845.923.197.053.403.062.604.024.976-.1 2.008-.223 2.778-.855a3.472 3.472 0 0 0 1.151-2.532c0-.362-.162-.74.397-.795.421-.056.755.397.969.676.774 1.037 1.568 2.122 1.858 3.386a.995.995 0 0 1 .353-.067c.502-.005.975.237 1.266.648.316.512.439 1.122.346 1.717z" fill="#514E7F"/><path d="M226.182 166.278c-.175 1.4-1.06 2.603-2.033 3.625-.972 1.022-2.072 1.94-2.846 3.116-.953 1.46-1.381 3.268-2.62 4.5-.475.448-1.01.83-1.588 1.133-.647.383-1.332.698-2.044.942-1.85.592-3.842.457-5.776.314a5.19 5.19 0 0 1-1.833-.354 5.524 5.524 0 0 1-.763-.469 3.643 3.643 0 0 1-1.19-1.192c.372-.18.778-.277 1.19-.286.858.047 1.485.858 2.307 1.109 1.17.353 2.338-.473 3.525-.756.774-.182 1.587-.135 2.354-.397a5.818 5.818 0 0 0 1.742-1.057 8.877 8.877 0 0 0 1.862-1.797c.44-.687.806-1.418 1.091-2.182a31.22 31.22 0 0 1 2.207-4.23c.125-.214.276-.411.449-.588.187-.171.397-.29.607-.441.794-.6 1.124-1.59 1.402-2.56.075-.295.18-.581.313-.855.503-.004.976.238 1.266.648.342.525.476 1.158.378 1.777z" fill="#464353"/><path d="M142.945 42.344a8.428 8.428 0 0 1 2.382 2.783c.555 1.089 3.759 9.54 3.572 10.768 1.044-1.053 5.16-1.224 6.217-2.277.44-.442 2.818-2.644 3.175-3.157.357-.512 3.009-1.59 3.299-2.13 1.083-1.944-7.685-9.31-6.562-11.23a.501.501 0 0 0 .091-.302.493.493 0 0 0-.146-.234c-.719-.736-1.672-1.193-2.537-1.737-.865-.545-1.699-1.304-1.933-2.306a8.335 8.335 0 0 0-2.243 1.519c-1.609 1.38-3.19 2.789-4.743 4.225-.608.564-1.783 1.316-2.065 2.123-.333.866.913 1.482 1.493 1.955z" fill="#A1616A"/><path d="M157.14 39.216a25.84 25.84 0 0 0-3.755 3.077c-1.088 1.077-2.12 2.325-2.382 3.832-.111.592-.095 1.192-.186 1.792-.397 2.604-2.644 4.512-3.637 6.949a12.062 12.062 0 0 0-.63 2.325 27.524 27.524 0 0 0-.457 4.563c-.024 1.483 1.429 2.505 1.96 3.888.533 1.383.676 2.806.945 4.225.509 2.68 1.441 5.263 2.382 7.831 1.957 5.414 8.3 20.38 10.257 25.798 5.998-1.506 21.964-4.969 27.275-8.145 1.77-1.057-12.286-12.986-10.392-13.809a.707.707 0 0 0 .532-.998c-1.894-8.292-7.816-15.105-10.504-23.178-.933-2.802-2.608-5.195-3.878-7.859-1.151-2.412-1.766-5.08-3.144-7.373a4.65 4.65 0 0 0-1.004-1.252 5.92 5.92 0 0 0-1.108-.672c-.785-.382-1.516-.608-2.274-.994z" fill="#514E7F"/><ellipse fill="#A1616A" cx="143.263" cy="32.001" rx="9.388" ry="9.401"/><path d="M152.813 36.418a3.144 3.144 0 0 1 3.53-.51c.634.33 1.19.999 1.047 1.698l4.656.072a9.336 9.336 0 0 1 2.207.202c.73.16 1.381.569 1.842 1.157.056.076.12.167.215.179a.341.341 0 0 0 .214-.072 4.036 4.036 0 0 1 2.318-.397c2.517.163 4.843 1.423 6.816 2.997.355.245.632.59.794.99.162.529-.032 1.192.397 1.57 0 4.373 1.5 8.459 2.5 12.72.179.76.905 1.431 1.41 2.027a8.177 8.177 0 0 1 1.504 2.25c.85 2.21-.322 4.81.504 7.028.35.938 1.024 1.71 1.588 2.524a6.532 6.532 0 0 1 1.357 3.26c.036.532-.031 1.07 0 1.59.054.716.187 1.424.397 2.11.34 1.283.694 2.564 1.064 3.844.604 2.067 1.39 4.297 3.24 5.398-4.466.76-9.174 1.503-13.43-.051a6.959 6.959 0 0 1-1.675-.839c-1.536-1.097-2.278-2.973-2.941-4.746-.738-1.988-1.489-4.01-1.64-6.126a7.041 7.041 0 0 0-.281-1.987c-.433-1.153-1.588-1.849-2.636-2.488a12.657 12.657 0 0 1-3.176-2.473 4.945 4.945 0 0 1-1.286-3.713c.08-.656.338-1.288.361-1.947.024-.66-.27-1.416-.9-1.59-3.252-.986-4.804-4.842-5.526-8.165a26.247 26.247 0 0 1-.417-5.207l-.044-3.391a4.479 4.479 0 0 1-1.46-3.216 3.825 3.825 0 0 0-.02-1.065 2.938 2.938 0 0 0-.747-1.133 10.112 10.112 0 0 1-1.782-2.5zM142.814 47.166c-.107 1.05.131 2.127-.103 3.156-.092.398-.25.795-.365 1.165a6.846 6.846 0 0 0 .432 4.424 24.654 24.654 0 0 0 2.259 3.916c.295.42.537.876.722 1.355.15.503.244 1.022.278 1.546a48.09 48.09 0 0 0 1.104 6.25c.444 1.78 5.494 17.004 6.669 18.415.213.313.536.533.905.617.265.01.53-.045.77-.16l2.381-.914c.203-.062.39-.165.552-.302.223-.261.345-.594.342-.938.17-1.94-4.89-17.271-5.534-19.104-1.945-5.533-4.533-10.868-5.8-16.596-.353-1.59-.54-4.038-1.702-5.306-.48-.525-.318-.302-.893-.028-.291.126-.573.274-.842.441a2.76 2.76 0 0 0-1.175 2.063z" fill="#464353"/><path d="M150.042 57.664c.64 3.383 1.299 6.758 1.953 10.14l9.32-2.444c.076-.978-.444-1.884-.793-2.783-.85-2.134-.87-4.511-1.556-6.706-.52-1.67-1.425-3.203-1.913-4.885-.282-.978-.425-1.987-.703-2.977a21.643 21.643 0 0 0-1.096-2.842 17.8 17.8 0 0 0-2.032-3.773c-1.19.446-2.461.962-3.14 2.04a4.409 4.409 0 0 0-.58 1.987c-.162 2.095.596 4.202.346 6.285a18.51 18.51 0 0 0 .194 5.958z" fill="#7980CA"/><path d="M161.47 102.661c.525 1.988-.234 4.079-.853 6.046a46.914 46.914 0 0 0-1.897 9.103 7.888 7.888 0 0 1-.469 2.302c-.293.664-.793 1.224-1.135 1.856-.937 1.662-.913 3.689-.71 5.59.135 1.251.337 2.5.587 3.732.306 1.506.683 3.08.242 4.551.739-.163 1.239.795 1.191 1.546-.048.752-.29 1.59.072 2.238.913.334.92 1.59.893 2.564.015 1.689.228 3.37.635 5.009a798.497 798.497 0 0 0 4.398 19.899c3.354 1.041 7.272 2.126 10.472.683.595-.266 1.19-.691 1.325-1.335a2.332 2.332 0 0 0-.127-1.026l-1.516-5.525c-.37-1.336-.738-2.715-.544-4.086.147-1.022.592-2.123.091-3.025-.17-.31-.44-.553-.639-.847-.794-1.165-.377-2.723-.313-4.134a3.28 3.28 0 0 0-.064-.946 4.726 4.726 0 0 0-.452-1.038 15.887 15.887 0 0 1-1.747-7.894c.048-.35 0-.705-.139-1.03a3.332 3.332 0 0 1-.258-.42c-.059-.256-.03-.524.084-.76a6.951 6.951 0 0 1-1.223-1.193 1.713 1.713 0 0 0 .294-2.679.894.894 0 0 0 .424-1.538c-.194-.135-.452-.195-.591-.398-.214-.294-.04-.703.135-1.017l.925-1.674c.69-1.244.845-2.782 1.588-3.975 1.063-1.737 1.758-3.673 2.445-5.589l2.671-7.381 1.799 1.562a5.69 5.69 0 0 1 1.476 1.685c.256.647.418 1.327.48 2.02.66 4.006 3.176 7.48 4.109 11.428.206.878.345 1.8.85 2.552.18.23.342.475.484.731.131.391.2.8.202 1.213a5.658 5.658 0 0 0 2.382 4.054c.885.608 1.985 1.026 2.465 1.988.096.297.23.582.397.846.429.517 1.353.577 1.536 1.225.103.361-.087.795.115 1.113.115.147.267.26.44.33l2.585 1.291c2.89 1.447 4.366 4.77 6.498 7.191a15.5 15.5 0 0 1 1.945 2.576c.921 1.65 1.346 3.72 2.902 4.77.418.217.799.5 1.127.839.488.644.31 1.546.353 2.357.044.81.663 1.777 1.433 1.53a5.664 5.664 0 0 0 0 3.002 15.073 15.073 0 0 0 9.154-3.713c.754-.66 1.48-1.503 1.489-2.504a.9.9 0 0 0-.112-.497 1.417 1.417 0 0 0-.583-.442c-2.417-1.311-3.144-4.352-4.366-6.82-1.068-2.179-2.648-4.055-3.97-6.078-2.874-4.353-4.835-9.62-9.181-12.494-.957-.632-2.069-1.192-2.549-2.238-.266-.584-.298-1.252-.508-1.856-.21-.604-.714-1.193-1.358-1.193.358-.874.286-1.94.31-2.886a3.65 3.65 0 0 0-.143-1.244 6.057 6.057 0 0 0-.639-1.232 11.835 11.835 0 0 1-1.635-6.36c.031-1.149.234-2.333-.111-3.43-.175-.553-.48-1.058-.691-1.59a9.95 9.95 0 0 1-.496-2.99l-.239-3.82a18.819 18.819 0 0 0-.492-3.776c-.794-2.965-1.588-15.387-4.307-16.787-2.719-1.399-7.39 8.161-10.451 8.348a13.595 13.595 0 0 0-3.97.767c-2.036.763-3.743 2.186-5.406 3.578l-5.63 4.734c-1.19.982-2.174 1.92-3.488 2.611zM134.454 21.563c1.239-1.693 3.366-2.592 5.462-2.667 2.096-.076 4.16.584 6.038 1.518a7.453 7.453 0 0 0 1.762.724c.993.202 2.096-.068 2.993.397 1.191.632 1.421 2.242 1.318 3.578-.103 1.335-.353 2.818.357 3.975.253.33.482.676.687 1.037.306.688.127 1.483-.055 2.21-.465-.397-.727-.997-1.14-1.459-.412-.46-1.13-.77-1.643-.425-.512.346-.504.974-.532 1.538-.028.565-.17 1.24-.703 1.423a1.138 1.138 0 0 1-1.19-.465c-.91-1.113-.544-2.89-1.445-4.01-.512-.636-1.366-.946-1.838-1.614-.373-.525-.469-1.193-.794-1.757-.326-.565-1.084-.978-1.588-.589a2.15 2.15 0 0 0-.425.569 2.44 2.44 0 0 1-2.897.874 4.843 4.843 0 0 0-1.255-.544 1.552 1.552 0 0 0-1.433.795 3.108 3.108 0 0 0-.397 1.661c0 .795.143 1.642-.31 2.278-.171.24-.387.444-.634.604-.663.426-1.588.712-2.2.227a1.655 1.655 0 0 1-.492-1.542c.12-.554.276-1.098.469-1.63.349-1.232-.107-2.62.274-3.78.399-1.046.941-2.03 1.611-2.926z" fill="#464353"/><path d="M139.484 49.607c-.06.29-.03.59.087.862.118.185.279.34.468.45a9.62 9.62 0 0 0 4.422 1.434c.214.004.423.059.612.16.373.246.397.794.258 1.232-.186.412-.282.86-.282 1.312.115.83 1.1 1.192 1.929 1.315 1.163.147 2.437.072 3.358-.656a5.196 5.196 0 0 0 1.386-2.079c2.278-5.243 3.076-11.038 5.382-16.265.175-.342.292-.71.346-1.09.05-.387-.115-.77-.43-1.001-.428-.267-1.095-.116-1.384-.533-.143-.21-.128-.497-.255-.72-.265-.472-.964-.397-1.44-.671-.374-.199-.632-.608-1.048-.688a1.317 1.317 0 0 0-1.084.47c-1.354 1.263-2.064 3.056-2.818 4.75a55.711 55.711 0 0 1-4.033 7.488c.178-.278-.858-2.385-1.263-2.476-.71-.143-1.62 1.105-2.004 1.57a10.008 10.008 0 0 0-2.207 5.136z" fill="#7980CA"/><path d="M153.905 33.726a1.9 1.9 0 0 0-1.473.74c-.425.552-.508 1.284-.615 1.987a17.286 17.286 0 0 1-2.338 6.289M155.93 35.313c-.802.017-1.533.457-1.926 1.156a6.507 6.507 0 0 0-.484 1.964 10.783 10.783 0 0 1-1.925 4.13" fill="#000" opacity=".1"/><path d="M250.269 113.024v-4.937c-.003-7.568-6.13-13.702-13.687-13.702h-194.7c-7.558 0-13.685 6.134-13.687 13.702v9.103l222.074-4.166z" fill="#2D2F4A"/><path d="M96.045 88.598s-.555 34.527 5.558 45.888c6.113 11.36 8.733 60.782 8.733 60.782s64.083 6.638 108.74-7.95c44.657-14.589 139.68-20.555 139.68-20.555L342.741 58.686s-79.108-5.08-124.11 16.413C173.629 96.592 96.045 88.598 96.045 88.598z" fill="#8DD070"/><path d="M96.045 88.598s-.555 34.527 5.558 45.888c6.113 11.36 8.733 60.782 8.733 60.782s64.083 6.638 108.74-7.95c44.657-14.589 139.68-20.555 139.68-20.555L342.741 58.686s-79.108-5.08-124.11 16.413C173.629 96.592 96.045 88.598 96.045 88.598z" fill="#000" opacity=".1"/><path d="M110.228 101.21s-2.004 28.49 3.025 37.592c5.03 9.103 5.264 49.74 5.264 49.74s57.673 2.68 98.697-11.305c41.025-13.984 127.235-23.055 127.235-23.055l-9.797-88.385s-71.332-.735-112.964 18.949c-41.632 19.684-111.46 16.465-111.46 16.465z" fill="#8DD070"/><ellipse fill="#000" opacity=".1" transform="rotate(-7.1 217.085 129.143)" cx="217.085" cy="129.143" rx="14.973" ry="32.157"/><path d="M299.371 6.036S222.518 25.514 186.276 59.8c-36.241 34.284-112.535 50.518-112.535 50.518s10.05 33.029 19.347 41.965 26.93 55.173 26.93 55.173 63.023-13.38 101.05-40.998c38.029-27.619 126.656-62.5 126.656-62.5L299.37 6.037z" fill="#000" opacity=".2"/><path d="M72.586 105.372s10.046 33.033 19.335 41.969c9.289 8.936 26.93 55.17 26.93 55.17s63.03-13.377 101.063-40.995c38.032-27.619 126.65-62.488 126.65-62.488L298.213 1.095s-76.85 19.478-113.091 53.763c-36.242 34.284-112.535 50.514-112.535 50.514z" fill="#8DD070"/><path d="M72.586 105.372s10.046 33.033 19.335 41.969c9.289 8.936 26.93 55.17 26.93 55.17s63.03-13.377 101.063-40.995c38.032-27.619 126.65-62.488 126.65-62.488L298.213 1.095s-76.85 19.478-113.091 53.763c-36.242 34.284-112.535 50.514-112.535 50.514z" fill="#000" opacity=".1"/><path d="M89.936 113.02s6.824 27.734 14.402 34.85c7.577 7.115 20.244 45.712 20.244 45.712s55.708-15.176 90.47-41.094c34.76-25.917 114.039-61.004 114.039-61.004l-36.404-81.139S224.574 31.56 190.98 63.09c-33.594 31.53-101.044 49.93-101.044 49.93z" fill="#8DD070"/><ellipse fill="#000" opacity=".1" transform="rotate(-24.97 200.21 106.768)" cx="200.21" cy="106.768" rx="14.977" ry="32.15"/><path d="M255.524 117.87v137.138c0 3.146-1.248 6.163-3.47 8.386a11.833 11.833 0 0 1-8.375 3.472H40.043c-6.538-.002-11.837-5.31-11.837-11.858V104.045c5.836 2.17 5.836 2.17 11.837 1.987H243.68c6.533 0 11.832 5.296 11.845 11.838z" fill="#000" opacity=".1"/><path d="M255.524 119.615v137.138c-.002 6.55-5.305 11.858-11.845 11.858H40.043c-6.538-.002-11.837-5.31-11.837-11.858V105.786c5.836 2.166 5.836 2.166 11.837 1.987H243.68c6.534 0 11.834 5.299 11.845 11.842z" fill="#4B507D"/><path d="M254.945 170.316v43.857H212.47c-11.979-.162-21.605-9.932-21.605-21.928 0-11.997 9.626-21.767 21.605-21.929h42.474z" fill="#000" opacity=".1"/><path d="M255.524 169.148v43.864H213.05c-11.978-.161-21.604-9.931-21.604-21.928 0-11.997 9.626-21.767 21.604-21.928l42.474-.008z" fill="#43434A"/><ellipse fill="#000" opacity=".1" cx="215.087" cy="192.247" rx="8.538" ry="8.55"/><ellipse fill="#7980CA" cx="215.666" cy="191.086" rx="8.538" ry="8.55"/><path d="M329.25 168.77c.337 3.661-2.43 7.215-1.624 10.8.175.768.504 1.491.623 2.266.334 2.13-.932 4.146-2.143 5.927l-10.4 15.28a9.486 9.486 0 0 1-1.485 1.836c-1.985 1.773-4.97 1.59-7.582 2.119a12.948 12.948 0 0 0-5.08 2.25.326.326 0 0 0-.048.445 4.364 4.364 0 0 0 3.779 1.777c.274.362 0 .89-.397 1.149-.56.397-1.326.493-1.437 1.439-.04.33.027.664.19.954a2.957 2.957 0 0 0 1.819 1.268c3.6 1.1 7.49-.835 10.185-3.47 2.696-2.636 4.629-5.963 7.272-8.646 1.465-1.483 3.128-2.755 4.637-4.194 3.009-2.87 5.347-6.36 7.605-9.854.68-1.053 1.362-2.134 1.648-3.355.286-1.22.15-2.452.472-3.633.42-1.55 1.552-2.783 2.493-4.082 1.846-2.544 3.076-5.657 2.834-8.79-.242-3.131-2.183-6.228-5.136-7.293a4.559 4.559 0 0 0-2.878-.175c-1.211.373-2.104 1.375-2.93 2.333l-1.985 2.286a5.359 5.359 0 0 0-1.15 1.749c-.26.67-.105 1.43.396 1.944" fill="#FBBEBE"/><path d="M329.25 168.77c.337 3.661-2.43 7.215-1.624 10.8.175.768.504 1.491.623 2.266.334 2.13-.932 4.146-2.143 5.927l-10.4 15.28a9.486 9.486 0 0 1-1.485 1.836c-1.985 1.773-4.97 1.59-7.582 2.119a12.948 12.948 0 0 0-5.08 2.25.326.326 0 0 0-.048.445 4.364 4.364 0 0 0 3.779 1.777c.274.362 0 .89-.397 1.149-.56.397-1.326.493-1.437 1.439-.04.33.027.664.19.954a2.957 2.957 0 0 0 1.819 1.268c3.6 1.1 7.49-.835 10.185-3.47 2.696-2.636 4.629-5.963 7.272-8.646 1.465-1.483 3.128-2.755 4.637-4.194 3.009-2.87 5.347-6.36 7.605-9.854.68-1.053 1.362-2.134 1.648-3.355.286-1.22.15-2.452.472-3.633.42-1.55 1.552-2.783 2.493-4.082 1.846-2.544 3.076-5.657 2.834-8.79-.242-3.131-2.183-6.228-5.136-7.293a4.559 4.559 0 0 0-2.878-.175c-1.211.373-2.104 1.375-2.93 2.333l-1.985 2.286a5.359 5.359 0 0 0-1.15 1.749c-.26.67-.105 1.43.396 1.944" fill="#000" opacity=".05"/><path d="M337.121 263.018c-2.27 1.387-5.1 1.47-7.74 1.149-.425-.052-.93-.084-1.191.246-.397.477.071 1.193.556 1.563a11.443 11.443 0 0 0 5.315 2.19c1.722.244 3.46.36 5.2.346 4.763.083 9.527.163 14.215-.521.277-.021.548-.1.794-.23.302-.213.512-.533.587-.895.322-1.224-.298-2.536-1.234-3.387-.937-.85-2.14-1.323-3.315-1.78l-4.128-1.61c-.969-.378-2.52-1.38-3.573-1.3-1.977.143-3.846 3.267-5.486 4.23z" fill="#3F3D56"/><path d="M337.121 263.018c-2.27 1.387-5.1 1.47-7.74 1.149-.425-.052-.93-.084-1.191.246-.397.477.071 1.193.556 1.563a11.443 11.443 0 0 0 5.315 2.19c1.722.244 3.46.36 5.2.346 4.763.083 9.527.163 14.215-.521.277-.021.548-.1.794-.23.302-.213.512-.533.587-.895.322-1.224-.298-2.536-1.234-3.387-.937-.85-2.14-1.323-3.315-1.78l-4.128-1.61c-.969-.378-2.52-1.38-3.573-1.3-1.977.143-3.846 3.267-5.486 4.23z" fill="#000" opacity=".05"/><path d="M340.015 208.139c-1.719 2.29-3.497 4.933-3.072 7.767.23 1.526 1.083 2.874 1.71 4.285.85 1.916 1.295 3.975 1.731 6.026.643 2.997 1.29 6.003 1.683 9.047.449 3.439-1.659 13.388-1.853 16.85-.048.835-.147 1.738-.727 2.338-.226.238-.528.43-.631.74-.06.298-.011.609.139.874.968 2.186 2.95 3.816 5.16 4.746 2.211.93 7.542 2.536 9.952 2.62.317.035.639-.008.937-.124.32-.195.573-.486.722-.83 1.727-3.308.068-15.066.091-18.798.024-3.113.759-6.205.624-9.314-.112-2.496-.794-4.937-1.02-7.425-.398-4.079.349-8.177 1.099-12.208.572-3.092 1.147-6.185 1.882-9.238.448-1.864.968-3.744 1.984-5.362.794-1.284 1.91-2.357 2.835-3.577a16.163 16.163 0 0 0 3.175-11.822c-.055-.398-5.954 1.498-6.474 1.725a20.166 20.166 0 0 0-5.772 3.717c-1.365 1.304-2.441 3.045-3.636 4.503a416.096 416.096 0 0 0-5.01 6.237 350.664 350.664 0 0 0-5.529 7.223z" fill="#464353"/><path d="M340.015 208c-1.719 2.29-3.497 4.937-3.072 7.767.23 1.53 1.083 2.878 1.71 4.289.85 1.912 1.295 3.975 1.731 6.022.643 3.001 1.29 6.006 1.683 9.047.449 3.443-1.659 13.388-1.853 16.85-.048.835-.147 1.742-.727 2.342-.226.234-.528.425-.631.735-.06.299-.012.61.139.875.968 2.19 2.95 3.816 5.16 4.77 2.211.954 7.542 1.785 9.952 1.864.317.035.639-.007.937-.123.32-.194.573-.483.722-.827 1.727-3.307.068-14.31.091-18.047.024-3.116.759-6.205.624-9.317-.112-2.496-.794-4.937-1.02-7.422-.398-4.082.349-8.18 1.099-12.21.572-3.09 1.147-6.182 1.882-9.239.448-1.864.968-3.744 1.984-5.362.794-1.284 1.91-2.357 2.835-3.578a16.155 16.155 0 0 0 3.175-11.821c-.055-.398-5.954 1.498-6.474 1.725a20.261 20.261 0 0 0-5.772 3.72c-1.365 1.3-2.441 3.041-3.636 4.5a403.363 403.363 0 0 0-5.01 6.241 300.087 300.087 0 0 0-5.529 7.199z" fill="#000" opacity=".05"/><ellipse fill="#FBBEBE" cx="320.89" cy="148.064" rx="9.634" ry="9.647"/><path d="M329.567 147.659a12.476 12.476 0 0 0 7.999 5.589l-.727 2.643c-1.254 4.54-2.663 9.341-6.164 12.49.397-1.539-.111-3.18-.977-4.516-.865-1.336-2.08-2.385-3.27-3.423l-5.546-4.81c-.16-.13-.295-.289-.397-.468a1.413 1.413 0 0 1 0-1.058c.707-2.202 2.723-3.577 4.367-5.064a15.14 15.14 0 0 0 2.195-2.56c1.107-1.582 1.794.008 2.52 1.177z" fill="#FBBEBE"/><path d="M308.2 138.365l-.219-1.812c1.52.397 2.965-.899 3.938-2.238.972-1.34 1.874-2.918 3.354-3.479 1.798-.675 3.704.398 5.423 1.304a17.128 17.128 0 0 0 6.22 2.028c.348.011.694.067 1.028.167 1.12.397 1.651 1.804 1.814 3.08.163 1.276.119 2.632.67 3.768.398.863 1.136 1.503 1.589 2.354 1.19 2.281.04 5.402 1.282 7.64l-3.089-2.834c-.281-.259-.678-.53-.992-.31-.246.174-.266.552-.365.854-.298.883-1.401 1.145-2.2.795-.797-.35-1.38-1.109-1.984-1.8-1.366-1.614-2.993-3.034-4.898-3.721a6.28 6.28 0 0 0-5.16.342c-1.442.815-2.498 2.715-4.264 2.782-2.421.092-3.43-4.424-4.55-6.209a2.188 2.188 0 0 0 .636-2.735c.163-.067 1.73-.254 1.766.024z" fill="#464353"/><path d="M189.039 81.963c-.774.69-1.49 1.442-2.14 2.25a4.508 4.508 0 0 0-.984 2.89c.003.304.1.6.278.847.186.242.504.34.794.242.16-.081.296-.201.397-.35.42-.504.864-.987 1.333-1.446.171-.171.397-.35.628-.287a.67.67 0 0 1 .27.18c.267.23.461.534.56.874.138.608-.215 1.216-.616 1.693-.401.477-.873.934-1.036 1.535a.68.68 0 0 0 0 .492.739.739 0 0 0 .31.263 4.424 4.424 0 0 0 3.747.246c.794-.322 1.5-.874 2.318-1.16.354-.097.697-.23 1.024-.398.472-.315.8-.806.909-1.363a5.628 5.628 0 0 0 .06-1.674 19.266 19.266 0 0 0-1.366-6.292.795.795 0 0 0-.23-.334.734.734 0 0 0-.397-.108c-1.016-.107-2.683-.628-3.664-.25a2.59 2.59 0 0 0-.865.771c-.183.203-1.33 1.113-1.33 1.38z" fill="#A1616A"/><path d="M188.717 81.065c0-.97-1.19-3.311.703-3.466 0-1.038-1.465-1.682-1.19-2.783.086-.365.396-.663.432-1.037.119-1.061-1.794-1.638-1.477-2.655.12-.398.54-.628.631-1.022.215-.918-1.425-1.328-1.457-2.27 0-.318.18-.616.163-.934 0-.397-.345-.7-.536-1.045-.496-.887-.254-2.258-1.159-2.715.6.051.794-.839.548-1.384-.246-.544-.75-1.017-.754-1.621.03-.22.03-.441 0-.66-.167-.58-1.116-.628-1.274-1.193a5.087 5.087 0 0 1-.02-.652c-.064-.449-.524-.735-.957-.862a3.899 3.899 0 0 1-1.278-.457c-.278-.211-.6-.56-.897-.398-.111.068-.167.195-.25.29-.357.418-1.04.235-1.489-.071-1.326-.903-1.985-2.52-2.266-4.098-.282-1.579-.274-3.208-.628-4.77a10.203 10.203 0 0 0-.428-1.432c-.151-.397-.635-1.021-.667-1.423-.072-.914 1.818-.29 2.536-.198.698.068 1.388.2 2.06.397.719.272 1.422.581 2.108.926 2.866 1.268 6.328 1.423 8.63 3.554.758.7 1.397 1.618 2.382 1.936.451.087.897.202 1.334.346 1.091.512 1.262 1.963 1.857 3.013.187.277.35.57.488.874.115.36.169.736.16 1.113l.083 2.755c.135 4.615.27 9.242-.223 13.83-.158 1.514-.397 3.072.052 4.527.119.397.286.77.397 1.172.098.471.149.95.15 1.431l.064 1.785a.557.557 0 0 1-.087.398.571.571 0 0 1-.48.115c-2.481-.223-4.99-1.622-7.332-.775" fill="#464353"/><ellipse fill="#504F60" cx="301.936" cy="213.954" rx="29.358" ry="4.249"/><path d="M327.194 214.161c-.516-2.214-.838-4.158-.838-4.158s.12-2.409-.96-4.217v-5.057c.307-.808.683-1.589 1.123-2.333.794-1.4 0-6.527 0-6.527s-2.965-7.23-2.247-11.818c.719-4.587-6.09-20.368-6.09-20.368.043-1.522.257-3.034.64-4.507.073-.31.102-.629.087-.946v-.116.036c-.103-3.025-2.493-8.693-2.493-8.693l.322-10.804s1.524-6.36-.96-14.927c-.87-2.985-1.426-5.374-1.78-7.218-.039-.207-.078-.398-.11-.6 5.116-.796 9.026-1.432 9.026-1.432s-2.969-12.437-4.973-14.616c-2.005-2.178-3.609-9.02-3.609-9.02s-1.044-8.78.643-11.348c1.687-2.568 1.926-6.996 1.926-6.996s3.846-2.782 4.33-4.043c.485-1.26 1.283-4.042 1.283-5.517 0-1.475-.48-2.782-.322-3.577.159-.795-1.123-3.733-.48-5.132a3.769 3.769 0 0 0 .254-1.387 18.91 18.91 0 0 0-.338-3.65 10.336 10.336 0 0 0-3.81-2.039l-.084-.334-.218-.874a4.234 4.234 0 0 0-.377-.223v-.318l-.036-1.264.603-2.838c1.191-4.937-5.394-5.672-5.394-5.672a3.475 3.475 0 0 0-1.866-1.638c-1.322-.465-.218 7.425.397 7.95.465.398 1.902 2.854 2.596 4.07l.111.2a2.78 2.78 0 0 0-.301.317l.25 1.713.04.263a7.114 7.114 0 0 0-1.052 1.793s1.19 1.32.964 2.782c-.226 1.463.37 3.32.397 3.419-.071-.084-.917-.998-1.762-.776-.846.223-3.208.935-3.208.935s-1.762.31-1.588.7c.175.389-1.19 2.098-1.19 2.098l-4.74-4.5c-.048-.135-.1-.27-.139-.397a10.957 10.957 0 0 1-.397-1.988 10.83 10.83 0 0 0 1.517-.48 3.27 3.27 0 0 0 1.31-.843c.48-.569.571-1.34.766-2.048.373-1.383 1.19-2.611 1.758-3.927a12.784 12.784 0 0 0 .893-7.067 4.615 4.615 0 0 0-.726-2.068c-.774-1.065-2.18-1.498-3.2-2.349-1.02-.85-1.679-2.15-2.87-2.782-1.075-.577-2.381-.51-3.596-.31a19.366 19.366 0 0 0-6.72 2.448c-.691.398-1.453.887-2.247.74-.683-.124-1.19-.668-1.62-1.193a.398.398 0 0 1 .02-.063.397.397 0 0 1-.051-.064 8.393 8.393 0 0 0-.739 3.554c0 .19 0 .397.024.568v.362a.907.907 0 0 1-.036.25c-.1.243-.251.462-.444.64a4.289 4.289 0 0 0-.397.529c0-.064.04-.127.063-.195a2.829 2.829 0 0 0-.492 1.499c-.022.39.106.774.357 1.073.238.231.497.439.774.62a9.056 9.056 0 0 0-.142 1.59 9.189 9.189 0 0 0 4.47 7.835c.055.131.106.266.158.397.607 1.59 1.064 3.459.861 5.168 0 .123-.035.25-.055.374-.02.123-.12.13-.17.198 0 0-7.833.08-9.675-1.59-1.841-1.67-4.652 4.083-4.652 4.083s-2.806.544-3.37 0c-.564-.545-3.846-.076-3.846-.076a7.072 7.072 0 0 0-4.895-1.789 14.36 14.36 0 0 0-3.572-1.987l-.088-.032a3.996 3.996 0 0 0-1.766-.223s-3.85-3.18-4.974-4.897c-1.123-1.717-6.47-8.057-6.494-8.085v-.306l-.06-.922c-.159.025-.319.038-.48.04-.028-.092-.067-.2-.107-.323-.308-.9-.688-1.772-1.135-2.611 0 0 0-1.165.337-1.459.337-.294-.139-4.567-.139-4.567s-3.47-8.121-6.577-2.06c0 0-5.875 3.924-.945 8.495 0 0 1.985.954 2.247 1.71.182.488.85 1.86 1.298 2.782l.202.398-.055.047.071.763.032.295c-.93.528-1.56 1.053-1.405 1.447.273.673.461 1.378.56 2.098 0 0 6.819 8.555 7.7 12.208 0 0 18.288 10.883 24.301 11.658l-1.063 5.426a43.364 43.364 0 0 0-.239 4.433c.08 1.164-.722 6.451-.722 6.451s-1.044 7.775-1.925 8.864c-.881 1.09-.723 5.752-.723 5.752a39.347 39.347 0 0 1-1.19 6.607c-.882 2.953-.243 6.61-.243 6.61s-3.044 6.996 4.252 2.254c0 0 3.572-.223 7.708-.366v.398c0 .532 0 1.109-.027 1.713-.056 4.007-.08 9.54.103 13.706.321 7.386 2.568 22.002 2.568 22.002v7.357c-.145.69-.217 1.394-.214 2.1a13.673 13.673 0 0 0 1.985 7.35l.563 4.896s1.318 3.228 1.342 5.168a2.715 2.715 0 0 1-.056.465c-.051.247-.072.5-.063.751-.076 2.226 1.262 7.553 1.262 7.553s.08 5.362.881 5.676c.687.266-.917 3.089-1.393 3.9a1.11 1.11 0 0 1-.028-.151l-.099.159c-.165.434-.25.894-.25 1.36a1.949 1.949 0 0 0 .89 1.883c1.523.934 2.341 1.71 1.047 2.02-.476.074-.948.173-1.413.298 0-.06-.048-.124-.068-.18a.85.85 0 0 0-.528.939c.013.63.175 1.25.473 1.805 1.282 2.878 2.171 3.975 2.171 3.975l.615-.068c-.09.235-.21.458-.357.664a2.557 2.557 0 0 1-.905.795 2.8 2.8 0 0 1-1.1.378c-.879.028-1.704.43-2.27 1.105-.794 1.037-1.302 2.448.278 3.688l5.736 1.988s9.868 1.284 9.344-.934c-.524-2.218-.841-4.158-.841-4.158a8.775 8.775 0 0 0-.794-3.931 5.11 5.11 0 0 0-.35-.58l.35-.037s.722-4.9 1.683-5.83c.222-.216.274-.398.222-.51.1-.266-.155-.421-.476-.512l-.072.194a4.674 4.674 0 0 0-.956-.107s-.322-2.564.722-3.498a.99.99 0 0 0 .202-.763 4.108 4.108 0 0 0-.11-1.046.513.513 0 0 1-.036.064c-.524-2.33-2.303-6.03-2.303-6.03s-.08-2.33.564-3.264c.643-.934-.083-12.672-.083-12.672s.242-5.672-.48-8.316c-.723-2.643.88-5.756.88-5.756V159.953l-.09-.894a.23.23 0 0 0 0 .056c-.164-1.503-.47-4.226-.695-5.482-.322-1.788.083-10.335.083-10.335l1.44-3.657 2.57 6.3 2.726 8.396s1.35 1.773 1.382 3.577v.263a4.594 4.594 0 0 0-.032.56 4.998 4.998 0 0 0 .83 2.993s.722 3.975 1.845 4.973c1.124.998 1.124 2.954 1.124 2.954s1.361 5.755 1.984 6.757c.54.85.568 3.18.564 3.908v.206s.19 2.06.183 3.785v.616a5.994 5.994 0 0 1-.167 1.355l-.024.08c0-.1 0-.195.028-.29a14.628 14.628 0 0 0-.397 3.577c-.036 2.067.278 4.516 1.528 5.963 2.168 2.488 3.529 2.178 3.529 2.178s-1.04 3.108-2.326 3.732a.603.603 0 0 0-.135.088c0-.064-.024-.123-.032-.183-.29.314-.434.735-.397 1.16-.091 1.368.77 3.578 1.588 4.608.304.298.676.516 1.084.636a1.718 1.718 0 0 1-.203.123c-.143.079-.29.149-.44.21-.21.09-.43.147-.655.172a3.055 3.055 0 0 0-2.27 1.105c-.795 1.033-1.303 2.444.277 3.685l5.736 1.987s9.805 1.26 9.289-.954z" fill="url(#a)"/><path d="M289.519 217.834l-5.557-1.988c-1.533-1.24-1.044-2.65-.27-3.688a2.968 2.968 0 0 1 2.199-1.105 2.633 2.633 0 0 0 1.06-.378c.352-.192.654-.464.881-.795a4.11 4.11 0 0 0 .631-2.15s6.097-1.79 7.764 0c.298.323.547.689.739 1.085a9.094 9.094 0 0 1 .794 3.93s.31 1.94.813 4.159c.505 2.218-9.054.93-9.054.93zM316.686 215.091l-5.557-1.987c-1.532-1.24-1.044-2.652-.27-3.685a2.932 2.932 0 0 1 2.195-1.105c.22-.023.434-.08.635-.171a4.21 4.21 0 0 0 .429-.21c1.552-.855 1.512-2.954 1.512-2.954s6.094-1.789 7.765 0c.223.242.42.509.583.795 1.044 1.808.93 4.221.93 4.221s.309 1.944.793 4.158c.484 2.214-9.015.938-9.015.938z" fill="#2D293D"/><path d="M296.231 207.725c.298.324.547.69.739 1.086l-9.13 1.061a4.11 4.11 0 0 0 .631-2.15s6.093-1.785 7.76.003zM323.986 205.782v1.713c-1.42 2.341-8.292 1.828-10.289.656a4.21 4.21 0 0 0 .429-.21c1.552-.856 1.512-2.954 1.512-2.954s6.094-1.79 7.765 0c.223.242.42.509.583.795z" fill="#000" opacity=".1"/><path d="M325.07 198.396a15.592 15.592 0 0 0-1.084 2.333v6.142c-1.556 2.564-9.626 1.71-10.717.31-1.092-1.4-2.231-5.04-1.005-5.672 1.227-.632 2.251-3.733 2.251-3.733s-1.322.31-3.418-2.178c-2.096-2.489-1.472-8.006-1.083-9.326.389-1.32 0-5.752 0-5.752s.079-3.112-.54-4.122c-.62-1.01-1.941-6.757-1.941-6.757s0-1.944-1.088-2.954c-1.088-1.01-1.786-4.976-1.786-4.976a5.106 5.106 0 0 1-.774-3.343c.23-1.944-1.322-4.043-1.322-4.043l-2.64-8.4-2.485-6.296-1.397 3.653s-.397 8.55-.076 10.335c.322 1.785.794 6.531.794 6.531s-1.552 3.109-.853 5.752c.699 2.644.445 8.324.445 8.324s.698 11.734.075 12.668c-.623.934-.544 3.268-.544 3.268s3.176 6.837 2.175 7.771c-1 .934-.698 3.498-.698 3.498s2.171 0 1.242.934c-.929.934-1.631 5.832-1.631 5.832l-9.388 1.1s-.858-1.085-2.1-3.974c-1.242-2.89.23-2.564 1.48-2.878 1.251-.314.461-1.086-1.016-2.02-1.476-.934-.619-3.033-.619-3.033s2.25-3.808 1.473-4.118c-.778-.31-.854-5.676-.854-5.676s-1.552-6.36-1.163-8.085c.39-1.725-1.242-5.828-1.242-5.828l-.544-4.897a13.491 13.491 0 0 1-1.707-9.254v-7.552s-2.175-14.613-2.485-21.998c-.198-4.73-.143-11.186-.08-15.213.04-2.257.08-3.756.08-3.756l33.535-3.498s-.032 1.55.607 4.989c.345 1.844.881 4.233 1.723 7.218 2.405 8.55.933 14.923.933 14.923l-.314 10.808s2.95 7.226 2.33 9.715a20.749 20.749 0 0 0-.627 4.515s6.597 15.781 5.899 20.368c-.699 4.588 2.171 11.818 2.171 11.818s.786 5.128.008 6.527z" fill="#464353"/><path d="M305.897 157.898l10.21-1.363s-5.784 5.91-10.21 1.363z" fill="#000" opacity=".05"/><path d="M314.63 146.546s.35 3.617-1.862 4.977c0 0 3.958-.62 1.862-4.977zM314.003 135.042s-8.535 7.036-11.639 6.452c-3.104-.585 11.639-6.452 11.639-6.452zM293.242 161.198s-6.482 1.474-6.676 4.082c-.195 2.608 6.676-4.082 6.676-4.082z" fill="#000" opacity=".1"/><path d="M294.667 193.618s-9.157 1.71-6.557 2.874c2.6 1.165 6.871 2.099 6.871 2.099s2.957.155-.314-4.973z" fill="#000" opacity=".05"/><g opacity=".05" fill="#000"><path d="M286.26 198.344a1.809 1.809 0 0 1-.838-1.327l-.095.163s-.853 2.099.623 3.029c.167.107.33.214.477.318.274-.052.567-.092.85-.163 1.25-.31.46-1.085-1.017-2.02zM298.057 197.72c.254-.23.247-.826.092-1.59-.397.6-.512 1.539-.52 2.25a1.94 1.94 0 0 1 .428-.66zM296.648 159.047c-.337.92-.545 1.882-.619 2.858.177-.674.415-1.332.71-1.963l-.09-.895zM317.623 154.969c.061-.28.09-.565.083-.85-.115.58-.194 1.116-.254 1.59.052-.243.108-.474.171-.74zM296.43 186.686c.127-.191.198-.835.23-1.73a5.878 5.878 0 0 0-.448 2.183c.054-.16.127-.312.218-.453zM298.335 201.346a30.89 30.89 0 0 0-1.068 4.77l-9.387 1.085s-.858-1.085-2.1-3.975a7.2 7.2 0 0 1-.266-.684c-.564.258-.794.843-.048 2.548 1.243 2.878 2.104 3.975 2.104 3.975l9.388-1.09s.698-4.896 1.627-5.83c.477-.45.183-.684-.25-.8zM285.95 187.385s.076 5.363.854 5.673c.397-.887.655-1.73.306-1.869-.794-.31-.854-5.676-.854-5.676s-1.552-6.36-1.163-8.085c.389-1.725-1.242-5.828-1.242-5.828l-.544-4.897a13.491 13.491 0 0 1-1.707-9.254v-7.552s-2.175-14.612-2.485-21.998c-.199-4.73-.143-11.186-.08-15.213 0-.727.024-1.37.036-1.915l-.266.027s-.043 1.495-.08 3.757c-.063 4.026-.122 10.482.08 15.208.31 7.386 2.481 22.002 2.481 22.002v7.553a13.5 13.5 0 0 0 1.711 9.25l.54 4.897s1.631 4.118 1.242 5.831 1.171 8.09 1.171 8.09zM313.586 205.106a9.098 9.098 0 0 1-1.488-3.693c-.957.867.142 4.23 1.19 5.565 1.084 1.4 9.158 2.254 10.718-.314v-1.479c-2.116 2.08-9.396 1.245-10.42-.08zM325.383 196.321c-.425.747-.789 1.527-1.087 2.333v1.102c.178-.398.429-.93.794-1.559a4.776 4.776 0 0 0 .341-1.928s-.036.036-.048.052zM314.062 197.55a15.38 15.38 0 0 0 .767-1.849s-1.322.31-3.418-2.178c-1.524-1.809-1.612-5.227-1.393-7.461-.397 1.323-1.013 6.84 1.083 9.329 1.37 1.626 2.406 2.055 2.961 2.158zM310.014 180.31c.137 1.531.188 3.07.154 4.607.04-.243.092-.483.16-.72.396-1.323 0-5.752 0-5.752s.079-3.112-.545-4.122c-.623-1.01-1.92-6.765-1.92-6.765s0-1.944-1.089-2.954c-1.087-1.01-1.786-4.976-1.786-4.976a5.121 5.121 0 0 1-.794-3.343c.234-1.944-1.318-4.043-1.318-4.043l-2.64-8.395-2.484-6.297-1.401 3.657s0 .461-.048 1.193l1.135-2.97 2.485 6.285 2.64 8.395s1.552 2.1 1.318 4.043a5.121 5.121 0 0 0 .794 3.343s.698 3.975 1.786 4.977c1.087 1.001 1.084 2.953 1.084 2.953s1.321 5.752 1.94 6.758c.62 1.005.529 4.126.529 4.126z"/></g><path d="M316.531 37.288l-.583 2.838.036 1.264.024.93-3.24.334-.36-.671c-.672-1.217-2.065-3.69-2.514-4.07-.599-.502-1.667-8.396-.396-7.927a3.388 3.388 0 0 1 1.802 1.634s6.379.731 5.231 5.668z" fill="#FFCDD3"/><path d="M316.008 42.32l-3.24.334-.36-.671a2.851 2.851 0 0 1 3.572-.589l.028.927z" fill="#000" opacity=".1"/><path d="M316.825 43.859l-4.271.99-.091-.636-.242-1.714s1.69-2.257 4.136-.564l.214.87.254 1.054z" fill="#7980CA"/><path d="M247.637 37.598l-4.561 2.449-.397-.859c-.433-.91-1.08-2.281-1.259-2.782-.27-.756-2.17-1.71-2.17-1.71-4.764-4.567.912-8.494.912-8.494 3.01-6.062 6.351 2.059 6.351 2.059s.469 4.28.14 4.567c-.33.286-.33 1.459-.33 1.459.435.84.802 1.713 1.1 2.612.138.433.214.7.214.7z" fill="#FFCDD3"/><path d="M247.637 37.598l-4.561 2.449-.397-.859c.643-.54 2.925-2.385 3.676-2.31.358.045.72.055 1.08.029.126.425.202.691.202.691z" fill="#000" opacity=".1"/><path d="M248.101 38.978l-5.124 2.528-.104-1.101-.071-.764s2.97-2.548 3.846-2.448c.444.064.894.064 1.338 0l.06.922.055.863z" fill="#7980CA"/><path d="M304.11 56.142s-22.34 2.524-18.164 1.164c2.906-.95 4.061-2.782 4.303-4.85.199-1.72-.246-3.577-.83-5.167a22.543 22.543 0 0 0-1.984-4.042s17.069-9.405 13.66-.855a13.801 13.801 0 0 0-.97 4.05 11.46 11.46 0 0 0 .441 4.103 12.217 12.217 0 0 0 3.545 5.597z" fill="#FFCDD3"/><path d="M301.082 42.38a13.801 13.801 0 0 0-.968 4.05c-1.608 1.356-3.37 1.265-5.637 1.265-1.739 0-3.668.421-5.057-.418a22.543 22.543 0 0 0-1.985-4.042s17.065-9.405 13.647-.855z" fill="#000" opacity=".1"/><ellipse fill="#FFCDD3" cx="294.175" cy="39.041" rx="9.237" ry="9.25"/><path d="M304.11 56.142s-22.34 2.524-18.164 1.164c2.906-.95 4.061-2.782 4.303-4.85 1.112-1.192 3.347-2.078 4.764-2.54a6.676 6.676 0 0 1 4.049-.067c.52.157 1.016.388 1.472.684a12.217 12.217 0 0 0 3.577 5.609zM316.825 43.859l-4.271.99-.091-.636a3.776 3.776 0 0 1 4.108-1.408l.254 1.054zM248.101 38.978l-5.124 2.528-.104-1.101a37.35 37.35 0 0 1 5.16-2.294l.068.867zM312.947 112.512c-8.657 1.383-20.963 3.148-22.916 2.552-1.623-.493-6.8-.442-11.305-.287.04-2.257.08-3.756.08-3.756l33.534-3.498s-.032 1.55.607 4.989z" fill="#000" opacity=".1"/><path d="M321.577 110.476s-28.49 4.898-31.546 3.975c-3.056-.922-18.756.076-18.756.076-7.066 4.742-4.116-2.254-4.116-2.254s-.62-3.653.234-6.606c.573-2.169.965-4.381 1.171-6.615 0 0-.155-4.667.699-5.756.853-1.089 1.865-8.86 1.865-8.86s.774-5.287.699-6.452c-.076-1.164.23-4.432.23-4.432l1.012-5.441c-5.823-.776-23.523-11.66-23.523-11.66-.853-3.652-7.45-12.203-7.45-12.203a9.006 9.006 0 0 0-.545-2.098c-.464-1.245 6.522-3.733 6.522-3.733s5.2 6.36 6.288 8.085c1.088 1.725 4.811 4.897 4.811 4.897a3.738 3.738 0 0 1 1.707.223l.091.028c1.248.49 2.418 1.16 3.474 1.987 1.75-.041 3.448.6 4.735 1.79 0 0 3.176-.47 3.728.075.551.544 3.259 0 3.259 0s2.715-5.752 4.501-4.083c1.786 1.67 9.364 1.59 9.364 1.59 1.008-1.343 3.465-2.305 5.002-2.782a6.704 6.704 0 0 1 4.049-.068c.57.171 1.108.44 1.587.795l4.609 4.508s1.318-1.713 1.163-2.099c-.155-.385 1.552-.7 1.552-.7s2.25-.7 3.104-.934c.854-.234 1.636.692 1.707.776-.028-.1-.611-1.988-.397-3.419.215-1.431-.933-2.783-.933-2.783 2.715-6.686 8.848-1.089 8.848-1.089s.699 3.653.08 5.053c-.62 1.399.619 4.352.464 5.131-.155.78.314 2.1.314 3.578 0 1.479-.794 4.273-1.243 5.517-.448 1.244-4.191 4.043-4.191 4.043s-.235 4.432-1.866 6.996c-1.632 2.564-.607 11.333-.607 11.333s1.552 6.84 3.493 9.019c1.94 2.178 4.81 14.592 4.81 14.592z" fill="#3F3D56"/><path d="M280.048 59.326s-.854-2.564-1.632-2.783a17.946 17.946 0 0 1-2.25-1.01l.5-.957s2.913.795 3.382 1.657c.468.863 0 3.093 0 3.093zM264.444 53.653c-.155.795-7.066 1.475-7.066 1.475l3.493-3.506.087.032a13.833 13.833 0 0 1 3.486 2z" fill="#000" opacity=".1"/><ellipse fill="#575988" cx="244.453" cy="42.984" rx="1" ry="1"/><ellipse fill="#575988" cx="245.247" cy="44.229" rx="1" ry="1"/><ellipse fill="#575988" cx="246.025" cy="45.377" rx="1" ry="1"/><ellipse fill="#575988" cx="246.839" cy="46.618" rx="1" ry="1"/><ellipse fill="#575988" cx="320.013" cy="46.55" rx="1" ry="1"/><ellipse fill="#575988" cx="320.092" cy="47.699" rx="1" ry="1"/><ellipse fill="#575988" cx="320.16" cy="48.844" rx="1" ry="1"/><path d="M280.076 80.393c-.076-.091 17.426 22.038 31.01 9.25.011.004-21.452 2.918-31.01-9.25zM270.033 91.897s10.471.286 11.567 3.303v3.14a2.006 2.006 0 0 1-1.95 0c-1.055-.572-7.386-3.792-9.617-2.241v-4.202z" fill="#000" opacity=".1"/><path d="M270.227 91.897s10.015.274 11.063 3.152v2.99a1.919 1.919 0 0 1-1.865 0c-1.009-.541-7.062-3.614-9.198-2.135v-4.007z" fill="#3F3D56"/><path d="M275.749 69.128a33.751 33.751 0 0 0 4.06 6.976 27.351 27.351 0 0 0 6.352 6.15s-10.238-11.687-10.412-13.126zM272.323 56.945s1.747 7.552 6.248 10.116l-6.248-10.116zM269.644 57.708c-.044-.14-1.552 5.962 5.803 9.353 0 0-3.124-1.061-5.803-9.353zM315.368 52.644c-.115 0 3.629 2.385 4.649 3.498 0 0-2.438-3.657-4.649-3.498z" fill="#000" opacity=".1"/><path d="M291.678 47.424a1.46 1.46 0 0 0 1.588 1.443c2.815.175 5.748.299 8.336-.795a3.175 3.175 0 0 0 1.27-.842c.46-.569.552-1.34.739-2.047.365-1.384 1.143-2.612 1.703-3.928a13.174 13.174 0 0 0 .917-7.055 4.774 4.774 0 0 0-.707-2.064c-.746-1.069-2.108-1.502-3.096-2.353-.989-.85-1.624-2.15-2.779-2.782-1.04-.58-2.314-.51-3.485-.31a18.28 18.28 0 0 0-6.502 2.444c-.67.398-1.405.887-2.175.74-.675-.128-1.167-.696-1.588-1.229a8.62 8.62 0 0 0-.663 4.035c.03.202.022.408-.02.608-.097.242-.245.46-.433.64-.694.795-1.127 2.087-.44 2.906.297.354.758.549 1.048.91.52.648.345 1.59.333 2.417-.028.289.045.578.207.819.305.285.737.39 1.139.274a3.096 3.096 0 0 1 1.214-.115c.43.14.802.42 1.056.795 1.283 1.673 1.79 3.494 2.338 5.49z" fill="#2D293D"/><g opacity=".1" fill="#000"><path d="M303.202 46.526c-.349.38-.785.67-1.27.843-2.604 1.085-5.534.962-8.336.795a1.95 1.95 0 0 1-.87-.195c-.428-.25-.591-.775-.722-1.252-.548-1.988-1.052-3.812-2.354-5.47a2.04 2.04 0 0 0-1.056-.815 3.25 3.25 0 0 0-1.215.116 1.19 1.19 0 0 1-1.139-.27 1.246 1.246 0 0 1-.206-.82c0-.834.186-1.768-.334-2.416-.29-.362-.75-.557-1.048-.915a1.815 1.815 0 0 1-.178-1.852c-.496.795-.707 1.793-.131 2.476.297.354.758.55 1.048.91.52.653.345 1.59.333 2.418-.03.288.041.578.203.818.306.287.74.391 1.143.275a3.096 3.096 0 0 1 1.214-.116c.43.14.802.42 1.056.795 1.298 1.658 1.806 3.479 2.354 5.474.064.491.31.94.687 1.26.272.131.571.197.873.191 2.815.175 5.748.302 8.336-.795a3.144 3.144 0 0 0 1.27-.843 2.43 2.43 0 0 0 .397-.747c.004.052-.023.095-.055.135zM285.236 33.047a1.36 1.36 0 0 0 .282-.47 1.735 1.735 0 0 0 0-.607 8.633 8.633 0 0 1 .432-3.347l-.051-.06a8.557 8.557 0 0 0-.663 4.03c.012.151.012.303 0 .454z"/></g><path d="M290.031 53.03s11.54 1.534 12.575-.203M312.463 48.247s6.414 0 7.824 2.417" fill="#000" opacity=".1"/><path d="M348.351 262.959a10.166 10.166 0 0 1-6.927 2.591c-.65 0-1.552.123-1.556.775.016.192.082.375.19.533a6.372 6.372 0 0 0 3.573 2.81c1.39.422 2.874.35 4.323.275l4.228-.219c.794-.044 1.587-.083 2.381-.183.794-.1 1.66-.262 2.49-.397 2.038-.29 4.1-.386 6.156-.287.548.02 1.19 0 1.516-.397.326-.398.159-1.157.036-1.753-.254-1.228 0-2.516-.234-3.748-.397-2.163-2.267-3.82-4.315-4.604-1.905-.723-5.28-1.554-7.082-.345-1.901 1.268-3.064 3.386-4.779 4.949z" fill="#3F3D56"/><path d="M352.55 190.51c.374 1.776 2.093 3.136 2.14 4.949.044 1.454-.992 2.675-1.738 3.919a26.166 26.166 0 0 0-1.775 4.023 61.484 61.484 0 0 1-5.208 10.374c-.992 1.59-2.103 3.288-1.877 5.136.158.865.463 1.695.9 2.457l2.978 5.923a17.166 17.166 0 0 1 1.52 3.74c.258 1.125.282 2.29.433 3.435.468 3.633 2.171 7.29 1.163 10.812-.087.302-.397.667-.64.457.985 1.84 1.775 3.693 1.7 5.78-.04 1.093-.373 2.233.028 3.251.17.425.468.823.464 1.28 0 .302-.139.584-.17.878-.084.84.686 1.539 1.484 1.805.798.266 1.667.247 2.473.489 1.548.465 2.656 1.8 3.97 2.727a8.443 8.443 0 0 0 4.572 1.49 1.15 1.15 0 0 0 .675-.135c.236-.206.372-.505.373-.818a4.55 4.55 0 0 0-1.635-3.952 1.788 1.788 0 0 1-.607-.636 1.536 1.536 0 0 1-.056-.711 53.65 53.65 0 0 0-.175-9.779 14.871 14.871 0 0 1-.154-3.112c.083-.867.345-1.725.25-2.588-.096-.863-.536-1.65-.794-2.48-.46-1.48-.334-3.07-.397-4.615-.08-2.688-.695-5.327-1.306-7.95-.242-1.03-.508-2.107-1.235-2.87-.619-.648-1.62-1.268-1.385-2.131.13-.318.323-.606.568-.847.58-.73.836-1.667.706-2.591a1.163 1.163 0 0 0 1.338-.629c4.835-2.285 8.733-6.856 10.471-11.925.103-.376.26-.735.469-1.065.448-.628 1.226-.898 1.917-1.244 2.167-1.093 3.664-3.14 5.037-5.144.794-1.16 1.588-2.36 1.945-3.728.188-.885.277-1.787.266-2.691l.123-4.671a2.527 2.527 0 0 0-.087-.914 2.286 2.286 0 0 0-.504-.74 8.963 8.963 0 0 0-4.946-2.67c-1.27-.228-2.568-.184-3.854-.291-2.493-.207-4.954-.982-7.447-.795-3.918.29-7.407 3.009-9.253 6.483-.647 1.224-1.33 2.29-2.72 2.314z" fill="#464353"/><path d="M330.798 160.14a5.226 5.226 0 0 1-.286 2.127c-.306.652-1.072 1.16-1.743.894.203-.457-.333-.977-.833-.922-.5.116-.91.47-1.1.946a3.522 3.522 0 0 0-.317 2.159c.159.914.686 1.792.548 2.71-.112.764-.671 1.523-.374 2.23.194.324.436.615.719.863a2.435 2.435 0 0 1-.258 3.34l7.51.15c-.274 1.256.29 2.54.933 3.657a23.021 23.021 0 0 0 17.164 11.222 1.495 1.495 0 0 0-.361 2.286c.611.608 1.647.532 2.413.139.767-.394 1.366-1.046 2.065-1.55a6.345 6.345 0 0 1 4.243-1.145c.94.091 1.854.397 2.798.445 2.78.147 5.16-1.857 7.836-2.675 1.95-.6 4.16-.6 5.796-1.821.706-.525 1.286-1.387 1.08-2.238a3.741 3.741 0 0 0-.794-1.316c-.941-1.22-1.497-2.687-2.172-4.074a24.368 24.368 0 0 0-5.426-7.282 48.558 48.558 0 0 0-5.383-4.087 9.175 9.175 0 0 0-1.453-.878c-.659-.29-1.389-.43-1.984-.795-.882-.557-1.39-1.538-2.068-2.33-1.489-1.74-3.775-2.54-5.61-3.907-1.23-.918-2.318-2.127-3.786-2.568-.715-.218-1.473-.234-2.187-.449-1.624-.493-2.807-1.936-4.399-2.52-1.258-.461-2.647-.342-3.97-.505a9.285 9.285 0 0 1-4.147-1.582 4.92 4.92 0 0 0-1.322-.771c-2.013-.612-2.175 3.14-2.382 4.44-.266 1.932-.75 3.852-.75 5.807z" fill="#7980CA"/><path d="M332.759 172.725c.337 3.665-2.426 7.215-1.62 10.804.171.764.5 1.491.62 2.266.337 2.127-.933 4.142-2.144 5.923l-10.4 15.284a9.61 9.61 0 0 1-1.485 1.836c-1.984 1.77-4.97 1.59-7.581 2.115a13.09 13.09 0 0 0-5.081 2.25.33.33 0 0 0-.064.457 4.364 4.364 0 0 0 3.775 1.777c.274.358 0 .89-.377 1.149-.556.397-1.326.489-1.437 1.439-.038.33.029.664.19.954a2.965 2.965 0 0 0 1.819 1.264c3.6 1.105 7.49-.835 10.185-3.47 2.696-2.636 4.629-5.963 7.272-8.642 1.465-1.487 3.128-2.755 4.637-4.194 3.009-2.874 5.35-6.36 7.605-9.854.68-1.053 1.366-2.134 1.648-3.355.282-1.22.15-2.456.472-3.637.42-1.546 1.552-2.782 2.493-4.078 1.846-2.544 3.08-5.657 2.834-8.793-.246-3.136-2.183-6.229-5.136-7.294a4.61 4.61 0 0 0-2.878-.175c-1.21.374-2.104 1.375-2.93 2.337l-1.984 2.282a5.323 5.323 0 0 0-1.116 1.753 1.834 1.834 0 0 0 .397 1.948" fill="#FBBEBE"/><path d="M338.03 157.692c-1.365.08-2.87.214-3.834 1.192a5.467 5.467 0 0 0-.969 1.519c-.937 1.912-1.85 3.911-1.917 6.042-.056 1.701.437 3.367.695 5.048.214 1.4-.33 2.826-.433 4.241 1.695-.52 3.934-1.228 5.47-2.106 1.048-.6 2.06-1.284 3.203-1.666 1.632-.544 4.367.398 5.919 1.153.083-1.09-.735-2.99-.647-4.082.012-.46.094-.916.242-1.352.232-.46.507-.899.822-1.308a5.356 5.356 0 0 0-.48-6.268c-1.378-1.55-3.534-2.131-5.59-2.385-1.295-.15-2.6-.196-3.902-.136" fill="#7980CA"/></g></svg>